G04 #@! TF.GenerationSoftware,KiCad,Pcbnew,9.0.6*
G04 #@! TF.CreationDate,2025-12-23T18:22:04-05:00*
G04 #@! TF.ProjectId,project-bed-light,70726f6a-6563-4742-9d62-65642d6c6967,rev?*
G04 #@! TF.SameCoordinates,Original*
G04 #@! TF.FileFunction,Legend,Top*
G04 #@! TF.FilePolarity,Positive*
%FSLAX46Y46*%
G04 Gerber Fmt 4.6, Leading zero omitted, Abs format (unit mm)*
G04 Created by KiCad (PCBNEW 9.0.6) date 2025-12-23 18:22:04*
%MOMM*%
%LPD*%
G01*
G04 APERTURE LIST*
%ADD10C,0.300000*%
%ADD11C,0.127000*%
%ADD12C,0.200000*%
%ADD13C,0.120000*%
G04 APERTURE END LIST*
D10*
G36*
X71195732Y-73558033D02*
G01*
X71119115Y-73592303D01*
X71058881Y-73636005D01*
X71012491Y-73689254D01*
X70978597Y-73753270D01*
X70957176Y-73830256D01*
X70949535Y-73923207D01*
X70958960Y-74020283D01*
X70985893Y-74103199D01*
X71029699Y-74174812D01*
X71091593Y-74236998D01*
X71164833Y-74284669D01*
X71252649Y-74320321D01*
X71357854Y-74343139D01*
X71483878Y-74351304D01*
X71602417Y-74342939D01*
X71705582Y-74319079D01*
X71795812Y-74280889D01*
X71875063Y-74228572D01*
X71943058Y-74161633D01*
X71990125Y-74088147D01*
X72018404Y-74006649D01*
X72028112Y-73914781D01*
X72020693Y-73846545D01*
X71990743Y-73753214D01*
X71964827Y-73700700D01*
X71932033Y-73652464D01*
X71890060Y-73610161D01*
X71830642Y-73570673D01*
X71762076Y-73542102D01*
X71682264Y-73526526D01*
X71682264Y-73874938D01*
X71418482Y-73874938D01*
X71418482Y-73262103D01*
X72245000Y-73262103D01*
X72245000Y-73450963D01*
X72050368Y-73488699D01*
X72129432Y-73552313D01*
X72189857Y-73617995D01*
X72234100Y-73686078D01*
X72265260Y-73760911D01*
X72284933Y-73848253D01*
X72291894Y-73950501D01*
X72282465Y-74072551D01*
X72255042Y-74183124D01*
X72210138Y-74284207D01*
X72147201Y-74377355D01*
X72064657Y-74463594D01*
X71970626Y-74535368D01*
X71867413Y-74591389D01*
X71753743Y-74632137D01*
X71627958Y-74657363D01*
X71488091Y-74666102D01*
X71344759Y-74657125D01*
X71217159Y-74631324D01*
X71103070Y-74589840D01*
X71000629Y-74533035D01*
X70908411Y-74460480D01*
X70828498Y-74373560D01*
X70766933Y-74278058D01*
X70722561Y-74172758D01*
X70695219Y-74055908D01*
X70685753Y-73925314D01*
X70695157Y-73787099D01*
X70721949Y-73666903D01*
X70764732Y-73561934D01*
X70823140Y-73469923D01*
X70897942Y-73390031D01*
X70983748Y-73329448D01*
X71082172Y-73286776D01*
X71195732Y-73262103D01*
X71195732Y-73558033D01*
G37*
G36*
X72245000Y-72100545D02*
G01*
X71187306Y-72715396D01*
X72245000Y-72715396D01*
X72245000Y-73030194D01*
X70715062Y-73030194D01*
X70715062Y-72707061D01*
X71755995Y-72100545D01*
X70715062Y-72100545D01*
X70715062Y-71785746D01*
X72245000Y-71785746D01*
X72245000Y-72100545D01*
G37*
G36*
X71629122Y-70189863D02*
G01*
X71760596Y-70213860D01*
X71875957Y-70251982D01*
X71977372Y-70303450D01*
X72066580Y-70368191D01*
X72127320Y-70430699D01*
X72176043Y-70507372D01*
X72212787Y-70600659D01*
X72236477Y-70713843D01*
X72245000Y-70850876D01*
X72245000Y-71448966D01*
X70715062Y-71448966D01*
X70715062Y-70850876D01*
X70978845Y-70850876D01*
X70978845Y-71134167D01*
X71981217Y-71134167D01*
X71981217Y-70850876D01*
X71971364Y-70758314D01*
X71943684Y-70683193D01*
X71899023Y-70621628D01*
X71835565Y-70571398D01*
X71749097Y-70532272D01*
X71633469Y-70506030D01*
X71481038Y-70496236D01*
X71327870Y-70506047D01*
X71211724Y-70532330D01*
X71124911Y-70571502D01*
X71061239Y-70621764D01*
X71016456Y-70683329D01*
X70988716Y-70758406D01*
X70978845Y-70850876D01*
X70715062Y-70850876D01*
X70720374Y-70733369D01*
X70734958Y-70637639D01*
X70757103Y-70560258D01*
X70790824Y-70487798D01*
X70835382Y-70424101D01*
X70891375Y-70368191D01*
X70982376Y-70303175D01*
X71084854Y-70251650D01*
X71200409Y-70213625D01*
X71331029Y-70189780D01*
X71479023Y-70181437D01*
X71629122Y-70189863D01*
G37*
G36*
X71941966Y-23445732D02*
G01*
X71907696Y-23369115D01*
X71863994Y-23308881D01*
X71810745Y-23262491D01*
X71746729Y-23228597D01*
X71669743Y-23207176D01*
X71576792Y-23199535D01*
X71479716Y-23208960D01*
X71396800Y-23235893D01*
X71325187Y-23279699D01*
X71263001Y-23341593D01*
X71215330Y-23414833D01*
X71179678Y-23502649D01*
X71156860Y-23607854D01*
X71148695Y-23733878D01*
X71157060Y-23852417D01*
X71180920Y-23955582D01*
X71219110Y-24045812D01*
X71271427Y-24125063D01*
X71338366Y-24193058D01*
X71411852Y-24240125D01*
X71493350Y-24268404D01*
X71585218Y-24278112D01*
X71653454Y-24270693D01*
X71746785Y-24240743D01*
X71799299Y-24214827D01*
X71847535Y-24182033D01*
X71889838Y-24140060D01*
X71929326Y-24080642D01*
X71957897Y-24012076D01*
X71973473Y-23932264D01*
X71625061Y-23932264D01*
X71625061Y-23668482D01*
X72237896Y-23668482D01*
X72237896Y-24495000D01*
X72049036Y-24495000D01*
X72011300Y-24300368D01*
X71947686Y-24379432D01*
X71882004Y-24439857D01*
X71813921Y-24484100D01*
X71739088Y-24515260D01*
X71651746Y-24534933D01*
X71549498Y-24541894D01*
X71427448Y-24532465D01*
X71316875Y-24505042D01*
X71215792Y-24460138D01*
X71122644Y-24397201D01*
X71036405Y-24314657D01*
X70964631Y-24220626D01*
X70908610Y-24117413D01*
X70867862Y-24003743D01*
X70842636Y-23877958D01*
X70833897Y-23738091D01*
X70842874Y-23594759D01*
X70868675Y-23467159D01*
X70910159Y-23353070D01*
X70966964Y-23250629D01*
X71039519Y-23158411D01*
X71126439Y-23078498D01*
X71221941Y-23016933D01*
X71327241Y-22972561D01*
X71444091Y-22945219D01*
X71574685Y-22935753D01*
X71712900Y-22945157D01*
X71833096Y-22971949D01*
X71938065Y-23014732D01*
X72030076Y-23073140D01*
X72109968Y-23147942D01*
X72170551Y-23233748D01*
X72213223Y-23332172D01*
X72237896Y-23445732D01*
X71941966Y-23445732D01*
G37*
G36*
X73399454Y-24495000D02*
G01*
X72784603Y-23437306D01*
X72784603Y-24495000D01*
X72469805Y-24495000D01*
X72469805Y-22965062D01*
X72792938Y-22965062D01*
X73399454Y-24005995D01*
X73399454Y-22965062D01*
X73714253Y-22965062D01*
X73714253Y-24495000D01*
X73399454Y-24495000D01*
G37*
G36*
X74766630Y-22970374D02*
G01*
X74862360Y-22984958D01*
X74939741Y-23007103D01*
X75012201Y-23040824D01*
X75075898Y-23085382D01*
X75131808Y-23141375D01*
X75196824Y-23232376D01*
X75248349Y-23334854D01*
X75286374Y-23450409D01*
X75310219Y-23581029D01*
X75318562Y-23729023D01*
X75310136Y-23879122D01*
X75286139Y-24010596D01*
X75248017Y-24125957D01*
X75196549Y-24227372D01*
X75131808Y-24316580D01*
X75069300Y-24377320D01*
X74992627Y-24426043D01*
X74899340Y-24462787D01*
X74786156Y-24486477D01*
X74649123Y-24495000D01*
X74051033Y-24495000D01*
X74051033Y-24231217D01*
X74365832Y-24231217D01*
X74649123Y-24231217D01*
X74741685Y-24221364D01*
X74816806Y-24193684D01*
X74878371Y-24149023D01*
X74928601Y-24085565D01*
X74967727Y-23999097D01*
X74993969Y-23883469D01*
X75003763Y-23731038D01*
X74993952Y-23577870D01*
X74967669Y-23461724D01*
X74928497Y-23374911D01*
X74878235Y-23311239D01*
X74816670Y-23266456D01*
X74741593Y-23238716D01*
X74649123Y-23228845D01*
X74365832Y-23228845D01*
X74365832Y-24231217D01*
X74051033Y-24231217D01*
X74051033Y-22965062D01*
X74649123Y-22965062D01*
X74766630Y-22970374D01*
G37*
G36*
X60885369Y-73381489D02*
G01*
X61131566Y-73381489D01*
X61131566Y-73763424D01*
X61518447Y-73763424D01*
X61518447Y-74013101D01*
X61131566Y-74013101D01*
X61131566Y-74395036D01*
X60885369Y-74395036D01*
X60885369Y-74013101D01*
X60504351Y-74013101D01*
X60504351Y-73763424D01*
X60885369Y-73763424D01*
X60885369Y-73381489D01*
G37*
G36*
X60449213Y-72194103D02*
G01*
X60530098Y-72200242D01*
X60604291Y-72218181D01*
X60672970Y-72247684D01*
X60765854Y-72308815D01*
X60841222Y-72383055D01*
X60966702Y-72550942D01*
X61026736Y-72635262D01*
X61092182Y-72716721D01*
X61163496Y-72786969D01*
X61231217Y-72830020D01*
X61231217Y-72200423D01*
X61495000Y-72200423D01*
X61495000Y-73211954D01*
X61359137Y-73196598D01*
X61252073Y-73168192D01*
X61168477Y-73129064D01*
X61093808Y-73074078D01*
X61010009Y-72989537D01*
X60915503Y-72867755D01*
X60795200Y-72703259D01*
X60713957Y-72605884D01*
X60661429Y-72555063D01*
X60603149Y-72518381D01*
X60535335Y-72495829D01*
X60455532Y-72487927D01*
X60383619Y-72494759D01*
X60326485Y-72513680D01*
X60280960Y-72543523D01*
X60246059Y-72584447D01*
X60224700Y-72634896D01*
X60217121Y-72697762D01*
X60225157Y-72761714D01*
X60247833Y-72812814D01*
X60285081Y-72854108D01*
X60333388Y-72883695D01*
X60395313Y-72902750D01*
X60474583Y-72909704D01*
X60521936Y-72909704D01*
X60521936Y-73190888D01*
X60474309Y-73192995D01*
X60357262Y-73183976D01*
X60259340Y-73158631D01*
X60177133Y-73118551D01*
X60108036Y-73063943D01*
X60052297Y-72995676D01*
X60011571Y-72914758D01*
X59985903Y-72818674D01*
X59976786Y-72704082D01*
X59985654Y-72587177D01*
X60010708Y-72488057D01*
X60050519Y-72403649D01*
X60104922Y-72331581D01*
X60173209Y-72272295D01*
X60251862Y-72229747D01*
X60342915Y-72203362D01*
X60449213Y-72194103D01*
G37*
G36*
X61160875Y-71168191D02*
G01*
X61495000Y-71168191D01*
X61495000Y-71462015D01*
X61160875Y-71462015D01*
X61160875Y-72057998D01*
X60916327Y-72057998D01*
X60006095Y-71514497D01*
X60006095Y-71462015D01*
X60285081Y-71462015D01*
X60920540Y-71850270D01*
X60920540Y-71462015D01*
X60285081Y-71462015D01*
X60006095Y-71462015D01*
X60006095Y-71168191D01*
X60920540Y-71168191D01*
X60920540Y-71012944D01*
X61160875Y-71012944D01*
X61160875Y-71168191D01*
G37*
G36*
X61495000Y-70117184D02*
G01*
X61495000Y-70383622D01*
X59965062Y-70899921D01*
X59965062Y-70583016D01*
X61117278Y-70243030D01*
X59965062Y-69909364D01*
X59965062Y-69592550D01*
X61495000Y-70117184D01*
G37*
G36*
X71618510Y-38385369D02*
G01*
X71618510Y-38631566D01*
X71236575Y-38631566D01*
X71236575Y-39018447D01*
X70986898Y-39018447D01*
X70986898Y-38631566D01*
X70604963Y-38631566D01*
X70604963Y-38385369D01*
X70986898Y-38385369D01*
X70986898Y-38004351D01*
X71236575Y-38004351D01*
X71236575Y-38385369D01*
X71618510Y-38385369D01*
G37*
G36*
X72805896Y-37949213D02*
G01*
X72799757Y-38030098D01*
X72781818Y-38104291D01*
X72752315Y-38172970D01*
X72691184Y-38265854D01*
X72616944Y-38341222D01*
X72449057Y-38466702D01*
X72364737Y-38526736D01*
X72283278Y-38592182D01*
X72213030Y-38663496D01*
X72169979Y-38731217D01*
X72799576Y-38731217D01*
X72799576Y-38995000D01*
X71788045Y-38995000D01*
X71803401Y-38859137D01*
X71831807Y-38752073D01*
X71870935Y-38668477D01*
X71925921Y-38593808D01*
X72010462Y-38510009D01*
X72132244Y-38415503D01*
X72296740Y-38295200D01*
X72394115Y-38213957D01*
X72444936Y-38161429D01*
X72481618Y-38103149D01*
X72504170Y-38035335D01*
X72512072Y-37955532D01*
X72505240Y-37883619D01*
X72486319Y-37826485D01*
X72456476Y-37780960D01*
X72415552Y-37746059D01*
X72365103Y-37724700D01*
X72302237Y-37717121D01*
X72238285Y-37725157D01*
X72187185Y-37747833D01*
X72145891Y-37785081D01*
X72116304Y-37833388D01*
X72097249Y-37895313D01*
X72090295Y-37974583D01*
X72090295Y-38021936D01*
X71809111Y-38021936D01*
X71807004Y-37974309D01*
X71816023Y-37857262D01*
X71841368Y-37759340D01*
X71881448Y-37677133D01*
X71936056Y-37608036D01*
X72004323Y-37552297D01*
X72085241Y-37511571D01*
X72181325Y-37485903D01*
X72295917Y-37476786D01*
X72412822Y-37485654D01*
X72511942Y-37510708D01*
X72596350Y-37550519D01*
X72668418Y-37604922D01*
X72727704Y-37673209D01*
X72770252Y-37751862D01*
X72796637Y-37842915D01*
X72805896Y-37949213D01*
G37*
G36*
X73831808Y-38420540D02*
G01*
X73987055Y-38420540D01*
X73987055Y-38660875D01*
X73831808Y-38660875D01*
X73831808Y-38995000D01*
X73537984Y-38995000D01*
X73537984Y-38660875D01*
X72942001Y-38660875D01*
X72942001Y-38420540D01*
X73149729Y-38420540D01*
X73537984Y-38420540D01*
X73537984Y-37785081D01*
X73149729Y-38420540D01*
X72942001Y-38420540D01*
X72942001Y-38416327D01*
X73485502Y-37506095D01*
X73831808Y-37506095D01*
X73831808Y-38420540D01*
G37*
G36*
X74882815Y-38995000D02*
G01*
X74616377Y-38995000D01*
X74100078Y-37465062D01*
X74416983Y-37465062D01*
X74756969Y-38617278D01*
X75090635Y-37465062D01*
X75407449Y-37465062D01*
X74882815Y-38995000D01*
G37*
G36*
X77129122Y-31573010D02*
G01*
X77260596Y-31597008D01*
X77375957Y-31635129D01*
X77477372Y-31686597D01*
X77566580Y-31751338D01*
X77627320Y-31813846D01*
X77676043Y-31890520D01*
X77712787Y-31983807D01*
X77736477Y-32096990D01*
X77745000Y-32234023D01*
X77745000Y-32832113D01*
X76215062Y-32832113D01*
X76215062Y-32234023D01*
X76478845Y-32234023D01*
X76478845Y-32517315D01*
X77481217Y-32517315D01*
X77481217Y-32234023D01*
X77471364Y-32141461D01*
X77443684Y-32066340D01*
X77399023Y-32004776D01*
X77335565Y-31954546D01*
X77249097Y-31915419D01*
X77133469Y-31889177D01*
X76981038Y-31879383D01*
X76827870Y-31889194D01*
X76711724Y-31915477D01*
X76624911Y-31954650D01*
X76561239Y-32004911D01*
X76516456Y-32066476D01*
X76488716Y-32141554D01*
X76478845Y-32234023D01*
X76215062Y-32234023D01*
X76220374Y-32116516D01*
X76234958Y-32020786D01*
X76257103Y-31943405D01*
X76290824Y-31870945D01*
X76335382Y-31807248D01*
X76391375Y-31751338D01*
X76482376Y-31686322D01*
X76584854Y-31634797D01*
X76700409Y-31596773D01*
X76831029Y-31572928D01*
X76979023Y-31564584D01*
X77129122Y-31573010D01*
G37*
G36*
X76215062Y-31060650D02*
G01*
X77745000Y-31060650D01*
X77745000Y-31375449D01*
X76215062Y-31375449D01*
X76215062Y-31060650D01*
G37*
G36*
X77745000Y-29880133D02*
G01*
X76687306Y-30494984D01*
X77745000Y-30494984D01*
X77745000Y-30809782D01*
X76215062Y-30809782D01*
X76215062Y-30486649D01*
X77255995Y-29880133D01*
X76215062Y-29880133D01*
X76215062Y-29565334D01*
X77745000Y-29565334D01*
X77745000Y-29880133D01*
G37*
D11*
G04 #@! TO.C,S1*
X22850000Y-36850000D02*
X22850000Y-31150000D01*
X24900000Y-30850000D02*
X27100000Y-30850000D01*
X27100000Y-37150000D02*
X24900000Y-37150000D01*
X29150000Y-36850000D02*
X29150000Y-31150000D01*
D12*
X23800000Y-39550000D02*
G75*
G02*
X23600000Y-39550000I-100000J0D01*
G01*
X23600000Y-39550000D02*
G75*
G02*
X23800000Y-39550000I100000J0D01*
G01*
D13*
G04 #@! TO.C,C5*
X43859420Y-64490000D02*
X44140580Y-64490000D01*
X43859420Y-65510000D02*
X44140580Y-65510000D01*
G04 #@! TO.C,R2*
X41477500Y-71737258D02*
X41477500Y-71262742D01*
X42522500Y-71737258D02*
X42522500Y-71262742D01*
G04 #@! TO.C,C8*
X62250000Y-42240000D02*
X63500000Y-42240000D01*
X62875000Y-41615000D02*
X62875000Y-42865000D01*
X63740000Y-40804437D02*
X63740000Y-43490000D01*
X63740000Y-40804437D02*
X64804437Y-39740000D01*
X63740000Y-49195563D02*
X63740000Y-46510000D01*
X63740000Y-49195563D02*
X64804437Y-50260000D01*
X64804437Y-39740000D02*
X74260000Y-39740000D01*
X64804437Y-50260000D02*
X74260000Y-50260000D01*
X74260000Y-39740000D02*
X74260000Y-43490000D01*
X74260000Y-50260000D02*
X74260000Y-46510000D01*
G04 #@! TO.C,J3*
X24620000Y-57540000D02*
X26000000Y-57540000D01*
X24620000Y-58920000D02*
X24620000Y-57540000D01*
X24620000Y-60190000D02*
X24620000Y-65380000D01*
X24620000Y-60190000D02*
X27380000Y-60190000D01*
X24620000Y-65380000D02*
X27380000Y-65380000D01*
X27380000Y-60190000D02*
X27380000Y-65380000D01*
G04 #@! TO.C,C3*
X39490000Y-71359420D02*
X39490000Y-71640580D01*
X40510000Y-71359420D02*
X40510000Y-71640580D01*
G04 #@! TO.C,U2*
X33510000Y-27620000D02*
X33510000Y-28250000D01*
X33510000Y-27620000D02*
X36170000Y-27620000D01*
X33510000Y-29712000D02*
X33510000Y-30728000D01*
X33510000Y-32252000D02*
X33510000Y-33268000D01*
X33510000Y-34792000D02*
X33510000Y-35808000D01*
X33510000Y-37332000D02*
X33510000Y-38348000D01*
X33510000Y-39872000D02*
X33510000Y-40888000D01*
X33510000Y-42412000D02*
X33510000Y-43428000D01*
X33510000Y-44952000D02*
X33510000Y-45968000D01*
X33510000Y-47492000D02*
X33510000Y-48508000D01*
X33510000Y-50032000D02*
X33510000Y-51048000D01*
X33510000Y-52572000D02*
X33510000Y-53588000D01*
X33510000Y-55112000D02*
X33510000Y-56128000D01*
X33510000Y-57650000D02*
X33510000Y-58220000D01*
X33510000Y-58220000D02*
X36170000Y-58220000D01*
X36170000Y-27620000D02*
X36170000Y-28250000D01*
X36170000Y-29712000D02*
X36170000Y-30728000D01*
X36170000Y-32252000D02*
X36170000Y-33268000D01*
X36170000Y-34792000D02*
X36170000Y-35808000D01*
X36170000Y-37332000D02*
X36170000Y-38348000D01*
X36170000Y-39872000D02*
X36170000Y-40888000D01*
X36170000Y-42412000D02*
X36170000Y-43428000D01*
X36170000Y-44952000D02*
X36170000Y-45968000D01*
X36170000Y-47492000D02*
X36170000Y-48508000D01*
X36170000Y-50032000D02*
X36170000Y-51048000D01*
X36170000Y-52572000D02*
X36170000Y-53588000D01*
X36170000Y-55112000D02*
X36170000Y-56128000D01*
X36170000Y-57650000D02*
X36170000Y-58220000D01*
X53830000Y-27620000D02*
X53830000Y-28250000D01*
X53830000Y-27620000D02*
X56490000Y-27620000D01*
X53830000Y-29712000D02*
X53830000Y-30728000D01*
X53830000Y-32252000D02*
X53830000Y-33268000D01*
X53830000Y-34792000D02*
X53830000Y-35808000D01*
X53830000Y-37332000D02*
X53830000Y-38348000D01*
X53830000Y-39872000D02*
X53830000Y-40888000D01*
X53830000Y-42412000D02*
X53830000Y-43428000D01*
X53830000Y-44952000D02*
X53830000Y-45968000D01*
X53830000Y-47492000D02*
X53830000Y-48508000D01*
X53830000Y-50032000D02*
X53830000Y-51048000D01*
X53830000Y-52572000D02*
X53830000Y-53588000D01*
X53830000Y-55112000D02*
X53830000Y-56128000D01*
X53830000Y-57652000D02*
X53830000Y-58668000D01*
X53830000Y-60192000D02*
X53830000Y-61208000D01*
X53830000Y-62732000D02*
X53830000Y-63748000D01*
X53830000Y-65272000D02*
X53830000Y-66288000D01*
X53830000Y-67810000D02*
X53830000Y-68380000D01*
X53830000Y-68380000D02*
X56490000Y-68380000D01*
X56490000Y-27620000D02*
X56490000Y-28250000D01*
X56490000Y-29712000D02*
X56490000Y-30728000D01*
X56490000Y-32252000D02*
X56490000Y-33268000D01*
X56490000Y-34792000D02*
X56490000Y-35808000D01*
X56490000Y-37332000D02*
X56490000Y-38348000D01*
X56490000Y-39872000D02*
X56490000Y-40888000D01*
X56490000Y-42412000D02*
X56490000Y-43428000D01*
X56490000Y-44952000D02*
X56490000Y-45968000D01*
X56490000Y-47492000D02*
X56490000Y-48508000D01*
X56490000Y-50032000D02*
X56490000Y-51048000D01*
X56490000Y-52572000D02*
X56490000Y-53588000D01*
X56490000Y-55112000D02*
X56490000Y-56128000D01*
X56490000Y-57652000D02*
X56490000Y-58668000D01*
X56490000Y-60192000D02*
X56490000Y-61208000D01*
X56490000Y-62732000D02*
X56490000Y-63748000D01*
X56490000Y-65272000D02*
X56490000Y-66288000D01*
X56490000Y-67810000D02*
X56490000Y-68380000D01*
G04 #@! TO.C,R3*
X44262742Y-70227500D02*
X44737258Y-70227500D01*
X44262742Y-71272500D02*
X44737258Y-71272500D01*
G04 #@! TO.C,C1*
X46640000Y-67461252D02*
X46640000Y-66038748D01*
X49360000Y-67461252D02*
X49360000Y-66038748D01*
G04 #@! TO.C,C6*
X44038748Y-61140000D02*
X45461252Y-61140000D01*
X44038748Y-63860000D02*
X45461252Y-63860000D01*
G04 #@! TO.C,C7*
X44038748Y-57890000D02*
X45461252Y-57890000D01*
X44038748Y-60610000D02*
X45461252Y-60610000D01*
G04 #@! TO.C,U3*
X45390000Y-32000000D02*
X45390000Y-29800000D01*
X45390000Y-32000000D02*
X45390000Y-34200000D01*
X50610000Y-32000000D02*
X50610000Y-29800000D01*
X50610000Y-32000000D02*
X50610000Y-34200000D01*
X50740000Y-29340000D02*
X50410000Y-29100000D01*
X50740000Y-28860000D01*
X50740000Y-29340000D01*
G36*
X50740000Y-29340000D02*
G01*
X50410000Y-29100000D01*
X50740000Y-28860000D01*
X50740000Y-29340000D01*
G37*
G04 #@! TO.C,R1*
X54237258Y-69477500D02*
X53762742Y-69477500D01*
X54237258Y-70522500D02*
X53762742Y-70522500D01*
G04 #@! TO.C,C4*
X39490000Y-68640580D02*
X39490000Y-68359420D01*
X40510000Y-68640580D02*
X40510000Y-68359420D01*
G04 #@! TO.C,Q1*
X58000000Y-70440000D02*
X57200000Y-70440000D01*
X58000000Y-70440000D02*
X58800000Y-70440000D01*
X58000000Y-73560000D02*
X57200000Y-73560000D01*
X58000000Y-73560000D02*
X58800000Y-73560000D01*
X56700000Y-70490000D02*
X56460000Y-70160000D01*
X56940000Y-70160000D01*
X56700000Y-70490000D01*
G36*
X56700000Y-70490000D02*
G01*
X56460000Y-70160000D01*
X56940000Y-70160000D01*
X56700000Y-70490000D01*
G37*
G04 #@! TO.C,L1*
X34900000Y-60400000D02*
X35300000Y-60400000D01*
X34900000Y-66600000D02*
X34900000Y-60400000D01*
X34900000Y-66600000D02*
X35300000Y-66600000D01*
X41100000Y-60400000D02*
X40700000Y-60400000D01*
X41100000Y-66600000D02*
X40700000Y-66600000D01*
X41100000Y-66600000D02*
X41100000Y-60400000D01*
G04 #@! TO.C,C2*
X44990000Y-67640580D02*
X44990000Y-67359420D01*
X46010000Y-67640580D02*
X46010000Y-67359420D01*
D11*
G04 #@! TO.C,J2*
X62650000Y-25050000D02*
X62650000Y-25680000D01*
X62650000Y-36320000D02*
X62650000Y-36950000D01*
X62650000Y-36950000D02*
X75350000Y-36950000D01*
X75350000Y-25050000D02*
X62650000Y-25050000D01*
X75350000Y-25050000D02*
X75350000Y-25680000D01*
X75350000Y-36950000D02*
X75350000Y-36320000D01*
D12*
X77200000Y-35000000D02*
G75*
G02*
X77000000Y-35000000I-100000J0D01*
G01*
X77000000Y-35000000D02*
G75*
G02*
X77200000Y-35000000I100000J0D01*
G01*
D11*
G04 #@! TO.C,J1*
X62050000Y-61650000D02*
X62050000Y-74350000D01*
X62050000Y-74350000D02*
X62680000Y-74350000D01*
X62680000Y-61650000D02*
X62050000Y-61650000D01*
X69950000Y-61650000D02*
X69320000Y-61650000D01*
X69950000Y-74350000D02*
X69320000Y-74350000D01*
X69950000Y-74350000D02*
X69950000Y-61650000D01*
D12*
X64100000Y-75600000D02*
G75*
G02*
X63900000Y-75600000I-100000J0D01*
G01*
X63900000Y-75600000D02*
G75*
G02*
X64100000Y-75600000I100000J0D01*
G01*
D13*
G04 #@! TO.C,U1*
X42350000Y-66840000D02*
X43650000Y-66840000D01*
X42350000Y-69160000D02*
X43400000Y-69160000D01*
X43760000Y-69440000D02*
X43760000Y-69160000D01*
X44040000Y-69160000D01*
X43760000Y-69440000D01*
G36*
X43760000Y-69440000D02*
G01*
X43760000Y-69160000D01*
X44040000Y-69160000D01*
X43760000Y-69440000D01*
G37*
G04 #@! TO.C,D1*
X54400000Y-71300000D02*
X54400000Y-73260000D01*
X54400000Y-73260000D02*
X55600000Y-73260000D01*
X55600000Y-71300000D02*
X55600000Y-73260000D01*
G04 #@! TD*
M02*
