G04 #@! TF.GenerationSoftware,KiCad,Pcbnew,9.0.6*
G04 #@! TF.CreationDate,2025-12-24T09:31:40-05:00*
G04 #@! TF.ProjectId,project-bed-light,70726f6a-6563-4742-9d62-65642d6c6967,rev?*
G04 #@! TF.SameCoordinates,Original*
G04 #@! TF.FileFunction,Copper,L2,Bot*
G04 #@! TF.FilePolarity,Positive*
%FSLAX46Y46*%
G04 Gerber Fmt 4.6, Leading zero omitted, Abs format (unit mm)*
G04 Created by KiCad (PCBNEW 9.0.6) date 2025-12-24 09:31:40*
%MOMM*%
%LPD*%
G01*
G04 APERTURE LIST*
G04 #@! TA.AperFunction,ComponentPad*
%ADD10C,4.500000*%
G04 #@! TD*
G04 #@! TA.AperFunction,ComponentPad*
%ADD11R,1.700000X1.700000*%
G04 #@! TD*
G04 #@! TA.AperFunction,ComponentPad*
%ADD12C,1.700000*%
G04 #@! TD*
G04 #@! TA.AperFunction,ViaPad*
%ADD13C,0.600000*%
G04 #@! TD*
G04 #@! TA.AperFunction,Conductor*
%ADD14C,1.000000*%
G04 #@! TD*
G04 #@! TA.AperFunction,Conductor*
%ADD15C,0.200000*%
G04 #@! TD*
G04 APERTURE END LIST*
D10*
G04 #@! TO.P,H1,1,1*
G04 #@! TO.N,GND*
X24000000Y-24000000D03*
G04 #@! TD*
D11*
G04 #@! TO.P,J3,1,Pin_1*
G04 #@! TO.N,+3.3V*
X26000000Y-58920000D03*
D12*
G04 #@! TO.P,J3,2,Pin_2*
G04 #@! TO.N,+5V*
X26000000Y-61460000D03*
G04 #@! TO.P,J3,3,Pin_3*
G04 #@! TO.N,GND*
X26000000Y-64000000D03*
G04 #@! TD*
D10*
G04 #@! TO.P,H4,1,1*
G04 #@! TO.N,GND*
X76000000Y-74000000D03*
G04 #@! TD*
G04 #@! TO.P,H3,1,1*
G04 #@! TO.N,GND*
X24000000Y-74000000D03*
G04 #@! TD*
D13*
G04 #@! TO.N,GND*
X44500000Y-66500000D03*
X43000000Y-66500000D03*
X70000000Y-46000000D03*
X70000000Y-44000000D03*
X70000000Y-45000000D03*
X57250000Y-58250000D03*
X53000000Y-58250000D03*
X77000000Y-27750000D03*
X77000000Y-26250000D03*
X77000000Y-27000000D03*
X61000000Y-27750000D03*
X61000000Y-26250000D03*
X61000000Y-27000000D03*
X22500000Y-38000000D03*
X22500000Y-30000000D03*
X45000000Y-29140000D03*
X76000000Y-46000000D03*
X76000000Y-44000000D03*
X76000000Y-45000000D03*
X67250000Y-60000000D03*
X68000000Y-60000000D03*
X68750000Y-76000000D03*
X68000000Y-76000000D03*
X67250000Y-76000000D03*
X53200000Y-69000000D03*
X43750000Y-69750000D03*
X45500000Y-65750000D03*
X39000000Y-72250000D03*
X46250000Y-70750000D03*
X43750000Y-66500000D03*
X49000000Y-64250000D03*
X48250000Y-64250000D03*
X47500000Y-64250000D03*
X47500000Y-63250000D03*
X47500000Y-61750000D03*
X47500000Y-62500000D03*
X47500000Y-60000000D03*
X47500000Y-58500000D03*
X47500000Y-59250000D03*
G04 #@! TO.N,+5V*
X43500000Y-72500000D03*
X43275000Y-57000000D03*
X50000000Y-36500000D03*
G04 #@! TO.N,GND*
X68750000Y-60000000D03*
G04 #@! TD*
D14*
G04 #@! TO.N,+5V*
X50000000Y-37750000D02*
X50000000Y-36500000D01*
D15*
X50500000Y-70000000D02*
X48000000Y-72500000D01*
X48000000Y-72500000D02*
X43500000Y-72500000D01*
D14*
X26000000Y-61460000D02*
X26290000Y-61460000D01*
D15*
X48000000Y-57000000D02*
X50500000Y-59500000D01*
X43275000Y-57000000D02*
X48000000Y-57000000D01*
D14*
X26290000Y-61460000D02*
X50000000Y-37750000D01*
D15*
X50500000Y-59500000D02*
X50500000Y-70000000D01*
G04 #@! TD*
G04 #@! TA.AperFunction,Conductor*
G04 #@! TO.N,GND*
G36*
X76002992Y-21500681D02*
G01*
X76295309Y-21518362D01*
X76307164Y-21519802D01*
X76592281Y-21572051D01*
X76603883Y-21574911D01*
X76880623Y-21661147D01*
X76891786Y-21665380D01*
X77156119Y-21784347D01*
X77166704Y-21789903D01*
X77414758Y-21939856D01*
X77424583Y-21946638D01*
X77652755Y-22125399D01*
X77661704Y-22133326D01*
X77866673Y-22338295D01*
X77874600Y-22347244D01*
X77995481Y-22501538D01*
X78053356Y-22575409D01*
X78060147Y-22585248D01*
X78210096Y-22833295D01*
X78215652Y-22843880D01*
X78334616Y-23108206D01*
X78338855Y-23119384D01*
X78425087Y-23396113D01*
X78427948Y-23407721D01*
X78480196Y-23692828D01*
X78481637Y-23704695D01*
X78499319Y-23997006D01*
X78499500Y-24002984D01*
X78499500Y-73997015D01*
X78499319Y-74002993D01*
X78481637Y-74295304D01*
X78480196Y-74307171D01*
X78427948Y-74592278D01*
X78425087Y-74603886D01*
X78338855Y-74880615D01*
X78334616Y-74891793D01*
X78215652Y-75156119D01*
X78210096Y-75166704D01*
X78060147Y-75414751D01*
X78053356Y-75424590D01*
X77874600Y-75652755D01*
X77866673Y-75661704D01*
X77661704Y-75866673D01*
X77652755Y-75874600D01*
X77424590Y-76053356D01*
X77414751Y-76060147D01*
X77166704Y-76210096D01*
X77156119Y-76215652D01*
X76891793Y-76334616D01*
X76880615Y-76338855D01*
X76603886Y-76425087D01*
X76592278Y-76427948D01*
X76307171Y-76480196D01*
X76295304Y-76481637D01*
X76023993Y-76498048D01*
X76002991Y-76499319D01*
X75997015Y-76499500D01*
X24002985Y-76499500D01*
X23997008Y-76499319D01*
X23973564Y-76497900D01*
X23704695Y-76481637D01*
X23692828Y-76480196D01*
X23407721Y-76427948D01*
X23396113Y-76425087D01*
X23119384Y-76338855D01*
X23108206Y-76334616D01*
X22843880Y-76215652D01*
X22833295Y-76210096D01*
X22585248Y-76060147D01*
X22575413Y-76053358D01*
X22347244Y-75874600D01*
X22338295Y-75866673D01*
X22133326Y-75661704D01*
X22125399Y-75652755D01*
X21946638Y-75424583D01*
X21939856Y-75414758D01*
X21789903Y-75166704D01*
X21784347Y-75156119D01*
X21665383Y-74891793D01*
X21661147Y-74880623D01*
X21574911Y-74603883D01*
X21572051Y-74592278D01*
X21519803Y-74307171D01*
X21518362Y-74295303D01*
X21500681Y-74002992D01*
X21500500Y-73997015D01*
X21500500Y-63896581D01*
X24950000Y-63896581D01*
X24950000Y-64103418D01*
X24990349Y-64306272D01*
X25069501Y-64497360D01*
X25069508Y-64497374D01*
X25184405Y-64669329D01*
X25186826Y-64671750D01*
X25582210Y-64276365D01*
X25599901Y-64307007D01*
X25692993Y-64400099D01*
X25723632Y-64417788D01*
X25328249Y-64813173D01*
X25330670Y-64815594D01*
X25502625Y-64930491D01*
X25502639Y-64930498D01*
X25693727Y-65009650D01*
X25896581Y-65049999D01*
X25896586Y-65050000D01*
X26103414Y-65050000D01*
X26103418Y-65049999D01*
X26306272Y-65009650D01*
X26497360Y-64930498D01*
X26497366Y-64930495D01*
X26669333Y-64815591D01*
X26671750Y-64813173D01*
X26276366Y-64417789D01*
X26307007Y-64400099D01*
X26400099Y-64307007D01*
X26417789Y-64276366D01*
X26813173Y-64671750D01*
X26815591Y-64669333D01*
X26930495Y-64497366D01*
X26930498Y-64497360D01*
X27009650Y-64306272D01*
X27049999Y-64103418D01*
X27050000Y-64103413D01*
X27050000Y-63896586D01*
X27049999Y-63896581D01*
X27009650Y-63693727D01*
X26930498Y-63502639D01*
X26930491Y-63502625D01*
X26815594Y-63330670D01*
X26813173Y-63328249D01*
X26417788Y-63723632D01*
X26400099Y-63692993D01*
X26307007Y-63599901D01*
X26276365Y-63582210D01*
X26671750Y-63186826D01*
X26669329Y-63184405D01*
X26497374Y-63069508D01*
X26497360Y-63069501D01*
X26306272Y-62990349D01*
X26103418Y-62950000D01*
X25896581Y-62950000D01*
X25693727Y-62990349D01*
X25502639Y-63069501D01*
X25502630Y-63069505D01*
X25330665Y-63184410D01*
X25328248Y-63186825D01*
X25723633Y-63582210D01*
X25692993Y-63599901D01*
X25599901Y-63692993D01*
X25582210Y-63723633D01*
X25186825Y-63328248D01*
X25184410Y-63330665D01*
X25069505Y-63502630D01*
X25069501Y-63502639D01*
X24990349Y-63693727D01*
X24950000Y-63896581D01*
X21500500Y-63896581D01*
X21500500Y-58050253D01*
X24949500Y-58050253D01*
X24949500Y-59789746D01*
X24949501Y-59789758D01*
X24961132Y-59848227D01*
X24961133Y-59848231D01*
X25005448Y-59914552D01*
X25071769Y-59958867D01*
X25116231Y-59967711D01*
X25130241Y-59970498D01*
X25130246Y-59970498D01*
X25130252Y-59970500D01*
X26549836Y-59970500D01*
X26608027Y-59989407D01*
X26643991Y-60038907D01*
X26643991Y-60100093D01*
X26619839Y-60139504D01*
X26346383Y-60412958D01*
X26291867Y-60440735D01*
X26257067Y-60440052D01*
X26103470Y-60409500D01*
X26103465Y-60409500D01*
X25896535Y-60409500D01*
X25896532Y-60409500D01*
X25693581Y-60449869D01*
X25502402Y-60529058D01*
X25330348Y-60644020D01*
X25184020Y-60790348D01*
X25069058Y-60962402D01*
X24989869Y-61153581D01*
X24949500Y-61356532D01*
X24949500Y-61563467D01*
X24989869Y-61766418D01*
X25069058Y-61957597D01*
X25069059Y-61957598D01*
X25184023Y-62129655D01*
X25330345Y-62275977D01*
X25502402Y-62390941D01*
X25693580Y-62470130D01*
X25896535Y-62510500D01*
X25896536Y-62510500D01*
X26103464Y-62510500D01*
X26103465Y-62510500D01*
X26306420Y-62470130D01*
X26497598Y-62390941D01*
X26669655Y-62275977D01*
X26815977Y-62129655D01*
X26930941Y-61957598D01*
X27010130Y-61766420D01*
X27013183Y-61751069D01*
X27040275Y-61700380D01*
X31806547Y-56934108D01*
X42774500Y-56934108D01*
X42774500Y-57065892D01*
X42804579Y-57178151D01*
X42808609Y-57193190D01*
X42874496Y-57307309D01*
X42874498Y-57307311D01*
X42874500Y-57307314D01*
X42967686Y-57400500D01*
X42967688Y-57400501D01*
X42967690Y-57400503D01*
X43081810Y-57466390D01*
X43081808Y-57466390D01*
X43081812Y-57466391D01*
X43081814Y-57466392D01*
X43209108Y-57500500D01*
X43209110Y-57500500D01*
X43340890Y-57500500D01*
X43340892Y-57500500D01*
X43468186Y-57466392D01*
X43468188Y-57466390D01*
X43468190Y-57466390D01*
X43582309Y-57400503D01*
X43582309Y-57400502D01*
X43582314Y-57400500D01*
X43653319Y-57329494D01*
X43707834Y-57301719D01*
X43723321Y-57300500D01*
X47834521Y-57300500D01*
X47892712Y-57319407D01*
X47904525Y-57329496D01*
X50170504Y-59595475D01*
X50198281Y-59649992D01*
X50199500Y-59665479D01*
X50199500Y-69834521D01*
X50180593Y-69892712D01*
X50170504Y-69904525D01*
X47904525Y-72170504D01*
X47850008Y-72198281D01*
X47834521Y-72199500D01*
X43948321Y-72199500D01*
X43890130Y-72180593D01*
X43878323Y-72170509D01*
X43807314Y-72099500D01*
X43807311Y-72099498D01*
X43807309Y-72099496D01*
X43693189Y-72033609D01*
X43693191Y-72033609D01*
X43643799Y-72020375D01*
X43565892Y-71999500D01*
X43434108Y-71999500D01*
X43356200Y-72020375D01*
X43306809Y-72033609D01*
X43192690Y-72099496D01*
X43099496Y-72192690D01*
X43033609Y-72306809D01*
X43033608Y-72306814D01*
X42999500Y-72434108D01*
X42999500Y-72565892D01*
X43029579Y-72678151D01*
X43033609Y-72693190D01*
X43099496Y-72807309D01*
X43099498Y-72807311D01*
X43099500Y-72807314D01*
X43192686Y-72900500D01*
X43192688Y-72900501D01*
X43192690Y-72900503D01*
X43306810Y-72966390D01*
X43306808Y-72966390D01*
X43306812Y-72966391D01*
X43306814Y-72966392D01*
X43434108Y-73000500D01*
X43434110Y-73000500D01*
X43565890Y-73000500D01*
X43565892Y-73000500D01*
X43693186Y-72966392D01*
X43693188Y-72966390D01*
X43693190Y-72966390D01*
X43807309Y-72900503D01*
X43807309Y-72900502D01*
X43807314Y-72900500D01*
X43878319Y-72829494D01*
X43932834Y-72801719D01*
X43948321Y-72800500D01*
X48039563Y-72800500D01*
X48039563Y-72800499D01*
X48115989Y-72780021D01*
X48184511Y-72740460D01*
X48240460Y-72684511D01*
X50740460Y-70184511D01*
X50780021Y-70115989D01*
X50800500Y-70039562D01*
X50800500Y-59460438D01*
X50780021Y-59384011D01*
X50740460Y-59315489D01*
X50684511Y-59259539D01*
X50684511Y-59259540D01*
X48184511Y-56759540D01*
X48175066Y-56754087D01*
X48115989Y-56719979D01*
X48115988Y-56719978D01*
X48115987Y-56719978D01*
X48039564Y-56699500D01*
X48039562Y-56699500D01*
X43723321Y-56699500D01*
X43665130Y-56680593D01*
X43653323Y-56670509D01*
X43582314Y-56599500D01*
X43582311Y-56599498D01*
X43582309Y-56599496D01*
X43468189Y-56533609D01*
X43468191Y-56533609D01*
X43418799Y-56520375D01*
X43340892Y-56499500D01*
X43209108Y-56499500D01*
X43131200Y-56520375D01*
X43081809Y-56533609D01*
X42967690Y-56599496D01*
X42874496Y-56692690D01*
X42808609Y-56806809D01*
X42808608Y-56806814D01*
X42774500Y-56934108D01*
X31806547Y-56934108D01*
X50544114Y-38196543D01*
X50620775Y-38081811D01*
X50673580Y-37954328D01*
X50700500Y-37818994D01*
X50700500Y-37681006D01*
X50700500Y-36431007D01*
X50673580Y-36295672D01*
X50620775Y-36168189D01*
X50620774Y-36168187D01*
X50620771Y-36168182D01*
X50544114Y-36053458D01*
X50446541Y-35955885D01*
X50331817Y-35879228D01*
X50331806Y-35879222D01*
X50204328Y-35826420D01*
X50068995Y-35799500D01*
X50068993Y-35799500D01*
X49931007Y-35799500D01*
X49931004Y-35799500D01*
X49795672Y-35826420D01*
X49795670Y-35826420D01*
X49668193Y-35879222D01*
X49668182Y-35879228D01*
X49553458Y-35955885D01*
X49455885Y-36053458D01*
X49379228Y-36168182D01*
X49379222Y-36168193D01*
X49326420Y-36295670D01*
X49326420Y-36295672D01*
X49299500Y-36431004D01*
X49299500Y-37418835D01*
X49280593Y-37477026D01*
X49270504Y-37488839D01*
X27219504Y-59539839D01*
X27164987Y-59567616D01*
X27104555Y-59558045D01*
X27061290Y-59514780D01*
X27050500Y-59469835D01*
X27050500Y-58050253D01*
X27050498Y-58050241D01*
X27047711Y-58036231D01*
X27038867Y-57991769D01*
X26994552Y-57925448D01*
X26994548Y-57925445D01*
X26928233Y-57881134D01*
X26928231Y-57881133D01*
X26928228Y-57881132D01*
X26928227Y-57881132D01*
X26869758Y-57869501D01*
X26869748Y-57869500D01*
X25130252Y-57869500D01*
X25130251Y-57869500D01*
X25130241Y-57869501D01*
X25071772Y-57881132D01*
X25071766Y-57881134D01*
X25005451Y-57925445D01*
X25005445Y-57925451D01*
X24961134Y-57991766D01*
X24961132Y-57991772D01*
X24949501Y-58050241D01*
X24949500Y-58050253D01*
X21500500Y-58050253D01*
X21500500Y-24002984D01*
X21500681Y-23997007D01*
X21518362Y-23704696D01*
X21518363Y-23704695D01*
X21518362Y-23704688D01*
X21519801Y-23692837D01*
X21572052Y-23407714D01*
X21574912Y-23396113D01*
X21661148Y-23119370D01*
X21665378Y-23108218D01*
X21784350Y-22843873D01*
X21789899Y-22833302D01*
X21939861Y-22585233D01*
X21946632Y-22575423D01*
X22125406Y-22347235D01*
X22133318Y-22338303D01*
X22338303Y-22133318D01*
X22347235Y-22125406D01*
X22575423Y-21946632D01*
X22585233Y-21939861D01*
X22833302Y-21789899D01*
X22843873Y-21784350D01*
X23108218Y-21665378D01*
X23119370Y-21661148D01*
X23396120Y-21574910D01*
X23407714Y-21572052D01*
X23692837Y-21519801D01*
X23704688Y-21518362D01*
X23997008Y-21500681D01*
X24002985Y-21500500D01*
X24065892Y-21500500D01*
X75934108Y-21500500D01*
X75997015Y-21500500D01*
X76002992Y-21500681D01*
G37*
G04 #@! TD.AperFunction*
G04 #@! TD*
M02*
