G04 #@! TF.GenerationSoftware,KiCad,Pcbnew,9.0.6*
G04 #@! TF.CreationDate,2025-12-23T18:22:03-05:00*
G04 #@! TF.ProjectId,project-bed-light,70726f6a-6563-4742-9d62-65642d6c6967,rev?*
G04 #@! TF.SameCoordinates,Original*
G04 #@! TF.FileFunction,Copper,L1,Top*
G04 #@! TF.FilePolarity,Positive*
%FSLAX46Y46*%
G04 Gerber Fmt 4.6, Leading zero omitted, Abs format (unit mm)*
G04 Created by KiCad (PCBNEW 9.0.6) date 2025-12-23 18:22:03*
%MOMM*%
%LPD*%
G01*
G04 APERTURE LIST*
G04 Aperture macros list*
%AMRoundRect*
0 Rectangle with rounded corners*
0 $1 Rounding radius*
0 $2 $3 $4 $5 $6 $7 $8 $9 X,Y pos of 4 corners*
0 Add a 4 corners polygon primitive as box body*
4,1,4,$2,$3,$4,$5,$6,$7,$8,$9,$2,$3,0*
0 Add four circle primitives for the rounded corners*
1,1,$1+$1,$2,$3*
1,1,$1+$1,$4,$5*
1,1,$1+$1,$6,$7*
1,1,$1+$1,$8,$9*
0 Add four rect primitives between the rounded corners*
20,1,$1+$1,$2,$3,$4,$5,0*
20,1,$1+$1,$4,$5,$6,$7,0*
20,1,$1+$1,$6,$7,$8,$9,0*
20,1,$1+$1,$8,$9,$2,$3,0*%
G04 Aperture macros list end*
G04 #@! TA.AperFunction,SMDPad,CuDef*
%ADD10R,1.400000X1.600000*%
G04 #@! TD*
G04 #@! TA.AperFunction,ComponentPad*
%ADD11C,4.500000*%
G04 #@! TD*
G04 #@! TA.AperFunction,SMDPad,CuDef*
%ADD12RoundRect,0.225000X-0.225000X-0.250000X0.225000X-0.250000X0.225000X0.250000X-0.225000X0.250000X0*%
G04 #@! TD*
G04 #@! TA.AperFunction,SMDPad,CuDef*
%ADD13RoundRect,0.200000X0.275000X-0.200000X0.275000X0.200000X-0.275000X0.200000X-0.275000X-0.200000X0*%
G04 #@! TD*
G04 #@! TA.AperFunction,SMDPad,CuDef*
%ADD14RoundRect,0.250000X-1.750000X-1.000000X1.750000X-1.000000X1.750000X1.000000X-1.750000X1.000000X0*%
G04 #@! TD*
G04 #@! TA.AperFunction,ComponentPad*
%ADD15R,1.700000X1.700000*%
G04 #@! TD*
G04 #@! TA.AperFunction,ComponentPad*
%ADD16C,1.700000*%
G04 #@! TD*
G04 #@! TA.AperFunction,SMDPad,CuDef*
%ADD17RoundRect,0.225000X-0.250000X0.225000X-0.250000X-0.225000X0.250000X-0.225000X0.250000X0.225000X0*%
G04 #@! TD*
G04 #@! TA.AperFunction,SMDPad,CuDef*
%ADD18R,2.510000X1.000000*%
G04 #@! TD*
G04 #@! TA.AperFunction,SMDPad,CuDef*
%ADD19RoundRect,0.200000X-0.200000X-0.275000X0.200000X-0.275000X0.200000X0.275000X-0.200000X0.275000X0*%
G04 #@! TD*
G04 #@! TA.AperFunction,SMDPad,CuDef*
%ADD20RoundRect,0.250000X1.100000X-0.325000X1.100000X0.325000X-1.100000X0.325000X-1.100000X-0.325000X0*%
G04 #@! TD*
G04 #@! TA.AperFunction,SMDPad,CuDef*
%ADD21RoundRect,0.250000X-0.325000X-1.100000X0.325000X-1.100000X0.325000X1.100000X-0.325000X1.100000X0*%
G04 #@! TD*
G04 #@! TA.AperFunction,SMDPad,CuDef*
%ADD22RoundRect,0.100000X-0.100000X0.637500X-0.100000X-0.637500X0.100000X-0.637500X0.100000X0.637500X0*%
G04 #@! TD*
G04 #@! TA.AperFunction,SMDPad,CuDef*
%ADD23RoundRect,0.200000X0.200000X0.275000X-0.200000X0.275000X-0.200000X-0.275000X0.200000X-0.275000X0*%
G04 #@! TD*
G04 #@! TA.AperFunction,SMDPad,CuDef*
%ADD24RoundRect,0.225000X0.250000X-0.225000X0.250000X0.225000X-0.250000X0.225000X-0.250000X-0.225000X0*%
G04 #@! TD*
G04 #@! TA.AperFunction,SMDPad,CuDef*
%ADD25RoundRect,0.200000X-0.250000X-0.200000X0.250000X-0.200000X0.250000X0.200000X-0.250000X0.200000X0*%
G04 #@! TD*
G04 #@! TA.AperFunction,SMDPad,CuDef*
%ADD26RoundRect,0.475000X2.075000X-0.475000X2.075000X0.475000X-2.075000X0.475000X-2.075000X-0.475000X0*%
G04 #@! TD*
G04 #@! TA.AperFunction,SMDPad,CuDef*
%ADD27RoundRect,0.250000X2.750000X0.750000X-2.750000X0.750000X-2.750000X-0.750000X2.750000X-0.750000X0*%
G04 #@! TD*
G04 #@! TA.AperFunction,SMDPad,CuDef*
%ADD28RoundRect,0.250000X1.500000X0.750000X-1.500000X0.750000X-1.500000X-0.750000X1.500000X-0.750000X0*%
G04 #@! TD*
G04 #@! TA.AperFunction,SMDPad,CuDef*
%ADD29RoundRect,0.250000X0.750000X-2.750000X0.750000X2.750000X-0.750000X2.750000X-0.750000X-2.750000X0*%
G04 #@! TD*
G04 #@! TA.AperFunction,SMDPad,CuDef*
%ADD30RoundRect,0.250000X0.750000X-1.500000X0.750000X1.500000X-0.750000X1.500000X-0.750000X-1.500000X0*%
G04 #@! TD*
G04 #@! TA.AperFunction,SMDPad,CuDef*
%ADD31RoundRect,0.050000X0.285000X0.100000X-0.285000X0.100000X-0.285000X-0.100000X0.285000X-0.100000X0*%
G04 #@! TD*
G04 #@! TA.AperFunction,SMDPad,CuDef*
%ADD32RoundRect,0.125000X-0.175000X0.125000X-0.175000X-0.125000X0.175000X-0.125000X0.175000X0.125000X0*%
G04 #@! TD*
G04 #@! TA.AperFunction,ViaPad*
%ADD33C,0.600000*%
G04 #@! TD*
G04 #@! TA.AperFunction,Conductor*
%ADD34C,1.000000*%
G04 #@! TD*
G04 #@! TA.AperFunction,Conductor*
%ADD35C,0.300000*%
G04 #@! TD*
G04 #@! TA.AperFunction,Conductor*
%ADD36C,0.200000*%
G04 #@! TD*
G04 APERTURE END LIST*
D10*
G04 #@! TO.P,S1,1*
G04 #@! TO.N,GND*
X23750000Y-38000000D03*
X23750000Y-30000000D03*
G04 #@! TO.P,S1,2*
G04 #@! TO.N,Net-(U2-P0.04)*
X28250000Y-38000000D03*
X28250000Y-30000000D03*
G04 #@! TD*
D11*
G04 #@! TO.P,H1,1,1*
G04 #@! TO.N,GND*
X24000000Y-24000000D03*
G04 #@! TD*
D12*
G04 #@! TO.P,C5,1*
G04 #@! TO.N,+5V*
X43225000Y-65000000D03*
G04 #@! TO.P,C5,2*
G04 #@! TO.N,GND*
X44775000Y-65000000D03*
G04 #@! TD*
D13*
G04 #@! TO.P,R2,1*
G04 #@! TO.N,+5V*
X42000000Y-72325000D03*
G04 #@! TO.P,R2,2*
G04 #@! TO.N,Net-(U1-FB)*
X42000000Y-70675000D03*
G04 #@! TD*
D14*
G04 #@! TO.P,C8,1*
G04 #@! TO.N,+24V*
X65000000Y-45000000D03*
G04 #@! TO.P,C8,2*
G04 #@! TO.N,GND*
X73000000Y-45000000D03*
G04 #@! TD*
D15*
G04 #@! TO.P,J3,1,Pin_1*
G04 #@! TO.N,+3.3V*
X26000000Y-58920000D03*
D16*
G04 #@! TO.P,J3,2,Pin_2*
G04 #@! TO.N,+5V*
X26000000Y-61460000D03*
G04 #@! TO.P,J3,3,Pin_3*
G04 #@! TO.N,GND*
X26000000Y-64000000D03*
G04 #@! TD*
D17*
G04 #@! TO.P,C3,1*
G04 #@! TO.N,Net-(U1-SS)*
X40000000Y-70725000D03*
G04 #@! TO.P,C3,2*
G04 #@! TO.N,GND*
X40000000Y-72275000D03*
G04 #@! TD*
D18*
G04 #@! TO.P,U2,1,P0.27*
G04 #@! TO.N,unconnected-(U2-P0.27-Pad1)_1*
X33185000Y-28950000D03*
G04 #@! TO.N,unconnected-(U2-P0.27-Pad1)*
X36495000Y-28950000D03*
G04 #@! TO.P,U2,2,P0.05*
G04 #@! TO.N,unconnected-(U2-P0.05-Pad2)_1*
X33185000Y-31490000D03*
G04 #@! TO.N,unconnected-(U2-P0.05-Pad2)*
X36495000Y-31490000D03*
G04 #@! TO.P,U2,3,P0.04*
G04 #@! TO.N,Net-(U2-P0.04)*
X33185000Y-34030000D03*
X36495000Y-34030000D03*
G04 #@! TO.P,U2,4,P0.26*
G04 #@! TO.N,unconnected-(U2-P0.26-Pad4)*
X33185000Y-36570000D03*
G04 #@! TO.N,unconnected-(U2-P0.26-Pad4)_1*
X36495000Y-36570000D03*
G04 #@! TO.P,U2,5,P0.07*
G04 #@! TO.N,unconnected-(U2-P0.07-Pad5)*
X33185000Y-39110000D03*
G04 #@! TO.N,unconnected-(U2-P0.07-Pad5)_1*
X36495000Y-39110000D03*
G04 #@! TO.P,U2,6,P0.06*
G04 #@! TO.N,unconnected-(U2-P0.06-Pad6)_1*
X33185000Y-41650000D03*
G04 #@! TO.N,unconnected-(U2-P0.06-Pad6)*
X36495000Y-41650000D03*
G04 #@! TO.P,U2,7,P0.29*
G04 #@! TO.N,unconnected-(U2-P0.29-Pad7)_1*
X33185000Y-44190000D03*
G04 #@! TO.N,unconnected-(U2-P0.29-Pad7)*
X36495000Y-44190000D03*
G04 #@! TO.P,U2,8,P0.28*
G04 #@! TO.N,unconnected-(U2-P0.28-Pad8)*
X33185000Y-46730000D03*
G04 #@! TO.N,unconnected-(U2-P0.28-Pad8)_1*
X36495000Y-46730000D03*
G04 #@! TO.P,U2,9,P0.30*
G04 #@! TO.N,unconnected-(U2-P0.30-Pad9)_1*
X33185000Y-49270000D03*
G04 #@! TO.N,unconnected-(U2-P0.30-Pad9)*
X36495000Y-49270000D03*
G04 #@! TO.P,U2,10,USB*
G04 #@! TO.N,unconnected-(U2-USB-Pad10)*
X33185000Y-51810000D03*
G04 #@! TO.N,unconnected-(U2-USB-Pad10)_1*
X36495000Y-51810000D03*
G04 #@! TO.P,U2,11,NC*
G04 #@! TO.N,unconnected-(U2-NC-Pad11)_1*
X33185000Y-54350000D03*
G04 #@! TO.N,unconnected-(U2-NC-Pad11)*
X36495000Y-54350000D03*
G04 #@! TO.P,U2,12,VDD_OUT*
G04 #@! TO.N,+5V*
X33185000Y-56890000D03*
X36495000Y-56890000D03*
G04 #@! TO.P,U2,13,P0.20*
G04 #@! TO.N,Net-(U2-P0.20)*
X53505000Y-28950000D03*
X56815000Y-28950000D03*
G04 #@! TO.P,U2,14,P0.21*
G04 #@! TO.N,unconnected-(U2-P0.21-Pad14)*
X53505000Y-31490000D03*
G04 #@! TO.N,unconnected-(U2-P0.21-Pad14)_1*
X56815000Y-31490000D03*
G04 #@! TO.P,U2,15,P0.15*
G04 #@! TO.N,unconnected-(U2-P0.15-Pad15)_1*
X53505000Y-34030000D03*
G04 #@! TO.N,unconnected-(U2-P0.15-Pad15)*
X56815000Y-34030000D03*
G04 #@! TO.P,U2,16,P0.19*
G04 #@! TO.N,unconnected-(U2-P0.19-Pad16)_1*
X53505000Y-36570000D03*
G04 #@! TO.N,unconnected-(U2-P0.19-Pad16)*
X56815000Y-36570000D03*
G04 #@! TO.P,U2,17,P1.00*
G04 #@! TO.N,unconnected-(U2-P1.00-Pad17)*
X53505000Y-39110000D03*
G04 #@! TO.N,unconnected-(U2-P1.00-Pad17)_1*
X56815000Y-39110000D03*
G04 #@! TO.P,U2,18,P0.24*
G04 #@! TO.N,unconnected-(U2-P0.24-Pad18)*
X53505000Y-41650000D03*
G04 #@! TO.N,unconnected-(U2-P0.24-Pad18)_1*
X56815000Y-41650000D03*
G04 #@! TO.P,U2,19,P0.22*
G04 #@! TO.N,unconnected-(U2-P0.22-Pad19)_1*
X53505000Y-44190000D03*
G04 #@! TO.N,unconnected-(U2-P0.22-Pad19)*
X56815000Y-44190000D03*
G04 #@! TO.P,U2,20,P0.23*
G04 #@! TO.N,unconnected-(U2-P0.23-Pad20)*
X53505000Y-46730000D03*
G04 #@! TO.N,unconnected-(U2-P0.23-Pad20)_1*
X56815000Y-46730000D03*
G04 #@! TO.P,U2,21,P0.17*
G04 #@! TO.N,unconnected-(U2-P0.17-Pad21)_1*
X53505000Y-49270000D03*
G04 #@! TO.N,unconnected-(U2-P0.17-Pad21)*
X56815000Y-49270000D03*
G04 #@! TO.P,U2,22,P0.13*
G04 #@! TO.N,unconnected-(U2-P0.13-Pad22)_1*
X53505000Y-51810000D03*
G04 #@! TO.N,unconnected-(U2-P0.13-Pad22)*
X56815000Y-51810000D03*
G04 #@! TO.P,U2,23,P0.09*
G04 #@! TO.N,unconnected-(U2-P0.09-Pad23)_1*
X53505000Y-54350000D03*
G04 #@! TO.N,unconnected-(U2-P0.09-Pad23)*
X56815000Y-54350000D03*
G04 #@! TO.P,U2,24,P0.10*
G04 #@! TO.N,unconnected-(U2-P0.10-Pad24)_1*
X53505000Y-56890000D03*
G04 #@! TO.N,unconnected-(U2-P0.10-Pad24)*
X56815000Y-56890000D03*
G04 #@! TO.P,U2,25,GND*
G04 #@! TO.N,GND*
X53505000Y-59430000D03*
X56815000Y-59430000D03*
G04 #@! TO.P,U2,26,VDD_OUT*
G04 #@! TO.N,unconnected-(U2-VDD_OUT-Pad26)*
X53505000Y-61970000D03*
G04 #@! TO.N,unconnected-(U2-VDD_OUT-Pad26)_1*
X56815000Y-61970000D03*
G04 #@! TO.P,U2,27,VDD_OUT*
G04 #@! TO.N,+3.3V*
X53505000Y-64510000D03*
X56815000Y-64510000D03*
G04 #@! TO.P,U2,28,RESET*
G04 #@! TO.N,unconnected-(U2-RESET-Pad28)*
X53505000Y-67050000D03*
G04 #@! TO.N,unconnected-(U2-RESET-Pad28)_1*
X56815000Y-67050000D03*
G04 #@! TD*
D19*
G04 #@! TO.P,R3,1*
G04 #@! TO.N,Net-(U1-FB)*
X43675000Y-70750000D03*
G04 #@! TO.P,R3,2*
G04 #@! TO.N,GND*
X45325000Y-70750000D03*
G04 #@! TD*
D20*
G04 #@! TO.P,C1,1*
G04 #@! TO.N,/regulator_in*
X48000000Y-68225000D03*
G04 #@! TO.P,C1,2*
G04 #@! TO.N,GND*
X48000000Y-65275000D03*
G04 #@! TD*
D21*
G04 #@! TO.P,C6,1*
G04 #@! TO.N,+5V*
X43275000Y-62500000D03*
G04 #@! TO.P,C6,2*
G04 #@! TO.N,GND*
X46225000Y-62500000D03*
G04 #@! TD*
G04 #@! TO.P,C7,1*
G04 #@! TO.N,+5V*
X43275000Y-59250000D03*
G04 #@! TO.P,C7,2*
G04 #@! TO.N,GND*
X46225000Y-59250000D03*
G04 #@! TD*
D22*
G04 #@! TO.P,U3,1,V_{CCA}*
G04 #@! TO.N,+3.3V*
X49950000Y-29137500D03*
G04 #@! TO.P,U3,2,A1*
G04 #@! TO.N,Net-(U2-P0.20)*
X49300000Y-29137500D03*
G04 #@! TO.P,U3,3,A2*
G04 #@! TO.N,unconnected-(U3-A2-Pad3)*
X48650000Y-29137500D03*
G04 #@! TO.P,U3,4,A3*
G04 #@! TO.N,unconnected-(U3-A3-Pad4)*
X48000000Y-29137500D03*
G04 #@! TO.P,U3,5,A4*
G04 #@! TO.N,unconnected-(U3-A4-Pad5)*
X47350000Y-29137500D03*
G04 #@! TO.P,U3,6,NC*
G04 #@! TO.N,unconnected-(U3-NC-Pad6)*
X46700000Y-29137500D03*
G04 #@! TO.P,U3,7,GND*
G04 #@! TO.N,GND*
X46050000Y-29137500D03*
G04 #@! TO.P,U3,8,OE*
G04 #@! TO.N,+3.3V*
X46050000Y-34862500D03*
G04 #@! TO.P,U3,9,NC*
G04 #@! TO.N,unconnected-(U3-NC-Pad9)*
X46700000Y-34862500D03*
G04 #@! TO.P,U3,10,B4Y*
G04 #@! TO.N,unconnected-(U3-B4Y-Pad10)*
X47350000Y-34862500D03*
G04 #@! TO.P,U3,11,B3Y*
G04 #@! TO.N,unconnected-(U3-B3Y-Pad11)*
X48000000Y-34862500D03*
G04 #@! TO.P,U3,12,B2Y*
G04 #@! TO.N,unconnected-(U3-B2Y-Pad12)*
X48650000Y-34862500D03*
G04 #@! TO.P,U3,13,B1Y*
G04 #@! TO.N,/D_{IN}*
X49300000Y-34862500D03*
G04 #@! TO.P,U3,14,V_{CCB}*
G04 #@! TO.N,+5V*
X49950000Y-34862500D03*
G04 #@! TD*
D23*
G04 #@! TO.P,R1,1*
G04 #@! TO.N,Net-(D1-A)*
X54825000Y-70000000D03*
G04 #@! TO.P,R1,2*
G04 #@! TO.N,GND*
X53175000Y-70000000D03*
G04 #@! TD*
D24*
G04 #@! TO.P,C4,1*
G04 #@! TO.N,Net-(U1-BST)*
X40000000Y-69275000D03*
G04 #@! TO.P,C4,2*
G04 #@! TO.N,Net-(U1-SW)*
X40000000Y-67725000D03*
G04 #@! TD*
D11*
G04 #@! TO.P,H4,1,1*
G04 #@! TO.N,GND*
X76000000Y-74000000D03*
G04 #@! TD*
D25*
G04 #@! TO.P,Q1,1,G*
G04 #@! TO.N,Net-(D1-A)*
X56900000Y-71050000D03*
G04 #@! TO.P,Q1,2,S*
G04 #@! TO.N,/regulator_in*
X56900000Y-72950000D03*
G04 #@! TO.P,Q1,3,D*
G04 #@! TO.N,+24V*
X59100000Y-72000000D03*
G04 #@! TD*
D11*
G04 #@! TO.P,H3,1,1*
G04 #@! TO.N,GND*
X24000000Y-74000000D03*
G04 #@! TD*
D26*
G04 #@! TO.P,L1,1,1*
G04 #@! TO.N,Net-(U1-SW)*
X38000000Y-65600000D03*
G04 #@! TO.P,L1,2,2*
G04 #@! TO.N,+5V*
X38000000Y-61400000D03*
G04 #@! TD*
D24*
G04 #@! TO.P,C2,1*
G04 #@! TO.N,/regulator_in*
X45500000Y-68275000D03*
G04 #@! TO.P,C2,2*
G04 #@! TO.N,GND*
X45500000Y-66725000D03*
G04 #@! TD*
D27*
G04 #@! TO.P,J2,1_1,1*
G04 #@! TO.N,+24V*
X73000000Y-35000000D03*
D28*
G04 #@! TO.P,J2,1_2,1*
X63750000Y-35000000D03*
D27*
G04 #@! TO.P,J2,2_1,2*
G04 #@! TO.N,/D_{IN}*
X73000000Y-31000000D03*
D28*
G04 #@! TO.P,J2,2_2,2*
X63750000Y-31000000D03*
D27*
G04 #@! TO.P,J2,3_1,3*
G04 #@! TO.N,GND*
X73000000Y-27000000D03*
D28*
G04 #@! TO.P,J2,3_2,3*
X63750000Y-27000000D03*
G04 #@! TD*
D29*
G04 #@! TO.P,J1,1_1,1*
G04 #@! TO.N,+24V*
X64000000Y-72000000D03*
D30*
G04 #@! TO.P,J1,1_2,1*
X64000000Y-62750000D03*
D29*
G04 #@! TO.P,J1,2_1,2*
G04 #@! TO.N,GND*
X68000000Y-72000000D03*
D30*
G04 #@! TO.P,J1,2_2,2*
X68000000Y-62750000D03*
G04 #@! TD*
D31*
G04 #@! TO.P,U1,1,RT*
G04 #@! TO.N,GND*
X43740000Y-68750000D03*
G04 #@! TO.P,U1,2,EN*
G04 #@! TO.N,unconnected-(U1-EN-Pad2)*
X43740000Y-68250000D03*
G04 #@! TO.P,U1,3,VIN*
G04 #@! TO.N,/regulator_in*
X43740000Y-67750000D03*
G04 #@! TO.P,U1,4,GND*
G04 #@! TO.N,GND*
X43740000Y-67250000D03*
G04 #@! TO.P,U1,5,SW*
G04 #@! TO.N,Net-(U1-SW)*
X42260000Y-67250000D03*
G04 #@! TO.P,U1,6,BST*
G04 #@! TO.N,Net-(U1-BST)*
X42260000Y-67750000D03*
G04 #@! TO.P,U1,7,SS*
G04 #@! TO.N,Net-(U1-SS)*
X42260000Y-68250000D03*
G04 #@! TO.P,U1,8,FB*
G04 #@! TO.N,Net-(U1-FB)*
X42260000Y-68750000D03*
G04 #@! TD*
D32*
G04 #@! TO.P,D1,1,K*
G04 #@! TO.N,/regulator_in*
X55000000Y-72700000D03*
G04 #@! TO.P,D1,2,A*
G04 #@! TO.N,Net-(D1-A)*
X55000000Y-71300000D03*
G04 #@! TD*
D33*
G04 #@! TO.N,GND*
X57250000Y-58250000D03*
X53000000Y-58250000D03*
X76500000Y-27750000D03*
X76500000Y-26250000D03*
X76500000Y-27000000D03*
X61500000Y-27750000D03*
X61500000Y-26250000D03*
X61500000Y-27000000D03*
X22500000Y-38000000D03*
X22500000Y-30000000D03*
X45250000Y-29000000D03*
X75500000Y-46000000D03*
X75500000Y-44000000D03*
X75500000Y-45000000D03*
X67250000Y-60500000D03*
X68700528Y-60512186D03*
X68000000Y-60500000D03*
X68750000Y-75500000D03*
X68000000Y-75500000D03*
X67250000Y-75500000D03*
X53200000Y-69000000D03*
X43750000Y-69750000D03*
X45500000Y-65750000D03*
X39000000Y-72250000D03*
X46250000Y-70750000D03*
X43750000Y-66500000D03*
X49000000Y-64250000D03*
X48250000Y-64250000D03*
X47500000Y-64250000D03*
X47500000Y-63250000D03*
X47500000Y-61750000D03*
X47500000Y-62500000D03*
X47500000Y-60000000D03*
X47500000Y-58500000D03*
X47500000Y-59250000D03*
G04 #@! TO.N,+5V*
X43500000Y-72500000D03*
X43275000Y-57000000D03*
X50000000Y-36500000D03*
G04 #@! TD*
D34*
G04 #@! TO.N,+3.3V*
X53505000Y-64510000D02*
X56815000Y-64510000D01*
D35*
G04 #@! TO.N,/D_{IN}*
X63750000Y-31000000D02*
X62000000Y-32750000D01*
X62000000Y-32750000D02*
X50684418Y-32750000D01*
X50684418Y-32750000D02*
X49300000Y-34134418D01*
X49300000Y-34134418D02*
X49300000Y-34862500D01*
G04 #@! TO.N,Net-(U1-SS)*
X41000000Y-69000000D02*
X41500000Y-68500000D01*
X40000000Y-70725000D02*
X41000000Y-69725000D01*
X41733520Y-68250000D02*
X42260000Y-68250000D01*
X41500000Y-68483520D02*
X41733520Y-68250000D01*
X41500000Y-68500000D02*
X41500000Y-68483520D01*
X41000000Y-69725000D02*
X41000000Y-69000000D01*
G04 #@! TO.N,Net-(U1-BST)*
X41525000Y-67750000D02*
X40000000Y-69275000D01*
X42260000Y-67750000D02*
X41525000Y-67750000D01*
D34*
G04 #@! TO.N,+5V*
X37940000Y-61460000D02*
X38000000Y-61400000D01*
D36*
X42000000Y-72325000D02*
X42175000Y-72500000D01*
D34*
X26000000Y-61460000D02*
X37940000Y-61460000D01*
D35*
X49950000Y-36450000D02*
X50000000Y-36500000D01*
D36*
X42175000Y-72500000D02*
X43500000Y-72500000D01*
D35*
X49950000Y-34862500D02*
X49950000Y-36450000D01*
G04 #@! TO.N,/D_{IN}*
X63750000Y-31000000D02*
X73000000Y-31000000D01*
D34*
G04 #@! TO.N,+3.3V*
X26000000Y-58920000D02*
X29231000Y-55689000D01*
D36*
X46050000Y-34862500D02*
X46050000Y-34200000D01*
D34*
X52888000Y-64510000D02*
X53505000Y-64510000D01*
X51549000Y-58049000D02*
X51549000Y-63171000D01*
X49189000Y-55689000D02*
X51549000Y-58049000D01*
X29231000Y-55689000D02*
X49189000Y-55689000D01*
X46050000Y-52550000D02*
X49189000Y-55689000D01*
D36*
X46050000Y-34200000D02*
X49950000Y-30300000D01*
D34*
X46050000Y-36500000D02*
X46050000Y-52550000D01*
D36*
X46050000Y-37300000D02*
X46050000Y-36500000D01*
X49950000Y-30300000D02*
X49950000Y-29137500D01*
D34*
X51549000Y-63171000D02*
X52888000Y-64510000D01*
D35*
X46050000Y-34862500D02*
X46050000Y-37300000D01*
D36*
G04 #@! TO.N,Net-(U1-FB)*
X42000000Y-70675000D02*
X43600000Y-70675000D01*
X42260000Y-68750000D02*
X42000000Y-69010000D01*
X43600000Y-70675000D02*
X43675000Y-70750000D01*
X42000000Y-69010000D02*
X42000000Y-70675000D01*
G04 #@! TO.N,Net-(U2-P0.04)*
X28250000Y-30000000D02*
X28250000Y-38000000D01*
X28250000Y-38000000D02*
X29215000Y-38000000D01*
X33185000Y-34030000D02*
X36495000Y-34030000D01*
X29215000Y-38000000D02*
X33185000Y-34030000D01*
G04 #@! TO.N,Net-(U2-P0.20)*
X49681130Y-28099000D02*
X52654000Y-28099000D01*
X49300000Y-29137500D02*
X49300000Y-28480130D01*
X52654000Y-28099000D02*
X53505000Y-28950000D01*
X53505000Y-28950000D02*
X56815000Y-28950000D01*
X49300000Y-28480130D02*
X49681130Y-28099000D01*
G04 #@! TD*
G04 #@! TA.AperFunction,Conductor*
G04 #@! TO.N,Net-(U1-SW)*
G36*
X40256433Y-64500847D02*
G01*
X40271739Y-64502862D01*
X40366489Y-64515336D01*
X40391447Y-64522023D01*
X40487960Y-64562000D01*
X40510336Y-64574918D01*
X40593216Y-64638515D01*
X40611484Y-64656783D01*
X40675079Y-64739660D01*
X40688001Y-64762042D01*
X40727975Y-64858548D01*
X40734664Y-64883512D01*
X40749153Y-64993566D01*
X40750000Y-65006488D01*
X40750000Y-65750000D01*
X40966140Y-65896040D01*
X40966154Y-65896051D01*
X41353595Y-66157835D01*
X42386165Y-66855517D01*
X42398715Y-66865574D01*
X42491912Y-66953618D01*
X42511355Y-66979139D01*
X42562276Y-67075000D01*
X42567655Y-67085125D01*
X42577917Y-67115526D01*
X42597088Y-67232269D01*
X42596494Y-67267625D01*
X42586113Y-67319814D01*
X42556216Y-67373198D01*
X42500651Y-67398814D01*
X42489015Y-67399500D01*
X42306144Y-67399500D01*
X41478856Y-67399500D01*
X41389712Y-67423386D01*
X41309788Y-67469530D01*
X41308312Y-67471005D01*
X41306979Y-67471684D01*
X41304638Y-67473481D01*
X41304305Y-67473047D01*
X41267845Y-67491623D01*
X41268194Y-67492464D01*
X41257512Y-67496888D01*
X41253798Y-67498781D01*
X41252742Y-67498864D01*
X41249999Y-67500000D01*
X41103552Y-67646446D01*
X41103553Y-67646447D01*
X40844004Y-67905996D01*
X40789487Y-67933773D01*
X40729055Y-67924202D01*
X40685790Y-67880937D01*
X40675000Y-67835992D01*
X40675000Y-67825001D01*
X40674999Y-67825000D01*
X39325002Y-67825000D01*
X39325001Y-67825001D01*
X39325001Y-67983455D01*
X39330367Y-68017339D01*
X39320795Y-68077771D01*
X39277529Y-68121035D01*
X39217097Y-68130605D01*
X39194892Y-68124367D01*
X37810205Y-67554202D01*
X37597326Y-67466546D01*
X39325000Y-67466546D01*
X39325000Y-67624999D01*
X39325001Y-67625000D01*
X39899999Y-67625000D01*
X39900000Y-67624999D01*
X39900000Y-67075001D01*
X40100000Y-67075001D01*
X40100000Y-67624999D01*
X40100001Y-67625000D01*
X40674998Y-67625000D01*
X40674999Y-67624999D01*
X40674999Y-67466546D01*
X40659239Y-67367034D01*
X40659237Y-67367030D01*
X40598118Y-67247078D01*
X40502921Y-67151881D01*
X40382969Y-67090762D01*
X40382970Y-67090762D01*
X40283454Y-67075000D01*
X40100001Y-67075000D01*
X40100000Y-67075001D01*
X39900000Y-67075001D01*
X39899999Y-67075000D01*
X39716547Y-67075000D01*
X39716546Y-67075001D01*
X39617034Y-67090760D01*
X39617030Y-67090762D01*
X39497078Y-67151881D01*
X39401881Y-67247078D01*
X39340762Y-67367030D01*
X39325000Y-67466546D01*
X37597326Y-67466546D01*
X37303772Y-67345671D01*
X35566386Y-66630275D01*
X35553340Y-66623740D01*
X35446043Y-66559696D01*
X35423518Y-66541270D01*
X35344449Y-66454260D01*
X35328257Y-66430080D01*
X35277907Y-66323841D01*
X35269443Y-66295994D01*
X35251075Y-66172387D01*
X35250000Y-66157835D01*
X35250000Y-65006488D01*
X35250847Y-64993567D01*
X35252511Y-64980923D01*
X35265336Y-64883506D01*
X35272022Y-64858554D01*
X35312001Y-64762035D01*
X35324916Y-64739666D01*
X35388518Y-64656779D01*
X35406779Y-64638518D01*
X35489666Y-64574916D01*
X35512035Y-64562001D01*
X35608554Y-64522022D01*
X35633508Y-64515336D01*
X35730923Y-64502511D01*
X35743567Y-64500847D01*
X35756488Y-64500000D01*
X40243512Y-64500000D01*
X40256433Y-64500847D01*
G37*
G04 #@! TD.AperFunction*
G04 #@! TD*
G04 #@! TA.AperFunction,Conductor*
G04 #@! TO.N,Net-(D1-A)*
G36*
X57506433Y-69000847D02*
G01*
X57521739Y-69002862D01*
X57616489Y-69015336D01*
X57641447Y-69022023D01*
X57737960Y-69062000D01*
X57760336Y-69074918D01*
X57843216Y-69138515D01*
X57861484Y-69156783D01*
X57925079Y-69239660D01*
X57938001Y-69262042D01*
X57977975Y-69358548D01*
X57984664Y-69383512D01*
X57999153Y-69493566D01*
X58000000Y-69506488D01*
X58000000Y-71493511D01*
X57999153Y-71506432D01*
X57999153Y-71506433D01*
X57984664Y-71616487D01*
X57977975Y-71641451D01*
X57938001Y-71737957D01*
X57925079Y-71760339D01*
X57880061Y-71819007D01*
X57829636Y-71853662D01*
X57768472Y-71852060D01*
X57763633Y-71850203D01*
X57720091Y-71832167D01*
X57720071Y-71832159D01*
X57694641Y-71823526D01*
X57694634Y-71823524D01*
X57677772Y-71819007D01*
X57669673Y-71816837D01*
X57669667Y-71816835D01*
X57669666Y-71816835D01*
X57643311Y-71811593D01*
X57643301Y-71811592D01*
X57575345Y-71802646D01*
X57533256Y-71797105D01*
X57528076Y-71796594D01*
X57519873Y-71795786D01*
X57506953Y-71794939D01*
X57493512Y-71794500D01*
X57374800Y-71794500D01*
X57316609Y-71775593D01*
X57280645Y-71726093D01*
X57280645Y-71664907D01*
X57316609Y-71615407D01*
X57329854Y-71607291D01*
X57388043Y-71577641D01*
X57477641Y-71488043D01*
X57535163Y-71375151D01*
X57535164Y-71375147D01*
X57550000Y-71281484D01*
X57550000Y-71150001D01*
X57549999Y-71150000D01*
X56250002Y-71150000D01*
X56250001Y-71150001D01*
X56250001Y-71281485D01*
X56264833Y-71375141D01*
X56264836Y-71375151D01*
X56322358Y-71488043D01*
X56411956Y-71577641D01*
X56470146Y-71607291D01*
X56513410Y-71650556D01*
X56522981Y-71710988D01*
X56495203Y-71765504D01*
X56440686Y-71793281D01*
X56425200Y-71794500D01*
X55504127Y-71794500D01*
X55445936Y-71775593D01*
X55409972Y-71726093D01*
X55409972Y-71664907D01*
X55434123Y-71625496D01*
X55445333Y-71614285D01*
X55493767Y-71510418D01*
X55493768Y-71510417D01*
X55500000Y-71463083D01*
X55500000Y-71400001D01*
X55499999Y-71400000D01*
X54500002Y-71400000D01*
X54500001Y-71400001D01*
X54500001Y-71463091D01*
X54506230Y-71510413D01*
X54506230Y-71510415D01*
X54554666Y-71614285D01*
X54565877Y-71625496D01*
X54593654Y-71680013D01*
X54584083Y-71740445D01*
X54540818Y-71783710D01*
X54495873Y-71794500D01*
X54151569Y-71794500D01*
X54125993Y-71786190D01*
X54099842Y-71779912D01*
X54097219Y-71776841D01*
X54093378Y-71775593D01*
X54060105Y-71733386D01*
X54057084Y-71726093D01*
X54022023Y-71641447D01*
X54015336Y-71616489D01*
X54001372Y-71510418D01*
X54000847Y-71506432D01*
X54000000Y-71493511D01*
X54000000Y-70100001D01*
X54225001Y-70100001D01*
X54225001Y-70306485D01*
X54239833Y-70400141D01*
X54239836Y-70400151D01*
X54297358Y-70513043D01*
X54386956Y-70602641D01*
X54499848Y-70660163D01*
X54499852Y-70660164D01*
X54593515Y-70674999D01*
X54681675Y-70674999D01*
X54739866Y-70693906D01*
X54775830Y-70743405D01*
X54775831Y-70804591D01*
X54739868Y-70854091D01*
X54723516Y-70863723D01*
X54635714Y-70904666D01*
X54554666Y-70985714D01*
X54506232Y-71089581D01*
X54506231Y-71089582D01*
X54500000Y-71136916D01*
X54500000Y-71199999D01*
X54500001Y-71200000D01*
X55499998Y-71200000D01*
X55499999Y-71199999D01*
X55499999Y-71136919D01*
X55499998Y-71136908D01*
X55493769Y-71089586D01*
X55493769Y-71089584D01*
X55445333Y-70985714D01*
X55364286Y-70904667D01*
X55363612Y-70904353D01*
X55363609Y-70904351D01*
X55260420Y-70856232D01*
X55260417Y-70856231D01*
X55213084Y-70850000D01*
X55189940Y-70850000D01*
X55131749Y-70831093D01*
X55122611Y-70818515D01*
X56250000Y-70818515D01*
X56250000Y-70949999D01*
X56250001Y-70950000D01*
X56799999Y-70950000D01*
X56800000Y-70949999D01*
X56800000Y-70450001D01*
X57000000Y-70450001D01*
X57000000Y-70949999D01*
X57000001Y-70950000D01*
X57549998Y-70950000D01*
X57549999Y-70949999D01*
X57549999Y-70818516D01*
X57549998Y-70818514D01*
X57535166Y-70724858D01*
X57535163Y-70724848D01*
X57477641Y-70611956D01*
X57388043Y-70522358D01*
X57275151Y-70464836D01*
X57275147Y-70464835D01*
X57181484Y-70450000D01*
X57000001Y-70450000D01*
X57000000Y-70450001D01*
X56800000Y-70450001D01*
X56799999Y-70450000D01*
X56618517Y-70450000D01*
X56618514Y-70450001D01*
X56524858Y-70464833D01*
X56524848Y-70464836D01*
X56411956Y-70522358D01*
X56322358Y-70611956D01*
X56264836Y-70724848D01*
X56264835Y-70724852D01*
X56250000Y-70818515D01*
X55122611Y-70818515D01*
X55095785Y-70781593D01*
X55095785Y-70720407D01*
X55131749Y-70670907D01*
X55144995Y-70662790D01*
X55263044Y-70602640D01*
X55352641Y-70513043D01*
X55410163Y-70400151D01*
X55410164Y-70400147D01*
X55425000Y-70306484D01*
X55425000Y-70100001D01*
X55424999Y-70100000D01*
X54225002Y-70100000D01*
X54225001Y-70100001D01*
X54000000Y-70100001D01*
X54000000Y-69693515D01*
X54225000Y-69693515D01*
X54225000Y-69899999D01*
X54225001Y-69900000D01*
X54724999Y-69900000D01*
X54725000Y-69899999D01*
X54725000Y-69325001D01*
X54925000Y-69325001D01*
X54925000Y-69899999D01*
X54925001Y-69900000D01*
X55424998Y-69900000D01*
X55424999Y-69899999D01*
X55424999Y-69693516D01*
X55424998Y-69693514D01*
X55410166Y-69599858D01*
X55410163Y-69599848D01*
X55352641Y-69486956D01*
X55263043Y-69397358D01*
X55150151Y-69339836D01*
X55150147Y-69339835D01*
X55056484Y-69325000D01*
X54925001Y-69325000D01*
X54925000Y-69325001D01*
X54725000Y-69325001D01*
X54724999Y-69325000D01*
X54593517Y-69325000D01*
X54593514Y-69325001D01*
X54499858Y-69339833D01*
X54499848Y-69339836D01*
X54386956Y-69397358D01*
X54297358Y-69486956D01*
X54239836Y-69599848D01*
X54239835Y-69599852D01*
X54225000Y-69693515D01*
X54000000Y-69693515D01*
X54000000Y-69506488D01*
X54000847Y-69493567D01*
X54002511Y-69480923D01*
X54015336Y-69383508D01*
X54022022Y-69358554D01*
X54062001Y-69262035D01*
X54074916Y-69239666D01*
X54138518Y-69156779D01*
X54156779Y-69138518D01*
X54239666Y-69074916D01*
X54262035Y-69062001D01*
X54358554Y-69022022D01*
X54383508Y-69015336D01*
X54480923Y-69002511D01*
X54493567Y-69000847D01*
X54506488Y-69000000D01*
X57493512Y-69000000D01*
X57506433Y-69000847D01*
G37*
G04 #@! TD.AperFunction*
G04 #@! TD*
G04 #@! TA.AperFunction,Conductor*
G04 #@! TO.N,+5V*
G36*
X44709191Y-56408407D02*
G01*
X44745155Y-56457907D01*
X44750000Y-56488500D01*
X44750000Y-63724280D01*
X44748675Y-63740424D01*
X44726077Y-63877149D01*
X44715688Y-63907719D01*
X44654184Y-64022639D01*
X44634511Y-64048241D01*
X44533286Y-64142883D01*
X44520588Y-64152940D01*
X44000000Y-64499999D01*
X44000000Y-65243511D01*
X43999153Y-65256433D01*
X43984664Y-65366487D01*
X43977975Y-65391451D01*
X43938001Y-65487957D01*
X43925079Y-65510339D01*
X43861487Y-65593213D01*
X43843213Y-65611487D01*
X43760339Y-65675079D01*
X43737957Y-65688001D01*
X43641451Y-65727975D01*
X43616487Y-65734664D01*
X43519559Y-65747424D01*
X43507194Y-65749053D01*
X43506434Y-65749153D01*
X43493512Y-65750000D01*
X42815875Y-65750000D01*
X42802219Y-65749053D01*
X42729040Y-65738860D01*
X42686040Y-65732871D01*
X42659768Y-65725407D01*
X42558767Y-65680886D01*
X42535533Y-65666526D01*
X42450548Y-65596103D01*
X42432122Y-65575941D01*
X42365687Y-65479259D01*
X42358735Y-65467471D01*
X41750000Y-64250000D01*
X41138197Y-63026393D01*
X41138195Y-63026390D01*
X41136820Y-63023639D01*
X41136816Y-63023632D01*
X41000000Y-62750000D01*
X40690983Y-62750000D01*
X31756488Y-62750000D01*
X31743566Y-62749153D01*
X31633512Y-62734664D01*
X31608548Y-62727975D01*
X31512042Y-62688001D01*
X31489660Y-62675079D01*
X31406783Y-62611484D01*
X31388515Y-62593216D01*
X31324918Y-62510336D01*
X31312000Y-62487960D01*
X31272023Y-62391447D01*
X31265336Y-62366489D01*
X31250847Y-62256432D01*
X31250000Y-62243511D01*
X31250000Y-56488500D01*
X31268907Y-56430309D01*
X31318407Y-56394345D01*
X31349000Y-56389500D01*
X44651000Y-56389500D01*
X44709191Y-56408407D01*
G37*
G04 #@! TD.AperFunction*
G04 #@! TD*
G04 #@! TA.AperFunction,Conductor*
G04 #@! TO.N,+24V*
G36*
X77506433Y-33000847D02*
G01*
X77509259Y-33001219D01*
X77616489Y-33015336D01*
X77641447Y-33022023D01*
X77737960Y-33062000D01*
X77760336Y-33074918D01*
X77843216Y-33138515D01*
X77861484Y-33156783D01*
X77925079Y-33239660D01*
X77938001Y-33262042D01*
X77977975Y-33358548D01*
X77984664Y-33383512D01*
X77999153Y-33493566D01*
X78000000Y-33506488D01*
X78000000Y-41493511D01*
X77999153Y-41506433D01*
X77984664Y-41616487D01*
X77977975Y-41641451D01*
X77938001Y-41737957D01*
X77925079Y-41760339D01*
X77861487Y-41843213D01*
X77843213Y-41861487D01*
X77760339Y-41925079D01*
X77737957Y-41938001D01*
X77641451Y-41977975D01*
X77616487Y-41984664D01*
X77506434Y-41999153D01*
X77493512Y-42000000D01*
X70000000Y-42000000D01*
X66000000Y-60000000D01*
X66000000Y-75493511D01*
X65999153Y-75506432D01*
X65999153Y-75506433D01*
X65984664Y-75616487D01*
X65977975Y-75641451D01*
X65938001Y-75737957D01*
X65925079Y-75760339D01*
X65861487Y-75843213D01*
X65843213Y-75861487D01*
X65760339Y-75925079D01*
X65737957Y-75938001D01*
X65641451Y-75977975D01*
X65616487Y-75984664D01*
X65506434Y-75999153D01*
X65493512Y-76000000D01*
X58506488Y-76000000D01*
X58493566Y-75999153D01*
X58383512Y-75984664D01*
X58358548Y-75977975D01*
X58262042Y-75938001D01*
X58239660Y-75925079D01*
X58156783Y-75861484D01*
X58138515Y-75843216D01*
X58074918Y-75760336D01*
X58062000Y-75737960D01*
X58022023Y-75641447D01*
X58015336Y-75616489D01*
X58000847Y-75506432D01*
X58000000Y-75493511D01*
X58000000Y-74033535D01*
X58018907Y-73975344D01*
X58023514Y-73969580D01*
X58023495Y-73969564D01*
X58024508Y-73968328D01*
X58024521Y-73968314D01*
X58088113Y-73885440D01*
X58103048Y-73863087D01*
X58115970Y-73840705D01*
X58127858Y-73816598D01*
X58167832Y-73720092D01*
X58176473Y-73694638D01*
X58183162Y-73669674D01*
X58188406Y-73643310D01*
X58202895Y-73533256D01*
X58204213Y-73519874D01*
X58205060Y-73506952D01*
X58205500Y-73493511D01*
X58205500Y-72506488D01*
X58205060Y-72493047D01*
X58204213Y-72480125D01*
X58202895Y-72466743D01*
X58188406Y-72356689D01*
X58183162Y-72330325D01*
X58176473Y-72305361D01*
X58167832Y-72279907D01*
X58127858Y-72183401D01*
X58115970Y-72159294D01*
X58103048Y-72136912D01*
X58088112Y-72114558D01*
X58076942Y-72100001D01*
X58450001Y-72100001D01*
X58450001Y-72231485D01*
X58464833Y-72325141D01*
X58464836Y-72325151D01*
X58522358Y-72438043D01*
X58611956Y-72527641D01*
X58724848Y-72585163D01*
X58724852Y-72585164D01*
X58818515Y-72599999D01*
X59000000Y-72599999D01*
X59000000Y-72100001D01*
X59200000Y-72100001D01*
X59200000Y-72599998D01*
X59200001Y-72599999D01*
X59381483Y-72599999D01*
X59381485Y-72599998D01*
X59475141Y-72585166D01*
X59475151Y-72585163D01*
X59588043Y-72527641D01*
X59677641Y-72438043D01*
X59735163Y-72325151D01*
X59735164Y-72325147D01*
X59750000Y-72231484D01*
X59750000Y-72100001D01*
X62800001Y-72100001D01*
X62800001Y-74804203D01*
X62802850Y-74834600D01*
X62802850Y-74834602D01*
X62847654Y-74962647D01*
X62928207Y-75071790D01*
X62928209Y-75071792D01*
X63037352Y-75152345D01*
X63165398Y-75197149D01*
X63195789Y-75199999D01*
X63899998Y-75199999D01*
X63900000Y-75199998D01*
X63900000Y-72100001D01*
X64100000Y-72100001D01*
X64100000Y-75199998D01*
X64100001Y-75199999D01*
X64804203Y-75199999D01*
X64834600Y-75197149D01*
X64834602Y-75197149D01*
X64962647Y-75152345D01*
X65071790Y-75071792D01*
X65071792Y-75071790D01*
X65152345Y-74962647D01*
X65197149Y-74834601D01*
X65199999Y-74804211D01*
X65200000Y-74804210D01*
X65200000Y-72100001D01*
X65199999Y-72100000D01*
X64100001Y-72100000D01*
X64100000Y-72100001D01*
X63900000Y-72100001D01*
X63899999Y-72100000D01*
X62800002Y-72100000D01*
X62800001Y-72100001D01*
X59750000Y-72100001D01*
X59749999Y-72100000D01*
X59200001Y-72100000D01*
X59200000Y-72100001D01*
X59000000Y-72100001D01*
X58999999Y-72100000D01*
X58450002Y-72100000D01*
X58450001Y-72100001D01*
X58076942Y-72100001D01*
X58046451Y-72060266D01*
X58046451Y-72060264D01*
X58046317Y-72060089D01*
X58036239Y-72031427D01*
X58026028Y-72002591D01*
X58026061Y-72002479D01*
X58026022Y-72002368D01*
X58034750Y-71973144D01*
X58043405Y-71943925D01*
X58043527Y-71943756D01*
X58043532Y-71943741D01*
X58043547Y-71943729D01*
X58046453Y-71939731D01*
X58088104Y-71885451D01*
X58088107Y-71885446D01*
X58088112Y-71885440D01*
X58103048Y-71863087D01*
X58115970Y-71840705D01*
X58127858Y-71816598D01*
X58147775Y-71768515D01*
X58450000Y-71768515D01*
X58450000Y-71899999D01*
X58450001Y-71900000D01*
X58999999Y-71900000D01*
X59000000Y-71899999D01*
X59000000Y-71400001D01*
X59200000Y-71400001D01*
X59200000Y-71899999D01*
X59200001Y-71900000D01*
X59749998Y-71900000D01*
X59749999Y-71899999D01*
X59749999Y-71768516D01*
X59749998Y-71768514D01*
X59735166Y-71674858D01*
X59735163Y-71674848D01*
X59677641Y-71561956D01*
X59588043Y-71472358D01*
X59475151Y-71414836D01*
X59475147Y-71414835D01*
X59381484Y-71400000D01*
X59200001Y-71400000D01*
X59200000Y-71400001D01*
X59000000Y-71400001D01*
X58999999Y-71400000D01*
X58818517Y-71400000D01*
X58818514Y-71400001D01*
X58724858Y-71414833D01*
X58724848Y-71414836D01*
X58611956Y-71472358D01*
X58522358Y-71561956D01*
X58464836Y-71674848D01*
X58464835Y-71674852D01*
X58450000Y-71768515D01*
X58147775Y-71768515D01*
X58167832Y-71720092D01*
X58176473Y-71694638D01*
X58183162Y-71669674D01*
X58188406Y-71643310D01*
X58202895Y-71533256D01*
X58204213Y-71519874D01*
X58205060Y-71506952D01*
X58205500Y-71493511D01*
X58205500Y-69506488D01*
X58205060Y-69493047D01*
X58204213Y-69480125D01*
X58202895Y-69466743D01*
X58188406Y-69356689D01*
X58183162Y-69330325D01*
X58176473Y-69305361D01*
X58167832Y-69279907D01*
X58132989Y-69195788D01*
X62800000Y-69195788D01*
X62800000Y-71899999D01*
X62800001Y-71900000D01*
X63899999Y-71900000D01*
X63900000Y-71899999D01*
X63900000Y-68800001D01*
X64100000Y-68800001D01*
X64100000Y-71899999D01*
X64100001Y-71900000D01*
X65199998Y-71900000D01*
X65199999Y-71899999D01*
X65199999Y-69195796D01*
X65197149Y-69165399D01*
X65197149Y-69165397D01*
X65152345Y-69037352D01*
X65071792Y-68928209D01*
X65071790Y-68928207D01*
X64962647Y-68847654D01*
X64834601Y-68802850D01*
X64804211Y-68800000D01*
X64100001Y-68800000D01*
X64100000Y-68800001D01*
X63900000Y-68800001D01*
X63899999Y-68800000D01*
X63195796Y-68800000D01*
X63165399Y-68802850D01*
X63165397Y-68802850D01*
X63037352Y-68847654D01*
X62928209Y-68928207D01*
X62928207Y-68928209D01*
X62847654Y-69037352D01*
X62802850Y-69165398D01*
X62800000Y-69195788D01*
X58132989Y-69195788D01*
X58127858Y-69183401D01*
X58115970Y-69159294D01*
X58103048Y-69136912D01*
X58088112Y-69114558D01*
X58062533Y-69081224D01*
X58059072Y-69075065D01*
X58054379Y-69051660D01*
X58046409Y-69029154D01*
X58048069Y-69020190D01*
X58047044Y-69015074D01*
X58050354Y-69007864D01*
X58053909Y-68988679D01*
X58062001Y-68969142D01*
X58074918Y-68946771D01*
X58142499Y-68858697D01*
X58151022Y-68848977D01*
X59853553Y-67146447D01*
X60000000Y-67000000D01*
X60000000Y-62850001D01*
X62800001Y-62850001D01*
X62800001Y-64304203D01*
X62802850Y-64334600D01*
X62802850Y-64334602D01*
X62847654Y-64462647D01*
X62928207Y-64571790D01*
X62928209Y-64571792D01*
X63037352Y-64652345D01*
X63165398Y-64697149D01*
X63195789Y-64699999D01*
X63899998Y-64699999D01*
X63900000Y-64699998D01*
X63900000Y-62850001D01*
X64100000Y-62850001D01*
X64100000Y-64699998D01*
X64100001Y-64699999D01*
X64804203Y-64699999D01*
X64834600Y-64697149D01*
X64834602Y-64697149D01*
X64962647Y-64652345D01*
X65071790Y-64571792D01*
X65071792Y-64571790D01*
X65152345Y-64462647D01*
X65197149Y-64334601D01*
X65199999Y-64304211D01*
X65200000Y-64304210D01*
X65200000Y-62850001D01*
X65199999Y-62850000D01*
X64100001Y-62850000D01*
X64100000Y-62850001D01*
X63900000Y-62850001D01*
X63899999Y-62850000D01*
X62800002Y-62850000D01*
X62800001Y-62850001D01*
X60000000Y-62850001D01*
X60000000Y-61195788D01*
X62800000Y-61195788D01*
X62800000Y-62649999D01*
X62800001Y-62650000D01*
X63899999Y-62650000D01*
X63900000Y-62649999D01*
X63900000Y-60800001D01*
X64100000Y-60800001D01*
X64100000Y-62649999D01*
X64100001Y-62650000D01*
X65199998Y-62650000D01*
X65199999Y-62649999D01*
X65199999Y-61195796D01*
X65197149Y-61165399D01*
X65197149Y-61165397D01*
X65152345Y-61037352D01*
X65071792Y-60928209D01*
X65071790Y-60928207D01*
X64962647Y-60847654D01*
X64834601Y-60802850D01*
X64804211Y-60800000D01*
X64100001Y-60800000D01*
X64100000Y-60800001D01*
X63900000Y-60800001D01*
X63899999Y-60800000D01*
X63195796Y-60800000D01*
X63165399Y-60802850D01*
X63165397Y-60802850D01*
X63037352Y-60847654D01*
X62928209Y-60928207D01*
X62928207Y-60928209D01*
X62847654Y-61037352D01*
X62802850Y-61165398D01*
X62800000Y-61195788D01*
X60000000Y-61195788D01*
X60000000Y-45100001D01*
X62800001Y-45100001D01*
X62800001Y-46054203D01*
X62802850Y-46084600D01*
X62802850Y-46084602D01*
X62847654Y-46212647D01*
X62928207Y-46321790D01*
X62928209Y-46321792D01*
X63037352Y-46402345D01*
X63165398Y-46447149D01*
X63195789Y-46449999D01*
X64899998Y-46449999D01*
X64900000Y-46449998D01*
X64900000Y-45100001D01*
X65100000Y-45100001D01*
X65100000Y-46449998D01*
X65100001Y-46449999D01*
X66804203Y-46449999D01*
X66834600Y-46447149D01*
X66834602Y-46447149D01*
X66962647Y-46402345D01*
X67071790Y-46321792D01*
X67071792Y-46321790D01*
X67152345Y-46212647D01*
X67197149Y-46084601D01*
X67199999Y-46054211D01*
X67200000Y-46054210D01*
X67200000Y-45100001D01*
X67199999Y-45100000D01*
X65100001Y-45100000D01*
X65100000Y-45100001D01*
X64900000Y-45100001D01*
X64899999Y-45100000D01*
X62800002Y-45100000D01*
X62800001Y-45100001D01*
X60000000Y-45100001D01*
X60000000Y-43945788D01*
X62800000Y-43945788D01*
X62800000Y-44899999D01*
X62800001Y-44900000D01*
X64899999Y-44900000D01*
X64900000Y-44899999D01*
X64900000Y-43550001D01*
X65100000Y-43550001D01*
X65100000Y-44899999D01*
X65100001Y-44900000D01*
X67199998Y-44900000D01*
X67199999Y-44899999D01*
X67199999Y-43945796D01*
X67197149Y-43915399D01*
X67197149Y-43915397D01*
X67152345Y-43787352D01*
X67071792Y-43678209D01*
X67071790Y-43678207D01*
X66962647Y-43597654D01*
X66834601Y-43552850D01*
X66804211Y-43550000D01*
X65100001Y-43550000D01*
X65100000Y-43550001D01*
X64900000Y-43550001D01*
X64899999Y-43550000D01*
X63195796Y-43550000D01*
X63165399Y-43552850D01*
X63165397Y-43552850D01*
X63037352Y-43597654D01*
X62928209Y-43678207D01*
X62928207Y-43678209D01*
X62847654Y-43787352D01*
X62802850Y-43915398D01*
X62800000Y-43945788D01*
X60000000Y-43945788D01*
X60000000Y-35100001D01*
X61800001Y-35100001D01*
X61800001Y-35804203D01*
X61802850Y-35834600D01*
X61802850Y-35834602D01*
X61847654Y-35962647D01*
X61928207Y-36071790D01*
X61928209Y-36071792D01*
X62037352Y-36152345D01*
X62165398Y-36197149D01*
X62195789Y-36199999D01*
X63649998Y-36199999D01*
X63650000Y-36199998D01*
X63650000Y-35100001D01*
X63850000Y-35100001D01*
X63850000Y-36199998D01*
X63850001Y-36199999D01*
X65304203Y-36199999D01*
X65334600Y-36197149D01*
X65334602Y-36197149D01*
X65462647Y-36152345D01*
X65571790Y-36071792D01*
X65571792Y-36071790D01*
X65652345Y-35962647D01*
X65697149Y-35834601D01*
X65699999Y-35804211D01*
X65700000Y-35804210D01*
X65700000Y-35100001D01*
X69800001Y-35100001D01*
X69800001Y-35804203D01*
X69802850Y-35834600D01*
X69802850Y-35834602D01*
X69847654Y-35962647D01*
X69928207Y-36071790D01*
X69928209Y-36071792D01*
X70037352Y-36152345D01*
X70165398Y-36197149D01*
X70195789Y-36199999D01*
X72899998Y-36199999D01*
X72900000Y-36199998D01*
X72900000Y-35100001D01*
X73100000Y-35100001D01*
X73100000Y-36199998D01*
X73100001Y-36199999D01*
X75804203Y-36199999D01*
X75834600Y-36197149D01*
X75834602Y-36197149D01*
X75962647Y-36152345D01*
X76071790Y-36071792D01*
X76071792Y-36071790D01*
X76152345Y-35962647D01*
X76197149Y-35834601D01*
X76199999Y-35804211D01*
X76200000Y-35804210D01*
X76200000Y-35100001D01*
X76199999Y-35100000D01*
X73100001Y-35100000D01*
X73100000Y-35100001D01*
X72900000Y-35100001D01*
X72899999Y-35100000D01*
X69800002Y-35100000D01*
X69800001Y-35100001D01*
X65700000Y-35100001D01*
X65699999Y-35100000D01*
X63850001Y-35100000D01*
X63850000Y-35100001D01*
X63650000Y-35100001D01*
X63649999Y-35100000D01*
X61800002Y-35100000D01*
X61800001Y-35100001D01*
X60000000Y-35100001D01*
X60000000Y-34195788D01*
X61800000Y-34195788D01*
X61800000Y-34899999D01*
X61800001Y-34900000D01*
X63649999Y-34900000D01*
X63650000Y-34899999D01*
X63650000Y-33800001D01*
X63850000Y-33800001D01*
X63850000Y-34899999D01*
X63850001Y-34900000D01*
X65699998Y-34900000D01*
X65699999Y-34899999D01*
X65699999Y-34195796D01*
X65699998Y-34195788D01*
X69800000Y-34195788D01*
X69800000Y-34899999D01*
X69800001Y-34900000D01*
X72899999Y-34900000D01*
X72900000Y-34899999D01*
X72900000Y-33800001D01*
X73100000Y-33800001D01*
X73100000Y-34899999D01*
X73100001Y-34900000D01*
X76199998Y-34900000D01*
X76199999Y-34899999D01*
X76199999Y-34195796D01*
X76197149Y-34165399D01*
X76197149Y-34165397D01*
X76152345Y-34037352D01*
X76071792Y-33928209D01*
X76071790Y-33928207D01*
X75962647Y-33847654D01*
X75834601Y-33802850D01*
X75804211Y-33800000D01*
X73100001Y-33800000D01*
X73100000Y-33800001D01*
X72900000Y-33800001D01*
X72899999Y-33800000D01*
X70195796Y-33800000D01*
X70165399Y-33802850D01*
X70165397Y-33802850D01*
X70037352Y-33847654D01*
X69928209Y-33928207D01*
X69928207Y-33928209D01*
X69847654Y-34037352D01*
X69802850Y-34165398D01*
X69800000Y-34195788D01*
X65699998Y-34195788D01*
X65697149Y-34165399D01*
X65697149Y-34165397D01*
X65652345Y-34037352D01*
X65571792Y-33928209D01*
X65571790Y-33928207D01*
X65462647Y-33847654D01*
X65334601Y-33802850D01*
X65304211Y-33800000D01*
X63850001Y-33800000D01*
X63850000Y-33800001D01*
X63650000Y-33800001D01*
X63649999Y-33800000D01*
X62195796Y-33800000D01*
X62165399Y-33802850D01*
X62165397Y-33802850D01*
X62037352Y-33847654D01*
X61928209Y-33928207D01*
X61928207Y-33928209D01*
X61847654Y-34037352D01*
X61802850Y-34165398D01*
X61800000Y-34195788D01*
X60000000Y-34195788D01*
X60000000Y-33506488D01*
X60000847Y-33493567D01*
X60002511Y-33480923D01*
X60015336Y-33383506D01*
X60022022Y-33358554D01*
X60062001Y-33262035D01*
X60074916Y-33239666D01*
X60138518Y-33156779D01*
X60156783Y-33138515D01*
X60174176Y-33125168D01*
X60179669Y-33120955D01*
X60237346Y-33100534D01*
X60239933Y-33100500D01*
X62046142Y-33100500D01*
X62046144Y-33100500D01*
X62135288Y-33076614D01*
X62215212Y-33030470D01*
X62216687Y-33028994D01*
X62218020Y-33028315D01*
X62220362Y-33026519D01*
X62220694Y-33026952D01*
X62271202Y-33001219D01*
X62286689Y-33000000D01*
X77493512Y-33000000D01*
X77506433Y-33000847D01*
G37*
G04 #@! TD.AperFunction*
G04 #@! TD*
G04 #@! TA.AperFunction,Conductor*
G04 #@! TO.N,/regulator_in*
G36*
X47000000Y-68000000D02*
G01*
X48000000Y-69000000D01*
X45257666Y-69000000D01*
X45242426Y-68998820D01*
X45113138Y-68978677D01*
X45084104Y-68969405D01*
X44974013Y-68914360D01*
X44949175Y-68896696D01*
X44855488Y-68805351D01*
X44845400Y-68793867D01*
X44400000Y-68200000D01*
X44249999Y-67999998D01*
X44236772Y-67993385D01*
X44211042Y-67974841D01*
X44205603Y-67969402D01*
X44205601Y-67969399D01*
X44204503Y-67968665D01*
X44122742Y-67914035D01*
X44122740Y-67914034D01*
X44122737Y-67914033D01*
X44122736Y-67914033D01*
X44049684Y-67899501D01*
X44049674Y-67899500D01*
X43610985Y-67899500D01*
X43605257Y-67897639D01*
X43599351Y-67898814D01*
X43576612Y-67888331D01*
X43552794Y-67880593D01*
X43549253Y-67875719D01*
X43543785Y-67873199D01*
X43531551Y-67851355D01*
X43516830Y-67831093D01*
X43513888Y-67819816D01*
X43503842Y-67769316D01*
X43503842Y-67730684D01*
X43513888Y-67680184D01*
X43543785Y-67626801D01*
X43599351Y-67601186D01*
X43610985Y-67600500D01*
X44049673Y-67600500D01*
X44049674Y-67600500D01*
X44122740Y-67585966D01*
X44205601Y-67530601D01*
X44205605Y-67530594D01*
X44207205Y-67528996D01*
X44210565Y-67527283D01*
X44213708Y-67525184D01*
X44213956Y-67525556D01*
X44261722Y-67501219D01*
X44277209Y-67500000D01*
X47000000Y-67500000D01*
X47000000Y-68000000D01*
G37*
G04 #@! TD.AperFunction*
G04 #@! TD*
G04 #@! TA.AperFunction,Conductor*
G04 #@! TO.N,/regulator_in*
G36*
X49299326Y-67500847D02*
G01*
X49314632Y-67502862D01*
X49409382Y-67515336D01*
X49434340Y-67522023D01*
X49530854Y-67562000D01*
X49553233Y-67574921D01*
X49641293Y-67642492D01*
X49651030Y-67651030D01*
X54000000Y-72000000D01*
X57493512Y-72000000D01*
X57506433Y-72000847D01*
X57521739Y-72002862D01*
X57616489Y-72015336D01*
X57641447Y-72022023D01*
X57737960Y-72062000D01*
X57760336Y-72074918D01*
X57843216Y-72138515D01*
X57861484Y-72156783D01*
X57925079Y-72239660D01*
X57938001Y-72262042D01*
X57977975Y-72358548D01*
X57984664Y-72383512D01*
X57999153Y-72493566D01*
X58000000Y-72506488D01*
X58000000Y-73493511D01*
X57999153Y-73506433D01*
X57984664Y-73616487D01*
X57977975Y-73641451D01*
X57938001Y-73737957D01*
X57925079Y-73760339D01*
X57861487Y-73843213D01*
X57843213Y-73861487D01*
X57760339Y-73925079D01*
X57737957Y-73938001D01*
X57641451Y-73977975D01*
X57616487Y-73984664D01*
X57506434Y-73999153D01*
X57493512Y-74000000D01*
X53213595Y-74000000D01*
X53200673Y-73999153D01*
X53090619Y-73984664D01*
X53065655Y-73977975D01*
X52969147Y-73938000D01*
X52946766Y-73925078D01*
X52858706Y-73857507D01*
X52848969Y-73848969D01*
X51800001Y-72800001D01*
X54500001Y-72800001D01*
X54500001Y-72863091D01*
X54506230Y-72910413D01*
X54506230Y-72910415D01*
X54554666Y-73014285D01*
X54635714Y-73095333D01*
X54739581Y-73143767D01*
X54739582Y-73143768D01*
X54786916Y-73149999D01*
X54900000Y-73149999D01*
X54900000Y-72800001D01*
X55100000Y-72800001D01*
X55100000Y-73149998D01*
X55100001Y-73149999D01*
X55213081Y-73149999D01*
X55213091Y-73149998D01*
X55260413Y-73143769D01*
X55260415Y-73143769D01*
X55364285Y-73095333D01*
X55409617Y-73050001D01*
X56250001Y-73050001D01*
X56250001Y-73181485D01*
X56264833Y-73275141D01*
X56264836Y-73275151D01*
X56322358Y-73388043D01*
X56411956Y-73477641D01*
X56524848Y-73535163D01*
X56524852Y-73535164D01*
X56618515Y-73549999D01*
X56800000Y-73549999D01*
X56800000Y-73050001D01*
X57000000Y-73050001D01*
X57000000Y-73549998D01*
X57000001Y-73549999D01*
X57181483Y-73549999D01*
X57181485Y-73549998D01*
X57275141Y-73535166D01*
X57275151Y-73535163D01*
X57388043Y-73477641D01*
X57477641Y-73388043D01*
X57535163Y-73275151D01*
X57535164Y-73275147D01*
X57550000Y-73181484D01*
X57550000Y-73050001D01*
X57549999Y-73050000D01*
X57000001Y-73050000D01*
X57000000Y-73050001D01*
X56800000Y-73050001D01*
X56799999Y-73050000D01*
X56250002Y-73050000D01*
X56250001Y-73050001D01*
X55409617Y-73050001D01*
X55445333Y-73014285D01*
X55467312Y-72967153D01*
X55467312Y-72967151D01*
X55493766Y-72910421D01*
X55493768Y-72910417D01*
X55500000Y-72863083D01*
X55500000Y-72800001D01*
X55499999Y-72800000D01*
X55100001Y-72800000D01*
X55100000Y-72800001D01*
X54900000Y-72800001D01*
X54899999Y-72800000D01*
X54500002Y-72800000D01*
X54500001Y-72800001D01*
X51800001Y-72800001D01*
X51718515Y-72718515D01*
X56250000Y-72718515D01*
X56250000Y-72849999D01*
X56250001Y-72850000D01*
X56799999Y-72850000D01*
X56800000Y-72849999D01*
X56800000Y-72350001D01*
X57000000Y-72350001D01*
X57000000Y-72849999D01*
X57000001Y-72850000D01*
X57549998Y-72850000D01*
X57549999Y-72849999D01*
X57549999Y-72718516D01*
X57549998Y-72718514D01*
X57535166Y-72624858D01*
X57535163Y-72624848D01*
X57477641Y-72511956D01*
X57388043Y-72422358D01*
X57275151Y-72364836D01*
X57275147Y-72364835D01*
X57181484Y-72350000D01*
X57000001Y-72350000D01*
X57000000Y-72350001D01*
X56800000Y-72350001D01*
X56799999Y-72350000D01*
X56618517Y-72350000D01*
X56618514Y-72350001D01*
X56524858Y-72364833D01*
X56524848Y-72364836D01*
X56411956Y-72422358D01*
X56322358Y-72511956D01*
X56264836Y-72624848D01*
X56264835Y-72624852D01*
X56250000Y-72718515D01*
X51718515Y-72718515D01*
X51536916Y-72536916D01*
X54500000Y-72536916D01*
X54500000Y-72599999D01*
X54500001Y-72600000D01*
X54899999Y-72600000D01*
X54900000Y-72599999D01*
X54900000Y-72250001D01*
X55100000Y-72250001D01*
X55100000Y-72599999D01*
X55100001Y-72600000D01*
X55499998Y-72600000D01*
X55499999Y-72599999D01*
X55499999Y-72536919D01*
X55499998Y-72536908D01*
X55493769Y-72489586D01*
X55493769Y-72489584D01*
X55445333Y-72385714D01*
X55364285Y-72304666D01*
X55260418Y-72256232D01*
X55260417Y-72256231D01*
X55213084Y-72250000D01*
X55100001Y-72250000D01*
X55100000Y-72250001D01*
X54900000Y-72250001D01*
X54899999Y-72250000D01*
X54786920Y-72250000D01*
X54786908Y-72250001D01*
X54739586Y-72256230D01*
X54739584Y-72256230D01*
X54635714Y-72304666D01*
X54554666Y-72385714D01*
X54506232Y-72489581D01*
X54506231Y-72489582D01*
X54500000Y-72536916D01*
X51536916Y-72536916D01*
X48146447Y-69146447D01*
X48146447Y-69146446D01*
X48000000Y-69000000D01*
X47000000Y-68000000D01*
X47000000Y-67500000D01*
X49286405Y-67500000D01*
X49299326Y-67500847D01*
G37*
G04 #@! TD.AperFunction*
G04 #@! TD*
G04 #@! TA.AperFunction,Conductor*
G04 #@! TO.N,GND*
G36*
X48916026Y-56408407D02*
G01*
X48927839Y-56418496D01*
X50819504Y-58310161D01*
X50847281Y-58364678D01*
X50848500Y-58380165D01*
X50848500Y-63239996D01*
X50875420Y-63375327D01*
X50875420Y-63375329D01*
X50928223Y-63502808D01*
X50928224Y-63502810D01*
X50928225Y-63502811D01*
X51004886Y-63617543D01*
X52000000Y-64612657D01*
X52000000Y-69709380D01*
X49796321Y-67505701D01*
X49786529Y-67496529D01*
X49776768Y-67487970D01*
X49766408Y-67479469D01*
X49678333Y-67411886D01*
X49678332Y-67411885D01*
X49659796Y-67399500D01*
X49655986Y-67396954D01*
X49649518Y-67393219D01*
X49633599Y-67384028D01*
X49609522Y-67372154D01*
X49609489Y-67372139D01*
X49512981Y-67332165D01*
X49512978Y-67332164D01*
X49487524Y-67323524D01*
X49487518Y-67323522D01*
X49487511Y-67323520D01*
X49462577Y-67316839D01*
X49462559Y-67316835D01*
X49436204Y-67311593D01*
X49436194Y-67311592D01*
X49368238Y-67302646D01*
X49326149Y-67297105D01*
X49320969Y-67296594D01*
X49312766Y-67295786D01*
X49299846Y-67294939D01*
X49286405Y-67294500D01*
X47000000Y-67294500D01*
X44374000Y-67294500D01*
X44315809Y-67275593D01*
X44279845Y-67226093D01*
X44275000Y-67195500D01*
X44275000Y-67125377D01*
X44274999Y-67125375D01*
X44260493Y-67052453D01*
X44260492Y-67052451D01*
X44205238Y-66969758D01*
X44205238Y-66969757D01*
X44179115Y-66952304D01*
X43880714Y-67250706D01*
X43866742Y-67257824D01*
X43855655Y-67268912D01*
X43840167Y-67271364D01*
X43826197Y-67278483D01*
X43810710Y-67276030D01*
X43795223Y-67278483D01*
X43781252Y-67271364D01*
X43765765Y-67268912D01*
X43740706Y-67250706D01*
X43739999Y-67249999D01*
X43739318Y-67250681D01*
X43684812Y-67278478D01*
X43624376Y-67268928D01*
X43599286Y-67250706D01*
X43300883Y-66952303D01*
X43274762Y-66969757D01*
X43274758Y-66969761D01*
X43219506Y-67052452D01*
X43219506Y-67052453D01*
X43205000Y-67125375D01*
X43205000Y-67374624D01*
X43219506Y-67447546D01*
X43223238Y-67456557D01*
X43221135Y-67457427D01*
X43234111Y-67503438D01*
X43221365Y-67542670D01*
X43222766Y-67543251D01*
X43219033Y-67552263D01*
X43204501Y-67625315D01*
X43204500Y-67625327D01*
X43204500Y-67874672D01*
X43204501Y-67874684D01*
X43219033Y-67947736D01*
X43219034Y-67947740D01*
X43219035Y-67947742D01*
X43222766Y-67956749D01*
X43220751Y-67957583D01*
X43233811Y-68003888D01*
X43221227Y-68042613D01*
X43222766Y-68043251D01*
X43219033Y-68052263D01*
X43204501Y-68125315D01*
X43204500Y-68125327D01*
X43204500Y-68374672D01*
X43204501Y-68374684D01*
X43219033Y-68447736D01*
X43219034Y-68447740D01*
X43219035Y-68447742D01*
X43222767Y-68456752D01*
X43220906Y-68457522D01*
X43234111Y-68504329D01*
X43221622Y-68542774D01*
X43223238Y-68543443D01*
X43219506Y-68552453D01*
X43205000Y-68625375D01*
X43205000Y-68874624D01*
X43219506Y-68947546D01*
X43219507Y-68947548D01*
X43274758Y-69030237D01*
X43274761Y-69030240D01*
X43300883Y-69047694D01*
X43599285Y-68749293D01*
X43613256Y-68742174D01*
X43624344Y-68731087D01*
X43639831Y-68728634D01*
X43653802Y-68721516D01*
X43669289Y-68723968D01*
X43684776Y-68721516D01*
X43698746Y-68728634D01*
X43714234Y-68731087D01*
X43739293Y-68749293D01*
X43739999Y-68749999D01*
X43740681Y-68749318D01*
X43795187Y-68721521D01*
X43855623Y-68731071D01*
X43880713Y-68749293D01*
X44179114Y-69047694D01*
X44205236Y-69030242D01*
X44205241Y-69030237D01*
X44260492Y-68947548D01*
X44260493Y-68947546D01*
X44274999Y-68874624D01*
X44275000Y-68874622D01*
X44275000Y-68672832D01*
X44293907Y-68614641D01*
X44343407Y-68578677D01*
X44404593Y-68578677D01*
X44453198Y-68613431D01*
X44571512Y-68771182D01*
X44680996Y-68917162D01*
X44691008Y-68929489D01*
X44701111Y-68940990D01*
X44712029Y-68952492D01*
X44777690Y-69016510D01*
X44805715Y-69043834D01*
X44830076Y-69064165D01*
X44854914Y-69081829D01*
X44882111Y-69098165D01*
X44992195Y-69153207D01*
X44992200Y-69153209D01*
X44992202Y-69153210D01*
X45021588Y-69165165D01*
X45050622Y-69174437D01*
X45081503Y-69181727D01*
X45210791Y-69201870D01*
X45226562Y-69203707D01*
X45241802Y-69204887D01*
X45254493Y-69205377D01*
X45257664Y-69205500D01*
X45257666Y-69205500D01*
X47873872Y-69205500D01*
X47932063Y-69224407D01*
X47943876Y-69234496D01*
X52000000Y-73290620D01*
X52000000Y-74000000D01*
X33000000Y-74000000D01*
X33000000Y-72533453D01*
X39325000Y-72533453D01*
X39340760Y-72632965D01*
X39340762Y-72632969D01*
X39401881Y-72752921D01*
X39497078Y-72848118D01*
X39617030Y-72909237D01*
X39617029Y-72909237D01*
X39716545Y-72924999D01*
X39900000Y-72924999D01*
X39900000Y-72375001D01*
X40100000Y-72375001D01*
X40100000Y-72924998D01*
X40100001Y-72924999D01*
X40283453Y-72924999D01*
X40382965Y-72909239D01*
X40382969Y-72909237D01*
X40502921Y-72848118D01*
X40598118Y-72752921D01*
X40659237Y-72632969D01*
X40675000Y-72533453D01*
X40675000Y-72375001D01*
X40674999Y-72375000D01*
X40100001Y-72375000D01*
X40100000Y-72375001D01*
X39900000Y-72375001D01*
X39899999Y-72375000D01*
X39325002Y-72375000D01*
X39325001Y-72375001D01*
X39325001Y-72533453D01*
X39325000Y-72533453D01*
X33000000Y-72533453D01*
X33000000Y-72016546D01*
X39325000Y-72016546D01*
X39325000Y-72174999D01*
X39325001Y-72175000D01*
X39899999Y-72175000D01*
X39900000Y-72174999D01*
X39900000Y-71625001D01*
X40100000Y-71625001D01*
X40100000Y-72174999D01*
X40100001Y-72175000D01*
X40674998Y-72175000D01*
X40674999Y-72174999D01*
X40674999Y-72093477D01*
X41324500Y-72093477D01*
X41324500Y-72556520D01*
X41324501Y-72556523D01*
X41339352Y-72650299D01*
X41339354Y-72650304D01*
X41396950Y-72763342D01*
X41486658Y-72853050D01*
X41599696Y-72910646D01*
X41693481Y-72925500D01*
X42306518Y-72925499D01*
X42306520Y-72925499D01*
X42306521Y-72925498D01*
X42353411Y-72918072D01*
X42400299Y-72910647D01*
X42400299Y-72910646D01*
X42400304Y-72910646D01*
X42513342Y-72853050D01*
X42525121Y-72841271D01*
X42536898Y-72829495D01*
X42591415Y-72801719D01*
X42606900Y-72800500D01*
X43051679Y-72800500D01*
X43109870Y-72819407D01*
X43121676Y-72829490D01*
X43192686Y-72900500D01*
X43192688Y-72900501D01*
X43192690Y-72900503D01*
X43306810Y-72966390D01*
X43306808Y-72966390D01*
X43306812Y-72966391D01*
X43306814Y-72966392D01*
X43434108Y-73000500D01*
X43434110Y-73000500D01*
X43565890Y-73000500D01*
X43565892Y-73000500D01*
X43693186Y-72966392D01*
X43693188Y-72966390D01*
X43693190Y-72966390D01*
X43807309Y-72900503D01*
X43807309Y-72900502D01*
X43807314Y-72900500D01*
X43900500Y-72807314D01*
X43925887Y-72763342D01*
X43966390Y-72693190D01*
X43966390Y-72693188D01*
X43966392Y-72693186D01*
X44000500Y-72565892D01*
X44000500Y-72434108D01*
X43966392Y-72306814D01*
X43966390Y-72306811D01*
X43966390Y-72306809D01*
X43900503Y-72192690D01*
X43900501Y-72192688D01*
X43900500Y-72192686D01*
X43807314Y-72099500D01*
X43807311Y-72099498D01*
X43807309Y-72099496D01*
X43693189Y-72033609D01*
X43693191Y-72033609D01*
X43629509Y-72016546D01*
X43565892Y-71999500D01*
X43434108Y-71999500D01*
X43370491Y-72016546D01*
X43306809Y-72033609D01*
X43192690Y-72099496D01*
X43192689Y-72099497D01*
X43192686Y-72099499D01*
X43192686Y-72099500D01*
X43121680Y-72170505D01*
X43067166Y-72198281D01*
X43051679Y-72199500D01*
X42774499Y-72199500D01*
X42716308Y-72180593D01*
X42680344Y-72131093D01*
X42675499Y-72100500D01*
X42675499Y-72093478D01*
X42675498Y-72093476D01*
X42660647Y-71999700D01*
X42660646Y-71999698D01*
X42660646Y-71999696D01*
X42603050Y-71886658D01*
X42513342Y-71796950D01*
X42400304Y-71739354D01*
X42400305Y-71739354D01*
X42306522Y-71724500D01*
X41693479Y-71724500D01*
X41693476Y-71724501D01*
X41599700Y-71739352D01*
X41599695Y-71739354D01*
X41486659Y-71796949D01*
X41396949Y-71886659D01*
X41339354Y-71999695D01*
X41324500Y-72093477D01*
X40674999Y-72093477D01*
X40674999Y-72016546D01*
X40659239Y-71917034D01*
X40659237Y-71917030D01*
X40598118Y-71797078D01*
X40502921Y-71701881D01*
X40382969Y-71640762D01*
X40382970Y-71640762D01*
X40283454Y-71625000D01*
X40100001Y-71625000D01*
X40100000Y-71625001D01*
X39900000Y-71625001D01*
X39899999Y-71625000D01*
X39716547Y-71625000D01*
X39716546Y-71625001D01*
X39617034Y-71640760D01*
X39617030Y-71640762D01*
X39497078Y-71701881D01*
X39401881Y-71797078D01*
X39340762Y-71917030D01*
X39325000Y-72016546D01*
X33000000Y-72016546D01*
X33000000Y-65006487D01*
X35044500Y-65006487D01*
X35044500Y-66157834D01*
X35045057Y-66172966D01*
X35046133Y-66187526D01*
X35047807Y-66202592D01*
X35066174Y-66326194D01*
X35066177Y-66326210D01*
X35072823Y-66355751D01*
X35081283Y-66383586D01*
X35081286Y-66383596D01*
X35081289Y-66383603D01*
X35089000Y-66403554D01*
X35089732Y-66405448D01*
X35092207Y-66411850D01*
X35142557Y-66518089D01*
X35149462Y-66530252D01*
X35157515Y-66544439D01*
X35173693Y-66568596D01*
X35173694Y-66568599D01*
X35189953Y-66589383D01*
X35192364Y-66592465D01*
X35271433Y-66679475D01*
X35293403Y-66700330D01*
X35315928Y-66718756D01*
X35340719Y-66736153D01*
X35448016Y-66800197D01*
X35461302Y-66807477D01*
X35474348Y-66814012D01*
X35488142Y-66820296D01*
X36943349Y-67419500D01*
X37519082Y-67656567D01*
X39116648Y-68314388D01*
X39139313Y-68322208D01*
X39161518Y-68328446D01*
X39196606Y-68330498D01*
X39249233Y-68333576D01*
X39249234Y-68333575D01*
X39249239Y-68333576D01*
X39309671Y-68324006D01*
X39345397Y-68315005D01*
X39382044Y-68291978D01*
X39441375Y-68277029D01*
X39492902Y-68295711D01*
X39496779Y-68298527D01*
X39496780Y-68298528D01*
X39527907Y-68314388D01*
X39616867Y-68359716D01*
X39616869Y-68359716D01*
X39616874Y-68359719D01*
X39692541Y-68371703D01*
X39716510Y-68375500D01*
X40164811Y-68375500D01*
X40186858Y-68382663D01*
X40209756Y-68386290D01*
X40215404Y-68391938D01*
X40223002Y-68394407D01*
X40236629Y-68413163D01*
X40253021Y-68429555D01*
X40254270Y-68437444D01*
X40258966Y-68443907D01*
X40258966Y-68467092D01*
X40262592Y-68489987D01*
X40258966Y-68497103D01*
X40258966Y-68505093D01*
X40234817Y-68544500D01*
X40183812Y-68595505D01*
X40129298Y-68623281D01*
X40113811Y-68624500D01*
X39716510Y-68624500D01*
X39616874Y-68640281D01*
X39616867Y-68640283D01*
X39496782Y-68701470D01*
X39401470Y-68796782D01*
X39340283Y-68916867D01*
X39340281Y-68916874D01*
X39324500Y-69016510D01*
X39324500Y-69533489D01*
X39340281Y-69633125D01*
X39340283Y-69633132D01*
X39379134Y-69709380D01*
X39401472Y-69753220D01*
X39496780Y-69848528D01*
X39545940Y-69873576D01*
X39620939Y-69911791D01*
X39664203Y-69955056D01*
X39673774Y-70015488D01*
X39645996Y-70070004D01*
X39620939Y-70088209D01*
X39496781Y-70151471D01*
X39401470Y-70246782D01*
X39340283Y-70366867D01*
X39340281Y-70366874D01*
X39324500Y-70466510D01*
X39324500Y-70983489D01*
X39340281Y-71083125D01*
X39340283Y-71083132D01*
X39401385Y-71203050D01*
X39401472Y-71203220D01*
X39496780Y-71298528D01*
X39496782Y-71298529D01*
X39616867Y-71359716D01*
X39616869Y-71359716D01*
X39616874Y-71359719D01*
X39692541Y-71371703D01*
X39716510Y-71375500D01*
X39716512Y-71375500D01*
X40283490Y-71375500D01*
X40304885Y-71372111D01*
X40383126Y-71359719D01*
X40503220Y-71298528D01*
X40598528Y-71203220D01*
X40659719Y-71083126D01*
X40675500Y-70983488D01*
X40675500Y-70586189D01*
X40694407Y-70527998D01*
X40704490Y-70516191D01*
X41280470Y-69940212D01*
X41326614Y-69860288D01*
X41350500Y-69771143D01*
X41350500Y-69678856D01*
X41350500Y-69186190D01*
X41369407Y-69127999D01*
X41379496Y-69116186D01*
X41530496Y-68965186D01*
X41585013Y-68937409D01*
X41645445Y-68946980D01*
X41688710Y-68990245D01*
X41699500Y-69035190D01*
X41699500Y-69988992D01*
X41680593Y-70047183D01*
X41631093Y-70083147D01*
X41615987Y-70086773D01*
X41599699Y-70089352D01*
X41599695Y-70089354D01*
X41486659Y-70146949D01*
X41396949Y-70236659D01*
X41339354Y-70349695D01*
X41324500Y-70443477D01*
X41324500Y-70906520D01*
X41324501Y-70906523D01*
X41339352Y-71000299D01*
X41339354Y-71000304D01*
X41396950Y-71113342D01*
X41486658Y-71203050D01*
X41599696Y-71260646D01*
X41693481Y-71275500D01*
X42306518Y-71275499D01*
X42306520Y-71275499D01*
X42306521Y-71275498D01*
X42353411Y-71268072D01*
X42400299Y-71260647D01*
X42400299Y-71260646D01*
X42400304Y-71260646D01*
X42513342Y-71203050D01*
X42603050Y-71113342D01*
X42645742Y-71029553D01*
X42689006Y-70986290D01*
X42733951Y-70975500D01*
X42977115Y-70975500D01*
X43035306Y-70994407D01*
X43071270Y-71043907D01*
X43074896Y-71059015D01*
X43089352Y-71150299D01*
X43089354Y-71150304D01*
X43146950Y-71263342D01*
X43236658Y-71353050D01*
X43349696Y-71410646D01*
X43443481Y-71425500D01*
X43906518Y-71425499D01*
X43906520Y-71425499D01*
X43906521Y-71425498D01*
X43953411Y-71418072D01*
X44000299Y-71410647D01*
X44000299Y-71410646D01*
X44000304Y-71410646D01*
X44113342Y-71353050D01*
X44203050Y-71263342D01*
X44260646Y-71150304D01*
X44275500Y-71056519D01*
X44275499Y-70850001D01*
X44725001Y-70850001D01*
X44725001Y-71056485D01*
X44739833Y-71150141D01*
X44739836Y-71150151D01*
X44797358Y-71263043D01*
X44886956Y-71352641D01*
X44999848Y-71410163D01*
X44999852Y-71410164D01*
X45093515Y-71424999D01*
X45225000Y-71424999D01*
X45225000Y-70850001D01*
X45425000Y-70850001D01*
X45425000Y-71424998D01*
X45425001Y-71424999D01*
X45556483Y-71424999D01*
X45556485Y-71424998D01*
X45650141Y-71410166D01*
X45650151Y-71410163D01*
X45763043Y-71352641D01*
X45852641Y-71263043D01*
X45910163Y-71150151D01*
X45910164Y-71150147D01*
X45925000Y-71056484D01*
X45925000Y-70850001D01*
X45924999Y-70850000D01*
X45425001Y-70850000D01*
X45425000Y-70850001D01*
X45225000Y-70850001D01*
X45224999Y-70850000D01*
X44725002Y-70850000D01*
X44725001Y-70850001D01*
X44275499Y-70850001D01*
X44275499Y-70650000D01*
X44275499Y-70443515D01*
X44725000Y-70443515D01*
X44725000Y-70649999D01*
X44725001Y-70650000D01*
X45224999Y-70650000D01*
X45225000Y-70649999D01*
X45225000Y-70075001D01*
X45425000Y-70075001D01*
X45425000Y-70649999D01*
X45425001Y-70650000D01*
X45924998Y-70650000D01*
X45924999Y-70649999D01*
X45924999Y-70443516D01*
X45924998Y-70443514D01*
X45910166Y-70349858D01*
X45910163Y-70349848D01*
X45852641Y-70236956D01*
X45763043Y-70147358D01*
X45650151Y-70089836D01*
X45650147Y-70089835D01*
X45556484Y-70075000D01*
X45425001Y-70075000D01*
X45425000Y-70075001D01*
X45225000Y-70075001D01*
X45224999Y-70075000D01*
X45093517Y-70075000D01*
X45093514Y-70075001D01*
X44999858Y-70089833D01*
X44999848Y-70089836D01*
X44886956Y-70147358D01*
X44797358Y-70236956D01*
X44739836Y-70349848D01*
X44739835Y-70349852D01*
X44725000Y-70443515D01*
X44275499Y-70443515D01*
X44275499Y-70443479D01*
X44275498Y-70443476D01*
X44260647Y-70349700D01*
X44260646Y-70349698D01*
X44260646Y-70349696D01*
X44203050Y-70236658D01*
X44113342Y-70146950D01*
X44000304Y-70089354D01*
X44000305Y-70089354D01*
X43906522Y-70074500D01*
X43443479Y-70074500D01*
X43443476Y-70074501D01*
X43349700Y-70089352D01*
X43349695Y-70089354D01*
X43236659Y-70146949D01*
X43236658Y-70146950D01*
X43146950Y-70236658D01*
X43104257Y-70320446D01*
X43060994Y-70363710D01*
X43016049Y-70374500D01*
X42733951Y-70374500D01*
X42675760Y-70355593D01*
X42645742Y-70320447D01*
X42603050Y-70236658D01*
X42513342Y-70146950D01*
X42400304Y-70089354D01*
X42400306Y-70089354D01*
X42384010Y-70086773D01*
X42329494Y-70058993D01*
X42301718Y-70004476D01*
X42300500Y-69988992D01*
X42300500Y-69199500D01*
X42319407Y-69141309D01*
X42368907Y-69105345D01*
X42399500Y-69100500D01*
X42569673Y-69100500D01*
X42569674Y-69100500D01*
X42572188Y-69100000D01*
X43531419Y-69100000D01*
X43948579Y-69100000D01*
X43739999Y-68891420D01*
X43531419Y-69100000D01*
X42572188Y-69100000D01*
X42642740Y-69085966D01*
X42725601Y-69030601D01*
X42780966Y-68947740D01*
X42795500Y-68874674D01*
X42795500Y-68625326D01*
X42780966Y-68552260D01*
X42780962Y-68552255D01*
X42777233Y-68543248D01*
X42779248Y-68542413D01*
X42766189Y-68496120D01*
X42778773Y-68457389D01*
X42777233Y-68456752D01*
X42780961Y-68447746D01*
X42780966Y-68447740D01*
X42795500Y-68374674D01*
X42795500Y-68125326D01*
X42780966Y-68052260D01*
X42780962Y-68052255D01*
X42777233Y-68043248D01*
X42779248Y-68042413D01*
X42766189Y-67996120D01*
X42778773Y-67957389D01*
X42777233Y-67956752D01*
X42780961Y-67947746D01*
X42780966Y-67947740D01*
X42795500Y-67874674D01*
X42795500Y-67625326D01*
X42780966Y-67552260D01*
X42780962Y-67552255D01*
X42777233Y-67543248D01*
X42779248Y-67542413D01*
X42766189Y-67496120D01*
X42767564Y-67483111D01*
X42771142Y-67462442D01*
X42780966Y-67447740D01*
X42795500Y-67374674D01*
X42795500Y-67321752D01*
X42796951Y-67313372D01*
X42797212Y-67312877D01*
X42797402Y-67310949D01*
X42798045Y-67307715D01*
X42798046Y-67307707D01*
X42801964Y-67271087D01*
X42801965Y-67271071D01*
X42802001Y-67268912D01*
X42802559Y-67235721D01*
X42799872Y-67198969D01*
X42799871Y-67198962D01*
X42796808Y-67180309D01*
X42795500Y-67164268D01*
X42795500Y-67125327D01*
X42795498Y-67125315D01*
X42781004Y-67052452D01*
X42780966Y-67052260D01*
X42773025Y-67040376D01*
X42762905Y-67020821D01*
X42762362Y-67019405D01*
X42762361Y-67019401D01*
X42749139Y-66988720D01*
X42739066Y-66969758D01*
X42702011Y-66900000D01*
X43531421Y-66900000D01*
X43740000Y-67108579D01*
X43948580Y-66900000D01*
X43531421Y-66900000D01*
X42702011Y-66900000D01*
X42692848Y-66882751D01*
X42692839Y-66882734D01*
X42692832Y-66882723D01*
X42692828Y-66882716D01*
X42674820Y-66854602D01*
X42655378Y-66829082D01*
X42641826Y-66814012D01*
X42633038Y-66804240D01*
X42633030Y-66804232D01*
X42539850Y-66716204D01*
X42539846Y-66716200D01*
X42539837Y-66716192D01*
X42527222Y-66705211D01*
X42527214Y-66705204D01*
X42514684Y-66695164D01*
X42514672Y-66695154D01*
X42501216Y-66685242D01*
X42501210Y-66685238D01*
X42501202Y-66685232D01*
X41082790Y-65726847D01*
X41082789Y-65726846D01*
X41082770Y-65726833D01*
X41081197Y-65725770D01*
X41081190Y-65725765D01*
X40999073Y-65670280D01*
X40961443Y-65622035D01*
X40955500Y-65588250D01*
X40955500Y-65006487D01*
X40955485Y-65006047D01*
X40955060Y-64993047D01*
X40954213Y-64980125D01*
X40952895Y-64966743D01*
X40938407Y-64856700D01*
X40938407Y-64856698D01*
X40938406Y-64856689D01*
X40933162Y-64830325D01*
X40926473Y-64805361D01*
X40917832Y-64779907D01*
X40877858Y-64683401D01*
X40865970Y-64659294D01*
X40853048Y-64636912D01*
X40838112Y-64614558D01*
X40774517Y-64531681D01*
X40774510Y-64531673D01*
X40774503Y-64531664D01*
X40756797Y-64511476D01*
X40738522Y-64493201D01*
X40718334Y-64475495D01*
X40718320Y-64475484D01*
X40718318Y-64475482D01*
X40635438Y-64411885D01*
X40613081Y-64396947D01*
X40590705Y-64384029D01*
X40566604Y-64372144D01*
X40470090Y-64332167D01*
X40470071Y-64332159D01*
X40444641Y-64323526D01*
X40444634Y-64323524D01*
X40428117Y-64319099D01*
X40419673Y-64316837D01*
X40419667Y-64316835D01*
X40419666Y-64316835D01*
X40393311Y-64311593D01*
X40393301Y-64311592D01*
X40325345Y-64302646D01*
X40283256Y-64297105D01*
X40278076Y-64296594D01*
X40269873Y-64295786D01*
X40256953Y-64294939D01*
X40243512Y-64294500D01*
X35756488Y-64294500D01*
X35743046Y-64294939D01*
X35730129Y-64295786D01*
X35718848Y-64296897D01*
X35716745Y-64297105D01*
X35716741Y-64297105D01*
X35716736Y-64297106D01*
X35606697Y-64311592D01*
X35606681Y-64311594D01*
X35580335Y-64316834D01*
X35580312Y-64316839D01*
X35555382Y-64323519D01*
X35529915Y-64332163D01*
X35529912Y-64332164D01*
X35433407Y-64372136D01*
X35409273Y-64384038D01*
X35386913Y-64396949D01*
X35364568Y-64411879D01*
X35364561Y-64411884D01*
X35281689Y-64475474D01*
X35281677Y-64475484D01*
X35261464Y-64493212D01*
X35243212Y-64511464D01*
X35225484Y-64531677D01*
X35225474Y-64531689D01*
X35161884Y-64614561D01*
X35161879Y-64614568D01*
X35146949Y-64636913D01*
X35134038Y-64659273D01*
X35122139Y-64683402D01*
X35082169Y-64779897D01*
X35073524Y-64805367D01*
X35066840Y-64830312D01*
X35061595Y-64856676D01*
X35061591Y-64856700D01*
X35047106Y-64966736D01*
X35045786Y-64980129D01*
X35044939Y-64993046D01*
X35044500Y-65006487D01*
X33000000Y-65006487D01*
X33000000Y-62955500D01*
X40811809Y-62955500D01*
X40870000Y-62974407D01*
X40900357Y-63010226D01*
X42174922Y-65559358D01*
X42181728Y-65571869D01*
X42188679Y-65583655D01*
X42196309Y-65595625D01*
X42196319Y-65595640D01*
X42262754Y-65692322D01*
X42262763Y-65692333D01*
X42280415Y-65714559D01*
X42280428Y-65714574D01*
X42298854Y-65734736D01*
X42319428Y-65754336D01*
X42404413Y-65824759D01*
X42427492Y-65841333D01*
X42427498Y-65841337D01*
X42427509Y-65841344D01*
X42446440Y-65853044D01*
X42450726Y-65855693D01*
X42475879Y-65868928D01*
X42576880Y-65913449D01*
X42603607Y-65923084D01*
X42629879Y-65930548D01*
X42657691Y-65936406D01*
X42657705Y-65936407D01*
X42657710Y-65936409D01*
X42763639Y-65951163D01*
X42773870Y-65952588D01*
X42788002Y-65954061D01*
X42801658Y-65955008D01*
X42815875Y-65955500D01*
X42815885Y-65955500D01*
X43493512Y-65955500D01*
X43506953Y-65955060D01*
X43519875Y-65954213D01*
X43533273Y-65952893D01*
X43546398Y-65951164D01*
X43546397Y-65951163D01*
X43548338Y-65950907D01*
X43597191Y-65944476D01*
X43643289Y-65938409D01*
X43643300Y-65938407D01*
X43643308Y-65938406D01*
X43669674Y-65933162D01*
X43694638Y-65926473D01*
X43720092Y-65917832D01*
X43816598Y-65877858D01*
X43840705Y-65865970D01*
X43863087Y-65853048D01*
X43885440Y-65838113D01*
X43968314Y-65774521D01*
X43988523Y-65756797D01*
X44006797Y-65738523D01*
X44024521Y-65718314D01*
X44088113Y-65635440D01*
X44103048Y-65613087D01*
X44115970Y-65590705D01*
X44127858Y-65566598D01*
X44167832Y-65470092D01*
X44176473Y-65444638D01*
X44183162Y-65419674D01*
X44188406Y-65393310D01*
X44202895Y-65283256D01*
X44204213Y-65269874D01*
X44205060Y-65256952D01*
X44205500Y-65243511D01*
X44205500Y-64662961D01*
X44224407Y-64604770D01*
X44249585Y-64580588D01*
X44634579Y-64323926D01*
X44648177Y-64314034D01*
X44660875Y-64303977D01*
X44673633Y-64292993D01*
X44774858Y-64198351D01*
X44797459Y-64173453D01*
X44817132Y-64147851D01*
X44835368Y-64119607D01*
X44896872Y-64004687D01*
X44910259Y-63973843D01*
X44920648Y-63943273D01*
X44928826Y-63910660D01*
X44951424Y-63773935D01*
X44953486Y-63757234D01*
X44954811Y-63741090D01*
X44955500Y-63724280D01*
X44955500Y-56488500D01*
X44974407Y-56430309D01*
X45023907Y-56394345D01*
X45054500Y-56389500D01*
X48857835Y-56389500D01*
X48916026Y-56408407D01*
G37*
G04 #@! TD.AperFunction*
G04 #@! TA.AperFunction,Conductor*
G36*
X52000000Y-57400253D02*
G01*
X51981093Y-57413990D01*
X51919907Y-57413990D01*
X51880496Y-57389839D01*
X50800432Y-56309775D01*
X49635543Y-55144886D01*
X49635540Y-55144884D01*
X49490656Y-55000000D01*
X52000000Y-55000000D01*
X52000000Y-57400253D01*
G37*
G04 #@! TD.AperFunction*
G04 #@! TD*
G04 #@! TA.AperFunction,Conductor*
G04 #@! TO.N,GND*
G36*
X59816506Y-33119407D02*
G01*
X59852470Y-33168907D01*
X59852470Y-33230093D01*
X59849779Y-33237386D01*
X59832169Y-33279897D01*
X59823524Y-33305367D01*
X59816840Y-33330312D01*
X59811595Y-33356676D01*
X59811591Y-33356700D01*
X59797106Y-33466736D01*
X59795786Y-33480129D01*
X59794939Y-33493046D01*
X59794500Y-33506487D01*
X59794500Y-66873871D01*
X59775593Y-66932062D01*
X59765504Y-66943875D01*
X58005709Y-68703670D01*
X57996501Y-68713500D01*
X57987979Y-68723219D01*
X57979464Y-68733596D01*
X57911885Y-68821667D01*
X57911871Y-68821687D01*
X57909944Y-68824571D01*
X57861888Y-68862443D01*
X57800750Y-68864836D01*
X57789752Y-68861021D01*
X57720102Y-68832171D01*
X57720071Y-68832159D01*
X57694641Y-68823526D01*
X57694634Y-68823524D01*
X57678117Y-68819099D01*
X57669673Y-68816837D01*
X57669667Y-68816835D01*
X57669666Y-68816835D01*
X57643311Y-68811593D01*
X57643301Y-68811592D01*
X57575345Y-68802646D01*
X57533256Y-68797105D01*
X57528076Y-68796594D01*
X57519873Y-68795786D01*
X57506953Y-68794939D01*
X57493512Y-68794500D01*
X54506488Y-68794500D01*
X54493046Y-68794939D01*
X54480129Y-68795786D01*
X54468848Y-68796897D01*
X54466745Y-68797105D01*
X54466741Y-68797105D01*
X54466736Y-68797106D01*
X54356697Y-68811592D01*
X54356681Y-68811594D01*
X54330335Y-68816834D01*
X54330312Y-68816839D01*
X54305382Y-68823519D01*
X54279915Y-68832163D01*
X54279912Y-68832164D01*
X54183407Y-68872136D01*
X54159273Y-68884038D01*
X54136913Y-68896949D01*
X54114568Y-68911879D01*
X54114561Y-68911884D01*
X54031689Y-68975474D01*
X54031677Y-68975484D01*
X54011464Y-68993212D01*
X53993212Y-69011464D01*
X53975484Y-69031677D01*
X53975474Y-69031689D01*
X53911884Y-69114561D01*
X53911879Y-69114568D01*
X53896949Y-69136913D01*
X53884038Y-69159273D01*
X53872136Y-69183407D01*
X53832164Y-69279912D01*
X53832163Y-69279915D01*
X53823519Y-69305382D01*
X53816839Y-69330312D01*
X53816834Y-69330335D01*
X53811594Y-69356681D01*
X53811592Y-69356697D01*
X53809967Y-69369042D01*
X53783627Y-69424267D01*
X53729856Y-69453463D01*
X53669194Y-69445477D01*
X53641810Y-69426125D01*
X53613043Y-69397358D01*
X53500151Y-69339836D01*
X53500147Y-69339835D01*
X53406484Y-69325000D01*
X53275001Y-69325000D01*
X53275000Y-69325001D01*
X53275000Y-70674998D01*
X53275001Y-70674999D01*
X53406483Y-70674999D01*
X53406485Y-70674998D01*
X53500141Y-70660166D01*
X53500151Y-70660163D01*
X53613043Y-70602641D01*
X53625496Y-70590189D01*
X53680013Y-70562412D01*
X53740445Y-70571983D01*
X53783710Y-70615248D01*
X53794500Y-70660193D01*
X53794500Y-71264872D01*
X53775593Y-71323063D01*
X53726093Y-71359027D01*
X53664907Y-71359027D01*
X53625496Y-71334876D01*
X53090313Y-70799693D01*
X53062536Y-70745176D01*
X53072107Y-70684744D01*
X53075000Y-70680762D01*
X53075000Y-70100001D01*
X53074999Y-70100000D01*
X52575000Y-70100000D01*
X52552812Y-70122187D01*
X52498295Y-70149963D01*
X52437863Y-70140391D01*
X52412806Y-70122186D01*
X52000000Y-69709380D01*
X52000000Y-69693515D01*
X52575000Y-69693515D01*
X52575000Y-69899999D01*
X52575001Y-69900000D01*
X53074999Y-69900000D01*
X53075000Y-69899999D01*
X53075000Y-69325001D01*
X53074999Y-69325000D01*
X52943517Y-69325000D01*
X52943514Y-69325001D01*
X52849858Y-69339833D01*
X52849848Y-69339836D01*
X52736956Y-69397358D01*
X52647358Y-69486956D01*
X52589836Y-69599848D01*
X52589835Y-69599852D01*
X52575000Y-69693515D01*
X52000000Y-69693515D01*
X52000000Y-66530253D01*
X52049500Y-66530253D01*
X52049500Y-67569746D01*
X52049501Y-67569758D01*
X52061132Y-67628227D01*
X52061134Y-67628233D01*
X52105445Y-67694548D01*
X52105448Y-67694552D01*
X52171769Y-67738867D01*
X52216231Y-67747711D01*
X52230241Y-67750498D01*
X52230246Y-67750498D01*
X52230252Y-67750500D01*
X52230253Y-67750500D01*
X54779747Y-67750500D01*
X54779748Y-67750500D01*
X54838231Y-67738867D01*
X54904552Y-67694552D01*
X54948867Y-67628231D01*
X54960500Y-67569748D01*
X54960500Y-66530253D01*
X55359500Y-66530253D01*
X55359500Y-67569746D01*
X55359501Y-67569758D01*
X55371132Y-67628227D01*
X55371134Y-67628233D01*
X55415445Y-67694548D01*
X55415448Y-67694552D01*
X55481769Y-67738867D01*
X55526231Y-67747711D01*
X55540241Y-67750498D01*
X55540246Y-67750498D01*
X55540252Y-67750500D01*
X55540253Y-67750500D01*
X58089747Y-67750500D01*
X58089748Y-67750500D01*
X58148231Y-67738867D01*
X58214552Y-67694552D01*
X58258867Y-67628231D01*
X58270500Y-67569748D01*
X58270500Y-66530252D01*
X58258867Y-66471769D01*
X58214552Y-66405448D01*
X58214548Y-66405445D01*
X58148233Y-66361134D01*
X58148231Y-66361133D01*
X58148228Y-66361132D01*
X58148227Y-66361132D01*
X58089758Y-66349501D01*
X58089748Y-66349500D01*
X55540252Y-66349500D01*
X55540251Y-66349500D01*
X55540241Y-66349501D01*
X55481772Y-66361132D01*
X55481766Y-66361134D01*
X55415451Y-66405445D01*
X55415445Y-66405451D01*
X55371134Y-66471766D01*
X55371132Y-66471772D01*
X55359501Y-66530241D01*
X55359500Y-66530253D01*
X54960500Y-66530253D01*
X54960500Y-66530252D01*
X54948867Y-66471769D01*
X54904552Y-66405448D01*
X54904548Y-66405445D01*
X54838233Y-66361134D01*
X54838231Y-66361133D01*
X54838228Y-66361132D01*
X54838227Y-66361132D01*
X54779758Y-66349501D01*
X54779748Y-66349500D01*
X52230252Y-66349500D01*
X52230251Y-66349500D01*
X52230241Y-66349501D01*
X52171772Y-66361132D01*
X52171766Y-66361134D01*
X52105451Y-66405445D01*
X52105445Y-66405451D01*
X52061134Y-66471766D01*
X52061132Y-66471772D01*
X52049501Y-66530241D01*
X52049500Y-66530253D01*
X52000000Y-66530253D01*
X52000000Y-64612657D01*
X52020505Y-64633162D01*
X52048281Y-64687677D01*
X52049500Y-64703164D01*
X52049500Y-65029746D01*
X52049501Y-65029758D01*
X52053528Y-65050000D01*
X52061133Y-65088231D01*
X52105448Y-65154552D01*
X52171769Y-65198867D01*
X52216231Y-65207711D01*
X52230241Y-65210498D01*
X52230246Y-65210498D01*
X52230252Y-65210500D01*
X52230253Y-65210500D01*
X58089747Y-65210500D01*
X58089748Y-65210500D01*
X58148231Y-65198867D01*
X58214552Y-65154552D01*
X58258867Y-65088231D01*
X58270500Y-65029748D01*
X58270500Y-63990252D01*
X58258867Y-63931769D01*
X58214552Y-63865448D01*
X58214548Y-63865445D01*
X58148233Y-63821134D01*
X58148231Y-63821133D01*
X58148228Y-63821132D01*
X58148227Y-63821132D01*
X58089758Y-63809501D01*
X58089748Y-63809500D01*
X58089747Y-63809500D01*
X53219165Y-63809500D01*
X53160974Y-63790593D01*
X53149161Y-63780504D01*
X52278496Y-62909839D01*
X52274869Y-62902721D01*
X52268407Y-62898026D01*
X52261243Y-62875977D01*
X52250719Y-62855322D01*
X52249500Y-62839835D01*
X52249500Y-62769500D01*
X52268407Y-62711309D01*
X52317907Y-62675345D01*
X52348500Y-62670500D01*
X54779747Y-62670500D01*
X54779748Y-62670500D01*
X54838231Y-62658867D01*
X54904552Y-62614552D01*
X54948867Y-62548231D01*
X54960500Y-62489748D01*
X54960500Y-61450253D01*
X55359500Y-61450253D01*
X55359500Y-62489746D01*
X55359501Y-62489758D01*
X55371132Y-62548227D01*
X55371134Y-62548233D01*
X55399517Y-62590710D01*
X55415448Y-62614552D01*
X55481769Y-62658867D01*
X55526231Y-62667711D01*
X55540241Y-62670498D01*
X55540246Y-62670498D01*
X55540252Y-62670500D01*
X55540253Y-62670500D01*
X58089747Y-62670500D01*
X58089748Y-62670500D01*
X58148231Y-62658867D01*
X58214552Y-62614552D01*
X58258867Y-62548231D01*
X58270500Y-62489748D01*
X58270500Y-61450252D01*
X58258867Y-61391769D01*
X58214552Y-61325448D01*
X58214548Y-61325445D01*
X58148233Y-61281134D01*
X58148231Y-61281133D01*
X58148228Y-61281132D01*
X58148227Y-61281132D01*
X58089758Y-61269501D01*
X58089748Y-61269500D01*
X55540252Y-61269500D01*
X55540251Y-61269500D01*
X55540241Y-61269501D01*
X55481772Y-61281132D01*
X55481766Y-61281134D01*
X55415451Y-61325445D01*
X55415445Y-61325451D01*
X55371134Y-61391766D01*
X55371132Y-61391772D01*
X55359501Y-61450241D01*
X55359500Y-61450253D01*
X54960500Y-61450253D01*
X54960500Y-61450252D01*
X54948867Y-61391769D01*
X54904552Y-61325448D01*
X54904548Y-61325445D01*
X54838233Y-61281134D01*
X54838231Y-61281133D01*
X54838228Y-61281132D01*
X54838227Y-61281132D01*
X54779758Y-61269501D01*
X54779748Y-61269500D01*
X54779747Y-61269500D01*
X52348500Y-61269500D01*
X52290309Y-61250593D01*
X52254345Y-61201093D01*
X52249500Y-61170500D01*
X52249500Y-60229000D01*
X52268407Y-60170809D01*
X52317907Y-60134845D01*
X52348500Y-60130000D01*
X53404999Y-60130000D01*
X53405000Y-60129999D01*
X53405000Y-59530001D01*
X53605000Y-59530001D01*
X53605000Y-60129999D01*
X53605001Y-60130000D01*
X54779697Y-60130000D01*
X54779700Y-60129999D01*
X54838036Y-60118396D01*
X54904189Y-60074193D01*
X54904193Y-60074189D01*
X54948396Y-60008036D01*
X54959999Y-59949700D01*
X54960000Y-59949697D01*
X54960000Y-59530001D01*
X55360000Y-59530001D01*
X55360000Y-59949700D01*
X55371603Y-60008036D01*
X55415806Y-60074189D01*
X55415810Y-60074193D01*
X55481963Y-60118396D01*
X55540299Y-60129999D01*
X55540303Y-60130000D01*
X56714999Y-60130000D01*
X56715000Y-60129999D01*
X56715000Y-59530001D01*
X56915000Y-59530001D01*
X56915000Y-60129999D01*
X56915001Y-60130000D01*
X58089697Y-60130000D01*
X58089700Y-60129999D01*
X58148036Y-60118396D01*
X58214189Y-60074193D01*
X58214193Y-60074189D01*
X58258396Y-60008036D01*
X58269999Y-59949700D01*
X58270000Y-59949697D01*
X58270000Y-59530001D01*
X58269999Y-59530000D01*
X56915001Y-59530000D01*
X56915000Y-59530001D01*
X56715000Y-59530001D01*
X56714999Y-59530000D01*
X55360001Y-59530000D01*
X55360000Y-59530001D01*
X54960000Y-59530001D01*
X54959999Y-59530000D01*
X53605001Y-59530000D01*
X53605000Y-59530001D01*
X53405000Y-59530001D01*
X53405000Y-58730001D01*
X53605000Y-58730001D01*
X53605000Y-59329999D01*
X53605001Y-59330000D01*
X54959999Y-59330000D01*
X54960000Y-59329999D01*
X54960000Y-58910302D01*
X54959999Y-58910299D01*
X55360000Y-58910299D01*
X55360000Y-59329999D01*
X55360001Y-59330000D01*
X56714999Y-59330000D01*
X56715000Y-59329999D01*
X56715000Y-58730001D01*
X56915000Y-58730001D01*
X56915000Y-59329999D01*
X56915001Y-59330000D01*
X58269999Y-59330000D01*
X58270000Y-59329999D01*
X58270000Y-58910302D01*
X58269999Y-58910299D01*
X58258396Y-58851963D01*
X58214193Y-58785810D01*
X58214189Y-58785806D01*
X58148036Y-58741603D01*
X58089700Y-58730000D01*
X56915001Y-58730000D01*
X56915000Y-58730001D01*
X56715000Y-58730001D01*
X56714999Y-58730000D01*
X55540299Y-58730000D01*
X55481963Y-58741603D01*
X55415810Y-58785806D01*
X55415806Y-58785810D01*
X55371603Y-58851963D01*
X55360000Y-58910299D01*
X54959999Y-58910299D01*
X54948396Y-58851963D01*
X54904193Y-58785810D01*
X54904189Y-58785806D01*
X54838036Y-58741603D01*
X54779700Y-58730000D01*
X53605001Y-58730000D01*
X53605000Y-58730001D01*
X53405000Y-58730001D01*
X53404999Y-58730000D01*
X52348500Y-58730000D01*
X52290309Y-58711093D01*
X52254345Y-58661593D01*
X52249500Y-58631000D01*
X52249500Y-57980011D01*
X52249500Y-57980007D01*
X52238647Y-57925448D01*
X52238646Y-57925445D01*
X52235981Y-57912045D01*
X52222580Y-57844672D01*
X52212944Y-57821408D01*
X52173999Y-57727385D01*
X52169199Y-57666388D01*
X52201168Y-57614219D01*
X52257696Y-57590805D01*
X52265463Y-57590500D01*
X54779747Y-57590500D01*
X54779748Y-57590500D01*
X54838231Y-57578867D01*
X54904552Y-57534552D01*
X54948867Y-57468231D01*
X54960500Y-57409748D01*
X54960500Y-56370253D01*
X55359500Y-56370253D01*
X55359500Y-57409746D01*
X55359501Y-57409758D01*
X55371132Y-57468227D01*
X55371133Y-57468231D01*
X55415448Y-57534552D01*
X55481769Y-57578867D01*
X55526231Y-57587711D01*
X55540241Y-57590498D01*
X55540246Y-57590498D01*
X55540252Y-57590500D01*
X55540253Y-57590500D01*
X58089747Y-57590500D01*
X58089748Y-57590500D01*
X58148231Y-57578867D01*
X58214552Y-57534552D01*
X58258867Y-57468231D01*
X58270500Y-57409748D01*
X58270500Y-56370252D01*
X58258867Y-56311769D01*
X58214552Y-56245448D01*
X58214548Y-56245445D01*
X58148233Y-56201134D01*
X58148231Y-56201133D01*
X58148228Y-56201132D01*
X58148227Y-56201132D01*
X58089758Y-56189501D01*
X58089748Y-56189500D01*
X55540252Y-56189500D01*
X55540251Y-56189500D01*
X55540241Y-56189501D01*
X55481772Y-56201132D01*
X55481766Y-56201134D01*
X55415451Y-56245445D01*
X55415445Y-56245451D01*
X55371134Y-56311766D01*
X55371132Y-56311772D01*
X55359501Y-56370241D01*
X55359500Y-56370253D01*
X54960500Y-56370253D01*
X54960500Y-56370252D01*
X54948867Y-56311769D01*
X54904552Y-56245448D01*
X54904548Y-56245445D01*
X54838233Y-56201134D01*
X54838231Y-56201133D01*
X54838228Y-56201132D01*
X54838227Y-56201132D01*
X54779758Y-56189501D01*
X54779748Y-56189500D01*
X52230252Y-56189500D01*
X52230251Y-56189500D01*
X52230241Y-56189501D01*
X52171772Y-56201132D01*
X52171766Y-56201134D01*
X52105451Y-56245445D01*
X52105445Y-56245451D01*
X52061134Y-56311766D01*
X52061132Y-56311772D01*
X52049501Y-56370241D01*
X52049500Y-56370253D01*
X52049500Y-57319836D01*
X52030593Y-57378027D01*
X52000000Y-57400254D01*
X52000000Y-55000000D01*
X49490656Y-55000000D01*
X48320909Y-53830253D01*
X52049500Y-53830253D01*
X52049500Y-54869746D01*
X52049501Y-54869758D01*
X52061132Y-54928227D01*
X52061134Y-54928233D01*
X52094194Y-54977710D01*
X52105448Y-54994552D01*
X52171769Y-55038867D01*
X52216231Y-55047711D01*
X52230241Y-55050498D01*
X52230246Y-55050498D01*
X52230252Y-55050500D01*
X52230253Y-55050500D01*
X54779747Y-55050500D01*
X54779748Y-55050500D01*
X54838231Y-55038867D01*
X54904552Y-54994552D01*
X54948867Y-54928231D01*
X54960500Y-54869748D01*
X54960500Y-53830253D01*
X55359500Y-53830253D01*
X55359500Y-54869746D01*
X55359501Y-54869758D01*
X55371132Y-54928227D01*
X55371134Y-54928233D01*
X55404194Y-54977710D01*
X55415448Y-54994552D01*
X55481769Y-55038867D01*
X55526231Y-55047711D01*
X55540241Y-55050498D01*
X55540246Y-55050498D01*
X55540252Y-55050500D01*
X55540253Y-55050500D01*
X58089747Y-55050500D01*
X58089748Y-55050500D01*
X58148231Y-55038867D01*
X58214552Y-54994552D01*
X58258867Y-54928231D01*
X58270500Y-54869748D01*
X58270500Y-53830252D01*
X58258867Y-53771769D01*
X58214552Y-53705448D01*
X58214548Y-53705445D01*
X58148233Y-53661134D01*
X58148231Y-53661133D01*
X58148228Y-53661132D01*
X58148227Y-53661132D01*
X58089758Y-53649501D01*
X58089748Y-53649500D01*
X55540252Y-53649500D01*
X55540251Y-53649500D01*
X55540241Y-53649501D01*
X55481772Y-53661132D01*
X55481766Y-53661134D01*
X55415451Y-53705445D01*
X55415445Y-53705451D01*
X55371134Y-53771766D01*
X55371132Y-53771772D01*
X55359501Y-53830241D01*
X55359500Y-53830253D01*
X54960500Y-53830253D01*
X54960500Y-53830252D01*
X54948867Y-53771769D01*
X54904552Y-53705448D01*
X54904548Y-53705445D01*
X54838233Y-53661134D01*
X54838231Y-53661133D01*
X54838228Y-53661132D01*
X54838227Y-53661132D01*
X54779758Y-53649501D01*
X54779748Y-53649500D01*
X52230252Y-53649500D01*
X52230251Y-53649500D01*
X52230241Y-53649501D01*
X52171772Y-53661132D01*
X52171766Y-53661134D01*
X52105451Y-53705445D01*
X52105445Y-53705451D01*
X52061134Y-53771766D01*
X52061132Y-53771772D01*
X52049501Y-53830241D01*
X52049500Y-53830253D01*
X48320909Y-53830253D01*
X46779496Y-52288839D01*
X46751719Y-52234322D01*
X46750500Y-52218835D01*
X46750500Y-51290253D01*
X52049500Y-51290253D01*
X52049500Y-52329746D01*
X52049501Y-52329758D01*
X52061132Y-52388227D01*
X52061133Y-52388231D01*
X52105448Y-52454552D01*
X52171769Y-52498867D01*
X52216231Y-52507711D01*
X52230241Y-52510498D01*
X52230246Y-52510498D01*
X52230252Y-52510500D01*
X52230253Y-52510500D01*
X54779747Y-52510500D01*
X54779748Y-52510500D01*
X54838231Y-52498867D01*
X54904552Y-52454552D01*
X54948867Y-52388231D01*
X54960500Y-52329748D01*
X54960500Y-51290253D01*
X55359500Y-51290253D01*
X55359500Y-52329746D01*
X55359501Y-52329758D01*
X55371132Y-52388227D01*
X55371133Y-52388231D01*
X55415448Y-52454552D01*
X55481769Y-52498867D01*
X55526231Y-52507711D01*
X55540241Y-52510498D01*
X55540246Y-52510498D01*
X55540252Y-52510500D01*
X55540253Y-52510500D01*
X58089747Y-52510500D01*
X58089748Y-52510500D01*
X58148231Y-52498867D01*
X58214552Y-52454552D01*
X58258867Y-52388231D01*
X58270500Y-52329748D01*
X58270500Y-51290252D01*
X58258867Y-51231769D01*
X58214552Y-51165448D01*
X58214548Y-51165445D01*
X58148233Y-51121134D01*
X58148231Y-51121133D01*
X58148228Y-51121132D01*
X58148227Y-51121132D01*
X58089758Y-51109501D01*
X58089748Y-51109500D01*
X55540252Y-51109500D01*
X55540251Y-51109500D01*
X55540241Y-51109501D01*
X55481772Y-51121132D01*
X55481766Y-51121134D01*
X55415451Y-51165445D01*
X55415445Y-51165451D01*
X55371134Y-51231766D01*
X55371132Y-51231772D01*
X55359501Y-51290241D01*
X55359500Y-51290253D01*
X54960500Y-51290253D01*
X54960500Y-51290252D01*
X54948867Y-51231769D01*
X54904552Y-51165448D01*
X54904548Y-51165445D01*
X54838233Y-51121134D01*
X54838231Y-51121133D01*
X54838228Y-51121132D01*
X54838227Y-51121132D01*
X54779758Y-51109501D01*
X54779748Y-51109500D01*
X52230252Y-51109500D01*
X52230251Y-51109500D01*
X52230241Y-51109501D01*
X52171772Y-51121132D01*
X52171766Y-51121134D01*
X52105451Y-51165445D01*
X52105445Y-51165451D01*
X52061134Y-51231766D01*
X52061132Y-51231772D01*
X52049501Y-51290241D01*
X52049500Y-51290253D01*
X46750500Y-51290253D01*
X46750500Y-48750253D01*
X52049500Y-48750253D01*
X52049500Y-49789746D01*
X52049501Y-49789758D01*
X52061132Y-49848227D01*
X52061133Y-49848231D01*
X52105448Y-49914552D01*
X52171769Y-49958867D01*
X52216231Y-49967711D01*
X52230241Y-49970498D01*
X52230246Y-49970498D01*
X52230252Y-49970500D01*
X52230253Y-49970500D01*
X54779747Y-49970500D01*
X54779748Y-49970500D01*
X54838231Y-49958867D01*
X54904552Y-49914552D01*
X54948867Y-49848231D01*
X54960500Y-49789748D01*
X54960500Y-48750253D01*
X55359500Y-48750253D01*
X55359500Y-49789746D01*
X55359501Y-49789758D01*
X55371132Y-49848227D01*
X55371133Y-49848231D01*
X55415448Y-49914552D01*
X55481769Y-49958867D01*
X55526231Y-49967711D01*
X55540241Y-49970498D01*
X55540246Y-49970498D01*
X55540252Y-49970500D01*
X55540253Y-49970500D01*
X58089747Y-49970500D01*
X58089748Y-49970500D01*
X58148231Y-49958867D01*
X58214552Y-49914552D01*
X58258867Y-49848231D01*
X58270500Y-49789748D01*
X58270500Y-48750252D01*
X58258867Y-48691769D01*
X58214552Y-48625448D01*
X58214548Y-48625445D01*
X58148233Y-48581134D01*
X58148231Y-48581133D01*
X58148228Y-48581132D01*
X58148227Y-48581132D01*
X58089758Y-48569501D01*
X58089748Y-48569500D01*
X55540252Y-48569500D01*
X55540251Y-48569500D01*
X55540241Y-48569501D01*
X55481772Y-48581132D01*
X55481766Y-48581134D01*
X55415451Y-48625445D01*
X55415445Y-48625451D01*
X55371134Y-48691766D01*
X55371132Y-48691772D01*
X55359501Y-48750241D01*
X55359500Y-48750253D01*
X54960500Y-48750253D01*
X54960500Y-48750252D01*
X54948867Y-48691769D01*
X54904552Y-48625448D01*
X54904548Y-48625445D01*
X54838233Y-48581134D01*
X54838231Y-48581133D01*
X54838228Y-48581132D01*
X54838227Y-48581132D01*
X54779758Y-48569501D01*
X54779748Y-48569500D01*
X52230252Y-48569500D01*
X52230251Y-48569500D01*
X52230241Y-48569501D01*
X52171772Y-48581132D01*
X52171766Y-48581134D01*
X52105451Y-48625445D01*
X52105445Y-48625451D01*
X52061134Y-48691766D01*
X52061132Y-48691772D01*
X52049501Y-48750241D01*
X52049500Y-48750253D01*
X46750500Y-48750253D01*
X46750500Y-46210253D01*
X52049500Y-46210253D01*
X52049500Y-47249746D01*
X52049501Y-47249758D01*
X52061132Y-47308227D01*
X52061133Y-47308231D01*
X52105448Y-47374552D01*
X52171769Y-47418867D01*
X52216231Y-47427711D01*
X52230241Y-47430498D01*
X52230246Y-47430498D01*
X52230252Y-47430500D01*
X52230253Y-47430500D01*
X54779747Y-47430500D01*
X54779748Y-47430500D01*
X54838231Y-47418867D01*
X54904552Y-47374552D01*
X54948867Y-47308231D01*
X54960500Y-47249748D01*
X54960500Y-46210253D01*
X55359500Y-46210253D01*
X55359500Y-47249746D01*
X55359501Y-47249758D01*
X55371132Y-47308227D01*
X55371133Y-47308231D01*
X55415448Y-47374552D01*
X55481769Y-47418867D01*
X55526231Y-47427711D01*
X55540241Y-47430498D01*
X55540246Y-47430498D01*
X55540252Y-47430500D01*
X55540253Y-47430500D01*
X58089747Y-47430500D01*
X58089748Y-47430500D01*
X58148231Y-47418867D01*
X58214552Y-47374552D01*
X58258867Y-47308231D01*
X58270500Y-47249748D01*
X58270500Y-46210252D01*
X58258867Y-46151769D01*
X58214552Y-46085448D01*
X58213286Y-46084602D01*
X58148233Y-46041134D01*
X58148231Y-46041133D01*
X58148228Y-46041132D01*
X58148227Y-46041132D01*
X58089758Y-46029501D01*
X58089748Y-46029500D01*
X55540252Y-46029500D01*
X55540251Y-46029500D01*
X55540241Y-46029501D01*
X55481772Y-46041132D01*
X55481766Y-46041134D01*
X55415451Y-46085445D01*
X55415445Y-46085451D01*
X55371134Y-46151766D01*
X55371132Y-46151772D01*
X55359501Y-46210241D01*
X55359500Y-46210253D01*
X54960500Y-46210253D01*
X54960500Y-46210252D01*
X54948867Y-46151769D01*
X54904552Y-46085448D01*
X54903286Y-46084602D01*
X54838233Y-46041134D01*
X54838231Y-46041133D01*
X54838228Y-46041132D01*
X54838227Y-46041132D01*
X54779758Y-46029501D01*
X54779748Y-46029500D01*
X52230252Y-46029500D01*
X52230251Y-46029500D01*
X52230241Y-46029501D01*
X52171772Y-46041132D01*
X52171766Y-46041134D01*
X52105451Y-46085445D01*
X52105445Y-46085451D01*
X52061134Y-46151766D01*
X52061132Y-46151772D01*
X52049501Y-46210241D01*
X52049500Y-46210253D01*
X46750500Y-46210253D01*
X46750500Y-43670253D01*
X52049500Y-43670253D01*
X52049500Y-44709746D01*
X52049501Y-44709758D01*
X52061132Y-44768227D01*
X52061133Y-44768231D01*
X52105448Y-44834552D01*
X52171769Y-44878867D01*
X52216231Y-44887711D01*
X52230241Y-44890498D01*
X52230246Y-44890498D01*
X52230252Y-44890500D01*
X52230253Y-44890500D01*
X54779747Y-44890500D01*
X54779748Y-44890500D01*
X54838231Y-44878867D01*
X54904552Y-44834552D01*
X54948867Y-44768231D01*
X54960500Y-44709748D01*
X54960500Y-43670253D01*
X55359500Y-43670253D01*
X55359500Y-44709746D01*
X55359501Y-44709758D01*
X55371132Y-44768227D01*
X55371133Y-44768231D01*
X55415448Y-44834552D01*
X55481769Y-44878867D01*
X55526231Y-44887711D01*
X55540241Y-44890498D01*
X55540246Y-44890498D01*
X55540252Y-44890500D01*
X55540253Y-44890500D01*
X58089747Y-44890500D01*
X58089748Y-44890500D01*
X58148231Y-44878867D01*
X58214552Y-44834552D01*
X58258867Y-44768231D01*
X58270500Y-44709748D01*
X58270500Y-43670252D01*
X58258867Y-43611769D01*
X58214552Y-43545448D01*
X58214548Y-43545445D01*
X58148233Y-43501134D01*
X58148231Y-43501133D01*
X58148228Y-43501132D01*
X58148227Y-43501132D01*
X58089758Y-43489501D01*
X58089748Y-43489500D01*
X55540252Y-43489500D01*
X55540251Y-43489500D01*
X55540241Y-43489501D01*
X55481772Y-43501132D01*
X55481766Y-43501134D01*
X55415451Y-43545445D01*
X55415445Y-43545451D01*
X55371134Y-43611766D01*
X55371132Y-43611772D01*
X55359501Y-43670241D01*
X55359500Y-43670253D01*
X54960500Y-43670253D01*
X54960500Y-43670252D01*
X54948867Y-43611769D01*
X54904552Y-43545448D01*
X54904548Y-43545445D01*
X54838233Y-43501134D01*
X54838231Y-43501133D01*
X54838228Y-43501132D01*
X54838227Y-43501132D01*
X54779758Y-43489501D01*
X54779748Y-43489500D01*
X52230252Y-43489500D01*
X52230251Y-43489500D01*
X52230241Y-43489501D01*
X52171772Y-43501132D01*
X52171766Y-43501134D01*
X52105451Y-43545445D01*
X52105445Y-43545451D01*
X52061134Y-43611766D01*
X52061132Y-43611772D01*
X52049501Y-43670241D01*
X52049500Y-43670253D01*
X46750500Y-43670253D01*
X46750500Y-41130253D01*
X52049500Y-41130253D01*
X52049500Y-42169746D01*
X52049501Y-42169758D01*
X52056701Y-42205951D01*
X52061133Y-42228231D01*
X52105448Y-42294552D01*
X52171769Y-42338867D01*
X52216231Y-42347711D01*
X52230241Y-42350498D01*
X52230246Y-42350498D01*
X52230252Y-42350500D01*
X52230253Y-42350500D01*
X54779747Y-42350500D01*
X54779748Y-42350500D01*
X54838231Y-42338867D01*
X54904552Y-42294552D01*
X54948867Y-42228231D01*
X54960500Y-42169748D01*
X54960500Y-41130253D01*
X55359500Y-41130253D01*
X55359500Y-42169746D01*
X55359501Y-42169758D01*
X55366701Y-42205951D01*
X55371133Y-42228231D01*
X55415448Y-42294552D01*
X55481769Y-42338867D01*
X55526231Y-42347711D01*
X55540241Y-42350498D01*
X55540246Y-42350498D01*
X55540252Y-42350500D01*
X55540253Y-42350500D01*
X58089747Y-42350500D01*
X58089748Y-42350500D01*
X58148231Y-42338867D01*
X58214552Y-42294552D01*
X58258867Y-42228231D01*
X58270500Y-42169748D01*
X58270500Y-41130252D01*
X58258867Y-41071769D01*
X58214552Y-41005448D01*
X58214548Y-41005445D01*
X58148233Y-40961134D01*
X58148231Y-40961133D01*
X58148228Y-40961132D01*
X58148227Y-40961132D01*
X58089758Y-40949501D01*
X58089748Y-40949500D01*
X55540252Y-40949500D01*
X55540251Y-40949500D01*
X55540241Y-40949501D01*
X55481772Y-40961132D01*
X55481766Y-40961134D01*
X55415451Y-41005445D01*
X55415445Y-41005451D01*
X55371134Y-41071766D01*
X55371132Y-41071772D01*
X55359501Y-41130241D01*
X55359500Y-41130253D01*
X54960500Y-41130253D01*
X54960500Y-41130252D01*
X54948867Y-41071769D01*
X54904552Y-41005448D01*
X54904548Y-41005445D01*
X54838233Y-40961134D01*
X54838231Y-40961133D01*
X54838228Y-40961132D01*
X54838227Y-40961132D01*
X54779758Y-40949501D01*
X54779748Y-40949500D01*
X52230252Y-40949500D01*
X52230251Y-40949500D01*
X52230241Y-40949501D01*
X52171772Y-40961132D01*
X52171766Y-40961134D01*
X52105451Y-41005445D01*
X52105445Y-41005451D01*
X52061134Y-41071766D01*
X52061132Y-41071772D01*
X52049501Y-41130241D01*
X52049500Y-41130253D01*
X46750500Y-41130253D01*
X46750500Y-38590253D01*
X52049500Y-38590253D01*
X52049500Y-39629746D01*
X52049501Y-39629758D01*
X52061132Y-39688227D01*
X52061133Y-39688231D01*
X52105448Y-39754552D01*
X52171769Y-39798867D01*
X52216231Y-39807711D01*
X52230241Y-39810498D01*
X52230246Y-39810498D01*
X52230252Y-39810500D01*
X52230253Y-39810500D01*
X54779747Y-39810500D01*
X54779748Y-39810500D01*
X54838231Y-39798867D01*
X54904552Y-39754552D01*
X54948867Y-39688231D01*
X54960500Y-39629748D01*
X54960500Y-38590253D01*
X55359500Y-38590253D01*
X55359500Y-39629746D01*
X55359501Y-39629758D01*
X55371132Y-39688227D01*
X55371133Y-39688231D01*
X55415448Y-39754552D01*
X55481769Y-39798867D01*
X55526231Y-39807711D01*
X55540241Y-39810498D01*
X55540246Y-39810498D01*
X55540252Y-39810500D01*
X55540253Y-39810500D01*
X58089747Y-39810500D01*
X58089748Y-39810500D01*
X58148231Y-39798867D01*
X58214552Y-39754552D01*
X58258867Y-39688231D01*
X58270500Y-39629748D01*
X58270500Y-38590252D01*
X58258867Y-38531769D01*
X58214552Y-38465448D01*
X58214548Y-38465445D01*
X58148233Y-38421134D01*
X58148231Y-38421133D01*
X58148228Y-38421132D01*
X58148227Y-38421132D01*
X58089758Y-38409501D01*
X58089748Y-38409500D01*
X55540252Y-38409500D01*
X55540251Y-38409500D01*
X55540241Y-38409501D01*
X55481772Y-38421132D01*
X55481766Y-38421134D01*
X55415451Y-38465445D01*
X55415445Y-38465451D01*
X55371134Y-38531766D01*
X55371132Y-38531772D01*
X55359501Y-38590241D01*
X55359500Y-38590253D01*
X54960500Y-38590253D01*
X54960500Y-38590252D01*
X54948867Y-38531769D01*
X54904552Y-38465448D01*
X54904548Y-38465445D01*
X54838233Y-38421134D01*
X54838231Y-38421133D01*
X54838228Y-38421132D01*
X54838227Y-38421132D01*
X54779758Y-38409501D01*
X54779748Y-38409500D01*
X52230252Y-38409500D01*
X52230251Y-38409500D01*
X52230241Y-38409501D01*
X52171772Y-38421132D01*
X52171766Y-38421134D01*
X52105451Y-38465445D01*
X52105445Y-38465451D01*
X52061134Y-38531766D01*
X52061132Y-38531772D01*
X52049501Y-38590241D01*
X52049500Y-38590253D01*
X46750500Y-38590253D01*
X46750500Y-36431008D01*
X46750499Y-36431004D01*
X46723580Y-36295672D01*
X46670775Y-36168189D01*
X46670774Y-36168187D01*
X46670771Y-36168182D01*
X46594114Y-36053458D01*
X46510159Y-35969503D01*
X46482382Y-35914986D01*
X46491953Y-35854554D01*
X46535218Y-35811289D01*
X46580159Y-35800499D01*
X46844864Y-35800499D01*
X46869991Y-35797585D01*
X46972765Y-35752206D01*
X46972766Y-35752204D01*
X46981157Y-35748500D01*
X46982205Y-35750875D01*
X47027739Y-35737462D01*
X47067948Y-35750526D01*
X47068843Y-35748500D01*
X47077233Y-35752204D01*
X47077235Y-35752206D01*
X47180009Y-35797585D01*
X47205135Y-35800500D01*
X47494864Y-35800499D01*
X47519991Y-35797585D01*
X47622765Y-35752206D01*
X47622766Y-35752204D01*
X47631157Y-35748500D01*
X47632205Y-35750875D01*
X47677739Y-35737462D01*
X47717948Y-35750526D01*
X47718843Y-35748500D01*
X47727233Y-35752204D01*
X47727235Y-35752206D01*
X47830009Y-35797585D01*
X47855135Y-35800500D01*
X48144864Y-35800499D01*
X48169991Y-35797585D01*
X48272765Y-35752206D01*
X48272766Y-35752204D01*
X48281157Y-35748500D01*
X48282205Y-35750875D01*
X48327739Y-35737462D01*
X48367948Y-35750526D01*
X48368843Y-35748500D01*
X48377233Y-35752204D01*
X48377235Y-35752206D01*
X48480009Y-35797585D01*
X48505135Y-35800500D01*
X48794864Y-35800499D01*
X48819991Y-35797585D01*
X48922765Y-35752206D01*
X48922766Y-35752204D01*
X48931157Y-35748500D01*
X48932205Y-35750875D01*
X48977739Y-35737462D01*
X49017948Y-35750526D01*
X49018843Y-35748500D01*
X49027233Y-35752204D01*
X49027235Y-35752206D01*
X49130009Y-35797585D01*
X49155135Y-35800500D01*
X49444864Y-35800499D01*
X49469991Y-35797585D01*
X49469995Y-35797583D01*
X49474509Y-35796356D01*
X49535622Y-35799323D01*
X49583320Y-35837644D01*
X49599500Y-35891883D01*
X49599500Y-36166159D01*
X49586236Y-36215659D01*
X49533609Y-36306809D01*
X49533608Y-36306814D01*
X49499500Y-36434108D01*
X49499500Y-36565892D01*
X49529579Y-36678151D01*
X49533609Y-36693190D01*
X49599496Y-36807309D01*
X49599498Y-36807311D01*
X49599500Y-36807314D01*
X49692686Y-36900500D01*
X49692688Y-36900501D01*
X49692690Y-36900503D01*
X49806810Y-36966390D01*
X49806808Y-36966390D01*
X49806812Y-36966391D01*
X49806814Y-36966392D01*
X49934108Y-37000500D01*
X49934110Y-37000500D01*
X50065890Y-37000500D01*
X50065892Y-37000500D01*
X50193186Y-36966392D01*
X50193188Y-36966390D01*
X50193190Y-36966390D01*
X50307309Y-36900503D01*
X50307309Y-36900502D01*
X50307314Y-36900500D01*
X50400500Y-36807314D01*
X50466392Y-36693186D01*
X50500500Y-36565892D01*
X50500500Y-36434108D01*
X50466392Y-36306814D01*
X50466390Y-36306811D01*
X50466390Y-36306809D01*
X50400503Y-36192690D01*
X50400501Y-36192688D01*
X50400500Y-36192686D01*
X50329494Y-36121680D01*
X50325869Y-36114565D01*
X50319407Y-36109870D01*
X50312243Y-36087821D01*
X50308241Y-36079968D01*
X50305345Y-36075981D01*
X50304954Y-36073516D01*
X50301719Y-36067166D01*
X50300500Y-36051679D01*
X50300500Y-36050253D01*
X52049500Y-36050253D01*
X52049500Y-37089746D01*
X52049501Y-37089758D01*
X52061132Y-37148227D01*
X52061134Y-37148233D01*
X52105445Y-37214548D01*
X52105448Y-37214552D01*
X52171769Y-37258867D01*
X52216231Y-37267711D01*
X52230241Y-37270498D01*
X52230246Y-37270498D01*
X52230252Y-37270500D01*
X52230253Y-37270500D01*
X54779747Y-37270500D01*
X54779748Y-37270500D01*
X54838231Y-37258867D01*
X54904552Y-37214552D01*
X54948867Y-37148231D01*
X54960500Y-37089748D01*
X54960500Y-36050253D01*
X55359500Y-36050253D01*
X55359500Y-37089746D01*
X55359501Y-37089758D01*
X55371132Y-37148227D01*
X55371134Y-37148233D01*
X55415445Y-37214548D01*
X55415448Y-37214552D01*
X55481769Y-37258867D01*
X55526231Y-37267711D01*
X55540241Y-37270498D01*
X55540246Y-37270498D01*
X55540252Y-37270500D01*
X55540253Y-37270500D01*
X58089747Y-37270500D01*
X58089748Y-37270500D01*
X58148231Y-37258867D01*
X58214552Y-37214552D01*
X58258867Y-37148231D01*
X58270500Y-37089748D01*
X58270500Y-36050252D01*
X58258867Y-35991769D01*
X58214552Y-35925448D01*
X58198895Y-35914986D01*
X58148233Y-35881134D01*
X58148231Y-35881133D01*
X58148228Y-35881132D01*
X58148227Y-35881132D01*
X58089758Y-35869501D01*
X58089748Y-35869500D01*
X55540252Y-35869500D01*
X55540251Y-35869500D01*
X55540241Y-35869501D01*
X55481772Y-35881132D01*
X55481766Y-35881134D01*
X55415451Y-35925445D01*
X55415445Y-35925451D01*
X55371134Y-35991766D01*
X55371132Y-35991772D01*
X55359501Y-36050241D01*
X55359500Y-36050253D01*
X54960500Y-36050253D01*
X54960500Y-36050252D01*
X54948867Y-35991769D01*
X54904552Y-35925448D01*
X54888895Y-35914986D01*
X54838233Y-35881134D01*
X54838231Y-35881133D01*
X54838228Y-35881132D01*
X54838227Y-35881132D01*
X54779758Y-35869501D01*
X54779748Y-35869500D01*
X52230252Y-35869500D01*
X52230251Y-35869500D01*
X52230241Y-35869501D01*
X52171772Y-35881132D01*
X52171766Y-35881134D01*
X52105451Y-35925445D01*
X52105445Y-35925451D01*
X52061134Y-35991766D01*
X52061132Y-35991772D01*
X52049501Y-36050241D01*
X52049500Y-36050253D01*
X50300500Y-36050253D01*
X50300500Y-35697511D01*
X50308934Y-35657527D01*
X50347585Y-35569991D01*
X50350500Y-35544865D01*
X50350499Y-34180136D01*
X50347585Y-34155009D01*
X50302206Y-34052235D01*
X50222765Y-33972794D01*
X50170821Y-33949858D01*
X50125227Y-33909059D01*
X50112322Y-33849250D01*
X50137036Y-33793278D01*
X50140808Y-33789291D01*
X50419847Y-33510253D01*
X52049500Y-33510253D01*
X52049500Y-34549746D01*
X52049501Y-34549758D01*
X52061132Y-34608227D01*
X52061133Y-34608231D01*
X52105448Y-34674552D01*
X52171769Y-34718867D01*
X52216231Y-34727711D01*
X52230241Y-34730498D01*
X52230246Y-34730498D01*
X52230252Y-34730500D01*
X52230253Y-34730500D01*
X54779747Y-34730500D01*
X54779748Y-34730500D01*
X54838231Y-34718867D01*
X54904552Y-34674552D01*
X54948867Y-34608231D01*
X54960500Y-34549748D01*
X54960500Y-33510253D01*
X55359500Y-33510253D01*
X55359500Y-34549746D01*
X55359501Y-34549758D01*
X55371132Y-34608227D01*
X55371133Y-34608231D01*
X55415448Y-34674552D01*
X55481769Y-34718867D01*
X55526231Y-34727711D01*
X55540241Y-34730498D01*
X55540246Y-34730498D01*
X55540252Y-34730500D01*
X55540253Y-34730500D01*
X58089747Y-34730500D01*
X58089748Y-34730500D01*
X58148231Y-34718867D01*
X58214552Y-34674552D01*
X58258867Y-34608231D01*
X58270500Y-34549748D01*
X58270500Y-33510252D01*
X58258867Y-33451769D01*
X58214552Y-33385448D01*
X58214548Y-33385445D01*
X58148233Y-33341134D01*
X58148231Y-33341133D01*
X58148228Y-33341132D01*
X58148227Y-33341132D01*
X58089758Y-33329501D01*
X58089748Y-33329500D01*
X55540252Y-33329500D01*
X55540251Y-33329500D01*
X55540241Y-33329501D01*
X55481772Y-33341132D01*
X55481766Y-33341134D01*
X55415451Y-33385445D01*
X55415445Y-33385451D01*
X55371134Y-33451766D01*
X55371132Y-33451772D01*
X55359501Y-33510241D01*
X55359500Y-33510253D01*
X54960500Y-33510253D01*
X54960500Y-33510252D01*
X54948867Y-33451769D01*
X54904552Y-33385448D01*
X54904548Y-33385445D01*
X54838233Y-33341134D01*
X54838231Y-33341133D01*
X54838228Y-33341132D01*
X54838227Y-33341132D01*
X54779758Y-33329501D01*
X54779748Y-33329500D01*
X52230252Y-33329500D01*
X52230251Y-33329500D01*
X52230241Y-33329501D01*
X52171772Y-33341132D01*
X52171766Y-33341134D01*
X52105451Y-33385445D01*
X52105445Y-33385451D01*
X52061134Y-33451766D01*
X52061132Y-33451772D01*
X52049501Y-33510241D01*
X52049500Y-33510253D01*
X50419847Y-33510253D01*
X50494716Y-33435384D01*
X50800605Y-33129496D01*
X50855121Y-33101719D01*
X50870608Y-33100500D01*
X59758315Y-33100500D01*
X59816506Y-33119407D01*
G37*
G04 #@! TD.AperFunction*
G04 #@! TA.AperFunction,Conductor*
G36*
X76002992Y-21500681D02*
G01*
X76295309Y-21518362D01*
X76307164Y-21519802D01*
X76592281Y-21572051D01*
X76603883Y-21574911D01*
X76880623Y-21661147D01*
X76891786Y-21665380D01*
X77156119Y-21784347D01*
X77166704Y-21789903D01*
X77414758Y-21939856D01*
X77424583Y-21946638D01*
X77652755Y-22125399D01*
X77661704Y-22133326D01*
X77866673Y-22338295D01*
X77874600Y-22347244D01*
X77995481Y-22501538D01*
X78053356Y-22575409D01*
X78060147Y-22585248D01*
X78210096Y-22833295D01*
X78215652Y-22843880D01*
X78334616Y-23108206D01*
X78338855Y-23119384D01*
X78425087Y-23396113D01*
X78427948Y-23407721D01*
X78480196Y-23692828D01*
X78481637Y-23704695D01*
X78499319Y-23997006D01*
X78499500Y-24002984D01*
X78499500Y-73997015D01*
X78499319Y-74002993D01*
X78481637Y-74295304D01*
X78480196Y-74307171D01*
X78427948Y-74592278D01*
X78425087Y-74603886D01*
X78338855Y-74880615D01*
X78334616Y-74891793D01*
X78215652Y-75156119D01*
X78210096Y-75166704D01*
X78060147Y-75414751D01*
X78053356Y-75424590D01*
X77874600Y-75652755D01*
X77866673Y-75661704D01*
X77661704Y-75866673D01*
X77652755Y-75874600D01*
X77424590Y-76053356D01*
X77414751Y-76060147D01*
X77166704Y-76210096D01*
X77156119Y-76215652D01*
X76891793Y-76334616D01*
X76880615Y-76338855D01*
X76603886Y-76425087D01*
X76592278Y-76427948D01*
X76307171Y-76480196D01*
X76295304Y-76481637D01*
X76023993Y-76498048D01*
X76002991Y-76499319D01*
X75997015Y-76499500D01*
X24002985Y-76499500D01*
X23997008Y-76499319D01*
X23973564Y-76497900D01*
X23704695Y-76481637D01*
X23692828Y-76480196D01*
X23407721Y-76427948D01*
X23396113Y-76425087D01*
X23119384Y-76338855D01*
X23108206Y-76334616D01*
X22843880Y-76215652D01*
X22833295Y-76210096D01*
X22631508Y-76088112D01*
X22585245Y-76060145D01*
X22575413Y-76053358D01*
X22347244Y-75874600D01*
X22338295Y-75866673D01*
X22133326Y-75661704D01*
X22125399Y-75652755D01*
X22117999Y-75643310D01*
X21946638Y-75424583D01*
X21939856Y-75414758D01*
X21789903Y-75166704D01*
X21784347Y-75156119D01*
X21746394Y-75071792D01*
X21665380Y-74891786D01*
X21661147Y-74880623D01*
X21574911Y-74603883D01*
X21572051Y-74592278D01*
X21519803Y-74307171D01*
X21518362Y-74295303D01*
X21512903Y-74205060D01*
X21500681Y-74002992D01*
X21500500Y-73997015D01*
X21500500Y-63896581D01*
X24950000Y-63896581D01*
X24950000Y-64103418D01*
X24990349Y-64306272D01*
X25069501Y-64497360D01*
X25069508Y-64497374D01*
X25184405Y-64669329D01*
X25186826Y-64671750D01*
X25582210Y-64276365D01*
X25599901Y-64307007D01*
X25692993Y-64400099D01*
X25723632Y-64417788D01*
X25328249Y-64813173D01*
X25330670Y-64815594D01*
X25502625Y-64930491D01*
X25502639Y-64930498D01*
X25693727Y-65009650D01*
X25896581Y-65049999D01*
X25896586Y-65050000D01*
X26103414Y-65050000D01*
X26103418Y-65049999D01*
X26306272Y-65009650D01*
X26497360Y-64930498D01*
X26497367Y-64930495D01*
X26509255Y-64922552D01*
X26669333Y-64815591D01*
X26671750Y-64813173D01*
X26276366Y-64417789D01*
X26307007Y-64400099D01*
X26400099Y-64307007D01*
X26417789Y-64276366D01*
X26813173Y-64671750D01*
X26815591Y-64669333D01*
X26930495Y-64497366D01*
X26930498Y-64497360D01*
X27009650Y-64306272D01*
X27049999Y-64103418D01*
X27050000Y-64103413D01*
X27050000Y-63896586D01*
X27049999Y-63896581D01*
X27009650Y-63693727D01*
X26930498Y-63502639D01*
X26930491Y-63502625D01*
X26815594Y-63330670D01*
X26813173Y-63328249D01*
X26417788Y-63723632D01*
X26400099Y-63692993D01*
X26307007Y-63599901D01*
X26276365Y-63582210D01*
X26671750Y-63186826D01*
X26669329Y-63184405D01*
X26497374Y-63069508D01*
X26497360Y-63069501D01*
X26306272Y-62990349D01*
X26103418Y-62950000D01*
X25896581Y-62950000D01*
X25693727Y-62990349D01*
X25502639Y-63069501D01*
X25502630Y-63069505D01*
X25330665Y-63184410D01*
X25328248Y-63186825D01*
X25723633Y-63582210D01*
X25692993Y-63599901D01*
X25599901Y-63692993D01*
X25582210Y-63723633D01*
X25186825Y-63328248D01*
X25184410Y-63330665D01*
X25069505Y-63502630D01*
X25069501Y-63502639D01*
X24990349Y-63693727D01*
X24950000Y-63896581D01*
X21500500Y-63896581D01*
X21500500Y-58050253D01*
X24949500Y-58050253D01*
X24949500Y-59789746D01*
X24949501Y-59789758D01*
X24961132Y-59848227D01*
X24961133Y-59848231D01*
X25005448Y-59914552D01*
X25071769Y-59958867D01*
X25116231Y-59967711D01*
X25130241Y-59970498D01*
X25130246Y-59970498D01*
X25130252Y-59970500D01*
X25130253Y-59970500D01*
X26869747Y-59970500D01*
X26869748Y-59970500D01*
X26928231Y-59958867D01*
X26994552Y-59914552D01*
X27038867Y-59848231D01*
X27050500Y-59789748D01*
X27050500Y-58901165D01*
X27069407Y-58842974D01*
X27079496Y-58831161D01*
X29492161Y-56418496D01*
X29546678Y-56390719D01*
X29562165Y-56389500D01*
X30945500Y-56389500D01*
X31003691Y-56408407D01*
X31039655Y-56457907D01*
X31044500Y-56488500D01*
X31044500Y-60660500D01*
X31025593Y-60718691D01*
X30976093Y-60754655D01*
X30945500Y-60759500D01*
X26826140Y-60759500D01*
X26767949Y-60740593D01*
X26756137Y-60730504D01*
X26669654Y-60644022D01*
X26497597Y-60529058D01*
X26306418Y-60449869D01*
X26103467Y-60409500D01*
X26103465Y-60409500D01*
X25896535Y-60409500D01*
X25896532Y-60409500D01*
X25693581Y-60449869D01*
X25502402Y-60529058D01*
X25330348Y-60644020D01*
X25184020Y-60790348D01*
X25069058Y-60962402D01*
X24989869Y-61153581D01*
X24949500Y-61356532D01*
X24949500Y-61563467D01*
X24989869Y-61766418D01*
X25069058Y-61957597D01*
X25069059Y-61957598D01*
X25184023Y-62129655D01*
X25330345Y-62275977D01*
X25502402Y-62390941D01*
X25693580Y-62470130D01*
X25896535Y-62510500D01*
X25896536Y-62510500D01*
X26103464Y-62510500D01*
X26103465Y-62510500D01*
X26306420Y-62470130D01*
X26497598Y-62390941D01*
X26669655Y-62275977D01*
X26716725Y-62228907D01*
X26756137Y-62189496D01*
X26810654Y-62161719D01*
X26826140Y-62160500D01*
X30945970Y-62160500D01*
X31004161Y-62179407D01*
X31040125Y-62228907D01*
X31044758Y-62255340D01*
X31044834Y-62255336D01*
X31044879Y-62256034D01*
X31044917Y-62256247D01*
X31044940Y-62256959D01*
X31045786Y-62269872D01*
X31046388Y-62275977D01*
X31047105Y-62283255D01*
X31047106Y-62283260D01*
X31061592Y-62393301D01*
X31061593Y-62393311D01*
X31066835Y-62419665D01*
X31073524Y-62444634D01*
X31073526Y-62444641D01*
X31082159Y-62470071D01*
X31082165Y-62470086D01*
X31082166Y-62470088D01*
X31122143Y-62566601D01*
X31134029Y-62590705D01*
X31146947Y-62613081D01*
X31161885Y-62635438D01*
X31220104Y-62711309D01*
X31225484Y-62718320D01*
X31225495Y-62718334D01*
X31243201Y-62738522D01*
X31261476Y-62756797D01*
X31281664Y-62774503D01*
X31281673Y-62774510D01*
X31281681Y-62774517D01*
X31364558Y-62838112D01*
X31386912Y-62853048D01*
X31409294Y-62865970D01*
X31433401Y-62877858D01*
X31529907Y-62917832D01*
X31555361Y-62926473D01*
X31580325Y-62933162D01*
X31606689Y-62938406D01*
X31606698Y-62938407D01*
X31606702Y-62938408D01*
X31642230Y-62943085D01*
X31716743Y-62952895D01*
X31730125Y-62954213D01*
X31743047Y-62955060D01*
X31756488Y-62955500D01*
X33000000Y-62955500D01*
X33000000Y-74000000D01*
X52000000Y-74000000D01*
X52000000Y-73290620D01*
X52703677Y-73994297D01*
X52713469Y-74003469D01*
X52723230Y-74012028D01*
X52733604Y-74020541D01*
X52821661Y-74088109D01*
X52821665Y-74088112D01*
X52844014Y-74103045D01*
X52866395Y-74115967D01*
X52890505Y-74127857D01*
X52987013Y-74167832D01*
X53012468Y-74176473D01*
X53037432Y-74183162D01*
X53063796Y-74188406D01*
X53063805Y-74188407D01*
X53063809Y-74188408D01*
X53099337Y-74193085D01*
X53173850Y-74202895D01*
X53187232Y-74204213D01*
X53200154Y-74205060D01*
X53213595Y-74205500D01*
X57493512Y-74205500D01*
X57506953Y-74205060D01*
X57519875Y-74204213D01*
X57531613Y-74203056D01*
X57533269Y-74202894D01*
X57588284Y-74195650D01*
X57643311Y-74188406D01*
X57669674Y-74183162D01*
X57669864Y-74183111D01*
X57669889Y-74183112D01*
X57671241Y-74182797D01*
X57671252Y-74182848D01*
X57671263Y-74182846D01*
X57671324Y-74183153D01*
X57671332Y-74183187D01*
X57730965Y-74186305D01*
X57778521Y-74224803D01*
X57794500Y-74278734D01*
X57794500Y-75493511D01*
X57794939Y-75506952D01*
X57795786Y-75519872D01*
X57796594Y-75528075D01*
X57797105Y-75533255D01*
X57797106Y-75533260D01*
X57811592Y-75643301D01*
X57811593Y-75643311D01*
X57816835Y-75669665D01*
X57816837Y-75669673D01*
X57817847Y-75673446D01*
X57823524Y-75694634D01*
X57823526Y-75694641D01*
X57832159Y-75720071D01*
X57832167Y-75720090D01*
X57872140Y-75816595D01*
X57872143Y-75816601D01*
X57884029Y-75840705D01*
X57896947Y-75863081D01*
X57911885Y-75885438D01*
X57975470Y-75968302D01*
X57975484Y-75968320D01*
X57975495Y-75968334D01*
X57993201Y-75988522D01*
X58011476Y-76006797D01*
X58031664Y-76024503D01*
X58031673Y-76024510D01*
X58031681Y-76024517D01*
X58114558Y-76088112D01*
X58136912Y-76103048D01*
X58159294Y-76115970D01*
X58183401Y-76127858D01*
X58279907Y-76167832D01*
X58305361Y-76176473D01*
X58330325Y-76183162D01*
X58356689Y-76188406D01*
X58356698Y-76188407D01*
X58356702Y-76188408D01*
X58392230Y-76193085D01*
X58466743Y-76202895D01*
X58480125Y-76204213D01*
X58493047Y-76205060D01*
X58506488Y-76205500D01*
X65493512Y-76205500D01*
X65506953Y-76205060D01*
X65519875Y-76204213D01*
X65531613Y-76203056D01*
X65533269Y-76202894D01*
X65588284Y-76195650D01*
X65643311Y-76188406D01*
X65669674Y-76183162D01*
X65669682Y-76183160D01*
X65672534Y-76182395D01*
X65694638Y-76176473D01*
X65720092Y-76167832D01*
X65816598Y-76127858D01*
X65840705Y-76115970D01*
X65863087Y-76103048D01*
X65885440Y-76088113D01*
X65968314Y-76024521D01*
X65988523Y-76006797D01*
X66006797Y-75988523D01*
X66024521Y-75968314D01*
X66088113Y-75885440D01*
X66103048Y-75863087D01*
X66115970Y-75840705D01*
X66127858Y-75816598D01*
X66167832Y-75720092D01*
X66176473Y-75694638D01*
X66183162Y-75669674D01*
X66188406Y-75643310D01*
X66202895Y-75533256D01*
X66204213Y-75519874D01*
X66205060Y-75506952D01*
X66205500Y-75493511D01*
X66205500Y-72100001D01*
X66800001Y-72100001D01*
X66800001Y-74804203D01*
X66802850Y-74834600D01*
X66802850Y-74834602D01*
X66847654Y-74962647D01*
X66928207Y-75071790D01*
X66928209Y-75071792D01*
X67037352Y-75152345D01*
X67165398Y-75197149D01*
X67195789Y-75199999D01*
X67899998Y-75199999D01*
X67900000Y-75199998D01*
X67900000Y-72100001D01*
X68100000Y-72100001D01*
X68100000Y-75199998D01*
X68100001Y-75199999D01*
X68804203Y-75199999D01*
X68834600Y-75197149D01*
X68834602Y-75197149D01*
X68962647Y-75152345D01*
X69071790Y-75071792D01*
X69071792Y-75071790D01*
X69152345Y-74962647D01*
X69197149Y-74834601D01*
X69199999Y-74804211D01*
X69200000Y-74804210D01*
X69200000Y-72100001D01*
X69199999Y-72100000D01*
X68100001Y-72100000D01*
X68100000Y-72100001D01*
X67900000Y-72100001D01*
X67899999Y-72100000D01*
X66800002Y-72100000D01*
X66800001Y-72100001D01*
X66205500Y-72100001D01*
X66205500Y-69195788D01*
X66800000Y-69195788D01*
X66800000Y-71899999D01*
X66800001Y-71900000D01*
X67899999Y-71900000D01*
X67900000Y-71899999D01*
X67900000Y-68800001D01*
X68100000Y-68800001D01*
X68100000Y-71899999D01*
X68100001Y-71900000D01*
X69199998Y-71900000D01*
X69199999Y-71899999D01*
X69199999Y-69195796D01*
X69197149Y-69165399D01*
X69197149Y-69165397D01*
X69152345Y-69037352D01*
X69071792Y-68928209D01*
X69071790Y-68928207D01*
X68962647Y-68847654D01*
X68834601Y-68802850D01*
X68804211Y-68800000D01*
X68100001Y-68800000D01*
X68100000Y-68800001D01*
X67900000Y-68800001D01*
X67899999Y-68800000D01*
X67195796Y-68800000D01*
X67165399Y-68802850D01*
X67165397Y-68802850D01*
X67037352Y-68847654D01*
X66928209Y-68928207D01*
X66928207Y-68928209D01*
X66847654Y-69037352D01*
X66802850Y-69165398D01*
X66800000Y-69195788D01*
X66205500Y-69195788D01*
X66205500Y-62850001D01*
X66800001Y-62850001D01*
X66800001Y-64304203D01*
X66802850Y-64334600D01*
X66802850Y-64334602D01*
X66847654Y-64462647D01*
X66928207Y-64571790D01*
X66928209Y-64571792D01*
X67037352Y-64652345D01*
X67165398Y-64697149D01*
X67195789Y-64699999D01*
X67899998Y-64699999D01*
X67900000Y-64699998D01*
X67900000Y-62850001D01*
X68100000Y-62850001D01*
X68100000Y-64699998D01*
X68100001Y-64699999D01*
X68804203Y-64699999D01*
X68834600Y-64697149D01*
X68834602Y-64697149D01*
X68962647Y-64652345D01*
X69071790Y-64571792D01*
X69071792Y-64571790D01*
X69152345Y-64462647D01*
X69197149Y-64334601D01*
X69199999Y-64304211D01*
X69200000Y-64304210D01*
X69200000Y-62850001D01*
X69199999Y-62850000D01*
X68100001Y-62850000D01*
X68100000Y-62850001D01*
X67900000Y-62850001D01*
X67899999Y-62850000D01*
X66800002Y-62850000D01*
X66800001Y-62850001D01*
X66205500Y-62850001D01*
X66205500Y-61195788D01*
X66800000Y-61195788D01*
X66800000Y-62649999D01*
X66800001Y-62650000D01*
X67899999Y-62650000D01*
X67900000Y-62649999D01*
X67900000Y-60800001D01*
X68100000Y-60800001D01*
X68100000Y-62649999D01*
X68100001Y-62650000D01*
X69199998Y-62650000D01*
X69199999Y-62649999D01*
X69199999Y-61195796D01*
X69197149Y-61165399D01*
X69197149Y-61165397D01*
X69152345Y-61037352D01*
X69071792Y-60928209D01*
X69071790Y-60928207D01*
X68962647Y-60847654D01*
X68834601Y-60802850D01*
X68804211Y-60800000D01*
X68100001Y-60800000D01*
X68100000Y-60800001D01*
X67900000Y-60800001D01*
X67899999Y-60800000D01*
X67195796Y-60800000D01*
X67165399Y-60802850D01*
X67165397Y-60802850D01*
X67037352Y-60847654D01*
X66928209Y-60928207D01*
X66928207Y-60928209D01*
X66847654Y-61037352D01*
X66802850Y-61165398D01*
X66800000Y-61195788D01*
X66205500Y-61195788D01*
X66205500Y-60033425D01*
X66207857Y-60011949D01*
X66219654Y-59958865D01*
X68439291Y-49970498D01*
X69521624Y-45100001D01*
X70800001Y-45100001D01*
X70800001Y-46054203D01*
X70802850Y-46084600D01*
X70802850Y-46084602D01*
X70847654Y-46212647D01*
X70928207Y-46321790D01*
X70928209Y-46321792D01*
X71037352Y-46402345D01*
X71165398Y-46447149D01*
X71195789Y-46449999D01*
X72899998Y-46449999D01*
X72900000Y-46449998D01*
X72900000Y-45100001D01*
X73100000Y-45100001D01*
X73100000Y-46449998D01*
X73100001Y-46449999D01*
X74804203Y-46449999D01*
X74834600Y-46447149D01*
X74834602Y-46447149D01*
X74962647Y-46402345D01*
X75071790Y-46321792D01*
X75071792Y-46321790D01*
X75152345Y-46212647D01*
X75197149Y-46084601D01*
X75199999Y-46054211D01*
X75200000Y-46054210D01*
X75200000Y-45100001D01*
X75199999Y-45100000D01*
X73100001Y-45100000D01*
X73100000Y-45100001D01*
X72900000Y-45100001D01*
X72899999Y-45100000D01*
X70800002Y-45100000D01*
X70800001Y-45100001D01*
X69521624Y-45100001D01*
X69535509Y-45037517D01*
X69640044Y-44567107D01*
X69778115Y-43945788D01*
X70800000Y-43945788D01*
X70800000Y-44899999D01*
X70800001Y-44900000D01*
X72899999Y-44900000D01*
X72900000Y-44899999D01*
X72900000Y-43550001D01*
X73100000Y-43550001D01*
X73100000Y-44899999D01*
X73100001Y-44900000D01*
X75199998Y-44900000D01*
X75199999Y-44899999D01*
X75199999Y-43945796D01*
X75197149Y-43915399D01*
X75197149Y-43915397D01*
X75152345Y-43787352D01*
X75071792Y-43678209D01*
X75071790Y-43678207D01*
X74962647Y-43597654D01*
X74834601Y-43552850D01*
X74804211Y-43550000D01*
X73100001Y-43550000D01*
X73100000Y-43550001D01*
X72900000Y-43550001D01*
X72899999Y-43550000D01*
X71195796Y-43550000D01*
X71165399Y-43552850D01*
X71165397Y-43552850D01*
X71037352Y-43597654D01*
X70928209Y-43678207D01*
X70928207Y-43678209D01*
X70847654Y-43787352D01*
X70802850Y-43915398D01*
X70800000Y-43945788D01*
X69778115Y-43945788D01*
X70147618Y-42283022D01*
X70178699Y-42230320D01*
X70234822Y-42205951D01*
X70244261Y-42205500D01*
X77493512Y-42205500D01*
X77506953Y-42205060D01*
X77519875Y-42204213D01*
X77531613Y-42203056D01*
X77533269Y-42202894D01*
X77588284Y-42195650D01*
X77643311Y-42188406D01*
X77669674Y-42183162D01*
X77694638Y-42176473D01*
X77720092Y-42167832D01*
X77816598Y-42127858D01*
X77840705Y-42115970D01*
X77863087Y-42103048D01*
X77885440Y-42088113D01*
X77968314Y-42024521D01*
X77988523Y-42006797D01*
X78006797Y-41988523D01*
X78024521Y-41968314D01*
X78088113Y-41885440D01*
X78103048Y-41863087D01*
X78115970Y-41840705D01*
X78127858Y-41816598D01*
X78167832Y-41720092D01*
X78176473Y-41694638D01*
X78183162Y-41669674D01*
X78188406Y-41643310D01*
X78202895Y-41533256D01*
X78204213Y-41519874D01*
X78205060Y-41506952D01*
X78205500Y-41493511D01*
X78205500Y-33506488D01*
X78205060Y-33493047D01*
X78204213Y-33480125D01*
X78202895Y-33466743D01*
X78188407Y-33356700D01*
X78188407Y-33356698D01*
X78188406Y-33356689D01*
X78183162Y-33330325D01*
X78176473Y-33305361D01*
X78167832Y-33279907D01*
X78127858Y-33183401D01*
X78115970Y-33159294D01*
X78103048Y-33136912D01*
X78088112Y-33114558D01*
X78024517Y-33031681D01*
X78024510Y-33031673D01*
X78024503Y-33031664D01*
X78006797Y-33011476D01*
X77988522Y-32993201D01*
X77968334Y-32975495D01*
X77968320Y-32975484D01*
X77968318Y-32975482D01*
X77885438Y-32911885D01*
X77863081Y-32896947D01*
X77840705Y-32884029D01*
X77816604Y-32872144D01*
X77720090Y-32832167D01*
X77720071Y-32832159D01*
X77694641Y-32823526D01*
X77694634Y-32823524D01*
X77678117Y-32819099D01*
X77669673Y-32816837D01*
X77669667Y-32816835D01*
X77669666Y-32816835D01*
X77643311Y-32811593D01*
X77643301Y-32811592D01*
X77575345Y-32802646D01*
X77533256Y-32797105D01*
X77528076Y-32796594D01*
X77519873Y-32795786D01*
X77506953Y-32794939D01*
X77493512Y-32794500D01*
X62690190Y-32794500D01*
X62631999Y-32775593D01*
X62596035Y-32726093D01*
X62596035Y-32664907D01*
X62620186Y-32625496D01*
X63016186Y-32229496D01*
X63070703Y-32201719D01*
X63086190Y-32200500D01*
X65304273Y-32200500D01*
X65304273Y-32200499D01*
X65334699Y-32197646D01*
X65462882Y-32152793D01*
X65572150Y-32072150D01*
X65652793Y-31962882D01*
X65697646Y-31834699D01*
X65700499Y-31804273D01*
X65700500Y-31804273D01*
X65700500Y-31449500D01*
X65719407Y-31391309D01*
X65768907Y-31355345D01*
X65799500Y-31350500D01*
X69700500Y-31350500D01*
X69758691Y-31369407D01*
X69794655Y-31418907D01*
X69799500Y-31449500D01*
X69799500Y-31804274D01*
X69802353Y-31834694D01*
X69802355Y-31834703D01*
X69847207Y-31962883D01*
X69927845Y-32072144D01*
X69927847Y-32072146D01*
X69927850Y-32072150D01*
X69927853Y-32072152D01*
X69927855Y-32072154D01*
X70037116Y-32152792D01*
X70037117Y-32152792D01*
X70037118Y-32152793D01*
X70165301Y-32197646D01*
X70195725Y-32200499D01*
X70195727Y-32200500D01*
X70195734Y-32200500D01*
X75804273Y-32200500D01*
X75804273Y-32200499D01*
X75834699Y-32197646D01*
X75962882Y-32152793D01*
X76072150Y-32072150D01*
X76152793Y-31962882D01*
X76197646Y-31834699D01*
X76200499Y-31804273D01*
X76200500Y-31804273D01*
X76200500Y-30195727D01*
X76200499Y-30195725D01*
X76197646Y-30165305D01*
X76197646Y-30165301D01*
X76152793Y-30037118D01*
X76144495Y-30025875D01*
X76072154Y-29927855D01*
X76072152Y-29927853D01*
X76072150Y-29927850D01*
X76072146Y-29927847D01*
X76072144Y-29927845D01*
X75962883Y-29847207D01*
X75834703Y-29802355D01*
X75834694Y-29802353D01*
X75804274Y-29799500D01*
X75804266Y-29799500D01*
X70195734Y-29799500D01*
X70195725Y-29799500D01*
X70165305Y-29802353D01*
X70165296Y-29802355D01*
X70037116Y-29847207D01*
X69927855Y-29927845D01*
X69927845Y-29927855D01*
X69847207Y-30037116D01*
X69802355Y-30165296D01*
X69802353Y-30165305D01*
X69799500Y-30195725D01*
X69799500Y-30550500D01*
X69780593Y-30608691D01*
X69731093Y-30644655D01*
X69700500Y-30649500D01*
X65799500Y-30649500D01*
X65741309Y-30630593D01*
X65705345Y-30581093D01*
X65700500Y-30550500D01*
X65700500Y-30195727D01*
X65700499Y-30195725D01*
X65697646Y-30165305D01*
X65697646Y-30165301D01*
X65652793Y-30037118D01*
X65644495Y-30025875D01*
X65572154Y-29927855D01*
X65572152Y-29927853D01*
X65572150Y-29927850D01*
X65572146Y-29927847D01*
X65572144Y-29927845D01*
X65462883Y-29847207D01*
X65334703Y-29802355D01*
X65334694Y-29802353D01*
X65304274Y-29799500D01*
X65304266Y-29799500D01*
X62195734Y-29799500D01*
X62195725Y-29799500D01*
X62165305Y-29802353D01*
X62165296Y-29802355D01*
X62037116Y-29847207D01*
X61927855Y-29927845D01*
X61927845Y-29927855D01*
X61847207Y-30037116D01*
X61802355Y-30165296D01*
X61802353Y-30165305D01*
X61799500Y-30195725D01*
X61799500Y-31804274D01*
X61802353Y-31834694D01*
X61802355Y-31834703D01*
X61847207Y-31962883D01*
X61927845Y-32072144D01*
X61927847Y-32072146D01*
X61927850Y-32072150D01*
X61927853Y-32072152D01*
X61927854Y-32072153D01*
X61981613Y-32111829D01*
X62017206Y-32161596D01*
X62016748Y-32222780D01*
X61992829Y-32261487D01*
X61883815Y-32370503D01*
X61829299Y-32398281D01*
X61813811Y-32399500D01*
X50638274Y-32399500D01*
X50549130Y-32423386D01*
X50469206Y-32469530D01*
X49019524Y-33919212D01*
X49015581Y-33924352D01*
X49014569Y-33923575D01*
X48974167Y-33959943D01*
X48913316Y-33966329D01*
X48893931Y-33960062D01*
X48819991Y-33927415D01*
X48819990Y-33927414D01*
X48819988Y-33927414D01*
X48794868Y-33924500D01*
X48505140Y-33924500D01*
X48505135Y-33924501D01*
X48480009Y-33927414D01*
X48409766Y-33958430D01*
X48377235Y-33972794D01*
X48377234Y-33972794D01*
X48368843Y-33976500D01*
X48367794Y-33974126D01*
X48322243Y-33987537D01*
X48282050Y-33974477D01*
X48281157Y-33976500D01*
X48272766Y-33972795D01*
X48272765Y-33972794D01*
X48169991Y-33927415D01*
X48169990Y-33927414D01*
X48169988Y-33927414D01*
X48144868Y-33924500D01*
X47855140Y-33924500D01*
X47855135Y-33924501D01*
X47830009Y-33927414D01*
X47759766Y-33958430D01*
X47727235Y-33972794D01*
X47727234Y-33972794D01*
X47718843Y-33976500D01*
X47717794Y-33974126D01*
X47672243Y-33987537D01*
X47632050Y-33974477D01*
X47631157Y-33976500D01*
X47622766Y-33972795D01*
X47622765Y-33972794D01*
X47519991Y-33927415D01*
X47519990Y-33927414D01*
X47519988Y-33927414D01*
X47494868Y-33924500D01*
X47205140Y-33924500D01*
X47205135Y-33924501D01*
X47180009Y-33927414D01*
X47109766Y-33958430D01*
X47077235Y-33972794D01*
X47077234Y-33972794D01*
X47068843Y-33976500D01*
X47067794Y-33974126D01*
X47022243Y-33987537D01*
X46983971Y-33978673D01*
X46974189Y-33974218D01*
X46972765Y-33972794D01*
X46916714Y-33948045D01*
X46916224Y-33947822D01*
X46894094Y-33927554D01*
X46871669Y-33907488D01*
X46871542Y-33906901D01*
X46871102Y-33906498D01*
X46865106Y-33877075D01*
X46858764Y-33847679D01*
X46859005Y-33847131D01*
X46858886Y-33846545D01*
X46871338Y-33819199D01*
X46883478Y-33791707D01*
X46884212Y-33790930D01*
X46884244Y-33790861D01*
X46884317Y-33790819D01*
X46887230Y-33787739D01*
X49704718Y-30970253D01*
X52049500Y-30970253D01*
X52049500Y-32009746D01*
X52049501Y-32009758D01*
X52061132Y-32068227D01*
X52061134Y-32068233D01*
X52105445Y-32134548D01*
X52105448Y-32134552D01*
X52171769Y-32178867D01*
X52216231Y-32187711D01*
X52230241Y-32190498D01*
X52230246Y-32190498D01*
X52230252Y-32190500D01*
X52230253Y-32190500D01*
X54779747Y-32190500D01*
X54779748Y-32190500D01*
X54838231Y-32178867D01*
X54904552Y-32134552D01*
X54948867Y-32068231D01*
X54960500Y-32009748D01*
X54960500Y-30970253D01*
X55359500Y-30970253D01*
X55359500Y-32009746D01*
X55359501Y-32009758D01*
X55371132Y-32068227D01*
X55371134Y-32068233D01*
X55415445Y-32134548D01*
X55415448Y-32134552D01*
X55481769Y-32178867D01*
X55526231Y-32187711D01*
X55540241Y-32190498D01*
X55540246Y-32190498D01*
X55540252Y-32190500D01*
X55540253Y-32190500D01*
X58089747Y-32190500D01*
X58089748Y-32190500D01*
X58148231Y-32178867D01*
X58214552Y-32134552D01*
X58258867Y-32068231D01*
X58270500Y-32009748D01*
X58270500Y-30970252D01*
X58258867Y-30911769D01*
X58214552Y-30845448D01*
X58176087Y-30819746D01*
X58148233Y-30801134D01*
X58148231Y-30801133D01*
X58148228Y-30801132D01*
X58148227Y-30801132D01*
X58089758Y-30789501D01*
X58089748Y-30789500D01*
X55540252Y-30789500D01*
X55540251Y-30789500D01*
X55540241Y-30789501D01*
X55481772Y-30801132D01*
X55481766Y-30801134D01*
X55415451Y-30845445D01*
X55415445Y-30845451D01*
X55371134Y-30911766D01*
X55371132Y-30911772D01*
X55359501Y-30970241D01*
X55359500Y-30970253D01*
X54960500Y-30970253D01*
X54960500Y-30970252D01*
X54948867Y-30911769D01*
X54904552Y-30845448D01*
X54866087Y-30819746D01*
X54838233Y-30801134D01*
X54838231Y-30801133D01*
X54838228Y-30801132D01*
X54838227Y-30801132D01*
X54779758Y-30789501D01*
X54779748Y-30789500D01*
X52230252Y-30789500D01*
X52230251Y-30789500D01*
X52230241Y-30789501D01*
X52171772Y-30801132D01*
X52171766Y-30801134D01*
X52105451Y-30845445D01*
X52105445Y-30845451D01*
X52061134Y-30911766D01*
X52061132Y-30911772D01*
X52049501Y-30970241D01*
X52049500Y-30970253D01*
X49704718Y-30970253D01*
X50190460Y-30484511D01*
X50230021Y-30415989D01*
X50250500Y-30339562D01*
X50250500Y-30040478D01*
X50269407Y-29982287D01*
X50279490Y-29970480D01*
X50302206Y-29947765D01*
X50347585Y-29844991D01*
X50350500Y-29819865D01*
X50350499Y-28498499D01*
X50369406Y-28440309D01*
X50418906Y-28404345D01*
X50449499Y-28399500D01*
X51950500Y-28399500D01*
X52008691Y-28418407D01*
X52044655Y-28467907D01*
X52049500Y-28498500D01*
X52049500Y-29469746D01*
X52049501Y-29469758D01*
X52061132Y-29528227D01*
X52061133Y-29528231D01*
X52105448Y-29594552D01*
X52171769Y-29638867D01*
X52216231Y-29647711D01*
X52230241Y-29650498D01*
X52230246Y-29650498D01*
X52230252Y-29650500D01*
X52230253Y-29650500D01*
X54779747Y-29650500D01*
X54779748Y-29650500D01*
X54838231Y-29638867D01*
X54904552Y-29594552D01*
X54948867Y-29528231D01*
X54960500Y-29469748D01*
X54960500Y-29349500D01*
X54979407Y-29291309D01*
X55028907Y-29255345D01*
X55059500Y-29250500D01*
X55260500Y-29250500D01*
X55318691Y-29269407D01*
X55354655Y-29318907D01*
X55359500Y-29349500D01*
X55359500Y-29469746D01*
X55359501Y-29469758D01*
X55371132Y-29528227D01*
X55371133Y-29528231D01*
X55415448Y-29594552D01*
X55481769Y-29638867D01*
X55526231Y-29647711D01*
X55540241Y-29650498D01*
X55540246Y-29650498D01*
X55540252Y-29650500D01*
X55540253Y-29650500D01*
X58089747Y-29650500D01*
X58089748Y-29650500D01*
X58148231Y-29638867D01*
X58214552Y-29594552D01*
X58258867Y-29528231D01*
X58270500Y-29469748D01*
X58270500Y-28430252D01*
X58258867Y-28371769D01*
X58214552Y-28305448D01*
X58214548Y-28305445D01*
X58148233Y-28261134D01*
X58148231Y-28261133D01*
X58148228Y-28261132D01*
X58148227Y-28261132D01*
X58089758Y-28249501D01*
X58089748Y-28249500D01*
X55540252Y-28249500D01*
X55540251Y-28249500D01*
X55540241Y-28249501D01*
X55481772Y-28261132D01*
X55481766Y-28261134D01*
X55415451Y-28305445D01*
X55415445Y-28305451D01*
X55371134Y-28371766D01*
X55371132Y-28371772D01*
X55359501Y-28430241D01*
X55359500Y-28430253D01*
X55359500Y-28550500D01*
X55340593Y-28608691D01*
X55291093Y-28644655D01*
X55260500Y-28649500D01*
X55059500Y-28649500D01*
X55001309Y-28630593D01*
X54965345Y-28581093D01*
X54960500Y-28550500D01*
X54960500Y-28430253D01*
X54960498Y-28430241D01*
X54954383Y-28399500D01*
X54948867Y-28371769D01*
X54904552Y-28305448D01*
X54904548Y-28305445D01*
X54838233Y-28261134D01*
X54838231Y-28261133D01*
X54838228Y-28261132D01*
X54838227Y-28261132D01*
X54779758Y-28249501D01*
X54779748Y-28249500D01*
X54779747Y-28249500D01*
X53270479Y-28249500D01*
X53212288Y-28230593D01*
X53200476Y-28220504D01*
X52838510Y-27858539D01*
X52769992Y-27818980D01*
X52769988Y-27818978D01*
X52693564Y-27798500D01*
X52693562Y-27798500D01*
X49641568Y-27798500D01*
X49641565Y-27798500D01*
X49565141Y-27818978D01*
X49565137Y-27818980D01*
X49496619Y-27858539D01*
X49179853Y-28175304D01*
X49149122Y-28196177D01*
X49136402Y-28201673D01*
X49130009Y-28202415D01*
X49027235Y-28247794D01*
X49025375Y-28249653D01*
X49014272Y-28254452D01*
X48992869Y-28256464D01*
X48972243Y-28262537D01*
X48962378Y-28259331D01*
X48953356Y-28260180D01*
X48939206Y-28251802D01*
X48932050Y-28249477D01*
X48931157Y-28251500D01*
X48922766Y-28247795D01*
X48922765Y-28247794D01*
X48819991Y-28202415D01*
X48819990Y-28202414D01*
X48819988Y-28202414D01*
X48794868Y-28199500D01*
X48505140Y-28199500D01*
X48505135Y-28199501D01*
X48480009Y-28202414D01*
X48409766Y-28233430D01*
X48377235Y-28247794D01*
X48377234Y-28247794D01*
X48368843Y-28251500D01*
X48367794Y-28249126D01*
X48322243Y-28262537D01*
X48282050Y-28249477D01*
X48281157Y-28251500D01*
X48272766Y-28247795D01*
X48272765Y-28247794D01*
X48169991Y-28202415D01*
X48169990Y-28202414D01*
X48169988Y-28202414D01*
X48144868Y-28199500D01*
X47855140Y-28199500D01*
X47855135Y-28199501D01*
X47830009Y-28202414D01*
X47759766Y-28233430D01*
X47727235Y-28247794D01*
X47727234Y-28247794D01*
X47718843Y-28251500D01*
X47717794Y-28249126D01*
X47672243Y-28262537D01*
X47632050Y-28249477D01*
X47631157Y-28251500D01*
X47622766Y-28247795D01*
X47622765Y-28247794D01*
X47519991Y-28202415D01*
X47519990Y-28202414D01*
X47519988Y-28202414D01*
X47494868Y-28199500D01*
X47205140Y-28199500D01*
X47205135Y-28199501D01*
X47180009Y-28202414D01*
X47109766Y-28233430D01*
X47077235Y-28247794D01*
X47077234Y-28247794D01*
X47068843Y-28251500D01*
X47067794Y-28249126D01*
X47022243Y-28262537D01*
X46982050Y-28249477D01*
X46981157Y-28251500D01*
X46972766Y-28247795D01*
X46972765Y-28247794D01*
X46869991Y-28202415D01*
X46869990Y-28202414D01*
X46869988Y-28202414D01*
X46844868Y-28199500D01*
X46555140Y-28199500D01*
X46555135Y-28199501D01*
X46530009Y-28202414D01*
X46459766Y-28233430D01*
X46427235Y-28247794D01*
X46427234Y-28247794D01*
X46418843Y-28251500D01*
X46417863Y-28249282D01*
X46371791Y-28262845D01*
X46331786Y-28249843D01*
X46330870Y-28251919D01*
X46219872Y-28202909D01*
X46194797Y-28200000D01*
X46150001Y-28200000D01*
X46150000Y-28200001D01*
X46150000Y-30074998D01*
X46150001Y-30074999D01*
X46194790Y-30074999D01*
X46194791Y-30074998D01*
X46219874Y-30072090D01*
X46330870Y-30023081D01*
X46331944Y-30025514D01*
X46377277Y-30012154D01*
X46418010Y-30025384D01*
X46418843Y-30023500D01*
X46427233Y-30027204D01*
X46427235Y-30027206D01*
X46530009Y-30072585D01*
X46555135Y-30075500D01*
X46844864Y-30075499D01*
X46869991Y-30072585D01*
X46972765Y-30027206D01*
X46972766Y-30027204D01*
X46981157Y-30023500D01*
X46982205Y-30025875D01*
X47027739Y-30012462D01*
X47067948Y-30025526D01*
X47068843Y-30023500D01*
X47077233Y-30027204D01*
X47077235Y-30027206D01*
X47180009Y-30072585D01*
X47205135Y-30075500D01*
X47494864Y-30075499D01*
X47519991Y-30072585D01*
X47622765Y-30027206D01*
X47622766Y-30027204D01*
X47631157Y-30023500D01*
X47632205Y-30025875D01*
X47677739Y-30012462D01*
X47717948Y-30025526D01*
X47718843Y-30023500D01*
X47727233Y-30027204D01*
X47727235Y-30027206D01*
X47830009Y-30072585D01*
X47855135Y-30075500D01*
X48144864Y-30075499D01*
X48169991Y-30072585D01*
X48272765Y-30027206D01*
X48272766Y-30027204D01*
X48281157Y-30023500D01*
X48282205Y-30025875D01*
X48327739Y-30012462D01*
X48367948Y-30025526D01*
X48368843Y-30023500D01*
X48377233Y-30027204D01*
X48377235Y-30027206D01*
X48480009Y-30072585D01*
X48505135Y-30075500D01*
X48794864Y-30075499D01*
X48819991Y-30072585D01*
X48922765Y-30027206D01*
X48922766Y-30027204D01*
X48931157Y-30023500D01*
X48932205Y-30025875D01*
X48977739Y-30012462D01*
X49017948Y-30025526D01*
X49018843Y-30023500D01*
X49027233Y-30027204D01*
X49027235Y-30027206D01*
X49130009Y-30072585D01*
X49155135Y-30075500D01*
X49444864Y-30075499D01*
X49469991Y-30072585D01*
X49491285Y-30063182D01*
X49552153Y-30056974D01*
X49605047Y-30087729D01*
X49629762Y-30143700D01*
X49616857Y-30203509D01*
X49601277Y-30223751D01*
X45922806Y-33902221D01*
X45886359Y-33923359D01*
X45886822Y-33924406D01*
X45777236Y-33972793D01*
X45697794Y-34052235D01*
X45652414Y-34155011D01*
X45649500Y-34180130D01*
X45649500Y-35544860D01*
X45649501Y-35544863D01*
X45652414Y-35569990D01*
X45672134Y-35614652D01*
X45691065Y-35657526D01*
X45699500Y-35697511D01*
X45699500Y-35838795D01*
X45680593Y-35896986D01*
X45655503Y-35921110D01*
X45603456Y-35955887D01*
X45505885Y-36053458D01*
X45429228Y-36168182D01*
X45429222Y-36168193D01*
X45376420Y-36295670D01*
X45376420Y-36295672D01*
X45349500Y-36431004D01*
X45349500Y-52618996D01*
X45376420Y-52754327D01*
X45376420Y-52754329D01*
X45429223Y-52881808D01*
X45429224Y-52881810D01*
X45429225Y-52881811D01*
X45505886Y-52996543D01*
X47328840Y-54819496D01*
X47356617Y-54874013D01*
X47347046Y-54934445D01*
X47303781Y-54977710D01*
X47258836Y-54988500D01*
X38047511Y-54988500D01*
X37989320Y-54969593D01*
X37953356Y-54920093D01*
X37950676Y-54874656D01*
X37950023Y-54874592D01*
X37950429Y-54870463D01*
X37950413Y-54870185D01*
X37950500Y-54869748D01*
X37950500Y-53830252D01*
X37938867Y-53771769D01*
X37894552Y-53705448D01*
X37894548Y-53705445D01*
X37828233Y-53661134D01*
X37828231Y-53661133D01*
X37828228Y-53661132D01*
X37828227Y-53661132D01*
X37769758Y-53649501D01*
X37769748Y-53649500D01*
X35220252Y-53649500D01*
X35220251Y-53649500D01*
X35220241Y-53649501D01*
X35161772Y-53661132D01*
X35161766Y-53661134D01*
X35095451Y-53705445D01*
X35095445Y-53705451D01*
X35051134Y-53771766D01*
X35051132Y-53771772D01*
X35039501Y-53830241D01*
X35039500Y-53830253D01*
X35039500Y-54869748D01*
X35039587Y-54870185D01*
X35039563Y-54870387D01*
X35039977Y-54874592D01*
X35039054Y-54874682D01*
X35032396Y-54930946D01*
X34990864Y-54975877D01*
X34942489Y-54988500D01*
X34737511Y-54988500D01*
X34679320Y-54969593D01*
X34643356Y-54920093D01*
X34640676Y-54874656D01*
X34640023Y-54874592D01*
X34640429Y-54870463D01*
X34640413Y-54870185D01*
X34640500Y-54869748D01*
X34640500Y-53830252D01*
X34628867Y-53771769D01*
X34584552Y-53705448D01*
X34584548Y-53705445D01*
X34518233Y-53661134D01*
X34518231Y-53661133D01*
X34518228Y-53661132D01*
X34518227Y-53661132D01*
X34459758Y-53649501D01*
X34459748Y-53649500D01*
X31910252Y-53649500D01*
X31910251Y-53649500D01*
X31910241Y-53649501D01*
X31851772Y-53661132D01*
X31851766Y-53661134D01*
X31785451Y-53705445D01*
X31785445Y-53705451D01*
X31741134Y-53771766D01*
X31741132Y-53771772D01*
X31729501Y-53830241D01*
X31729500Y-53830253D01*
X31729500Y-54869748D01*
X31729587Y-54870185D01*
X31729563Y-54870387D01*
X31729977Y-54874592D01*
X31729054Y-54874682D01*
X31722396Y-54930946D01*
X31680864Y-54975877D01*
X31632489Y-54988500D01*
X29162003Y-54988500D01*
X29026672Y-55015420D01*
X29026670Y-55015420D01*
X28899191Y-55068223D01*
X28784460Y-55144883D01*
X26088839Y-57840504D01*
X26034322Y-57868281D01*
X26018835Y-57869500D01*
X25130252Y-57869500D01*
X25130251Y-57869500D01*
X25130241Y-57869501D01*
X25071772Y-57881132D01*
X25071766Y-57881134D01*
X25005451Y-57925445D01*
X25005445Y-57925451D01*
X24961134Y-57991766D01*
X24961132Y-57991772D01*
X24949501Y-58050241D01*
X24949500Y-58050253D01*
X21500500Y-58050253D01*
X21500500Y-51290253D01*
X31729500Y-51290253D01*
X31729500Y-52329746D01*
X31729501Y-52329758D01*
X31741132Y-52388227D01*
X31741133Y-52388231D01*
X31785448Y-52454552D01*
X31851769Y-52498867D01*
X31896231Y-52507711D01*
X31910241Y-52510498D01*
X31910246Y-52510498D01*
X31910252Y-52510500D01*
X31910253Y-52510500D01*
X34459747Y-52510500D01*
X34459748Y-52510500D01*
X34518231Y-52498867D01*
X34584552Y-52454552D01*
X34628867Y-52388231D01*
X34640500Y-52329748D01*
X34640500Y-51290253D01*
X35039500Y-51290253D01*
X35039500Y-52329746D01*
X35039501Y-52329758D01*
X35051132Y-52388227D01*
X35051133Y-52388231D01*
X35095448Y-52454552D01*
X35161769Y-52498867D01*
X35206231Y-52507711D01*
X35220241Y-52510498D01*
X35220246Y-52510498D01*
X35220252Y-52510500D01*
X35220253Y-52510500D01*
X37769747Y-52510500D01*
X37769748Y-52510500D01*
X37828231Y-52498867D01*
X37894552Y-52454552D01*
X37938867Y-52388231D01*
X37950500Y-52329748D01*
X37950500Y-51290252D01*
X37938867Y-51231769D01*
X37894552Y-51165448D01*
X37894548Y-51165445D01*
X37828233Y-51121134D01*
X37828231Y-51121133D01*
X37828228Y-51121132D01*
X37828227Y-51121132D01*
X37769758Y-51109501D01*
X37769748Y-51109500D01*
X35220252Y-51109500D01*
X35220251Y-51109500D01*
X35220241Y-51109501D01*
X35161772Y-51121132D01*
X35161766Y-51121134D01*
X35095451Y-51165445D01*
X35095445Y-51165451D01*
X35051134Y-51231766D01*
X35051132Y-51231772D01*
X35039501Y-51290241D01*
X35039500Y-51290253D01*
X34640500Y-51290253D01*
X34640500Y-51290252D01*
X34628867Y-51231769D01*
X34584552Y-51165448D01*
X34584548Y-51165445D01*
X34518233Y-51121134D01*
X34518231Y-51121133D01*
X34518228Y-51121132D01*
X34518227Y-51121132D01*
X34459758Y-51109501D01*
X34459748Y-51109500D01*
X31910252Y-51109500D01*
X31910251Y-51109500D01*
X31910241Y-51109501D01*
X31851772Y-51121132D01*
X31851766Y-51121134D01*
X31785451Y-51165445D01*
X31785445Y-51165451D01*
X31741134Y-51231766D01*
X31741132Y-51231772D01*
X31729501Y-51290241D01*
X31729500Y-51290253D01*
X21500500Y-51290253D01*
X21500500Y-48750253D01*
X31729500Y-48750253D01*
X31729500Y-49789746D01*
X31729501Y-49789758D01*
X31741132Y-49848227D01*
X31741133Y-49848231D01*
X31785448Y-49914552D01*
X31851769Y-49958867D01*
X31896231Y-49967711D01*
X31910241Y-49970498D01*
X31910246Y-49970498D01*
X31910252Y-49970500D01*
X31910253Y-49970500D01*
X34459747Y-49970500D01*
X34459748Y-49970500D01*
X34518231Y-49958867D01*
X34584552Y-49914552D01*
X34628867Y-49848231D01*
X34640500Y-49789748D01*
X34640500Y-48750253D01*
X35039500Y-48750253D01*
X35039500Y-49789746D01*
X35039501Y-49789758D01*
X35051132Y-49848227D01*
X35051133Y-49848231D01*
X35095448Y-49914552D01*
X35161769Y-49958867D01*
X35206231Y-49967711D01*
X35220241Y-49970498D01*
X35220246Y-49970498D01*
X35220252Y-49970500D01*
X35220253Y-49970500D01*
X37769747Y-49970500D01*
X37769748Y-49970500D01*
X37828231Y-49958867D01*
X37894552Y-49914552D01*
X37938867Y-49848231D01*
X37950500Y-49789748D01*
X37950500Y-48750252D01*
X37938867Y-48691769D01*
X37894552Y-48625448D01*
X37894548Y-48625445D01*
X37828233Y-48581134D01*
X37828231Y-48581133D01*
X37828228Y-48581132D01*
X37828227Y-48581132D01*
X37769758Y-48569501D01*
X37769748Y-48569500D01*
X35220252Y-48569500D01*
X35220251Y-48569500D01*
X35220241Y-48569501D01*
X35161772Y-48581132D01*
X35161766Y-48581134D01*
X35095451Y-48625445D01*
X35095445Y-48625451D01*
X35051134Y-48691766D01*
X35051132Y-48691772D01*
X35039501Y-48750241D01*
X35039500Y-48750253D01*
X34640500Y-48750253D01*
X34640500Y-48750252D01*
X34628867Y-48691769D01*
X34584552Y-48625448D01*
X34584548Y-48625445D01*
X34518233Y-48581134D01*
X34518231Y-48581133D01*
X34518228Y-48581132D01*
X34518227Y-48581132D01*
X34459758Y-48569501D01*
X34459748Y-48569500D01*
X31910252Y-48569500D01*
X31910251Y-48569500D01*
X31910241Y-48569501D01*
X31851772Y-48581132D01*
X31851766Y-48581134D01*
X31785451Y-48625445D01*
X31785445Y-48625451D01*
X31741134Y-48691766D01*
X31741132Y-48691772D01*
X31729501Y-48750241D01*
X31729500Y-48750253D01*
X21500500Y-48750253D01*
X21500500Y-46210253D01*
X31729500Y-46210253D01*
X31729500Y-47249746D01*
X31729501Y-47249758D01*
X31741132Y-47308227D01*
X31741133Y-47308231D01*
X31785448Y-47374552D01*
X31851769Y-47418867D01*
X31896231Y-47427711D01*
X31910241Y-47430498D01*
X31910246Y-47430498D01*
X31910252Y-47430500D01*
X31910253Y-47430500D01*
X34459747Y-47430500D01*
X34459748Y-47430500D01*
X34518231Y-47418867D01*
X34584552Y-47374552D01*
X34628867Y-47308231D01*
X34640500Y-47249748D01*
X34640500Y-46210253D01*
X35039500Y-46210253D01*
X35039500Y-47249746D01*
X35039501Y-47249758D01*
X35051132Y-47308227D01*
X35051133Y-47308231D01*
X35095448Y-47374552D01*
X35161769Y-47418867D01*
X35206231Y-47427711D01*
X35220241Y-47430498D01*
X35220246Y-47430498D01*
X35220252Y-47430500D01*
X35220253Y-47430500D01*
X37769747Y-47430500D01*
X37769748Y-47430500D01*
X37828231Y-47418867D01*
X37894552Y-47374552D01*
X37938867Y-47308231D01*
X37950500Y-47249748D01*
X37950500Y-46210252D01*
X37938867Y-46151769D01*
X37894552Y-46085448D01*
X37893286Y-46084602D01*
X37828233Y-46041134D01*
X37828231Y-46041133D01*
X37828228Y-46041132D01*
X37828227Y-46041132D01*
X37769758Y-46029501D01*
X37769748Y-46029500D01*
X35220252Y-46029500D01*
X35220251Y-46029500D01*
X35220241Y-46029501D01*
X35161772Y-46041132D01*
X35161766Y-46041134D01*
X35095451Y-46085445D01*
X35095445Y-46085451D01*
X35051134Y-46151766D01*
X35051132Y-46151772D01*
X35039501Y-46210241D01*
X35039500Y-46210253D01*
X34640500Y-46210253D01*
X34640500Y-46210252D01*
X34628867Y-46151769D01*
X34584552Y-46085448D01*
X34583286Y-46084602D01*
X34518233Y-46041134D01*
X34518231Y-46041133D01*
X34518228Y-46041132D01*
X34518227Y-46041132D01*
X34459758Y-46029501D01*
X34459748Y-46029500D01*
X31910252Y-46029500D01*
X31910251Y-46029500D01*
X31910241Y-46029501D01*
X31851772Y-46041132D01*
X31851766Y-46041134D01*
X31785451Y-46085445D01*
X31785445Y-46085451D01*
X31741134Y-46151766D01*
X31741132Y-46151772D01*
X31729501Y-46210241D01*
X31729500Y-46210253D01*
X21500500Y-46210253D01*
X21500500Y-43670253D01*
X31729500Y-43670253D01*
X31729500Y-44709746D01*
X31729501Y-44709758D01*
X31741132Y-44768227D01*
X31741133Y-44768231D01*
X31785448Y-44834552D01*
X31851769Y-44878867D01*
X31896231Y-44887711D01*
X31910241Y-44890498D01*
X31910246Y-44890498D01*
X31910252Y-44890500D01*
X31910253Y-44890500D01*
X34459747Y-44890500D01*
X34459748Y-44890500D01*
X34518231Y-44878867D01*
X34584552Y-44834552D01*
X34628867Y-44768231D01*
X34640500Y-44709748D01*
X34640500Y-43670253D01*
X35039500Y-43670253D01*
X35039500Y-44709746D01*
X35039501Y-44709758D01*
X35051132Y-44768227D01*
X35051133Y-44768231D01*
X35095448Y-44834552D01*
X35161769Y-44878867D01*
X35206231Y-44887711D01*
X35220241Y-44890498D01*
X35220246Y-44890498D01*
X35220252Y-44890500D01*
X35220253Y-44890500D01*
X37769747Y-44890500D01*
X37769748Y-44890500D01*
X37828231Y-44878867D01*
X37894552Y-44834552D01*
X37938867Y-44768231D01*
X37950500Y-44709748D01*
X37950500Y-43670252D01*
X37938867Y-43611769D01*
X37894552Y-43545448D01*
X37894548Y-43545445D01*
X37828233Y-43501134D01*
X37828231Y-43501133D01*
X37828228Y-43501132D01*
X37828227Y-43501132D01*
X37769758Y-43489501D01*
X37769748Y-43489500D01*
X35220252Y-43489500D01*
X35220251Y-43489500D01*
X35220241Y-43489501D01*
X35161772Y-43501132D01*
X35161766Y-43501134D01*
X35095451Y-43545445D01*
X35095445Y-43545451D01*
X35051134Y-43611766D01*
X35051132Y-43611772D01*
X35039501Y-43670241D01*
X35039500Y-43670253D01*
X34640500Y-43670253D01*
X34640500Y-43670252D01*
X34628867Y-43611769D01*
X34584552Y-43545448D01*
X34584548Y-43545445D01*
X34518233Y-43501134D01*
X34518231Y-43501133D01*
X34518228Y-43501132D01*
X34518227Y-43501132D01*
X34459758Y-43489501D01*
X34459748Y-43489500D01*
X31910252Y-43489500D01*
X31910251Y-43489500D01*
X31910241Y-43489501D01*
X31851772Y-43501132D01*
X31851766Y-43501134D01*
X31785451Y-43545445D01*
X31785445Y-43545451D01*
X31741134Y-43611766D01*
X31741132Y-43611772D01*
X31729501Y-43670241D01*
X31729500Y-43670253D01*
X21500500Y-43670253D01*
X21500500Y-41130253D01*
X31729500Y-41130253D01*
X31729500Y-42169746D01*
X31729501Y-42169758D01*
X31736701Y-42205951D01*
X31741133Y-42228231D01*
X31785448Y-42294552D01*
X31851769Y-42338867D01*
X31896231Y-42347711D01*
X31910241Y-42350498D01*
X31910246Y-42350498D01*
X31910252Y-42350500D01*
X31910253Y-42350500D01*
X34459747Y-42350500D01*
X34459748Y-42350500D01*
X34518231Y-42338867D01*
X34584552Y-42294552D01*
X34628867Y-42228231D01*
X34640500Y-42169748D01*
X34640500Y-41130253D01*
X35039500Y-41130253D01*
X35039500Y-42169746D01*
X35039501Y-42169758D01*
X35046701Y-42205951D01*
X35051133Y-42228231D01*
X35095448Y-42294552D01*
X35161769Y-42338867D01*
X35206231Y-42347711D01*
X35220241Y-42350498D01*
X35220246Y-42350498D01*
X35220252Y-42350500D01*
X35220253Y-42350500D01*
X37769747Y-42350500D01*
X37769748Y-42350500D01*
X37828231Y-42338867D01*
X37894552Y-42294552D01*
X37938867Y-42228231D01*
X37950500Y-42169748D01*
X37950500Y-41130252D01*
X37938867Y-41071769D01*
X37894552Y-41005448D01*
X37894548Y-41005445D01*
X37828233Y-40961134D01*
X37828231Y-40961133D01*
X37828228Y-40961132D01*
X37828227Y-40961132D01*
X37769758Y-40949501D01*
X37769748Y-40949500D01*
X35220252Y-40949500D01*
X35220251Y-40949500D01*
X35220241Y-40949501D01*
X35161772Y-40961132D01*
X35161766Y-40961134D01*
X35095451Y-41005445D01*
X35095445Y-41005451D01*
X35051134Y-41071766D01*
X35051132Y-41071772D01*
X35039501Y-41130241D01*
X35039500Y-41130253D01*
X34640500Y-41130253D01*
X34640500Y-41130252D01*
X34628867Y-41071769D01*
X34584552Y-41005448D01*
X34584548Y-41005445D01*
X34518233Y-40961134D01*
X34518231Y-40961133D01*
X34518228Y-40961132D01*
X34518227Y-40961132D01*
X34459758Y-40949501D01*
X34459748Y-40949500D01*
X31910252Y-40949500D01*
X31910251Y-40949500D01*
X31910241Y-40949501D01*
X31851772Y-40961132D01*
X31851766Y-40961134D01*
X31785451Y-41005445D01*
X31785445Y-41005451D01*
X31741134Y-41071766D01*
X31741132Y-41071772D01*
X31729501Y-41130241D01*
X31729500Y-41130253D01*
X21500500Y-41130253D01*
X21500500Y-38100001D01*
X22850000Y-38100001D01*
X22850000Y-38819700D01*
X22861603Y-38878036D01*
X22905806Y-38944189D01*
X22905810Y-38944193D01*
X22971963Y-38988396D01*
X23030299Y-38999999D01*
X23030303Y-39000000D01*
X23649999Y-39000000D01*
X23650000Y-38999999D01*
X23650000Y-38100001D01*
X23850000Y-38100001D01*
X23850000Y-38999999D01*
X23850001Y-39000000D01*
X24469697Y-39000000D01*
X24469700Y-38999999D01*
X24528036Y-38988396D01*
X24594189Y-38944193D01*
X24594193Y-38944189D01*
X24638396Y-38878036D01*
X24649999Y-38819700D01*
X24650000Y-38819697D01*
X24650000Y-38100001D01*
X24649999Y-38100000D01*
X23850001Y-38100000D01*
X23850000Y-38100001D01*
X23650000Y-38100001D01*
X23649999Y-38100000D01*
X22850001Y-38100000D01*
X22850000Y-38100001D01*
X21500500Y-38100001D01*
X21500500Y-37180299D01*
X22850000Y-37180299D01*
X22850000Y-37899999D01*
X22850001Y-37900000D01*
X23649999Y-37900000D01*
X23650000Y-37899999D01*
X23650000Y-37000001D01*
X23850000Y-37000001D01*
X23850000Y-37899999D01*
X23850001Y-37900000D01*
X24649999Y-37900000D01*
X24650000Y-37899999D01*
X24650000Y-37180302D01*
X24649999Y-37180299D01*
X24638396Y-37121963D01*
X24594193Y-37055810D01*
X24594189Y-37055806D01*
X24528036Y-37011603D01*
X24469700Y-37000000D01*
X23850001Y-37000000D01*
X23850000Y-37000001D01*
X23650000Y-37000001D01*
X23649999Y-37000000D01*
X23030299Y-37000000D01*
X22971963Y-37011603D01*
X22905810Y-37055806D01*
X22905806Y-37055810D01*
X22861603Y-37121963D01*
X22850000Y-37180299D01*
X21500500Y-37180299D01*
X21500500Y-30100001D01*
X22850000Y-30100001D01*
X22850000Y-30819700D01*
X22861603Y-30878036D01*
X22905806Y-30944189D01*
X22905810Y-30944193D01*
X22971963Y-30988396D01*
X23030299Y-30999999D01*
X23030303Y-31000000D01*
X23649999Y-31000000D01*
X23650000Y-30999999D01*
X23650000Y-30100001D01*
X23850000Y-30100001D01*
X23850000Y-30999999D01*
X23850001Y-31000000D01*
X24469697Y-31000000D01*
X24469700Y-30999999D01*
X24528036Y-30988396D01*
X24594189Y-30944193D01*
X24594193Y-30944189D01*
X24638396Y-30878036D01*
X24649999Y-30819700D01*
X24650000Y-30819697D01*
X24650000Y-30100001D01*
X24649999Y-30100000D01*
X23850001Y-30100000D01*
X23850000Y-30100001D01*
X23650000Y-30100001D01*
X23649999Y-30100000D01*
X22850001Y-30100000D01*
X22850000Y-30100001D01*
X21500500Y-30100001D01*
X21500500Y-29180299D01*
X22850000Y-29180299D01*
X22850000Y-29899999D01*
X22850001Y-29900000D01*
X23649999Y-29900000D01*
X23650000Y-29899999D01*
X23650000Y-29000001D01*
X23850000Y-29000001D01*
X23850000Y-29899999D01*
X23850001Y-29900000D01*
X24649999Y-29900000D01*
X24650000Y-29899999D01*
X24650000Y-29180302D01*
X24649999Y-29180299D01*
X24649990Y-29180253D01*
X27349500Y-29180253D01*
X27349500Y-30819746D01*
X27349501Y-30819758D01*
X27361132Y-30878227D01*
X27361134Y-30878233D01*
X27405205Y-30944189D01*
X27405448Y-30944552D01*
X27471769Y-30988867D01*
X27516231Y-30997711D01*
X27530241Y-31000498D01*
X27530246Y-31000498D01*
X27530252Y-31000500D01*
X27850500Y-31000500D01*
X27908691Y-31019407D01*
X27944655Y-31068907D01*
X27949500Y-31099500D01*
X27949500Y-36900500D01*
X27930593Y-36958691D01*
X27881093Y-36994655D01*
X27850500Y-36999500D01*
X27530252Y-36999500D01*
X27530251Y-36999500D01*
X27530241Y-36999501D01*
X27471772Y-37011132D01*
X27471766Y-37011134D01*
X27405451Y-37055445D01*
X27405445Y-37055451D01*
X27361134Y-37121766D01*
X27361132Y-37121772D01*
X27349501Y-37180241D01*
X27349500Y-37180253D01*
X27349500Y-38819746D01*
X27349501Y-38819758D01*
X27361094Y-38878036D01*
X27361133Y-38878231D01*
X27405448Y-38944552D01*
X27471769Y-38988867D01*
X27516231Y-38997711D01*
X27530241Y-39000498D01*
X27530246Y-39000498D01*
X27530252Y-39000500D01*
X27530253Y-39000500D01*
X28969747Y-39000500D01*
X28969748Y-39000500D01*
X29028231Y-38988867D01*
X29094552Y-38944552D01*
X29138867Y-38878231D01*
X29150500Y-38819748D01*
X29150500Y-38590253D01*
X31729500Y-38590253D01*
X31729500Y-39629746D01*
X31729501Y-39629758D01*
X31741132Y-39688227D01*
X31741133Y-39688231D01*
X31785448Y-39754552D01*
X31851769Y-39798867D01*
X31896231Y-39807711D01*
X31910241Y-39810498D01*
X31910246Y-39810498D01*
X31910252Y-39810500D01*
X31910253Y-39810500D01*
X34459747Y-39810500D01*
X34459748Y-39810500D01*
X34518231Y-39798867D01*
X34584552Y-39754552D01*
X34628867Y-39688231D01*
X34640500Y-39629748D01*
X34640500Y-38590253D01*
X35039500Y-38590253D01*
X35039500Y-39629746D01*
X35039501Y-39629758D01*
X35051132Y-39688227D01*
X35051133Y-39688231D01*
X35095448Y-39754552D01*
X35161769Y-39798867D01*
X35206231Y-39807711D01*
X35220241Y-39810498D01*
X35220246Y-39810498D01*
X35220252Y-39810500D01*
X35220253Y-39810500D01*
X37769747Y-39810500D01*
X37769748Y-39810500D01*
X37828231Y-39798867D01*
X37894552Y-39754552D01*
X37938867Y-39688231D01*
X37950500Y-39629748D01*
X37950500Y-38590252D01*
X37938867Y-38531769D01*
X37894552Y-38465448D01*
X37894548Y-38465445D01*
X37828233Y-38421134D01*
X37828231Y-38421133D01*
X37828228Y-38421132D01*
X37828227Y-38421132D01*
X37769758Y-38409501D01*
X37769748Y-38409500D01*
X35220252Y-38409500D01*
X35220251Y-38409500D01*
X35220241Y-38409501D01*
X35161772Y-38421132D01*
X35161766Y-38421134D01*
X35095451Y-38465445D01*
X35095445Y-38465451D01*
X35051134Y-38531766D01*
X35051132Y-38531772D01*
X35039501Y-38590241D01*
X35039500Y-38590253D01*
X34640500Y-38590253D01*
X34640500Y-38590252D01*
X34628867Y-38531769D01*
X34584552Y-38465448D01*
X34584548Y-38465445D01*
X34518233Y-38421134D01*
X34518231Y-38421133D01*
X34518228Y-38421132D01*
X34518227Y-38421132D01*
X34459758Y-38409501D01*
X34459748Y-38409500D01*
X31910252Y-38409500D01*
X31910251Y-38409500D01*
X31910241Y-38409501D01*
X31851772Y-38421132D01*
X31851766Y-38421134D01*
X31785451Y-38465445D01*
X31785445Y-38465451D01*
X31741134Y-38531766D01*
X31741132Y-38531772D01*
X31729501Y-38590241D01*
X31729500Y-38590253D01*
X29150500Y-38590253D01*
X29150500Y-38399500D01*
X29169407Y-38341309D01*
X29218907Y-38305345D01*
X29249500Y-38300500D01*
X29254563Y-38300500D01*
X29254563Y-38300499D01*
X29330989Y-38280021D01*
X29399511Y-38240460D01*
X29455460Y-38184511D01*
X31560496Y-36079475D01*
X31615013Y-36051698D01*
X31675445Y-36061269D01*
X31718710Y-36104534D01*
X31729500Y-36149479D01*
X31729500Y-37089746D01*
X31729501Y-37089758D01*
X31741132Y-37148227D01*
X31741134Y-37148233D01*
X31785445Y-37214548D01*
X31785448Y-37214552D01*
X31851769Y-37258867D01*
X31896231Y-37267711D01*
X31910241Y-37270498D01*
X31910246Y-37270498D01*
X31910252Y-37270500D01*
X31910253Y-37270500D01*
X34459747Y-37270500D01*
X34459748Y-37270500D01*
X34518231Y-37258867D01*
X34584552Y-37214552D01*
X34628867Y-37148231D01*
X34640500Y-37089748D01*
X34640500Y-36050253D01*
X35039500Y-36050253D01*
X35039500Y-37089746D01*
X35039501Y-37089758D01*
X35051132Y-37148227D01*
X35051134Y-37148233D01*
X35095445Y-37214548D01*
X35095448Y-37214552D01*
X35161769Y-37258867D01*
X35206231Y-37267711D01*
X35220241Y-37270498D01*
X35220246Y-37270498D01*
X35220252Y-37270500D01*
X35220253Y-37270500D01*
X37769747Y-37270500D01*
X37769748Y-37270500D01*
X37828231Y-37258867D01*
X37894552Y-37214552D01*
X37938867Y-37148231D01*
X37950500Y-37089748D01*
X37950500Y-36050252D01*
X37938867Y-35991769D01*
X37894552Y-35925448D01*
X37878895Y-35914986D01*
X37828233Y-35881134D01*
X37828231Y-35881133D01*
X37828228Y-35881132D01*
X37828227Y-35881132D01*
X37769758Y-35869501D01*
X37769748Y-35869500D01*
X35220252Y-35869500D01*
X35220251Y-35869500D01*
X35220241Y-35869501D01*
X35161772Y-35881132D01*
X35161766Y-35881134D01*
X35095451Y-35925445D01*
X35095445Y-35925451D01*
X35051134Y-35991766D01*
X35051132Y-35991772D01*
X35039501Y-36050241D01*
X35039500Y-36050253D01*
X34640500Y-36050253D01*
X34640500Y-36050252D01*
X34628867Y-35991769D01*
X34584552Y-35925448D01*
X34568895Y-35914986D01*
X34518233Y-35881134D01*
X34518231Y-35881133D01*
X34518228Y-35881132D01*
X34518227Y-35881132D01*
X34459758Y-35869501D01*
X34459748Y-35869500D01*
X32009479Y-35869500D01*
X31951288Y-35850593D01*
X31915324Y-35801093D01*
X31915324Y-35739907D01*
X31939475Y-35700496D01*
X32880475Y-34759496D01*
X32934992Y-34731719D01*
X32950479Y-34730500D01*
X34459747Y-34730500D01*
X34459748Y-34730500D01*
X34518231Y-34718867D01*
X34584552Y-34674552D01*
X34628867Y-34608231D01*
X34640500Y-34549748D01*
X34640500Y-34429500D01*
X34659407Y-34371309D01*
X34708907Y-34335345D01*
X34739500Y-34330500D01*
X34940500Y-34330500D01*
X34998691Y-34349407D01*
X35034655Y-34398907D01*
X35039500Y-34429500D01*
X35039500Y-34549746D01*
X35039501Y-34549758D01*
X35051132Y-34608227D01*
X35051133Y-34608231D01*
X35095448Y-34674552D01*
X35161769Y-34718867D01*
X35206231Y-34727711D01*
X35220241Y-34730498D01*
X35220246Y-34730498D01*
X35220252Y-34730500D01*
X35220253Y-34730500D01*
X37769747Y-34730500D01*
X37769748Y-34730500D01*
X37828231Y-34718867D01*
X37894552Y-34674552D01*
X37938867Y-34608231D01*
X37950500Y-34549748D01*
X37950500Y-33510252D01*
X37938867Y-33451769D01*
X37894552Y-33385448D01*
X37894548Y-33385445D01*
X37828233Y-33341134D01*
X37828231Y-33341133D01*
X37828228Y-33341132D01*
X37828227Y-33341132D01*
X37769758Y-33329501D01*
X37769748Y-33329500D01*
X35220252Y-33329500D01*
X35220251Y-33329500D01*
X35220241Y-33329501D01*
X35161772Y-33341132D01*
X35161766Y-33341134D01*
X35095451Y-33385445D01*
X35095445Y-33385451D01*
X35051134Y-33451766D01*
X35051132Y-33451772D01*
X35039501Y-33510241D01*
X35039500Y-33510253D01*
X35039500Y-33630500D01*
X35020593Y-33688691D01*
X34971093Y-33724655D01*
X34940500Y-33729500D01*
X34739500Y-33729500D01*
X34681309Y-33710593D01*
X34645345Y-33661093D01*
X34640500Y-33630500D01*
X34640500Y-33510253D01*
X34640498Y-33510241D01*
X34637078Y-33493047D01*
X34628867Y-33451769D01*
X34584552Y-33385448D01*
X34584548Y-33385445D01*
X34518233Y-33341134D01*
X34518231Y-33341133D01*
X34518228Y-33341132D01*
X34518227Y-33341132D01*
X34459758Y-33329501D01*
X34459748Y-33329500D01*
X31910252Y-33329500D01*
X31910251Y-33329500D01*
X31910241Y-33329501D01*
X31851772Y-33341132D01*
X31851766Y-33341134D01*
X31785451Y-33385445D01*
X31785445Y-33385451D01*
X31741134Y-33451766D01*
X31741132Y-33451772D01*
X31729501Y-33510241D01*
X31729500Y-33510253D01*
X31729500Y-34549746D01*
X31729501Y-34549758D01*
X31741132Y-34608227D01*
X31741133Y-34608231D01*
X31785448Y-34674552D01*
X31851769Y-34718867D01*
X31852995Y-34719110D01*
X31853106Y-34719133D01*
X31855074Y-34720235D01*
X31860776Y-34722597D01*
X31860496Y-34723271D01*
X31906489Y-34749030D01*
X31932104Y-34804596D01*
X31920166Y-34864605D01*
X31903794Y-34886234D01*
X29319504Y-37470525D01*
X29264987Y-37498302D01*
X29204555Y-37488731D01*
X29161290Y-37445466D01*
X29150500Y-37400521D01*
X29150500Y-37180253D01*
X29150498Y-37180241D01*
X29144131Y-37148233D01*
X29138867Y-37121769D01*
X29094552Y-37055448D01*
X29094548Y-37055445D01*
X29028233Y-37011134D01*
X29028231Y-37011133D01*
X29028228Y-37011132D01*
X29028227Y-37011132D01*
X28969758Y-36999501D01*
X28969748Y-36999500D01*
X28969747Y-36999500D01*
X28649500Y-36999500D01*
X28591309Y-36980593D01*
X28555345Y-36931093D01*
X28550500Y-36900500D01*
X28550500Y-31099500D01*
X28569407Y-31041309D01*
X28618907Y-31005345D01*
X28649500Y-31000500D01*
X28969747Y-31000500D01*
X28969748Y-31000500D01*
X29028231Y-30988867D01*
X29056088Y-30970253D01*
X31729500Y-30970253D01*
X31729500Y-32009746D01*
X31729501Y-32009758D01*
X31741132Y-32068227D01*
X31741134Y-32068233D01*
X31785445Y-32134548D01*
X31785448Y-32134552D01*
X31851769Y-32178867D01*
X31896231Y-32187711D01*
X31910241Y-32190498D01*
X31910246Y-32190498D01*
X31910252Y-32190500D01*
X31910253Y-32190500D01*
X34459747Y-32190500D01*
X34459748Y-32190500D01*
X34518231Y-32178867D01*
X34584552Y-32134552D01*
X34628867Y-32068231D01*
X34640500Y-32009748D01*
X34640500Y-30970253D01*
X35039500Y-30970253D01*
X35039500Y-32009746D01*
X35039501Y-32009758D01*
X35051132Y-32068227D01*
X35051134Y-32068233D01*
X35095445Y-32134548D01*
X35095448Y-32134552D01*
X35161769Y-32178867D01*
X35206231Y-32187711D01*
X35220241Y-32190498D01*
X35220246Y-32190498D01*
X35220252Y-32190500D01*
X35220253Y-32190500D01*
X37769747Y-32190500D01*
X37769748Y-32190500D01*
X37828231Y-32178867D01*
X37894552Y-32134552D01*
X37938867Y-32068231D01*
X37950500Y-32009748D01*
X37950500Y-30970252D01*
X37938867Y-30911769D01*
X37894552Y-30845448D01*
X37856087Y-30819746D01*
X37828233Y-30801134D01*
X37828231Y-30801133D01*
X37828228Y-30801132D01*
X37828227Y-30801132D01*
X37769758Y-30789501D01*
X37769748Y-30789500D01*
X35220252Y-30789500D01*
X35220251Y-30789500D01*
X35220241Y-30789501D01*
X35161772Y-30801132D01*
X35161766Y-30801134D01*
X35095451Y-30845445D01*
X35095445Y-30845451D01*
X35051134Y-30911766D01*
X35051132Y-30911772D01*
X35039501Y-30970241D01*
X35039500Y-30970253D01*
X34640500Y-30970253D01*
X34640500Y-30970252D01*
X34628867Y-30911769D01*
X34584552Y-30845448D01*
X34546087Y-30819746D01*
X34518233Y-30801134D01*
X34518231Y-30801133D01*
X34518228Y-30801132D01*
X34518227Y-30801132D01*
X34459758Y-30789501D01*
X34459748Y-30789500D01*
X31910252Y-30789500D01*
X31910251Y-30789500D01*
X31910241Y-30789501D01*
X31851772Y-30801132D01*
X31851766Y-30801134D01*
X31785451Y-30845445D01*
X31785445Y-30845451D01*
X31741134Y-30911766D01*
X31741132Y-30911772D01*
X31729501Y-30970241D01*
X31729500Y-30970253D01*
X29056088Y-30970253D01*
X29094552Y-30944552D01*
X29138867Y-30878231D01*
X29150500Y-30819748D01*
X29150500Y-29180252D01*
X29138867Y-29121769D01*
X29094552Y-29055448D01*
X29094548Y-29055445D01*
X29028233Y-29011134D01*
X29028231Y-29011133D01*
X29028228Y-29011132D01*
X29028227Y-29011132D01*
X28969758Y-28999501D01*
X28969748Y-28999500D01*
X27530252Y-28999500D01*
X27530251Y-28999500D01*
X27530241Y-28999501D01*
X27471772Y-29011132D01*
X27471766Y-29011134D01*
X27405451Y-29055445D01*
X27405445Y-29055451D01*
X27361134Y-29121766D01*
X27361132Y-29121772D01*
X27349501Y-29180241D01*
X27349500Y-29180253D01*
X24649990Y-29180253D01*
X24638396Y-29121963D01*
X24594193Y-29055810D01*
X24594189Y-29055806D01*
X24528036Y-29011603D01*
X24469700Y-29000000D01*
X23850001Y-29000000D01*
X23850000Y-29000001D01*
X23650000Y-29000001D01*
X23649999Y-29000000D01*
X23030299Y-29000000D01*
X22971963Y-29011603D01*
X22905810Y-29055806D01*
X22905806Y-29055810D01*
X22861603Y-29121963D01*
X22850000Y-29180299D01*
X21500500Y-29180299D01*
X21500500Y-28430253D01*
X31729500Y-28430253D01*
X31729500Y-29469746D01*
X31729501Y-29469758D01*
X31741132Y-29528227D01*
X31741133Y-29528231D01*
X31785448Y-29594552D01*
X31851769Y-29638867D01*
X31896231Y-29647711D01*
X31910241Y-29650498D01*
X31910246Y-29650498D01*
X31910252Y-29650500D01*
X31910253Y-29650500D01*
X34459747Y-29650500D01*
X34459748Y-29650500D01*
X34518231Y-29638867D01*
X34584552Y-29594552D01*
X34628867Y-29528231D01*
X34640500Y-29469748D01*
X34640500Y-28430253D01*
X35039500Y-28430253D01*
X35039500Y-29469746D01*
X35039501Y-29469758D01*
X35051132Y-29528227D01*
X35051133Y-29528231D01*
X35095448Y-29594552D01*
X35161769Y-29638867D01*
X35206231Y-29647711D01*
X35220241Y-29650498D01*
X35220246Y-29650498D01*
X35220252Y-29650500D01*
X35220253Y-29650500D01*
X37769747Y-29650500D01*
X37769748Y-29650500D01*
X37828231Y-29638867D01*
X37894552Y-29594552D01*
X37938867Y-29528231D01*
X37950500Y-29469748D01*
X37950500Y-29237501D01*
X45650001Y-29237501D01*
X45650001Y-29819791D01*
X45652909Y-29844874D01*
X45698213Y-29947477D01*
X45777522Y-30026786D01*
X45880127Y-30072090D01*
X45905204Y-30074999D01*
X45950000Y-30074998D01*
X45950000Y-29237501D01*
X45949999Y-29237500D01*
X45650002Y-29237500D01*
X45650001Y-29237501D01*
X37950500Y-29237501D01*
X37950500Y-28455202D01*
X45650000Y-28455202D01*
X45650000Y-29037499D01*
X45650001Y-29037500D01*
X45949999Y-29037500D01*
X45950000Y-29037499D01*
X45950000Y-28199999D01*
X45905212Y-28200000D01*
X45905207Y-28200001D01*
X45880125Y-28202909D01*
X45777522Y-28248213D01*
X45698213Y-28327522D01*
X45652909Y-28430127D01*
X45650000Y-28455202D01*
X37950500Y-28455202D01*
X37950500Y-28430252D01*
X37938867Y-28371769D01*
X37894552Y-28305448D01*
X37894548Y-28305445D01*
X37828233Y-28261134D01*
X37828231Y-28261133D01*
X37828228Y-28261132D01*
X37828227Y-28261132D01*
X37769758Y-28249501D01*
X37769748Y-28249500D01*
X35220252Y-28249500D01*
X35220251Y-28249500D01*
X35220241Y-28249501D01*
X35161772Y-28261132D01*
X35161766Y-28261134D01*
X35095451Y-28305445D01*
X35095445Y-28305451D01*
X35051134Y-28371766D01*
X35051132Y-28371772D01*
X35039501Y-28430241D01*
X35039500Y-28430253D01*
X34640500Y-28430253D01*
X34640500Y-28430252D01*
X34628867Y-28371769D01*
X34584552Y-28305448D01*
X34584548Y-28305445D01*
X34518233Y-28261134D01*
X34518231Y-28261133D01*
X34518228Y-28261132D01*
X34518227Y-28261132D01*
X34459758Y-28249501D01*
X34459748Y-28249500D01*
X31910252Y-28249500D01*
X31910251Y-28249500D01*
X31910241Y-28249501D01*
X31851772Y-28261132D01*
X31851766Y-28261134D01*
X31785451Y-28305445D01*
X31785445Y-28305451D01*
X31741134Y-28371766D01*
X31741132Y-28371772D01*
X31729501Y-28430241D01*
X31729500Y-28430253D01*
X21500500Y-28430253D01*
X21500500Y-27100001D01*
X61800001Y-27100001D01*
X61800001Y-27804203D01*
X61802850Y-27834600D01*
X61802850Y-27834602D01*
X61847654Y-27962647D01*
X61928207Y-28071790D01*
X61928209Y-28071792D01*
X62037352Y-28152345D01*
X62165398Y-28197149D01*
X62195789Y-28199999D01*
X63649998Y-28199999D01*
X63650000Y-28199998D01*
X63650000Y-27100001D01*
X63850000Y-27100001D01*
X63850000Y-28199998D01*
X63850001Y-28199999D01*
X65304203Y-28199999D01*
X65334600Y-28197149D01*
X65334602Y-28197149D01*
X65462647Y-28152345D01*
X65571790Y-28071792D01*
X65571792Y-28071790D01*
X65652345Y-27962647D01*
X65697149Y-27834601D01*
X65699999Y-27804211D01*
X65700000Y-27804210D01*
X65700000Y-27100001D01*
X69800001Y-27100001D01*
X69800001Y-27804203D01*
X69802850Y-27834600D01*
X69802850Y-27834602D01*
X69847654Y-27962647D01*
X69928207Y-28071790D01*
X69928209Y-28071792D01*
X70037352Y-28152345D01*
X70165398Y-28197149D01*
X70195789Y-28199999D01*
X72899998Y-28199999D01*
X72900000Y-28199998D01*
X72900000Y-27100001D01*
X73100000Y-27100001D01*
X73100000Y-28199998D01*
X73100001Y-28199999D01*
X75804203Y-28199999D01*
X75834600Y-28197149D01*
X75834602Y-28197149D01*
X75962647Y-28152345D01*
X76071790Y-28071792D01*
X76071792Y-28071790D01*
X76152345Y-27962647D01*
X76197149Y-27834601D01*
X76199999Y-27804211D01*
X76200000Y-27804210D01*
X76200000Y-27100001D01*
X76199999Y-27100000D01*
X73100001Y-27100000D01*
X73100000Y-27100001D01*
X72900000Y-27100001D01*
X72899999Y-27100000D01*
X69800002Y-27100000D01*
X69800001Y-27100001D01*
X65700000Y-27100001D01*
X65699999Y-27100000D01*
X63850001Y-27100000D01*
X63850000Y-27100001D01*
X63650000Y-27100001D01*
X63649999Y-27100000D01*
X61800002Y-27100000D01*
X61800001Y-27100001D01*
X21500500Y-27100001D01*
X21500500Y-26195788D01*
X61800000Y-26195788D01*
X61800000Y-26899999D01*
X61800001Y-26900000D01*
X63649999Y-26900000D01*
X63650000Y-26899999D01*
X63650000Y-25800001D01*
X63850000Y-25800001D01*
X63850000Y-26899999D01*
X63850001Y-26900000D01*
X65699998Y-26900000D01*
X65699999Y-26899999D01*
X65699999Y-26195796D01*
X65699998Y-26195788D01*
X69800000Y-26195788D01*
X69800000Y-26899999D01*
X69800001Y-26900000D01*
X72899999Y-26900000D01*
X72900000Y-26899999D01*
X72900000Y-25800001D01*
X73100000Y-25800001D01*
X73100000Y-26899999D01*
X73100001Y-26900000D01*
X76199998Y-26900000D01*
X76199999Y-26899999D01*
X76199999Y-26195796D01*
X76197149Y-26165399D01*
X76197149Y-26165397D01*
X76152345Y-26037352D01*
X76071792Y-25928209D01*
X76071790Y-25928207D01*
X75962647Y-25847654D01*
X75834601Y-25802850D01*
X75804211Y-25800000D01*
X73100001Y-25800000D01*
X73100000Y-25800001D01*
X72900000Y-25800001D01*
X72899999Y-25800000D01*
X70195796Y-25800000D01*
X70165399Y-25802850D01*
X70165397Y-25802850D01*
X70037352Y-25847654D01*
X69928209Y-25928207D01*
X69928207Y-25928209D01*
X69847654Y-26037352D01*
X69802850Y-26165398D01*
X69800000Y-26195788D01*
X65699998Y-26195788D01*
X65697149Y-26165399D01*
X65697149Y-26165397D01*
X65652345Y-26037352D01*
X65571792Y-25928209D01*
X65571790Y-25928207D01*
X65462647Y-25847654D01*
X65334601Y-25802850D01*
X65304211Y-25800000D01*
X63850001Y-25800000D01*
X63850000Y-25800001D01*
X63650000Y-25800001D01*
X63649999Y-25800000D01*
X62195796Y-25800000D01*
X62165399Y-25802850D01*
X62165397Y-25802850D01*
X62037352Y-25847654D01*
X61928209Y-25928207D01*
X61928207Y-25928209D01*
X61847654Y-26037352D01*
X61802850Y-26165398D01*
X61800000Y-26195788D01*
X21500500Y-26195788D01*
X21500500Y-24002984D01*
X21500681Y-23997007D01*
X21518362Y-23704696D01*
X21518363Y-23704695D01*
X21518362Y-23704688D01*
X21519801Y-23692837D01*
X21572052Y-23407714D01*
X21574912Y-23396113D01*
X21661148Y-23119370D01*
X21665378Y-23108218D01*
X21784350Y-22843873D01*
X21789899Y-22833302D01*
X21939861Y-22585233D01*
X21946632Y-22575423D01*
X22125406Y-22347235D01*
X22133318Y-22338303D01*
X22338303Y-22133318D01*
X22347235Y-22125406D01*
X22575423Y-21946632D01*
X22585233Y-21939861D01*
X22833302Y-21789899D01*
X22843873Y-21784350D01*
X23108218Y-21665378D01*
X23119370Y-21661148D01*
X23396120Y-21574910D01*
X23407714Y-21572052D01*
X23692837Y-21519801D01*
X23704688Y-21518362D01*
X23997008Y-21500681D01*
X24002985Y-21500500D01*
X24065892Y-21500500D01*
X75934108Y-21500500D01*
X75997015Y-21500500D01*
X76002992Y-21500681D01*
G37*
G04 #@! TD.AperFunction*
G04 #@! TD*
M02*
