G04 #@! TF.GenerationSoftware,KiCad,Pcbnew,9.0.6*
G04 #@! TF.CreationDate,2025-12-24T09:31:40-05:00*
G04 #@! TF.ProjectId,project-bed-light,70726f6a-6563-4742-9d62-65642d6c6967,rev?*
G04 #@! TF.SameCoordinates,Original*
G04 #@! TF.FileFunction,Copper,L1,Top*
G04 #@! TF.FilePolarity,Positive*
%FSLAX46Y46*%
G04 Gerber Fmt 4.6, Leading zero omitted, Abs format (unit mm)*
G04 Created by KiCad (PCBNEW 9.0.6) date 2025-12-24 09:31:40*
%MOMM*%
%LPD*%
G01*
G04 APERTURE LIST*
G04 Aperture macros list*
%AMRoundRect*
0 Rectangle with rounded corners*
0 $1 Rounding radius*
0 $2 $3 $4 $5 $6 $7 $8 $9 X,Y pos of 4 corners*
0 Add a 4 corners polygon primitive as box body*
4,1,4,$2,$3,$4,$5,$6,$7,$8,$9,$2,$3,0*
0 Add four circle primitives for the rounded corners*
1,1,$1+$1,$2,$3*
1,1,$1+$1,$4,$5*
1,1,$1+$1,$6,$7*
1,1,$1+$1,$8,$9*
0 Add four rect primitives between the rounded corners*
20,1,$1+$1,$2,$3,$4,$5,0*
20,1,$1+$1,$4,$5,$6,$7,0*
20,1,$1+$1,$6,$7,$8,$9,0*
20,1,$1+$1,$8,$9,$2,$3,0*%
G04 Aperture macros list end*
G04 #@! TA.AperFunction,SMDPad,CuDef*
%ADD10R,1.400000X1.600000*%
G04 #@! TD*
G04 #@! TA.AperFunction,ComponentPad*
%ADD11C,4.500000*%
G04 #@! TD*
G04 #@! TA.AperFunction,SMDPad,CuDef*
%ADD12RoundRect,0.225000X-0.225000X-0.250000X0.225000X-0.250000X0.225000X0.250000X-0.225000X0.250000X0*%
G04 #@! TD*
G04 #@! TA.AperFunction,SMDPad,CuDef*
%ADD13RoundRect,0.200000X0.275000X-0.200000X0.275000X0.200000X-0.275000X0.200000X-0.275000X-0.200000X0*%
G04 #@! TD*
G04 #@! TA.AperFunction,SMDPad,CuDef*
%ADD14RoundRect,0.250000X-1.750000X-1.000000X1.750000X-1.000000X1.750000X1.000000X-1.750000X1.000000X0*%
G04 #@! TD*
G04 #@! TA.AperFunction,ComponentPad*
%ADD15R,1.700000X1.700000*%
G04 #@! TD*
G04 #@! TA.AperFunction,ComponentPad*
%ADD16C,1.700000*%
G04 #@! TD*
G04 #@! TA.AperFunction,SMDPad,CuDef*
%ADD17RoundRect,0.225000X-0.250000X0.225000X-0.250000X-0.225000X0.250000X-0.225000X0.250000X0.225000X0*%
G04 #@! TD*
G04 #@! TA.AperFunction,SMDPad,CuDef*
%ADD18R,2.510000X1.000000*%
G04 #@! TD*
G04 #@! TA.AperFunction,SMDPad,CuDef*
%ADD19RoundRect,0.200000X-0.200000X-0.275000X0.200000X-0.275000X0.200000X0.275000X-0.200000X0.275000X0*%
G04 #@! TD*
G04 #@! TA.AperFunction,SMDPad,CuDef*
%ADD20RoundRect,0.250000X1.100000X-0.325000X1.100000X0.325000X-1.100000X0.325000X-1.100000X-0.325000X0*%
G04 #@! TD*
G04 #@! TA.AperFunction,SMDPad,CuDef*
%ADD21RoundRect,0.250000X-0.325000X-1.100000X0.325000X-1.100000X0.325000X1.100000X-0.325000X1.100000X0*%
G04 #@! TD*
G04 #@! TA.AperFunction,SMDPad,CuDef*
%ADD22RoundRect,0.100000X-0.100000X0.637500X-0.100000X-0.637500X0.100000X-0.637500X0.100000X0.637500X0*%
G04 #@! TD*
G04 #@! TA.AperFunction,SMDPad,CuDef*
%ADD23RoundRect,0.200000X0.200000X0.275000X-0.200000X0.275000X-0.200000X-0.275000X0.200000X-0.275000X0*%
G04 #@! TD*
G04 #@! TA.AperFunction,SMDPad,CuDef*
%ADD24RoundRect,0.225000X0.250000X-0.225000X0.250000X0.225000X-0.250000X0.225000X-0.250000X-0.225000X0*%
G04 #@! TD*
G04 #@! TA.AperFunction,SMDPad,CuDef*
%ADD25RoundRect,0.200000X-0.250000X-0.200000X0.250000X-0.200000X0.250000X0.200000X-0.250000X0.200000X0*%
G04 #@! TD*
G04 #@! TA.AperFunction,SMDPad,CuDef*
%ADD26RoundRect,0.475000X2.075000X-0.475000X2.075000X0.475000X-2.075000X0.475000X-2.075000X-0.475000X0*%
G04 #@! TD*
G04 #@! TA.AperFunction,SMDPad,CuDef*
%ADD27RoundRect,0.250000X2.750000X0.750000X-2.750000X0.750000X-2.750000X-0.750000X2.750000X-0.750000X0*%
G04 #@! TD*
G04 #@! TA.AperFunction,SMDPad,CuDef*
%ADD28RoundRect,0.250000X1.500000X0.750000X-1.500000X0.750000X-1.500000X-0.750000X1.500000X-0.750000X0*%
G04 #@! TD*
G04 #@! TA.AperFunction,SMDPad,CuDef*
%ADD29RoundRect,0.250000X0.750000X-2.750000X0.750000X2.750000X-0.750000X2.750000X-0.750000X-2.750000X0*%
G04 #@! TD*
G04 #@! TA.AperFunction,SMDPad,CuDef*
%ADD30RoundRect,0.250000X0.750000X-1.500000X0.750000X1.500000X-0.750000X1.500000X-0.750000X-1.500000X0*%
G04 #@! TD*
G04 #@! TA.AperFunction,SMDPad,CuDef*
%ADD31RoundRect,0.050000X0.285000X0.100000X-0.285000X0.100000X-0.285000X-0.100000X0.285000X-0.100000X0*%
G04 #@! TD*
G04 #@! TA.AperFunction,SMDPad,CuDef*
%ADD32RoundRect,0.125000X-0.175000X0.125000X-0.175000X-0.125000X0.175000X-0.125000X0.175000X0.125000X0*%
G04 #@! TD*
G04 #@! TA.AperFunction,ViaPad*
%ADD33C,0.600000*%
G04 #@! TD*
G04 #@! TA.AperFunction,Conductor*
%ADD34C,1.000000*%
G04 #@! TD*
G04 #@! TA.AperFunction,Conductor*
%ADD35C,0.300000*%
G04 #@! TD*
G04 #@! TA.AperFunction,Conductor*
%ADD36C,0.200000*%
G04 #@! TD*
G04 APERTURE END LIST*
D10*
G04 #@! TO.P,S1,1*
G04 #@! TO.N,GND*
X23750000Y-38000000D03*
X23750000Y-30000000D03*
G04 #@! TO.P,S1,2*
G04 #@! TO.N,Net-(U2-P0.04)*
X28250000Y-38000000D03*
X28250000Y-30000000D03*
G04 #@! TD*
D11*
G04 #@! TO.P,H1,1,1*
G04 #@! TO.N,GND*
X24000000Y-24000000D03*
G04 #@! TD*
D12*
G04 #@! TO.P,C5,1*
G04 #@! TO.N,+5V*
X43225000Y-65000000D03*
G04 #@! TO.P,C5,2*
G04 #@! TO.N,GND*
X44775000Y-65000000D03*
G04 #@! TD*
D13*
G04 #@! TO.P,R2,1*
G04 #@! TO.N,+5V*
X42000000Y-72325000D03*
G04 #@! TO.P,R2,2*
G04 #@! TO.N,Net-(U1-FB)*
X42000000Y-70675000D03*
G04 #@! TD*
D14*
G04 #@! TO.P,C8,1*
G04 #@! TO.N,+24V*
X65000000Y-45000000D03*
G04 #@! TO.P,C8,2*
G04 #@! TO.N,GND*
X73000000Y-45000000D03*
G04 #@! TD*
D15*
G04 #@! TO.P,J3,1,Pin_1*
G04 #@! TO.N,+3.3V*
X26000000Y-58920000D03*
D16*
G04 #@! TO.P,J3,2,Pin_2*
G04 #@! TO.N,+5V*
X26000000Y-61460000D03*
G04 #@! TO.P,J3,3,Pin_3*
G04 #@! TO.N,GND*
X26000000Y-64000000D03*
G04 #@! TD*
D17*
G04 #@! TO.P,C3,1*
G04 #@! TO.N,Net-(U1-SS)*
X40000000Y-70725000D03*
G04 #@! TO.P,C3,2*
G04 #@! TO.N,GND*
X40000000Y-72275000D03*
G04 #@! TD*
D18*
G04 #@! TO.P,U2,1,P0.27*
G04 #@! TO.N,unconnected-(U2-P0.27-Pad1)_1*
X33185000Y-28950000D03*
G04 #@! TO.N,unconnected-(U2-P0.27-Pad1)*
X36495000Y-28950000D03*
G04 #@! TO.P,U2,2,P0.05*
G04 #@! TO.N,unconnected-(U2-P0.05-Pad2)_1*
X33185000Y-31490000D03*
G04 #@! TO.N,unconnected-(U2-P0.05-Pad2)*
X36495000Y-31490000D03*
G04 #@! TO.P,U2,3,P0.04*
G04 #@! TO.N,Net-(U2-P0.04)*
X33185000Y-34030000D03*
X36495000Y-34030000D03*
G04 #@! TO.P,U2,4,P0.26*
G04 #@! TO.N,unconnected-(U2-P0.26-Pad4)*
X33185000Y-36570000D03*
G04 #@! TO.N,unconnected-(U2-P0.26-Pad4)_1*
X36495000Y-36570000D03*
G04 #@! TO.P,U2,5,P0.07*
G04 #@! TO.N,unconnected-(U2-P0.07-Pad5)*
X33185000Y-39110000D03*
G04 #@! TO.N,unconnected-(U2-P0.07-Pad5)_1*
X36495000Y-39110000D03*
G04 #@! TO.P,U2,6,P0.06*
G04 #@! TO.N,unconnected-(U2-P0.06-Pad6)_1*
X33185000Y-41650000D03*
G04 #@! TO.N,unconnected-(U2-P0.06-Pad6)*
X36495000Y-41650000D03*
G04 #@! TO.P,U2,7,P0.29*
G04 #@! TO.N,unconnected-(U2-P0.29-Pad7)_1*
X33185000Y-44190000D03*
G04 #@! TO.N,unconnected-(U2-P0.29-Pad7)*
X36495000Y-44190000D03*
G04 #@! TO.P,U2,8,P0.28*
G04 #@! TO.N,unconnected-(U2-P0.28-Pad8)*
X33185000Y-46730000D03*
G04 #@! TO.N,unconnected-(U2-P0.28-Pad8)_1*
X36495000Y-46730000D03*
G04 #@! TO.P,U2,9,P0.30*
G04 #@! TO.N,unconnected-(U2-P0.30-Pad9)_1*
X33185000Y-49270000D03*
G04 #@! TO.N,unconnected-(U2-P0.30-Pad9)*
X36495000Y-49270000D03*
G04 #@! TO.P,U2,10,USB*
G04 #@! TO.N,unconnected-(U2-USB-Pad10)*
X33185000Y-51810000D03*
G04 #@! TO.N,unconnected-(U2-USB-Pad10)_1*
X36495000Y-51810000D03*
G04 #@! TO.P,U2,11,NC*
G04 #@! TO.N,unconnected-(U2-NC-Pad11)_1*
X33185000Y-54350000D03*
G04 #@! TO.N,unconnected-(U2-NC-Pad11)*
X36495000Y-54350000D03*
G04 #@! TO.P,U2,12,VDD_OUT*
G04 #@! TO.N,+5V*
X33185000Y-56890000D03*
X36495000Y-56890000D03*
G04 #@! TO.P,U2,13,P0.20*
G04 #@! TO.N,Net-(U2-P0.20)*
X53505000Y-28950000D03*
X56815000Y-28950000D03*
G04 #@! TO.P,U2,14,P0.21*
G04 #@! TO.N,unconnected-(U2-P0.21-Pad14)*
X53505000Y-31490000D03*
G04 #@! TO.N,unconnected-(U2-P0.21-Pad14)_1*
X56815000Y-31490000D03*
G04 #@! TO.P,U2,15,P0.15*
G04 #@! TO.N,unconnected-(U2-P0.15-Pad15)_1*
X53505000Y-34030000D03*
G04 #@! TO.N,unconnected-(U2-P0.15-Pad15)*
X56815000Y-34030000D03*
G04 #@! TO.P,U2,16,P0.19*
G04 #@! TO.N,unconnected-(U2-P0.19-Pad16)_1*
X53505000Y-36570000D03*
G04 #@! TO.N,unconnected-(U2-P0.19-Pad16)*
X56815000Y-36570000D03*
G04 #@! TO.P,U2,17,P1.00*
G04 #@! TO.N,unconnected-(U2-P1.00-Pad17)*
X53505000Y-39110000D03*
G04 #@! TO.N,unconnected-(U2-P1.00-Pad17)_1*
X56815000Y-39110000D03*
G04 #@! TO.P,U2,18,P0.24*
G04 #@! TO.N,unconnected-(U2-P0.24-Pad18)*
X53505000Y-41650000D03*
G04 #@! TO.N,unconnected-(U2-P0.24-Pad18)_1*
X56815000Y-41650000D03*
G04 #@! TO.P,U2,19,P0.22*
G04 #@! TO.N,unconnected-(U2-P0.22-Pad19)_1*
X53505000Y-44190000D03*
G04 #@! TO.N,unconnected-(U2-P0.22-Pad19)*
X56815000Y-44190000D03*
G04 #@! TO.P,U2,20,P0.23*
G04 #@! TO.N,unconnected-(U2-P0.23-Pad20)*
X53505000Y-46730000D03*
G04 #@! TO.N,unconnected-(U2-P0.23-Pad20)_1*
X56815000Y-46730000D03*
G04 #@! TO.P,U2,21,P0.17*
G04 #@! TO.N,unconnected-(U2-P0.17-Pad21)_1*
X53505000Y-49270000D03*
G04 #@! TO.N,unconnected-(U2-P0.17-Pad21)*
X56815000Y-49270000D03*
G04 #@! TO.P,U2,22,P0.13*
G04 #@! TO.N,unconnected-(U2-P0.13-Pad22)_1*
X53505000Y-51810000D03*
G04 #@! TO.N,unconnected-(U2-P0.13-Pad22)*
X56815000Y-51810000D03*
G04 #@! TO.P,U2,23,P0.09*
G04 #@! TO.N,unconnected-(U2-P0.09-Pad23)_1*
X53505000Y-54350000D03*
G04 #@! TO.N,unconnected-(U2-P0.09-Pad23)*
X56815000Y-54350000D03*
G04 #@! TO.P,U2,24,P0.10*
G04 #@! TO.N,unconnected-(U2-P0.10-Pad24)_1*
X53505000Y-56890000D03*
G04 #@! TO.N,unconnected-(U2-P0.10-Pad24)*
X56815000Y-56890000D03*
G04 #@! TO.P,U2,25,GND*
G04 #@! TO.N,GND*
X53505000Y-59430000D03*
X56815000Y-59430000D03*
G04 #@! TO.P,U2,26,VDD_OUT*
G04 #@! TO.N,unconnected-(U2-VDD_OUT-Pad26)*
X53505000Y-61970000D03*
G04 #@! TO.N,unconnected-(U2-VDD_OUT-Pad26)_1*
X56815000Y-61970000D03*
G04 #@! TO.P,U2,27,VDD_OUT*
G04 #@! TO.N,+3.3V*
X53505000Y-64510000D03*
X56815000Y-64510000D03*
G04 #@! TO.P,U2,28,RESET*
G04 #@! TO.N,unconnected-(U2-RESET-Pad28)*
X53505000Y-67050000D03*
G04 #@! TO.N,unconnected-(U2-RESET-Pad28)_1*
X56815000Y-67050000D03*
G04 #@! TD*
D19*
G04 #@! TO.P,R3,1*
G04 #@! TO.N,Net-(U1-FB)*
X43675000Y-70750000D03*
G04 #@! TO.P,R3,2*
G04 #@! TO.N,GND*
X45325000Y-70750000D03*
G04 #@! TD*
D20*
G04 #@! TO.P,C1,1*
G04 #@! TO.N,/regulator_in*
X48000000Y-68225000D03*
G04 #@! TO.P,C1,2*
G04 #@! TO.N,GND*
X48000000Y-65275000D03*
G04 #@! TD*
D21*
G04 #@! TO.P,C6,1*
G04 #@! TO.N,+5V*
X43275000Y-62500000D03*
G04 #@! TO.P,C6,2*
G04 #@! TO.N,GND*
X46225000Y-62500000D03*
G04 #@! TD*
G04 #@! TO.P,C7,1*
G04 #@! TO.N,+5V*
X43275000Y-59250000D03*
G04 #@! TO.P,C7,2*
G04 #@! TO.N,GND*
X46225000Y-59250000D03*
G04 #@! TD*
D22*
G04 #@! TO.P,U3,1,V_{CCA}*
G04 #@! TO.N,+3.3V*
X49950000Y-29137500D03*
G04 #@! TO.P,U3,2,A1*
G04 #@! TO.N,Net-(U2-P0.20)*
X49300000Y-29137500D03*
G04 #@! TO.P,U3,3,A2*
G04 #@! TO.N,unconnected-(U3-A2-Pad3)*
X48650000Y-29137500D03*
G04 #@! TO.P,U3,4,A3*
G04 #@! TO.N,unconnected-(U3-A3-Pad4)*
X48000000Y-29137500D03*
G04 #@! TO.P,U3,5,A4*
G04 #@! TO.N,unconnected-(U3-A4-Pad5)*
X47350000Y-29137500D03*
G04 #@! TO.P,U3,6,NC*
G04 #@! TO.N,unconnected-(U3-NC-Pad6)*
X46700000Y-29137500D03*
G04 #@! TO.P,U3,7,GND*
G04 #@! TO.N,GND*
X46050000Y-29137500D03*
G04 #@! TO.P,U3,8,OE*
G04 #@! TO.N,+3.3V*
X46050000Y-34862500D03*
G04 #@! TO.P,U3,9,NC*
G04 #@! TO.N,unconnected-(U3-NC-Pad9)*
X46700000Y-34862500D03*
G04 #@! TO.P,U3,10,B4Y*
G04 #@! TO.N,unconnected-(U3-B4Y-Pad10)*
X47350000Y-34862500D03*
G04 #@! TO.P,U3,11,B3Y*
G04 #@! TO.N,unconnected-(U3-B3Y-Pad11)*
X48000000Y-34862500D03*
G04 #@! TO.P,U3,12,B2Y*
G04 #@! TO.N,unconnected-(U3-B2Y-Pad12)*
X48650000Y-34862500D03*
G04 #@! TO.P,U3,13,B1Y*
G04 #@! TO.N,/D_{IN}*
X49300000Y-34862500D03*
G04 #@! TO.P,U3,14,V_{CCB}*
G04 #@! TO.N,+5V*
X49950000Y-34862500D03*
G04 #@! TD*
D23*
G04 #@! TO.P,R1,1*
G04 #@! TO.N,Net-(D1-A)*
X54825000Y-70000000D03*
G04 #@! TO.P,R1,2*
G04 #@! TO.N,GND*
X53175000Y-70000000D03*
G04 #@! TD*
D24*
G04 #@! TO.P,C4,1*
G04 #@! TO.N,Net-(U1-BST)*
X40000000Y-69275000D03*
G04 #@! TO.P,C4,2*
G04 #@! TO.N,Net-(U1-SW)*
X40000000Y-67725000D03*
G04 #@! TD*
D11*
G04 #@! TO.P,H4,1,1*
G04 #@! TO.N,GND*
X76000000Y-74000000D03*
G04 #@! TD*
D25*
G04 #@! TO.P,Q1,1,G*
G04 #@! TO.N,Net-(D1-A)*
X56900000Y-71050000D03*
G04 #@! TO.P,Q1,2,S*
G04 #@! TO.N,/regulator_in*
X56900000Y-72950000D03*
G04 #@! TO.P,Q1,3,D*
G04 #@! TO.N,+24V*
X59100000Y-72000000D03*
G04 #@! TD*
D11*
G04 #@! TO.P,H3,1,1*
G04 #@! TO.N,GND*
X24000000Y-74000000D03*
G04 #@! TD*
D26*
G04 #@! TO.P,L1,1,1*
G04 #@! TO.N,Net-(U1-SW)*
X38000000Y-65600000D03*
G04 #@! TO.P,L1,2,2*
G04 #@! TO.N,+5V*
X38000000Y-61400000D03*
G04 #@! TD*
D24*
G04 #@! TO.P,C2,1*
G04 #@! TO.N,/regulator_in*
X45500000Y-68275000D03*
G04 #@! TO.P,C2,2*
G04 #@! TO.N,GND*
X45500000Y-66725000D03*
G04 #@! TD*
D27*
G04 #@! TO.P,J2,1_1,1*
G04 #@! TO.N,+24V*
X73000000Y-35000000D03*
D28*
G04 #@! TO.P,J2,1_2,1*
X63750000Y-35000000D03*
D27*
G04 #@! TO.P,J2,2_1,2*
G04 #@! TO.N,/D_{IN}*
X73000000Y-31000000D03*
D28*
G04 #@! TO.P,J2,2_2,2*
X63750000Y-31000000D03*
D27*
G04 #@! TO.P,J2,3_1,3*
G04 #@! TO.N,GND*
X73000000Y-27000000D03*
D28*
G04 #@! TO.P,J2,3_2,3*
X63750000Y-27000000D03*
G04 #@! TD*
D29*
G04 #@! TO.P,J1,1_1,1*
G04 #@! TO.N,+24V*
X64000000Y-72000000D03*
D30*
G04 #@! TO.P,J1,1_2,1*
X64000000Y-62750000D03*
D29*
G04 #@! TO.P,J1,2_1,2*
G04 #@! TO.N,GND*
X68000000Y-72000000D03*
D30*
G04 #@! TO.P,J1,2_2,2*
X68000000Y-62750000D03*
G04 #@! TD*
D31*
G04 #@! TO.P,U1,1,RT*
G04 #@! TO.N,GND*
X43740000Y-68750000D03*
G04 #@! TO.P,U1,2,EN*
G04 #@! TO.N,unconnected-(U1-EN-Pad2)*
X43740000Y-68250000D03*
G04 #@! TO.P,U1,3,VIN*
G04 #@! TO.N,/regulator_in*
X43740000Y-67750000D03*
G04 #@! TO.P,U1,4,GND*
G04 #@! TO.N,GND*
X43740000Y-67250000D03*
G04 #@! TO.P,U1,5,SW*
G04 #@! TO.N,Net-(U1-SW)*
X42260000Y-67250000D03*
G04 #@! TO.P,U1,6,BST*
G04 #@! TO.N,Net-(U1-BST)*
X42260000Y-67750000D03*
G04 #@! TO.P,U1,7,SS*
G04 #@! TO.N,Net-(U1-SS)*
X42260000Y-68250000D03*
G04 #@! TO.P,U1,8,FB*
G04 #@! TO.N,Net-(U1-FB)*
X42260000Y-68750000D03*
G04 #@! TD*
D32*
G04 #@! TO.P,D1,1,K*
G04 #@! TO.N,/regulator_in*
X55000000Y-72700000D03*
G04 #@! TO.P,D1,2,A*
G04 #@! TO.N,Net-(D1-A)*
X55000000Y-71300000D03*
G04 #@! TD*
D33*
G04 #@! TO.N,GND*
X44500000Y-66500000D03*
X43000000Y-66500000D03*
X70000000Y-46000000D03*
X70000000Y-44000000D03*
X70000000Y-45000000D03*
X57250000Y-58250000D03*
X53000000Y-58250000D03*
X77000000Y-27750000D03*
X77000000Y-26250000D03*
X77000000Y-27000000D03*
X61000000Y-27750000D03*
X61000000Y-26250000D03*
X61000000Y-27000000D03*
X22500000Y-38000000D03*
X22500000Y-30000000D03*
X45000000Y-29140000D03*
X76000000Y-46000000D03*
X76000000Y-44000000D03*
X76000000Y-45000000D03*
X67250000Y-60000000D03*
X68000000Y-60000000D03*
X68750000Y-76000000D03*
X68000000Y-76000000D03*
X67250000Y-76000000D03*
X53200000Y-69000000D03*
X43750000Y-69750000D03*
X45500000Y-65750000D03*
X39000000Y-72250000D03*
X46250000Y-70750000D03*
X43750000Y-66500000D03*
X49000000Y-64250000D03*
X48250000Y-64250000D03*
X47500000Y-64250000D03*
X47500000Y-63250000D03*
X47500000Y-61750000D03*
X47500000Y-62500000D03*
X47500000Y-60000000D03*
X47500000Y-58500000D03*
X47500000Y-59250000D03*
G04 #@! TO.N,+5V*
X43500000Y-72500000D03*
X43275000Y-57000000D03*
X50000000Y-36500000D03*
G04 #@! TO.N,GND*
X68750000Y-60000000D03*
G04 #@! TD*
D34*
G04 #@! TO.N,+3.3V*
X53505000Y-64510000D02*
X56815000Y-64510000D01*
D35*
G04 #@! TO.N,/D_{IN}*
X63750000Y-31000000D02*
X62000000Y-32750000D01*
X62000000Y-32750000D02*
X50684418Y-32750000D01*
X50684418Y-32750000D02*
X49300000Y-34134418D01*
X49300000Y-34134418D02*
X49300000Y-34862500D01*
G04 #@! TO.N,Net-(U1-SS)*
X41000000Y-69000000D02*
X41500000Y-68500000D01*
X40000000Y-70725000D02*
X41000000Y-69725000D01*
X41733520Y-68250000D02*
X42260000Y-68250000D01*
X41500000Y-68483520D02*
X41733520Y-68250000D01*
X41500000Y-68500000D02*
X41500000Y-68483520D01*
X41000000Y-69725000D02*
X41000000Y-69000000D01*
G04 #@! TO.N,Net-(U1-BST)*
X41525000Y-67750000D02*
X40000000Y-69275000D01*
X42260000Y-67750000D02*
X41525000Y-67750000D01*
D34*
G04 #@! TO.N,+5V*
X37940000Y-61460000D02*
X38000000Y-61400000D01*
D36*
X42000000Y-72325000D02*
X42175000Y-72500000D01*
D34*
X26000000Y-61460000D02*
X37940000Y-61460000D01*
D35*
X49950000Y-36450000D02*
X50000000Y-36500000D01*
D36*
X42175000Y-72500000D02*
X43500000Y-72500000D01*
D35*
X49950000Y-34862500D02*
X49950000Y-36450000D01*
G04 #@! TO.N,/D_{IN}*
X63750000Y-31000000D02*
X73000000Y-31000000D01*
D34*
G04 #@! TO.N,+3.3V*
X26000000Y-58920000D02*
X29231000Y-55689000D01*
D36*
X46050000Y-34862500D02*
X46050000Y-34200000D01*
D34*
X52888000Y-64510000D02*
X53505000Y-64510000D01*
X51549000Y-58049000D02*
X51549000Y-63171000D01*
X49189000Y-55689000D02*
X51549000Y-58049000D01*
X29231000Y-55689000D02*
X49189000Y-55689000D01*
X46050000Y-52550000D02*
X49189000Y-55689000D01*
D36*
X46050000Y-34200000D02*
X49950000Y-30300000D01*
D34*
X46050000Y-36500000D02*
X46050000Y-52550000D01*
D36*
X46050000Y-37300000D02*
X46050000Y-36500000D01*
X49950000Y-30300000D02*
X49950000Y-29137500D01*
D34*
X51549000Y-63171000D02*
X52888000Y-64510000D01*
D35*
X46050000Y-34862500D02*
X46050000Y-37300000D01*
D36*
G04 #@! TO.N,Net-(U1-FB)*
X42000000Y-70675000D02*
X43600000Y-70675000D01*
X42260000Y-68750000D02*
X42000000Y-69010000D01*
X43600000Y-70675000D02*
X43675000Y-70750000D01*
X42000000Y-69010000D02*
X42000000Y-70675000D01*
G04 #@! TO.N,Net-(U2-P0.04)*
X28250000Y-30000000D02*
X28250000Y-38000000D01*
X28250000Y-38000000D02*
X29215000Y-38000000D01*
X33185000Y-34030000D02*
X36495000Y-34030000D01*
X29215000Y-38000000D02*
X33185000Y-34030000D01*
G04 #@! TO.N,Net-(U2-P0.20)*
X49681130Y-28099000D02*
X52654000Y-28099000D01*
X49300000Y-29137500D02*
X49300000Y-28480130D01*
X52654000Y-28099000D02*
X53505000Y-28950000D01*
X53505000Y-28950000D02*
X56815000Y-28950000D01*
X49300000Y-28480130D02*
X49681130Y-28099000D01*
G04 #@! TD*
G04 #@! TA.AperFunction,Conductor*
G04 #@! TO.N,Net-(U1-SW)*
G36*
X40256433Y-64500847D02*
G01*
X40271739Y-64502862D01*
X40366489Y-64515336D01*
X40391447Y-64522023D01*
X40487960Y-64562000D01*
X40510336Y-64574918D01*
X40593216Y-64638515D01*
X40611484Y-64656783D01*
X40675079Y-64739660D01*
X40688001Y-64762042D01*
X40727975Y-64858548D01*
X40734664Y-64883512D01*
X40749153Y-64993566D01*
X40750000Y-65006488D01*
X40750000Y-65750000D01*
X40966140Y-65896040D01*
X40966154Y-65896051D01*
X41353595Y-66157835D01*
X42386165Y-66855517D01*
X42398715Y-66865574D01*
X42491912Y-66953618D01*
X42511355Y-66979139D01*
X42562276Y-67075000D01*
X42567655Y-67085125D01*
X42577917Y-67115526D01*
X42597088Y-67232269D01*
X42596494Y-67267625D01*
X42586113Y-67319814D01*
X42556216Y-67373198D01*
X42500651Y-67398814D01*
X42489015Y-67399500D01*
X42306144Y-67399500D01*
X41478856Y-67399500D01*
X41389712Y-67423386D01*
X41309788Y-67469530D01*
X41308312Y-67471005D01*
X41306979Y-67471684D01*
X41304638Y-67473481D01*
X41304305Y-67473047D01*
X41267845Y-67491623D01*
X41268194Y-67492464D01*
X41257512Y-67496888D01*
X41253798Y-67498781D01*
X41252742Y-67498864D01*
X41249999Y-67500000D01*
X41103552Y-67646446D01*
X41103553Y-67646447D01*
X40844004Y-67905996D01*
X40789487Y-67933773D01*
X40729055Y-67924202D01*
X40685790Y-67880937D01*
X40675000Y-67835992D01*
X40675000Y-67825001D01*
X40674999Y-67825000D01*
X39325002Y-67825000D01*
X39325001Y-67825001D01*
X39325001Y-67983455D01*
X39330367Y-68017339D01*
X39320795Y-68077771D01*
X39277529Y-68121035D01*
X39217097Y-68130605D01*
X39194892Y-68124367D01*
X37810205Y-67554202D01*
X37597326Y-67466546D01*
X39325000Y-67466546D01*
X39325000Y-67624999D01*
X39325001Y-67625000D01*
X39899999Y-67625000D01*
X39900000Y-67624999D01*
X39900000Y-67075001D01*
X40100000Y-67075001D01*
X40100000Y-67624999D01*
X40100001Y-67625000D01*
X40674998Y-67625000D01*
X40674999Y-67624999D01*
X40674999Y-67466546D01*
X40659239Y-67367034D01*
X40659237Y-67367030D01*
X40598118Y-67247078D01*
X40502921Y-67151881D01*
X40382969Y-67090762D01*
X40382970Y-67090762D01*
X40283454Y-67075000D01*
X40100001Y-67075000D01*
X40100000Y-67075001D01*
X39900000Y-67075001D01*
X39899999Y-67075000D01*
X39716547Y-67075000D01*
X39716546Y-67075001D01*
X39617034Y-67090760D01*
X39617030Y-67090762D01*
X39497078Y-67151881D01*
X39401881Y-67247078D01*
X39340762Y-67367030D01*
X39325000Y-67466546D01*
X37597326Y-67466546D01*
X37303772Y-67345671D01*
X35566386Y-66630275D01*
X35553340Y-66623740D01*
X35446043Y-66559696D01*
X35423518Y-66541270D01*
X35344449Y-66454260D01*
X35328257Y-66430080D01*
X35277907Y-66323841D01*
X35269443Y-66295994D01*
X35251075Y-66172387D01*
X35250000Y-66157835D01*
X35250000Y-65006488D01*
X35250847Y-64993567D01*
X35252511Y-64980923D01*
X35265336Y-64883506D01*
X35272022Y-64858554D01*
X35312001Y-64762035D01*
X35324916Y-64739666D01*
X35388518Y-64656779D01*
X35406779Y-64638518D01*
X35489666Y-64574916D01*
X35512035Y-64562001D01*
X35608554Y-64522022D01*
X35633508Y-64515336D01*
X35730923Y-64502511D01*
X35743567Y-64500847D01*
X35756488Y-64500000D01*
X40243512Y-64500000D01*
X40256433Y-64500847D01*
G37*
G04 #@! TD.AperFunction*
G04 #@! TD*
G04 #@! TA.AperFunction,Conductor*
G04 #@! TO.N,Net-(D1-A)*
G36*
X57506433Y-69000847D02*
G01*
X57521739Y-69002862D01*
X57616489Y-69015336D01*
X57641447Y-69022023D01*
X57737960Y-69062000D01*
X57760336Y-69074918D01*
X57843216Y-69138515D01*
X57861484Y-69156783D01*
X57925079Y-69239660D01*
X57938001Y-69262042D01*
X57977975Y-69358548D01*
X57984664Y-69383512D01*
X57999153Y-69493566D01*
X58000000Y-69506488D01*
X58000000Y-71493511D01*
X57999153Y-71506432D01*
X57999153Y-71506433D01*
X57984664Y-71616487D01*
X57977975Y-71641451D01*
X57938001Y-71737957D01*
X57925079Y-71760339D01*
X57880061Y-71819007D01*
X57829636Y-71853662D01*
X57768472Y-71852060D01*
X57763633Y-71850203D01*
X57720091Y-71832167D01*
X57720071Y-71832159D01*
X57694641Y-71823526D01*
X57694634Y-71823524D01*
X57677772Y-71819007D01*
X57669673Y-71816837D01*
X57669667Y-71816835D01*
X57669666Y-71816835D01*
X57643311Y-71811593D01*
X57643301Y-71811592D01*
X57575345Y-71802646D01*
X57533256Y-71797105D01*
X57528076Y-71796594D01*
X57519873Y-71795786D01*
X57506953Y-71794939D01*
X57493512Y-71794500D01*
X57374800Y-71794500D01*
X57316609Y-71775593D01*
X57280645Y-71726093D01*
X57280645Y-71664907D01*
X57316609Y-71615407D01*
X57329854Y-71607291D01*
X57388043Y-71577641D01*
X57477641Y-71488043D01*
X57535163Y-71375151D01*
X57535164Y-71375147D01*
X57550000Y-71281484D01*
X57550000Y-71150001D01*
X57549999Y-71150000D01*
X56250002Y-71150000D01*
X56250001Y-71150001D01*
X56250001Y-71281485D01*
X56264833Y-71375141D01*
X56264836Y-71375151D01*
X56322358Y-71488043D01*
X56411956Y-71577641D01*
X56470146Y-71607291D01*
X56513410Y-71650556D01*
X56522981Y-71710988D01*
X56495203Y-71765504D01*
X56440686Y-71793281D01*
X56425200Y-71794500D01*
X55504127Y-71794500D01*
X55445936Y-71775593D01*
X55409972Y-71726093D01*
X55409972Y-71664907D01*
X55434123Y-71625496D01*
X55445333Y-71614285D01*
X55493767Y-71510418D01*
X55493768Y-71510417D01*
X55500000Y-71463083D01*
X55500000Y-71400001D01*
X55499999Y-71400000D01*
X54500002Y-71400000D01*
X54500001Y-71400001D01*
X54500001Y-71463091D01*
X54506230Y-71510413D01*
X54506230Y-71510415D01*
X54554666Y-71614285D01*
X54565877Y-71625496D01*
X54593654Y-71680013D01*
X54584083Y-71740445D01*
X54540818Y-71783710D01*
X54495873Y-71794500D01*
X54151569Y-71794500D01*
X54125993Y-71786190D01*
X54099842Y-71779912D01*
X54097219Y-71776841D01*
X54093378Y-71775593D01*
X54060105Y-71733386D01*
X54057084Y-71726093D01*
X54022023Y-71641447D01*
X54015336Y-71616489D01*
X54001372Y-71510418D01*
X54000847Y-71506432D01*
X54000000Y-71493511D01*
X54000000Y-70100001D01*
X54225001Y-70100001D01*
X54225001Y-70306485D01*
X54239833Y-70400141D01*
X54239836Y-70400151D01*
X54297358Y-70513043D01*
X54386956Y-70602641D01*
X54499848Y-70660163D01*
X54499852Y-70660164D01*
X54593515Y-70674999D01*
X54681675Y-70674999D01*
X54739866Y-70693906D01*
X54775830Y-70743405D01*
X54775831Y-70804591D01*
X54739868Y-70854091D01*
X54723516Y-70863723D01*
X54635714Y-70904666D01*
X54554666Y-70985714D01*
X54506232Y-71089581D01*
X54506231Y-71089582D01*
X54500000Y-71136916D01*
X54500000Y-71199999D01*
X54500001Y-71200000D01*
X55499998Y-71200000D01*
X55499999Y-71199999D01*
X55499999Y-71136919D01*
X55499998Y-71136908D01*
X55493769Y-71089586D01*
X55493769Y-71089584D01*
X55445333Y-70985714D01*
X55364286Y-70904667D01*
X55363612Y-70904353D01*
X55363609Y-70904351D01*
X55260420Y-70856232D01*
X55260417Y-70856231D01*
X55213084Y-70850000D01*
X55189940Y-70850000D01*
X55131749Y-70831093D01*
X55122611Y-70818515D01*
X56250000Y-70818515D01*
X56250000Y-70949999D01*
X56250001Y-70950000D01*
X56799999Y-70950000D01*
X56800000Y-70949999D01*
X56800000Y-70450001D01*
X57000000Y-70450001D01*
X57000000Y-70949999D01*
X57000001Y-70950000D01*
X57549998Y-70950000D01*
X57549999Y-70949999D01*
X57549999Y-70818516D01*
X57549998Y-70818514D01*
X57535166Y-70724858D01*
X57535163Y-70724848D01*
X57477641Y-70611956D01*
X57388043Y-70522358D01*
X57275151Y-70464836D01*
X57275147Y-70464835D01*
X57181484Y-70450000D01*
X57000001Y-70450000D01*
X57000000Y-70450001D01*
X56800000Y-70450001D01*
X56799999Y-70450000D01*
X56618517Y-70450000D01*
X56618514Y-70450001D01*
X56524858Y-70464833D01*
X56524848Y-70464836D01*
X56411956Y-70522358D01*
X56322358Y-70611956D01*
X56264836Y-70724848D01*
X56264835Y-70724852D01*
X56250000Y-70818515D01*
X55122611Y-70818515D01*
X55095785Y-70781593D01*
X55095785Y-70720407D01*
X55131749Y-70670907D01*
X55144995Y-70662790D01*
X55263044Y-70602640D01*
X55352641Y-70513043D01*
X55410163Y-70400151D01*
X55410164Y-70400147D01*
X55425000Y-70306484D01*
X55425000Y-70100001D01*
X55424999Y-70100000D01*
X54225002Y-70100000D01*
X54225001Y-70100001D01*
X54000000Y-70100001D01*
X54000000Y-69693515D01*
X54225000Y-69693515D01*
X54225000Y-69899999D01*
X54225001Y-69900000D01*
X54724999Y-69900000D01*
X54725000Y-69899999D01*
X54725000Y-69325001D01*
X54925000Y-69325001D01*
X54925000Y-69899999D01*
X54925001Y-69900000D01*
X55424998Y-69900000D01*
X55424999Y-69899999D01*
X55424999Y-69693516D01*
X55424998Y-69693514D01*
X55410166Y-69599858D01*
X55410163Y-69599848D01*
X55352641Y-69486956D01*
X55263043Y-69397358D01*
X55150151Y-69339836D01*
X55150147Y-69339835D01*
X55056484Y-69325000D01*
X54925001Y-69325000D01*
X54925000Y-69325001D01*
X54725000Y-69325001D01*
X54724999Y-69325000D01*
X54593517Y-69325000D01*
X54593514Y-69325001D01*
X54499858Y-69339833D01*
X54499848Y-69339836D01*
X54386956Y-69397358D01*
X54297358Y-69486956D01*
X54239836Y-69599848D01*
X54239835Y-69599852D01*
X54225000Y-69693515D01*
X54000000Y-69693515D01*
X54000000Y-69506488D01*
X54000847Y-69493567D01*
X54002511Y-69480923D01*
X54015336Y-69383508D01*
X54022022Y-69358554D01*
X54062001Y-69262035D01*
X54074916Y-69239666D01*
X54138518Y-69156779D01*
X54156779Y-69138518D01*
X54239666Y-69074916D01*
X54262035Y-69062001D01*
X54358554Y-69022022D01*
X54383508Y-69015336D01*
X54480923Y-69002511D01*
X54493567Y-69000847D01*
X54506488Y-69000000D01*
X57493512Y-69000000D01*
X57506433Y-69000847D01*
G37*
G04 #@! TD.AperFunction*
G04 #@! TD*
G04 #@! TA.AperFunction,Conductor*
G04 #@! TO.N,+5V*
G36*
X44709191Y-56408407D02*
G01*
X44745155Y-56457907D01*
X44750000Y-56488500D01*
X44750000Y-63724280D01*
X44748675Y-63740424D01*
X44726077Y-63877149D01*
X44715688Y-63907719D01*
X44654184Y-64022639D01*
X44634511Y-64048241D01*
X44533286Y-64142883D01*
X44520588Y-64152940D01*
X44000000Y-64499999D01*
X44000000Y-65243511D01*
X43999153Y-65256433D01*
X43984664Y-65366487D01*
X43977975Y-65391451D01*
X43938001Y-65487957D01*
X43925079Y-65510339D01*
X43861487Y-65593213D01*
X43843213Y-65611487D01*
X43760339Y-65675079D01*
X43737957Y-65688001D01*
X43641451Y-65727975D01*
X43616487Y-65734664D01*
X43519559Y-65747424D01*
X43507194Y-65749053D01*
X43506434Y-65749153D01*
X43493512Y-65750000D01*
X42815875Y-65750000D01*
X42802219Y-65749053D01*
X42729040Y-65738860D01*
X42686040Y-65732871D01*
X42659768Y-65725407D01*
X42558767Y-65680886D01*
X42535533Y-65666526D01*
X42450548Y-65596103D01*
X42432122Y-65575941D01*
X42365687Y-65479259D01*
X42358735Y-65467471D01*
X41750000Y-64250000D01*
X41138197Y-63026393D01*
X41138195Y-63026390D01*
X41136820Y-63023639D01*
X41136816Y-63023632D01*
X41000000Y-62750000D01*
X40690983Y-62750000D01*
X31756488Y-62750000D01*
X31743566Y-62749153D01*
X31633512Y-62734664D01*
X31608548Y-62727975D01*
X31512042Y-62688001D01*
X31489660Y-62675079D01*
X31406783Y-62611484D01*
X31388515Y-62593216D01*
X31324918Y-62510336D01*
X31312000Y-62487960D01*
X31272023Y-62391447D01*
X31265336Y-62366489D01*
X31250847Y-62256432D01*
X31250000Y-62243511D01*
X31250000Y-56488500D01*
X31268907Y-56430309D01*
X31318407Y-56394345D01*
X31349000Y-56389500D01*
X44651000Y-56389500D01*
X44709191Y-56408407D01*
G37*
G04 #@! TD.AperFunction*
G04 #@! TD*
G04 #@! TA.AperFunction,Conductor*
G04 #@! TO.N,+24V*
G36*
X77506433Y-33000847D02*
G01*
X77509259Y-33001219D01*
X77616489Y-33015336D01*
X77641447Y-33022023D01*
X77737960Y-33062000D01*
X77760336Y-33074918D01*
X77843216Y-33138515D01*
X77861484Y-33156783D01*
X77925079Y-33239660D01*
X77938001Y-33262042D01*
X77977975Y-33358548D01*
X77984664Y-33383512D01*
X77999153Y-33493566D01*
X78000000Y-33506488D01*
X78000000Y-41493511D01*
X77999153Y-41506433D01*
X77984664Y-41616487D01*
X77977975Y-41641451D01*
X77938001Y-41737957D01*
X77925079Y-41760339D01*
X77861487Y-41843213D01*
X77843213Y-41861487D01*
X77760339Y-41925079D01*
X77737957Y-41938001D01*
X77641451Y-41977975D01*
X77616487Y-41984664D01*
X77506434Y-41999153D01*
X77493512Y-42000000D01*
X69000000Y-42000000D01*
X68307885Y-46152693D01*
X66000000Y-60000001D01*
X66000000Y-75493511D01*
X65999153Y-75506432D01*
X65999153Y-75506433D01*
X65984664Y-75616487D01*
X65977975Y-75641451D01*
X65938001Y-75737957D01*
X65925079Y-75760339D01*
X65861487Y-75843213D01*
X65843213Y-75861487D01*
X65760339Y-75925079D01*
X65737957Y-75938001D01*
X65641451Y-75977975D01*
X65616487Y-75984664D01*
X65506434Y-75999153D01*
X65493512Y-76000000D01*
X58506488Y-76000000D01*
X58493566Y-75999153D01*
X58383512Y-75984664D01*
X58358548Y-75977975D01*
X58262042Y-75938001D01*
X58239660Y-75925079D01*
X58156783Y-75861484D01*
X58138515Y-75843216D01*
X58074918Y-75760336D01*
X58062000Y-75737960D01*
X58022023Y-75641447D01*
X58015336Y-75616489D01*
X58000847Y-75506432D01*
X58000000Y-75493511D01*
X58000000Y-74424517D01*
X58018907Y-74366326D01*
X58043997Y-74342202D01*
X58068070Y-74326118D01*
X58150944Y-74262526D01*
X58200655Y-74218929D01*
X58218929Y-74200655D01*
X58262526Y-74150944D01*
X58326118Y-74068070D01*
X58362857Y-74013085D01*
X58375779Y-73990703D01*
X58405022Y-73931403D01*
X58444996Y-73834897D01*
X58466251Y-73772283D01*
X58472940Y-73747319D01*
X58485839Y-73682469D01*
X58500328Y-73572415D01*
X58503571Y-73539496D01*
X58504418Y-73526574D01*
X58505500Y-73493511D01*
X58505500Y-72960393D01*
X58524407Y-72902202D01*
X58573907Y-72866238D01*
X58633953Y-72865876D01*
X58722889Y-72893589D01*
X58722895Y-72893591D01*
X58793424Y-72899999D01*
X58849999Y-72899998D01*
X58850000Y-72899998D01*
X58850000Y-72250001D01*
X59350000Y-72250001D01*
X59350000Y-72899998D01*
X59350001Y-72899999D01*
X59406566Y-72899999D01*
X59406582Y-72899998D01*
X59477103Y-72893591D01*
X59477109Y-72893589D01*
X59639392Y-72843020D01*
X59639400Y-72843017D01*
X59784872Y-72755075D01*
X59905075Y-72634872D01*
X59993017Y-72489400D01*
X59993020Y-72489392D01*
X60043589Y-72327110D01*
X60043591Y-72327104D01*
X60049999Y-72256581D01*
X60050000Y-72256568D01*
X60050000Y-72250001D01*
X62500001Y-72250001D01*
X62500001Y-74799986D01*
X62510492Y-74902687D01*
X62510495Y-74902699D01*
X62565643Y-75069124D01*
X62657680Y-75218340D01*
X62781659Y-75342319D01*
X62930875Y-75434356D01*
X63097306Y-75489506D01*
X63200012Y-75499999D01*
X63749998Y-75499999D01*
X63750000Y-75499998D01*
X63750000Y-72250001D01*
X64250000Y-72250001D01*
X64250000Y-75499998D01*
X64250001Y-75499999D01*
X64799986Y-75499999D01*
X64902687Y-75489507D01*
X64902699Y-75489504D01*
X65069124Y-75434356D01*
X65218340Y-75342319D01*
X65342319Y-75218340D01*
X65434356Y-75069124D01*
X65489506Y-74902693D01*
X65500000Y-74799987D01*
X65500000Y-72250001D01*
X65499999Y-72250000D01*
X64250001Y-72250000D01*
X64250000Y-72250001D01*
X63750000Y-72250001D01*
X63749999Y-72250000D01*
X62500002Y-72250000D01*
X62500001Y-72250001D01*
X60050000Y-72250001D01*
X60049999Y-72250000D01*
X59350001Y-72250000D01*
X59350000Y-72250001D01*
X58850000Y-72250001D01*
X58850000Y-71100001D01*
X59350000Y-71100001D01*
X59350000Y-71749999D01*
X59350001Y-71750000D01*
X60049998Y-71750000D01*
X60049999Y-71749999D01*
X60049999Y-71743433D01*
X60049998Y-71743417D01*
X60043591Y-71672896D01*
X60043589Y-71672890D01*
X59993020Y-71510607D01*
X59993017Y-71510599D01*
X59905075Y-71365127D01*
X59784872Y-71244924D01*
X59639400Y-71156982D01*
X59639392Y-71156979D01*
X59477110Y-71106410D01*
X59477104Y-71106408D01*
X59406581Y-71100000D01*
X59350001Y-71100000D01*
X59350000Y-71100001D01*
X58850000Y-71100001D01*
X58850000Y-71099999D01*
X58793435Y-71100000D01*
X58793417Y-71100001D01*
X58722896Y-71106408D01*
X58722890Y-71106410D01*
X58633953Y-71134124D01*
X58572772Y-71133385D01*
X58523710Y-71096826D01*
X58505500Y-71039607D01*
X58505500Y-69506487D01*
X58504418Y-69473425D01*
X58503571Y-69460505D01*
X58500328Y-69427588D01*
X58500328Y-69427584D01*
X58485839Y-69317530D01*
X58476142Y-69268780D01*
X58472940Y-69252679D01*
X58472939Y-69252676D01*
X58466251Y-69227716D01*
X58456847Y-69200012D01*
X62500000Y-69200012D01*
X62500000Y-71749999D01*
X62500001Y-71750000D01*
X63749999Y-71750000D01*
X63750000Y-71749999D01*
X63750000Y-68500001D01*
X64250000Y-68500001D01*
X64250000Y-71749999D01*
X64250001Y-71750000D01*
X65499998Y-71750000D01*
X65499999Y-71749999D01*
X65499999Y-69200013D01*
X65489507Y-69097312D01*
X65489504Y-69097300D01*
X65434356Y-68930875D01*
X65342319Y-68781659D01*
X65218340Y-68657680D01*
X65069124Y-68565643D01*
X64902693Y-68510493D01*
X64799987Y-68500000D01*
X64250001Y-68500000D01*
X64250000Y-68500001D01*
X63750000Y-68500001D01*
X63749999Y-68500000D01*
X63200013Y-68500000D01*
X63097312Y-68510492D01*
X63097300Y-68510495D01*
X62930875Y-68565643D01*
X62781659Y-68657680D01*
X62657680Y-68781659D01*
X62565643Y-68930875D01*
X62510493Y-69097306D01*
X62500000Y-69200012D01*
X58456847Y-69200012D01*
X58444996Y-69165102D01*
X58432463Y-69134845D01*
X58431717Y-69132790D01*
X58430744Y-69104313D01*
X58428507Y-69075890D01*
X58429706Y-69073932D01*
X58429628Y-69071641D01*
X58445583Y-69048024D01*
X58460476Y-69023721D01*
X58462594Y-69022843D01*
X58463880Y-69020941D01*
X58490671Y-69011212D01*
X58517003Y-69000305D01*
X58521160Y-69000141D01*
X58521391Y-69000058D01*
X58521619Y-69000123D01*
X58524772Y-69000000D01*
X59999999Y-69000000D01*
X60000000Y-69000000D01*
X60000000Y-63000001D01*
X62500001Y-63000001D01*
X62500001Y-64299986D01*
X62510492Y-64402687D01*
X62510495Y-64402699D01*
X62565643Y-64569124D01*
X62657680Y-64718340D01*
X62781659Y-64842319D01*
X62930875Y-64934356D01*
X63097306Y-64989506D01*
X63200012Y-64999999D01*
X63749998Y-64999999D01*
X63750000Y-64999998D01*
X63750000Y-63000001D01*
X64250000Y-63000001D01*
X64250000Y-64999998D01*
X64250001Y-64999999D01*
X64799986Y-64999999D01*
X64902687Y-64989507D01*
X64902699Y-64989504D01*
X65069124Y-64934356D01*
X65218340Y-64842319D01*
X65342319Y-64718340D01*
X65434356Y-64569124D01*
X65489506Y-64402693D01*
X65500000Y-64299987D01*
X65500000Y-63000001D01*
X65499999Y-63000000D01*
X64250001Y-63000000D01*
X64250000Y-63000001D01*
X63750000Y-63000001D01*
X63749999Y-63000000D01*
X62500002Y-63000000D01*
X62500001Y-63000001D01*
X60000000Y-63000001D01*
X60000000Y-61200012D01*
X62500000Y-61200012D01*
X62500000Y-62499999D01*
X62500001Y-62500000D01*
X63749999Y-62500000D01*
X63750000Y-62499999D01*
X63750000Y-60500001D01*
X64250000Y-60500001D01*
X64250000Y-62499999D01*
X64250001Y-62500000D01*
X65499998Y-62500000D01*
X65499999Y-62499999D01*
X65499999Y-61200013D01*
X65489507Y-61097312D01*
X65489504Y-61097300D01*
X65434356Y-60930875D01*
X65342319Y-60781659D01*
X65218340Y-60657680D01*
X65069124Y-60565643D01*
X64902693Y-60510493D01*
X64799987Y-60500000D01*
X64250001Y-60500000D01*
X64250000Y-60500001D01*
X63750000Y-60500001D01*
X63749999Y-60500000D01*
X63200013Y-60500000D01*
X63097312Y-60510492D01*
X63097300Y-60510495D01*
X62930875Y-60565643D01*
X62781659Y-60657680D01*
X62657680Y-60781659D01*
X62565643Y-60930875D01*
X62510493Y-61097306D01*
X62500000Y-61200012D01*
X60000000Y-61200012D01*
X60000000Y-45250001D01*
X62500001Y-45250001D01*
X62500001Y-46049986D01*
X62510492Y-46152687D01*
X62510495Y-46152699D01*
X62565643Y-46319124D01*
X62657680Y-46468340D01*
X62781659Y-46592319D01*
X62930875Y-46684356D01*
X63097306Y-46739506D01*
X63200012Y-46749999D01*
X64749998Y-46749999D01*
X64750000Y-46749998D01*
X64750000Y-45250001D01*
X65250000Y-45250001D01*
X65250000Y-46749998D01*
X65250001Y-46749999D01*
X66799986Y-46749999D01*
X66902687Y-46739507D01*
X66902699Y-46739504D01*
X67069124Y-46684356D01*
X67218340Y-46592319D01*
X67342319Y-46468340D01*
X67434356Y-46319124D01*
X67489506Y-46152693D01*
X67500000Y-46049987D01*
X67500000Y-45250001D01*
X67499999Y-45250000D01*
X65250001Y-45250000D01*
X65250000Y-45250001D01*
X64750000Y-45250001D01*
X64749999Y-45250000D01*
X62500002Y-45250000D01*
X62500001Y-45250001D01*
X60000000Y-45250001D01*
X60000000Y-43950012D01*
X62500000Y-43950012D01*
X62500000Y-44749999D01*
X62500001Y-44750000D01*
X64749999Y-44750000D01*
X64750000Y-44749999D01*
X64750000Y-43250001D01*
X65250000Y-43250001D01*
X65250000Y-44749999D01*
X65250001Y-44750000D01*
X67499998Y-44750000D01*
X67499999Y-44749999D01*
X67499999Y-43950013D01*
X67489507Y-43847312D01*
X67489504Y-43847300D01*
X67434356Y-43680875D01*
X67342319Y-43531659D01*
X67218340Y-43407680D01*
X67069124Y-43315643D01*
X66902693Y-43260493D01*
X66799987Y-43250000D01*
X65250001Y-43250000D01*
X65250000Y-43250001D01*
X64750000Y-43250001D01*
X64749999Y-43250000D01*
X63200013Y-43250000D01*
X63097312Y-43260492D01*
X63097300Y-43260495D01*
X62930875Y-43315643D01*
X62781659Y-43407680D01*
X62657680Y-43531659D01*
X62565643Y-43680875D01*
X62510493Y-43847306D01*
X62500000Y-43950012D01*
X60000000Y-43950012D01*
X60000000Y-35250001D01*
X61500001Y-35250001D01*
X61500001Y-35799986D01*
X61510492Y-35902687D01*
X61510495Y-35902699D01*
X61565643Y-36069124D01*
X61657680Y-36218340D01*
X61781659Y-36342319D01*
X61930875Y-36434356D01*
X62097306Y-36489506D01*
X62200012Y-36499999D01*
X63499998Y-36499999D01*
X63500000Y-36499998D01*
X63500000Y-35250001D01*
X64000000Y-35250001D01*
X64000000Y-36499998D01*
X64000001Y-36499999D01*
X65299986Y-36499999D01*
X65402687Y-36489507D01*
X65402699Y-36489504D01*
X65569124Y-36434356D01*
X65718340Y-36342319D01*
X65842319Y-36218340D01*
X65934356Y-36069124D01*
X65989506Y-35902693D01*
X66000000Y-35799987D01*
X66000000Y-35250001D01*
X69500001Y-35250001D01*
X69500001Y-35799986D01*
X69510492Y-35902687D01*
X69510495Y-35902699D01*
X69565643Y-36069124D01*
X69657680Y-36218340D01*
X69781659Y-36342319D01*
X69930875Y-36434356D01*
X70097306Y-36489506D01*
X70200012Y-36499999D01*
X72749998Y-36499999D01*
X72750000Y-36499998D01*
X72750000Y-35250001D01*
X73250000Y-35250001D01*
X73250000Y-36499998D01*
X73250001Y-36499999D01*
X75799986Y-36499999D01*
X75902687Y-36489507D01*
X75902699Y-36489504D01*
X76069124Y-36434356D01*
X76218340Y-36342319D01*
X76342319Y-36218340D01*
X76434356Y-36069124D01*
X76489506Y-35902693D01*
X76500000Y-35799987D01*
X76500000Y-35250001D01*
X76499999Y-35250000D01*
X73250001Y-35250000D01*
X73250000Y-35250001D01*
X72750000Y-35250001D01*
X72749999Y-35250000D01*
X69500002Y-35250000D01*
X69500001Y-35250001D01*
X66000000Y-35250001D01*
X65999999Y-35250000D01*
X64000001Y-35250000D01*
X64000000Y-35250001D01*
X63500000Y-35250001D01*
X63499999Y-35250000D01*
X61500002Y-35250000D01*
X61500001Y-35250001D01*
X60000000Y-35250001D01*
X60000000Y-33506488D01*
X60000847Y-33493566D01*
X60001767Y-33486578D01*
X60028108Y-33431353D01*
X60081879Y-33402158D01*
X60099920Y-33400500D01*
X61849530Y-33400500D01*
X61907721Y-33419407D01*
X61943685Y-33468907D01*
X61943685Y-33530093D01*
X61907721Y-33579593D01*
X61901502Y-33583761D01*
X61781659Y-33657680D01*
X61657680Y-33781659D01*
X61565643Y-33930875D01*
X61510493Y-34097306D01*
X61500000Y-34200012D01*
X61500000Y-34749999D01*
X61500001Y-34750000D01*
X63499999Y-34750000D01*
X63500000Y-34749999D01*
X63500000Y-33500001D01*
X64000000Y-33500001D01*
X64000000Y-34749999D01*
X64000001Y-34750000D01*
X65999998Y-34750000D01*
X65999999Y-34749999D01*
X65999999Y-34200013D01*
X65999999Y-34200012D01*
X69500000Y-34200012D01*
X69500000Y-34749999D01*
X69500001Y-34750000D01*
X72749999Y-34750000D01*
X72750000Y-34749999D01*
X72750000Y-33500001D01*
X73250000Y-33500001D01*
X73250000Y-34749999D01*
X73250001Y-34750000D01*
X76499998Y-34750000D01*
X76499999Y-34749999D01*
X76499999Y-34200013D01*
X76489507Y-34097312D01*
X76489504Y-34097300D01*
X76434356Y-33930875D01*
X76342319Y-33781659D01*
X76218340Y-33657680D01*
X76069124Y-33565643D01*
X75902693Y-33510493D01*
X75799987Y-33500000D01*
X73250001Y-33500000D01*
X73250000Y-33500001D01*
X72750000Y-33500001D01*
X72749999Y-33500000D01*
X70200013Y-33500000D01*
X70097312Y-33510492D01*
X70097300Y-33510495D01*
X69930875Y-33565643D01*
X69781659Y-33657680D01*
X69657680Y-33781659D01*
X69565643Y-33930875D01*
X69510493Y-34097306D01*
X69500000Y-34200012D01*
X65999999Y-34200012D01*
X65989507Y-34097312D01*
X65989504Y-34097300D01*
X65934356Y-33930875D01*
X65842319Y-33781659D01*
X65718340Y-33657680D01*
X65569124Y-33565643D01*
X65402693Y-33510493D01*
X65299987Y-33500000D01*
X64000001Y-33500000D01*
X64000000Y-33500001D01*
X63500000Y-33500001D01*
X63499999Y-33500000D01*
X62374771Y-33500000D01*
X62316580Y-33481093D01*
X62280616Y-33431593D01*
X62280616Y-33370407D01*
X62316580Y-33320907D01*
X62319741Y-33318704D01*
X62372974Y-33283135D01*
X62414667Y-33255279D01*
X62640951Y-33028996D01*
X62695467Y-33001219D01*
X62710954Y-33000000D01*
X77493512Y-33000000D01*
X77506433Y-33000847D01*
G37*
G04 #@! TD.AperFunction*
G04 #@! TD*
G04 #@! TA.AperFunction,Conductor*
G04 #@! TO.N,/regulator_in*
G36*
X47000000Y-68000000D02*
G01*
X48000000Y-69000000D01*
X45257666Y-69000000D01*
X45242426Y-68998820D01*
X45113138Y-68978677D01*
X45084104Y-68969405D01*
X44974013Y-68914360D01*
X44949175Y-68896696D01*
X44855488Y-68805351D01*
X44845400Y-68793867D01*
X44400000Y-68200000D01*
X44249999Y-67999998D01*
X44236772Y-67993385D01*
X44211042Y-67974841D01*
X44205603Y-67969402D01*
X44205601Y-67969399D01*
X44204503Y-67968665D01*
X44122742Y-67914035D01*
X44122740Y-67914034D01*
X44122737Y-67914033D01*
X44122736Y-67914033D01*
X44049684Y-67899501D01*
X44049674Y-67899500D01*
X43610985Y-67899500D01*
X43605257Y-67897639D01*
X43599351Y-67898814D01*
X43576612Y-67888331D01*
X43552794Y-67880593D01*
X43549253Y-67875719D01*
X43543785Y-67873199D01*
X43531551Y-67851355D01*
X43516830Y-67831093D01*
X43513888Y-67819816D01*
X43503842Y-67769316D01*
X43503842Y-67730684D01*
X43513888Y-67680184D01*
X43543785Y-67626801D01*
X43599351Y-67601186D01*
X43610985Y-67600500D01*
X44049673Y-67600500D01*
X44049674Y-67600500D01*
X44122740Y-67585966D01*
X44205601Y-67530601D01*
X44205605Y-67530594D01*
X44207205Y-67528996D01*
X44210565Y-67527283D01*
X44213708Y-67525184D01*
X44213956Y-67525556D01*
X44261722Y-67501219D01*
X44277209Y-67500000D01*
X47000000Y-67500000D01*
X47000000Y-68000000D01*
G37*
G04 #@! TD.AperFunction*
G04 #@! TD*
G04 #@! TA.AperFunction,Conductor*
G04 #@! TO.N,/regulator_in*
G36*
X49299326Y-67500847D02*
G01*
X49314632Y-67502862D01*
X49409382Y-67515336D01*
X49434340Y-67522023D01*
X49530854Y-67562000D01*
X49553233Y-67574921D01*
X49641293Y-67642492D01*
X49651030Y-67651030D01*
X54000000Y-72000000D01*
X57493512Y-72000000D01*
X57506433Y-72000847D01*
X57521739Y-72002862D01*
X57616489Y-72015336D01*
X57641447Y-72022023D01*
X57737960Y-72062000D01*
X57760336Y-72074918D01*
X57843216Y-72138515D01*
X57861484Y-72156783D01*
X57925079Y-72239660D01*
X57938001Y-72262042D01*
X57977975Y-72358548D01*
X57984664Y-72383512D01*
X57999153Y-72493566D01*
X58000000Y-72506488D01*
X58000000Y-73493511D01*
X57999153Y-73506433D01*
X57984664Y-73616487D01*
X57977975Y-73641451D01*
X57938001Y-73737957D01*
X57925079Y-73760339D01*
X57861487Y-73843213D01*
X57843213Y-73861487D01*
X57760339Y-73925079D01*
X57737957Y-73938001D01*
X57641451Y-73977975D01*
X57616487Y-73984664D01*
X57506434Y-73999153D01*
X57493512Y-74000000D01*
X53213595Y-74000000D01*
X53200673Y-73999153D01*
X53090619Y-73984664D01*
X53065655Y-73977975D01*
X52969147Y-73938000D01*
X52946766Y-73925078D01*
X52858706Y-73857507D01*
X52848969Y-73848969D01*
X51800001Y-72800001D01*
X54500001Y-72800001D01*
X54500001Y-72863091D01*
X54506230Y-72910413D01*
X54506230Y-72910415D01*
X54554666Y-73014285D01*
X54635714Y-73095333D01*
X54739581Y-73143767D01*
X54739582Y-73143768D01*
X54786916Y-73149999D01*
X54900000Y-73149999D01*
X54900000Y-72800001D01*
X55100000Y-72800001D01*
X55100000Y-73149998D01*
X55100001Y-73149999D01*
X55213081Y-73149999D01*
X55213091Y-73149998D01*
X55260413Y-73143769D01*
X55260415Y-73143769D01*
X55364285Y-73095333D01*
X55409617Y-73050001D01*
X56250001Y-73050001D01*
X56250001Y-73181485D01*
X56264833Y-73275141D01*
X56264836Y-73275151D01*
X56322358Y-73388043D01*
X56411956Y-73477641D01*
X56524848Y-73535163D01*
X56524852Y-73535164D01*
X56618515Y-73549999D01*
X56800000Y-73549999D01*
X56800000Y-73050001D01*
X57000000Y-73050001D01*
X57000000Y-73549998D01*
X57000001Y-73549999D01*
X57181483Y-73549999D01*
X57181485Y-73549998D01*
X57275141Y-73535166D01*
X57275151Y-73535163D01*
X57388043Y-73477641D01*
X57477641Y-73388043D01*
X57535163Y-73275151D01*
X57535164Y-73275147D01*
X57550000Y-73181484D01*
X57550000Y-73050001D01*
X57549999Y-73050000D01*
X57000001Y-73050000D01*
X57000000Y-73050001D01*
X56800000Y-73050001D01*
X56799999Y-73050000D01*
X56250002Y-73050000D01*
X56250001Y-73050001D01*
X55409617Y-73050001D01*
X55445333Y-73014285D01*
X55467312Y-72967153D01*
X55467312Y-72967151D01*
X55493766Y-72910421D01*
X55493768Y-72910417D01*
X55500000Y-72863083D01*
X55500000Y-72800001D01*
X55499999Y-72800000D01*
X55100001Y-72800000D01*
X55100000Y-72800001D01*
X54900000Y-72800001D01*
X54899999Y-72800000D01*
X54500002Y-72800000D01*
X54500001Y-72800001D01*
X51800001Y-72800001D01*
X51718515Y-72718515D01*
X56250000Y-72718515D01*
X56250000Y-72849999D01*
X56250001Y-72850000D01*
X56799999Y-72850000D01*
X56800000Y-72849999D01*
X56800000Y-72350001D01*
X57000000Y-72350001D01*
X57000000Y-72849999D01*
X57000001Y-72850000D01*
X57549998Y-72850000D01*
X57549999Y-72849999D01*
X57549999Y-72718516D01*
X57549998Y-72718514D01*
X57535166Y-72624858D01*
X57535163Y-72624848D01*
X57477641Y-72511956D01*
X57388043Y-72422358D01*
X57275151Y-72364836D01*
X57275147Y-72364835D01*
X57181484Y-72350000D01*
X57000001Y-72350000D01*
X57000000Y-72350001D01*
X56800000Y-72350001D01*
X56799999Y-72350000D01*
X56618517Y-72350000D01*
X56618514Y-72350001D01*
X56524858Y-72364833D01*
X56524848Y-72364836D01*
X56411956Y-72422358D01*
X56322358Y-72511956D01*
X56264836Y-72624848D01*
X56264835Y-72624852D01*
X56250000Y-72718515D01*
X51718515Y-72718515D01*
X51536916Y-72536916D01*
X54500000Y-72536916D01*
X54500000Y-72599999D01*
X54500001Y-72600000D01*
X54899999Y-72600000D01*
X54900000Y-72599999D01*
X54900000Y-72250001D01*
X55100000Y-72250001D01*
X55100000Y-72599999D01*
X55100001Y-72600000D01*
X55499998Y-72600000D01*
X55499999Y-72599999D01*
X55499999Y-72536919D01*
X55499998Y-72536908D01*
X55493769Y-72489586D01*
X55493769Y-72489584D01*
X55445333Y-72385714D01*
X55364285Y-72304666D01*
X55260418Y-72256232D01*
X55260417Y-72256231D01*
X55213084Y-72250000D01*
X55100001Y-72250000D01*
X55100000Y-72250001D01*
X54900000Y-72250001D01*
X54899999Y-72250000D01*
X54786920Y-72250000D01*
X54786908Y-72250001D01*
X54739586Y-72256230D01*
X54739584Y-72256230D01*
X54635714Y-72304666D01*
X54554666Y-72385714D01*
X54506232Y-72489581D01*
X54506231Y-72489582D01*
X54500000Y-72536916D01*
X51536916Y-72536916D01*
X48146447Y-69146447D01*
X48146447Y-69146446D01*
X48000000Y-69000000D01*
X47000000Y-68000000D01*
X47000000Y-67500000D01*
X49286405Y-67500000D01*
X49299326Y-67500847D01*
G37*
G04 #@! TD.AperFunction*
G04 #@! TD*
G04 #@! TA.AperFunction,Conductor*
G04 #@! TO.N,GND*
G36*
X48916026Y-56408407D02*
G01*
X48927839Y-56418496D01*
X50819504Y-58310161D01*
X50847281Y-58364678D01*
X50848500Y-58380165D01*
X50848500Y-63239996D01*
X50875420Y-63375327D01*
X50875420Y-63375329D01*
X50928223Y-63502808D01*
X50928224Y-63502810D01*
X50928225Y-63502811D01*
X51004886Y-63617543D01*
X52000000Y-64612657D01*
X52000000Y-69709380D01*
X49796321Y-67505701D01*
X49786529Y-67496529D01*
X49776768Y-67487970D01*
X49766408Y-67479469D01*
X49678333Y-67411886D01*
X49678332Y-67411885D01*
X49659796Y-67399500D01*
X49655986Y-67396954D01*
X49649518Y-67393219D01*
X49633599Y-67384028D01*
X49609522Y-67372154D01*
X49609489Y-67372139D01*
X49512981Y-67332165D01*
X49512978Y-67332164D01*
X49487524Y-67323524D01*
X49487518Y-67323522D01*
X49487511Y-67323520D01*
X49462577Y-67316839D01*
X49462559Y-67316835D01*
X49436204Y-67311593D01*
X49436194Y-67311592D01*
X49368238Y-67302646D01*
X49326149Y-67297105D01*
X49320969Y-67296594D01*
X49312766Y-67295786D01*
X49299846Y-67294939D01*
X49286405Y-67294500D01*
X47000000Y-67294500D01*
X44374000Y-67294500D01*
X44315809Y-67275593D01*
X44279845Y-67226093D01*
X44275000Y-67195500D01*
X44275000Y-67125377D01*
X44274999Y-67125375D01*
X44260493Y-67052453D01*
X44260492Y-67052451D01*
X44205238Y-66969758D01*
X44205238Y-66969757D01*
X44179115Y-66952304D01*
X43880714Y-67250706D01*
X43866742Y-67257824D01*
X43855655Y-67268912D01*
X43840167Y-67271364D01*
X43826197Y-67278483D01*
X43810710Y-67276030D01*
X43795223Y-67278483D01*
X43781252Y-67271364D01*
X43765765Y-67268912D01*
X43740706Y-67250706D01*
X43739999Y-67249999D01*
X43739318Y-67250681D01*
X43684812Y-67278478D01*
X43624376Y-67268928D01*
X43599286Y-67250706D01*
X43300883Y-66952303D01*
X43274762Y-66969757D01*
X43274758Y-66969761D01*
X43219506Y-67052452D01*
X43219506Y-67052453D01*
X43205000Y-67125375D01*
X43205000Y-67374624D01*
X43219506Y-67447546D01*
X43223238Y-67456557D01*
X43221135Y-67457427D01*
X43234111Y-67503438D01*
X43221365Y-67542670D01*
X43222766Y-67543251D01*
X43219033Y-67552263D01*
X43204501Y-67625315D01*
X43204500Y-67625327D01*
X43204500Y-67874672D01*
X43204501Y-67874684D01*
X43219033Y-67947736D01*
X43219034Y-67947740D01*
X43219035Y-67947742D01*
X43222766Y-67956749D01*
X43220751Y-67957583D01*
X43233811Y-68003888D01*
X43221227Y-68042613D01*
X43222766Y-68043251D01*
X43219033Y-68052263D01*
X43204501Y-68125315D01*
X43204500Y-68125327D01*
X43204500Y-68374672D01*
X43204501Y-68374684D01*
X43219033Y-68447736D01*
X43219034Y-68447740D01*
X43219035Y-68447742D01*
X43222767Y-68456752D01*
X43220906Y-68457522D01*
X43234111Y-68504329D01*
X43221622Y-68542774D01*
X43223238Y-68543443D01*
X43219506Y-68552453D01*
X43205000Y-68625375D01*
X43205000Y-68874624D01*
X43219506Y-68947546D01*
X43219507Y-68947548D01*
X43274758Y-69030237D01*
X43274761Y-69030240D01*
X43300883Y-69047694D01*
X43599285Y-68749293D01*
X43613256Y-68742174D01*
X43624344Y-68731087D01*
X43639831Y-68728634D01*
X43653802Y-68721516D01*
X43669289Y-68723968D01*
X43684776Y-68721516D01*
X43698746Y-68728634D01*
X43714234Y-68731087D01*
X43739293Y-68749293D01*
X43739999Y-68749999D01*
X43740681Y-68749318D01*
X43795187Y-68721521D01*
X43855623Y-68731071D01*
X43880713Y-68749293D01*
X44179114Y-69047694D01*
X44205236Y-69030242D01*
X44205241Y-69030237D01*
X44260492Y-68947548D01*
X44260493Y-68947546D01*
X44274999Y-68874624D01*
X44275000Y-68874622D01*
X44275000Y-68672832D01*
X44293907Y-68614641D01*
X44343407Y-68578677D01*
X44404593Y-68578677D01*
X44453198Y-68613431D01*
X44571512Y-68771182D01*
X44680996Y-68917162D01*
X44691008Y-68929489D01*
X44701111Y-68940990D01*
X44712029Y-68952492D01*
X44777690Y-69016510D01*
X44805715Y-69043834D01*
X44830076Y-69064165D01*
X44854914Y-69081829D01*
X44882111Y-69098165D01*
X44992195Y-69153207D01*
X44992200Y-69153209D01*
X44992202Y-69153210D01*
X45021588Y-69165165D01*
X45050622Y-69174437D01*
X45081503Y-69181727D01*
X45210791Y-69201870D01*
X45226562Y-69203707D01*
X45241802Y-69204887D01*
X45254493Y-69205377D01*
X45257664Y-69205500D01*
X45257666Y-69205500D01*
X47873872Y-69205500D01*
X47932063Y-69224407D01*
X47943876Y-69234496D01*
X52000000Y-73290620D01*
X52000000Y-74000000D01*
X33000000Y-74000000D01*
X33000000Y-72533453D01*
X39325000Y-72533453D01*
X39340760Y-72632965D01*
X39340762Y-72632969D01*
X39401881Y-72752921D01*
X39497078Y-72848118D01*
X39617030Y-72909237D01*
X39617029Y-72909237D01*
X39716545Y-72924999D01*
X39900000Y-72924999D01*
X39900000Y-72375001D01*
X40100000Y-72375001D01*
X40100000Y-72924998D01*
X40100001Y-72924999D01*
X40283453Y-72924999D01*
X40382965Y-72909239D01*
X40382969Y-72909237D01*
X40502921Y-72848118D01*
X40598118Y-72752921D01*
X40659237Y-72632969D01*
X40675000Y-72533453D01*
X40675000Y-72375001D01*
X40674999Y-72375000D01*
X40100001Y-72375000D01*
X40100000Y-72375001D01*
X39900000Y-72375001D01*
X39899999Y-72375000D01*
X39325002Y-72375000D01*
X39325001Y-72375001D01*
X39325001Y-72533453D01*
X39325000Y-72533453D01*
X33000000Y-72533453D01*
X33000000Y-72016546D01*
X39325000Y-72016546D01*
X39325000Y-72174999D01*
X39325001Y-72175000D01*
X39899999Y-72175000D01*
X39900000Y-72174999D01*
X39900000Y-71625001D01*
X40100000Y-71625001D01*
X40100000Y-72174999D01*
X40100001Y-72175000D01*
X40674998Y-72175000D01*
X40674999Y-72174999D01*
X40674999Y-72093477D01*
X41324500Y-72093477D01*
X41324500Y-72556520D01*
X41324501Y-72556523D01*
X41339352Y-72650299D01*
X41339354Y-72650304D01*
X41396950Y-72763342D01*
X41486658Y-72853050D01*
X41599696Y-72910646D01*
X41693481Y-72925500D01*
X42306518Y-72925499D01*
X42306520Y-72925499D01*
X42306521Y-72925498D01*
X42353411Y-72918072D01*
X42400299Y-72910647D01*
X42400299Y-72910646D01*
X42400304Y-72910646D01*
X42513342Y-72853050D01*
X42525121Y-72841271D01*
X42536898Y-72829495D01*
X42591415Y-72801719D01*
X42606900Y-72800500D01*
X43051679Y-72800500D01*
X43109870Y-72819407D01*
X43121676Y-72829490D01*
X43192686Y-72900500D01*
X43192688Y-72900501D01*
X43192690Y-72900503D01*
X43306810Y-72966390D01*
X43306808Y-72966390D01*
X43306812Y-72966391D01*
X43306814Y-72966392D01*
X43434108Y-73000500D01*
X43434110Y-73000500D01*
X43565890Y-73000500D01*
X43565892Y-73000500D01*
X43693186Y-72966392D01*
X43693188Y-72966390D01*
X43693190Y-72966390D01*
X43807309Y-72900503D01*
X43807309Y-72900502D01*
X43807314Y-72900500D01*
X43900500Y-72807314D01*
X43925887Y-72763342D01*
X43966390Y-72693190D01*
X43966390Y-72693188D01*
X43966392Y-72693186D01*
X44000500Y-72565892D01*
X44000500Y-72434108D01*
X43966392Y-72306814D01*
X43966390Y-72306811D01*
X43966390Y-72306809D01*
X43900503Y-72192690D01*
X43900501Y-72192688D01*
X43900500Y-72192686D01*
X43807314Y-72099500D01*
X43807311Y-72099498D01*
X43807309Y-72099496D01*
X43693189Y-72033609D01*
X43693191Y-72033609D01*
X43629509Y-72016546D01*
X43565892Y-71999500D01*
X43434108Y-71999500D01*
X43370491Y-72016546D01*
X43306809Y-72033609D01*
X43192690Y-72099496D01*
X43192689Y-72099497D01*
X43192686Y-72099499D01*
X43192686Y-72099500D01*
X43121680Y-72170505D01*
X43067166Y-72198281D01*
X43051679Y-72199500D01*
X42774499Y-72199500D01*
X42716308Y-72180593D01*
X42680344Y-72131093D01*
X42675499Y-72100500D01*
X42675499Y-72093478D01*
X42675498Y-72093476D01*
X42660647Y-71999700D01*
X42660646Y-71999698D01*
X42660646Y-71999696D01*
X42603050Y-71886658D01*
X42513342Y-71796950D01*
X42400304Y-71739354D01*
X42400305Y-71739354D01*
X42306522Y-71724500D01*
X41693479Y-71724500D01*
X41693476Y-71724501D01*
X41599700Y-71739352D01*
X41599695Y-71739354D01*
X41486659Y-71796949D01*
X41396949Y-71886659D01*
X41339354Y-71999695D01*
X41324500Y-72093477D01*
X40674999Y-72093477D01*
X40674999Y-72016546D01*
X40659239Y-71917034D01*
X40659237Y-71917030D01*
X40598118Y-71797078D01*
X40502921Y-71701881D01*
X40382969Y-71640762D01*
X40382970Y-71640762D01*
X40283454Y-71625000D01*
X40100001Y-71625000D01*
X40100000Y-71625001D01*
X39900000Y-71625001D01*
X39899999Y-71625000D01*
X39716547Y-71625000D01*
X39716546Y-71625001D01*
X39617034Y-71640760D01*
X39617030Y-71640762D01*
X39497078Y-71701881D01*
X39401881Y-71797078D01*
X39340762Y-71917030D01*
X39325000Y-72016546D01*
X33000000Y-72016546D01*
X33000000Y-65006487D01*
X35044500Y-65006487D01*
X35044500Y-66157834D01*
X35045057Y-66172966D01*
X35046133Y-66187526D01*
X35047807Y-66202592D01*
X35066174Y-66326194D01*
X35066177Y-66326210D01*
X35072823Y-66355751D01*
X35081283Y-66383586D01*
X35081286Y-66383596D01*
X35081289Y-66383603D01*
X35089000Y-66403554D01*
X35089732Y-66405448D01*
X35092207Y-66411850D01*
X35142557Y-66518089D01*
X35149462Y-66530252D01*
X35157515Y-66544439D01*
X35173693Y-66568596D01*
X35173694Y-66568599D01*
X35189953Y-66589383D01*
X35192364Y-66592465D01*
X35271433Y-66679475D01*
X35293403Y-66700330D01*
X35315928Y-66718756D01*
X35340719Y-66736153D01*
X35448016Y-66800197D01*
X35461302Y-66807477D01*
X35474348Y-66814012D01*
X35488142Y-66820296D01*
X36943349Y-67419500D01*
X37519082Y-67656567D01*
X39116648Y-68314388D01*
X39139313Y-68322208D01*
X39161518Y-68328446D01*
X39196606Y-68330498D01*
X39249233Y-68333576D01*
X39249234Y-68333575D01*
X39249239Y-68333576D01*
X39309671Y-68324006D01*
X39345397Y-68315005D01*
X39382044Y-68291978D01*
X39441375Y-68277029D01*
X39492902Y-68295711D01*
X39496779Y-68298527D01*
X39496780Y-68298528D01*
X39527907Y-68314388D01*
X39616867Y-68359716D01*
X39616869Y-68359716D01*
X39616874Y-68359719D01*
X39692541Y-68371703D01*
X39716510Y-68375500D01*
X40164811Y-68375500D01*
X40186858Y-68382663D01*
X40209756Y-68386290D01*
X40215404Y-68391938D01*
X40223002Y-68394407D01*
X40236629Y-68413163D01*
X40253021Y-68429555D01*
X40254270Y-68437444D01*
X40258966Y-68443907D01*
X40258966Y-68467092D01*
X40262592Y-68489987D01*
X40258966Y-68497103D01*
X40258966Y-68505093D01*
X40234817Y-68544500D01*
X40183812Y-68595505D01*
X40129298Y-68623281D01*
X40113811Y-68624500D01*
X39716510Y-68624500D01*
X39616874Y-68640281D01*
X39616867Y-68640283D01*
X39496782Y-68701470D01*
X39401470Y-68796782D01*
X39340283Y-68916867D01*
X39340281Y-68916874D01*
X39324500Y-69016510D01*
X39324500Y-69533489D01*
X39340281Y-69633125D01*
X39340283Y-69633132D01*
X39379134Y-69709380D01*
X39401472Y-69753220D01*
X39496780Y-69848528D01*
X39545940Y-69873576D01*
X39620939Y-69911791D01*
X39664203Y-69955056D01*
X39673774Y-70015488D01*
X39645996Y-70070004D01*
X39620939Y-70088209D01*
X39496781Y-70151471D01*
X39401470Y-70246782D01*
X39340283Y-70366867D01*
X39340281Y-70366874D01*
X39324500Y-70466510D01*
X39324500Y-70983489D01*
X39340281Y-71083125D01*
X39340283Y-71083132D01*
X39401385Y-71203050D01*
X39401472Y-71203220D01*
X39496780Y-71298528D01*
X39496782Y-71298529D01*
X39616867Y-71359716D01*
X39616869Y-71359716D01*
X39616874Y-71359719D01*
X39692541Y-71371703D01*
X39716510Y-71375500D01*
X39716512Y-71375500D01*
X40283490Y-71375500D01*
X40304885Y-71372111D01*
X40383126Y-71359719D01*
X40503220Y-71298528D01*
X40598528Y-71203220D01*
X40659719Y-71083126D01*
X40675500Y-70983488D01*
X40675500Y-70586189D01*
X40694407Y-70527998D01*
X40704490Y-70516191D01*
X41280470Y-69940212D01*
X41326614Y-69860288D01*
X41350500Y-69771143D01*
X41350500Y-69678856D01*
X41350500Y-69186190D01*
X41369407Y-69127999D01*
X41379496Y-69116186D01*
X41530496Y-68965186D01*
X41585013Y-68937409D01*
X41645445Y-68946980D01*
X41688710Y-68990245D01*
X41699500Y-69035190D01*
X41699500Y-69988992D01*
X41680593Y-70047183D01*
X41631093Y-70083147D01*
X41615987Y-70086773D01*
X41599699Y-70089352D01*
X41599695Y-70089354D01*
X41486659Y-70146949D01*
X41396949Y-70236659D01*
X41339354Y-70349695D01*
X41324500Y-70443477D01*
X41324500Y-70906520D01*
X41324501Y-70906523D01*
X41339352Y-71000299D01*
X41339354Y-71000304D01*
X41396950Y-71113342D01*
X41486658Y-71203050D01*
X41599696Y-71260646D01*
X41693481Y-71275500D01*
X42306518Y-71275499D01*
X42306520Y-71275499D01*
X42306521Y-71275498D01*
X42353411Y-71268072D01*
X42400299Y-71260647D01*
X42400299Y-71260646D01*
X42400304Y-71260646D01*
X42513342Y-71203050D01*
X42603050Y-71113342D01*
X42645742Y-71029553D01*
X42689006Y-70986290D01*
X42733951Y-70975500D01*
X42977115Y-70975500D01*
X43035306Y-70994407D01*
X43071270Y-71043907D01*
X43074896Y-71059015D01*
X43089352Y-71150299D01*
X43089354Y-71150304D01*
X43146950Y-71263342D01*
X43236658Y-71353050D01*
X43349696Y-71410646D01*
X43443481Y-71425500D01*
X43906518Y-71425499D01*
X43906520Y-71425499D01*
X43906521Y-71425498D01*
X43953411Y-71418072D01*
X44000299Y-71410647D01*
X44000299Y-71410646D01*
X44000304Y-71410646D01*
X44113342Y-71353050D01*
X44203050Y-71263342D01*
X44260646Y-71150304D01*
X44275500Y-71056519D01*
X44275499Y-70850001D01*
X44725001Y-70850001D01*
X44725001Y-71056485D01*
X44739833Y-71150141D01*
X44739836Y-71150151D01*
X44797358Y-71263043D01*
X44886956Y-71352641D01*
X44999848Y-71410163D01*
X44999852Y-71410164D01*
X45093515Y-71424999D01*
X45225000Y-71424999D01*
X45225000Y-70850001D01*
X45425000Y-70850001D01*
X45425000Y-71424998D01*
X45425001Y-71424999D01*
X45556483Y-71424999D01*
X45556485Y-71424998D01*
X45650141Y-71410166D01*
X45650151Y-71410163D01*
X45763043Y-71352641D01*
X45852641Y-71263043D01*
X45910163Y-71150151D01*
X45910164Y-71150147D01*
X45925000Y-71056484D01*
X45925000Y-70850001D01*
X45924999Y-70850000D01*
X45425001Y-70850000D01*
X45425000Y-70850001D01*
X45225000Y-70850001D01*
X45224999Y-70850000D01*
X44725002Y-70850000D01*
X44725001Y-70850001D01*
X44275499Y-70850001D01*
X44275499Y-70650000D01*
X44275499Y-70443515D01*
X44725000Y-70443515D01*
X44725000Y-70649999D01*
X44725001Y-70650000D01*
X45224999Y-70650000D01*
X45225000Y-70649999D01*
X45225000Y-70075001D01*
X45425000Y-70075001D01*
X45425000Y-70649999D01*
X45425001Y-70650000D01*
X45924998Y-70650000D01*
X45924999Y-70649999D01*
X45924999Y-70443516D01*
X45924998Y-70443514D01*
X45910166Y-70349858D01*
X45910163Y-70349848D01*
X45852641Y-70236956D01*
X45763043Y-70147358D01*
X45650151Y-70089836D01*
X45650147Y-70089835D01*
X45556484Y-70075000D01*
X45425001Y-70075000D01*
X45425000Y-70075001D01*
X45225000Y-70075001D01*
X45224999Y-70075000D01*
X45093517Y-70075000D01*
X45093514Y-70075001D01*
X44999858Y-70089833D01*
X44999848Y-70089836D01*
X44886956Y-70147358D01*
X44797358Y-70236956D01*
X44739836Y-70349848D01*
X44739835Y-70349852D01*
X44725000Y-70443515D01*
X44275499Y-70443515D01*
X44275499Y-70443479D01*
X44275498Y-70443476D01*
X44260647Y-70349700D01*
X44260646Y-70349698D01*
X44260646Y-70349696D01*
X44203050Y-70236658D01*
X44113342Y-70146950D01*
X44000304Y-70089354D01*
X44000305Y-70089354D01*
X43906522Y-70074500D01*
X43443479Y-70074500D01*
X43443476Y-70074501D01*
X43349700Y-70089352D01*
X43349695Y-70089354D01*
X43236659Y-70146949D01*
X43236658Y-70146950D01*
X43146950Y-70236658D01*
X43104257Y-70320446D01*
X43060994Y-70363710D01*
X43016049Y-70374500D01*
X42733951Y-70374500D01*
X42675760Y-70355593D01*
X42645742Y-70320447D01*
X42603050Y-70236658D01*
X42513342Y-70146950D01*
X42400304Y-70089354D01*
X42400306Y-70089354D01*
X42384010Y-70086773D01*
X42329494Y-70058993D01*
X42301718Y-70004476D01*
X42300500Y-69988992D01*
X42300500Y-69199500D01*
X42319407Y-69141309D01*
X42368907Y-69105345D01*
X42399500Y-69100500D01*
X42569673Y-69100500D01*
X42569674Y-69100500D01*
X42572188Y-69100000D01*
X43531419Y-69100000D01*
X43948579Y-69100000D01*
X43739999Y-68891420D01*
X43531419Y-69100000D01*
X42572188Y-69100000D01*
X42642740Y-69085966D01*
X42725601Y-69030601D01*
X42780966Y-68947740D01*
X42795500Y-68874674D01*
X42795500Y-68625326D01*
X42780966Y-68552260D01*
X42780962Y-68552255D01*
X42777233Y-68543248D01*
X42779248Y-68542413D01*
X42766189Y-68496120D01*
X42778773Y-68457389D01*
X42777233Y-68456752D01*
X42780961Y-68447746D01*
X42780966Y-68447740D01*
X42795500Y-68374674D01*
X42795500Y-68125326D01*
X42780966Y-68052260D01*
X42780962Y-68052255D01*
X42777233Y-68043248D01*
X42779248Y-68042413D01*
X42766189Y-67996120D01*
X42778773Y-67957389D01*
X42777233Y-67956752D01*
X42780961Y-67947746D01*
X42780966Y-67947740D01*
X42795500Y-67874674D01*
X42795500Y-67625326D01*
X42780966Y-67552260D01*
X42780962Y-67552255D01*
X42777233Y-67543248D01*
X42779248Y-67542413D01*
X42766189Y-67496120D01*
X42767564Y-67483111D01*
X42771142Y-67462442D01*
X42780966Y-67447740D01*
X42795500Y-67374674D01*
X42795500Y-67321752D01*
X42796951Y-67313372D01*
X42797212Y-67312877D01*
X42797402Y-67310949D01*
X42798045Y-67307715D01*
X42798046Y-67307707D01*
X42801964Y-67271087D01*
X42801965Y-67271071D01*
X42802001Y-67268912D01*
X42802559Y-67235721D01*
X42799872Y-67198969D01*
X42799871Y-67198962D01*
X42796808Y-67180309D01*
X42795500Y-67164268D01*
X42795500Y-67125327D01*
X42795498Y-67125315D01*
X42781004Y-67052452D01*
X42780966Y-67052260D01*
X42773025Y-67040376D01*
X42762905Y-67020821D01*
X42762362Y-67019405D01*
X42762361Y-67019401D01*
X42749139Y-66988720D01*
X42739066Y-66969758D01*
X42702011Y-66900000D01*
X43531421Y-66900000D01*
X43740000Y-67108579D01*
X43948580Y-66900000D01*
X43531421Y-66900000D01*
X42702011Y-66900000D01*
X42692848Y-66882751D01*
X42692839Y-66882734D01*
X42692832Y-66882723D01*
X42692828Y-66882716D01*
X42674820Y-66854602D01*
X42655378Y-66829082D01*
X42641826Y-66814012D01*
X42633038Y-66804240D01*
X42633030Y-66804232D01*
X42539850Y-66716204D01*
X42539846Y-66716200D01*
X42539837Y-66716192D01*
X42527222Y-66705211D01*
X42527214Y-66705204D01*
X42514684Y-66695164D01*
X42514672Y-66695154D01*
X42501216Y-66685242D01*
X42501210Y-66685238D01*
X42501202Y-66685232D01*
X41082790Y-65726847D01*
X41082789Y-65726846D01*
X41082770Y-65726833D01*
X41081197Y-65725770D01*
X41081190Y-65725765D01*
X40999073Y-65670280D01*
X40961443Y-65622035D01*
X40955500Y-65588250D01*
X40955500Y-65006487D01*
X40955485Y-65006047D01*
X40955060Y-64993047D01*
X40954213Y-64980125D01*
X40952895Y-64966743D01*
X40938407Y-64856700D01*
X40938407Y-64856698D01*
X40938406Y-64856689D01*
X40933162Y-64830325D01*
X40926473Y-64805361D01*
X40917832Y-64779907D01*
X40877858Y-64683401D01*
X40865970Y-64659294D01*
X40853048Y-64636912D01*
X40838112Y-64614558D01*
X40774517Y-64531681D01*
X40774510Y-64531673D01*
X40774503Y-64531664D01*
X40756797Y-64511476D01*
X40738522Y-64493201D01*
X40718334Y-64475495D01*
X40718320Y-64475484D01*
X40718318Y-64475482D01*
X40635438Y-64411885D01*
X40613081Y-64396947D01*
X40590705Y-64384029D01*
X40566604Y-64372144D01*
X40470090Y-64332167D01*
X40470071Y-64332159D01*
X40444641Y-64323526D01*
X40444634Y-64323524D01*
X40428117Y-64319099D01*
X40419673Y-64316837D01*
X40419667Y-64316835D01*
X40419666Y-64316835D01*
X40393311Y-64311593D01*
X40393301Y-64311592D01*
X40325345Y-64302646D01*
X40283256Y-64297105D01*
X40278076Y-64296594D01*
X40269873Y-64295786D01*
X40256953Y-64294939D01*
X40243512Y-64294500D01*
X35756488Y-64294500D01*
X35743046Y-64294939D01*
X35730129Y-64295786D01*
X35718848Y-64296897D01*
X35716745Y-64297105D01*
X35716741Y-64297105D01*
X35716736Y-64297106D01*
X35606697Y-64311592D01*
X35606681Y-64311594D01*
X35580335Y-64316834D01*
X35580312Y-64316839D01*
X35555382Y-64323519D01*
X35529915Y-64332163D01*
X35529912Y-64332164D01*
X35433407Y-64372136D01*
X35409273Y-64384038D01*
X35386913Y-64396949D01*
X35364568Y-64411879D01*
X35364561Y-64411884D01*
X35281689Y-64475474D01*
X35281677Y-64475484D01*
X35261464Y-64493212D01*
X35243212Y-64511464D01*
X35225484Y-64531677D01*
X35225474Y-64531689D01*
X35161884Y-64614561D01*
X35161879Y-64614568D01*
X35146949Y-64636913D01*
X35134038Y-64659273D01*
X35122139Y-64683402D01*
X35082169Y-64779897D01*
X35073524Y-64805367D01*
X35066840Y-64830312D01*
X35061595Y-64856676D01*
X35061591Y-64856700D01*
X35047106Y-64966736D01*
X35045786Y-64980129D01*
X35044939Y-64993046D01*
X35044500Y-65006487D01*
X33000000Y-65006487D01*
X33000000Y-62955500D01*
X40811809Y-62955500D01*
X40870000Y-62974407D01*
X40900357Y-63010226D01*
X42174922Y-65559358D01*
X42181728Y-65571869D01*
X42188679Y-65583655D01*
X42196309Y-65595625D01*
X42196319Y-65595640D01*
X42262754Y-65692322D01*
X42262763Y-65692333D01*
X42280415Y-65714559D01*
X42280428Y-65714574D01*
X42298854Y-65734736D01*
X42319428Y-65754336D01*
X42404413Y-65824759D01*
X42427492Y-65841333D01*
X42427498Y-65841337D01*
X42427509Y-65841344D01*
X42446440Y-65853044D01*
X42450726Y-65855693D01*
X42475879Y-65868928D01*
X42576880Y-65913449D01*
X42603607Y-65923084D01*
X42629879Y-65930548D01*
X42657691Y-65936406D01*
X42657705Y-65936407D01*
X42657710Y-65936409D01*
X42763639Y-65951163D01*
X42773870Y-65952588D01*
X42788002Y-65954061D01*
X42801658Y-65955008D01*
X42815875Y-65955500D01*
X42815885Y-65955500D01*
X43493512Y-65955500D01*
X43506953Y-65955060D01*
X43519875Y-65954213D01*
X43533273Y-65952893D01*
X43546398Y-65951164D01*
X43546397Y-65951163D01*
X43548338Y-65950907D01*
X43597191Y-65944476D01*
X43643289Y-65938409D01*
X43643300Y-65938407D01*
X43643308Y-65938406D01*
X43669674Y-65933162D01*
X43694638Y-65926473D01*
X43720092Y-65917832D01*
X43816598Y-65877858D01*
X43840705Y-65865970D01*
X43863087Y-65853048D01*
X43885440Y-65838113D01*
X43968314Y-65774521D01*
X43988523Y-65756797D01*
X44006797Y-65738523D01*
X44024521Y-65718314D01*
X44088113Y-65635440D01*
X44103048Y-65613087D01*
X44115970Y-65590705D01*
X44127858Y-65566598D01*
X44167832Y-65470092D01*
X44176473Y-65444638D01*
X44183162Y-65419674D01*
X44188406Y-65393310D01*
X44202895Y-65283256D01*
X44204213Y-65269874D01*
X44205060Y-65256952D01*
X44205500Y-65243511D01*
X44205500Y-64662961D01*
X44224407Y-64604770D01*
X44249585Y-64580588D01*
X44634579Y-64323926D01*
X44648177Y-64314034D01*
X44660875Y-64303977D01*
X44673633Y-64292993D01*
X44774858Y-64198351D01*
X44797459Y-64173453D01*
X44817132Y-64147851D01*
X44835368Y-64119607D01*
X44896872Y-64004687D01*
X44910259Y-63973843D01*
X44920648Y-63943273D01*
X44928826Y-63910660D01*
X44951424Y-63773935D01*
X44953486Y-63757234D01*
X44954811Y-63741090D01*
X44955500Y-63724280D01*
X44955500Y-56488500D01*
X44974407Y-56430309D01*
X45023907Y-56394345D01*
X45054500Y-56389500D01*
X48857835Y-56389500D01*
X48916026Y-56408407D01*
G37*
G04 #@! TD.AperFunction*
G04 #@! TA.AperFunction,Conductor*
G36*
X52000000Y-57400253D02*
G01*
X51981093Y-57413990D01*
X51919907Y-57413990D01*
X51880496Y-57389839D01*
X50800432Y-56309775D01*
X49635543Y-55144886D01*
X49635540Y-55144884D01*
X49490656Y-55000000D01*
X52000000Y-55000000D01*
X52000000Y-57400253D01*
G37*
G04 #@! TD.AperFunction*
G04 #@! TD*
G04 #@! TA.AperFunction,Conductor*
G04 #@! TO.N,GND*
G36*
X76002992Y-21500681D02*
G01*
X76295309Y-21518362D01*
X76307164Y-21519802D01*
X76592281Y-21572051D01*
X76603883Y-21574911D01*
X76880623Y-21661147D01*
X76891786Y-21665380D01*
X77156119Y-21784347D01*
X77166704Y-21789903D01*
X77414758Y-21939856D01*
X77424583Y-21946638D01*
X77652755Y-22125399D01*
X77661704Y-22133326D01*
X77866673Y-22338295D01*
X77874600Y-22347244D01*
X77995481Y-22501538D01*
X78053356Y-22575409D01*
X78060147Y-22585248D01*
X78210096Y-22833295D01*
X78215652Y-22843880D01*
X78334616Y-23108206D01*
X78338855Y-23119384D01*
X78425087Y-23396113D01*
X78427948Y-23407721D01*
X78480196Y-23692828D01*
X78481637Y-23704695D01*
X78499319Y-23997006D01*
X78499500Y-24002984D01*
X78499500Y-32866240D01*
X78480593Y-32924431D01*
X78431093Y-32960395D01*
X78369907Y-32960395D01*
X78321959Y-32926509D01*
X78294511Y-32890740D01*
X78262521Y-32849050D01*
X78218926Y-32799341D01*
X78200658Y-32781073D01*
X78200648Y-32781064D01*
X78150960Y-32737487D01*
X78150931Y-32737463D01*
X78068075Y-32673885D01*
X78068071Y-32673882D01*
X78067373Y-32673416D01*
X78013074Y-32637135D01*
X78013070Y-32637132D01*
X78013063Y-32637128D01*
X77990692Y-32624213D01*
X77931411Y-32594981D01*
X77931407Y-32594979D01*
X77834894Y-32555002D01*
X77834896Y-32555002D01*
X77834892Y-32555001D01*
X77772253Y-32533739D01*
X77747324Y-32527060D01*
X77747306Y-32527056D01*
X77682468Y-32514160D01*
X77682458Y-32514159D01*
X77572416Y-32499672D01*
X77539502Y-32496430D01*
X77526576Y-32495582D01*
X77495676Y-32494570D01*
X77493512Y-32494500D01*
X77493510Y-32494500D01*
X76305875Y-32494500D01*
X76247684Y-32475593D01*
X76211720Y-32426093D01*
X76211720Y-32364907D01*
X76235869Y-32325498D01*
X76342712Y-32218656D01*
X76434814Y-32069334D01*
X76489999Y-31902797D01*
X76500500Y-31800009D01*
X76500499Y-30199992D01*
X76500499Y-30199991D01*
X76500499Y-30199983D01*
X76490000Y-30097211D01*
X76489999Y-30097209D01*
X76489999Y-30097203D01*
X76434814Y-29930666D01*
X76358875Y-29807549D01*
X76342714Y-29781347D01*
X76342713Y-29781346D01*
X76342712Y-29781344D01*
X76218656Y-29657288D01*
X76218653Y-29657286D01*
X76218652Y-29657285D01*
X76069336Y-29565187D01*
X76069335Y-29565186D01*
X76069334Y-29565186D01*
X75902797Y-29510001D01*
X75902794Y-29510000D01*
X75800016Y-29499500D01*
X70199983Y-29499500D01*
X70097211Y-29509999D01*
X70097199Y-29510002D01*
X69930663Y-29565187D01*
X69781347Y-29657285D01*
X69657285Y-29781347D01*
X69565187Y-29930663D01*
X69510000Y-30097205D01*
X69499500Y-30199983D01*
X69499500Y-30250500D01*
X69480593Y-30308691D01*
X69431093Y-30344655D01*
X69400500Y-30349500D01*
X66099499Y-30349500D01*
X66041308Y-30330593D01*
X66005344Y-30281093D01*
X66000499Y-30250500D01*
X66000499Y-30199983D01*
X65990000Y-30097211D01*
X65989999Y-30097209D01*
X65989999Y-30097203D01*
X65934814Y-29930666D01*
X65858875Y-29807549D01*
X65842714Y-29781347D01*
X65842713Y-29781346D01*
X65842712Y-29781344D01*
X65718656Y-29657288D01*
X65718653Y-29657286D01*
X65718652Y-29657285D01*
X65569336Y-29565187D01*
X65569335Y-29565186D01*
X65569334Y-29565186D01*
X65402797Y-29510001D01*
X65402794Y-29510000D01*
X65300016Y-29499500D01*
X62199983Y-29499500D01*
X62097211Y-29509999D01*
X62097199Y-29510002D01*
X61930663Y-29565187D01*
X61781347Y-29657285D01*
X61657285Y-29781347D01*
X61565187Y-29930663D01*
X61510000Y-30097205D01*
X61499500Y-30199983D01*
X61499500Y-31800016D01*
X61509999Y-31902788D01*
X61510002Y-31902800D01*
X61532058Y-31969360D01*
X61532414Y-32030544D01*
X61496739Y-32080253D01*
X61438659Y-32099498D01*
X61438083Y-32099500D01*
X58669500Y-32099500D01*
X58611309Y-32080593D01*
X58575345Y-32031093D01*
X58570500Y-32000500D01*
X58570499Y-30942133D01*
X58570499Y-30942128D01*
X58564091Y-30882517D01*
X58551170Y-30847873D01*
X58513797Y-30747670D01*
X58427549Y-30632458D01*
X58427548Y-30632457D01*
X58427546Y-30632454D01*
X58410671Y-30619821D01*
X58312329Y-30546202D01*
X58177488Y-30495910D01*
X58177483Y-30495909D01*
X58177481Y-30495908D01*
X58177477Y-30495908D01*
X58146249Y-30492550D01*
X58117873Y-30489500D01*
X58117870Y-30489500D01*
X55512133Y-30489500D01*
X55512129Y-30489500D01*
X55512128Y-30489501D01*
X55504949Y-30490272D01*
X55452519Y-30495908D01*
X55452514Y-30495909D01*
X55317670Y-30546202D01*
X55219329Y-30619821D01*
X55161414Y-30639558D01*
X55102959Y-30621484D01*
X55100671Y-30619821D01*
X55002329Y-30546202D01*
X54867488Y-30495910D01*
X54867483Y-30495909D01*
X54867481Y-30495908D01*
X54867477Y-30495908D01*
X54836249Y-30492550D01*
X54807873Y-30489500D01*
X54807870Y-30489500D01*
X52202133Y-30489500D01*
X52202129Y-30489500D01*
X52202128Y-30489501D01*
X52194949Y-30490272D01*
X52142519Y-30495908D01*
X52142514Y-30495909D01*
X52007670Y-30546202D01*
X51892458Y-30632450D01*
X51892450Y-30632458D01*
X51806202Y-30747670D01*
X51755910Y-30882511D01*
X51755908Y-30882522D01*
X51749500Y-30942129D01*
X51749501Y-32000500D01*
X51730594Y-32058691D01*
X51681094Y-32094655D01*
X51650501Y-32099500D01*
X50620348Y-32099500D01*
X50557511Y-32111999D01*
X50494674Y-32124499D01*
X50494673Y-32124499D01*
X50494670Y-32124500D01*
X50376291Y-32173534D01*
X50269749Y-32244722D01*
X48912787Y-33601682D01*
X48858271Y-33629459D01*
X48829865Y-33629831D01*
X48789363Y-33624500D01*
X48510642Y-33624500D01*
X48510637Y-33624501D01*
X48393240Y-33639955D01*
X48362884Y-33652529D01*
X48301887Y-33657328D01*
X48287115Y-33652528D01*
X48256767Y-33639957D01*
X48256758Y-33639955D01*
X48139361Y-33624500D01*
X47860642Y-33624500D01*
X47860637Y-33624501D01*
X47743239Y-33639955D01*
X47743237Y-33639956D01*
X47718307Y-33650282D01*
X47657310Y-33655081D01*
X47605142Y-33623110D01*
X47581729Y-33566581D01*
X47596014Y-33507087D01*
X47610416Y-33488817D01*
X50318713Y-30780521D01*
X50318716Y-30780520D01*
X50430520Y-30668716D01*
X50501252Y-30546204D01*
X50509577Y-30531785D01*
X50550501Y-30379057D01*
X50550501Y-30220943D01*
X50550501Y-30214881D01*
X50550500Y-30214863D01*
X50550500Y-30142771D01*
X50569407Y-30084580D01*
X50570960Y-30082501D01*
X50574536Y-30077841D01*
X50635044Y-29931762D01*
X50650500Y-29814361D01*
X50650499Y-28798499D01*
X50669406Y-28740309D01*
X50718906Y-28704345D01*
X50749499Y-28699500D01*
X51650500Y-28699500D01*
X51708691Y-28718407D01*
X51744655Y-28767907D01*
X51749500Y-28798500D01*
X51749500Y-29497866D01*
X51749501Y-29497870D01*
X51755908Y-29557480D01*
X51755909Y-29557485D01*
X51806202Y-29692329D01*
X51849374Y-29749999D01*
X51892454Y-29807546D01*
X51892457Y-29807548D01*
X51892458Y-29807549D01*
X52007670Y-29893797D01*
X52142511Y-29944089D01*
X52142512Y-29944089D01*
X52142517Y-29944091D01*
X52202127Y-29950500D01*
X54807872Y-29950499D01*
X54867483Y-29944091D01*
X54934907Y-29918943D01*
X55002329Y-29893797D01*
X55002329Y-29893796D01*
X55002331Y-29893796D01*
X55100672Y-29820177D01*
X55158585Y-29800441D01*
X55217040Y-29818515D01*
X55219300Y-29820157D01*
X55289698Y-29872857D01*
X55317670Y-29893797D01*
X55452511Y-29944089D01*
X55452512Y-29944089D01*
X55452517Y-29944091D01*
X55512127Y-29950500D01*
X58117872Y-29950499D01*
X58177483Y-29944091D01*
X58244907Y-29918943D01*
X58312329Y-29893797D01*
X58312329Y-29893796D01*
X58312331Y-29893796D01*
X58427546Y-29807546D01*
X58513796Y-29692331D01*
X58564091Y-29557483D01*
X58570500Y-29497873D01*
X58570499Y-28402128D01*
X58564091Y-28342517D01*
X58558744Y-28328181D01*
X58513797Y-28207670D01*
X58427549Y-28092458D01*
X58427548Y-28092457D01*
X58427546Y-28092454D01*
X58399853Y-28071723D01*
X58312329Y-28006202D01*
X58177488Y-27955910D01*
X58177483Y-27955909D01*
X58177481Y-27955908D01*
X58177477Y-27955908D01*
X58146249Y-27952550D01*
X58117873Y-27949500D01*
X58117870Y-27949500D01*
X55512133Y-27949500D01*
X55512129Y-27949500D01*
X55512128Y-27949501D01*
X55504949Y-27950272D01*
X55452519Y-27955908D01*
X55452514Y-27955909D01*
X55317670Y-28006202D01*
X55219329Y-28079821D01*
X55161414Y-28099558D01*
X55102959Y-28081484D01*
X55100671Y-28079821D01*
X55002329Y-28006202D01*
X54867488Y-27955910D01*
X54867483Y-27955909D01*
X54867481Y-27955908D01*
X54867477Y-27955908D01*
X54836249Y-27952550D01*
X54807873Y-27949500D01*
X54807870Y-27949500D01*
X53394743Y-27949500D01*
X53336552Y-27930593D01*
X53324739Y-27920504D01*
X53134521Y-27730286D01*
X53134520Y-27730284D01*
X53022716Y-27618480D01*
X52935904Y-27568360D01*
X52935903Y-27568359D01*
X52885788Y-27539425D01*
X52885785Y-27539423D01*
X52733057Y-27498499D01*
X52574943Y-27498499D01*
X52568880Y-27498499D01*
X52568864Y-27498500D01*
X49760187Y-27498500D01*
X49602072Y-27498500D01*
X49508599Y-27523545D01*
X49449340Y-27539424D01*
X49399225Y-27568359D01*
X49312414Y-27618479D01*
X49200609Y-27730283D01*
X49200610Y-27730284D01*
X49200608Y-27730286D01*
X49200607Y-27730286D01*
X49030734Y-27900158D01*
X48976218Y-27927935D01*
X48922845Y-27921618D01*
X48906762Y-27914956D01*
X48906759Y-27914955D01*
X48906758Y-27914955D01*
X48789361Y-27899500D01*
X48510642Y-27899500D01*
X48510637Y-27899501D01*
X48393240Y-27914955D01*
X48362884Y-27927529D01*
X48301887Y-27932328D01*
X48287115Y-27927528D01*
X48256767Y-27914957D01*
X48256758Y-27914955D01*
X48139361Y-27899500D01*
X47860642Y-27899500D01*
X47860637Y-27899501D01*
X47743240Y-27914955D01*
X47712884Y-27927529D01*
X47651887Y-27932328D01*
X47637115Y-27927528D01*
X47606767Y-27914957D01*
X47606758Y-27914955D01*
X47489361Y-27899500D01*
X47210642Y-27899500D01*
X47210637Y-27899501D01*
X47093240Y-27914955D01*
X47062884Y-27927529D01*
X47001887Y-27932328D01*
X46987115Y-27927528D01*
X46956767Y-27914957D01*
X46956758Y-27914955D01*
X46839361Y-27899500D01*
X46560642Y-27899500D01*
X46560637Y-27899501D01*
X46443242Y-27914955D01*
X46443234Y-27914957D01*
X46412228Y-27927800D01*
X46351231Y-27932599D01*
X46336460Y-27927799D01*
X46306632Y-27915444D01*
X46250000Y-27907988D01*
X46250000Y-27962828D01*
X46231093Y-28021019D01*
X46211268Y-28041369D01*
X46171724Y-28071712D01*
X46171713Y-28071723D01*
X46075463Y-28197160D01*
X46040464Y-28281656D01*
X46000727Y-28328181D01*
X45941233Y-28342465D01*
X45884705Y-28319050D01*
X45852735Y-28266881D01*
X45850000Y-28243770D01*
X45850000Y-27907988D01*
X45849999Y-27907988D01*
X45793367Y-27915444D01*
X45647414Y-27975899D01*
X45647410Y-27975901D01*
X45522080Y-28072070D01*
X45522070Y-28072080D01*
X45425901Y-28197410D01*
X45425899Y-28197414D01*
X45365444Y-28343368D01*
X45365443Y-28343369D01*
X45350000Y-28460676D01*
X45350000Y-28937499D01*
X45350001Y-28937500D01*
X45868771Y-28937500D01*
X45885008Y-28929226D01*
X45945440Y-28938794D01*
X45988707Y-28982056D01*
X45999500Y-29027006D01*
X45999500Y-29247993D01*
X45980593Y-29306184D01*
X45931093Y-29342148D01*
X45869907Y-29342148D01*
X45862322Y-29337500D01*
X45350002Y-29337500D01*
X45350001Y-29337501D01*
X45350001Y-29814324D01*
X45365443Y-29931629D01*
X45365444Y-29931631D01*
X45425899Y-30077585D01*
X45425901Y-30077589D01*
X45522070Y-30202919D01*
X45522080Y-30202929D01*
X45647410Y-30299098D01*
X45647414Y-30299100D01*
X45793364Y-30359554D01*
X45793372Y-30359556D01*
X45849999Y-30367011D01*
X45850000Y-30367010D01*
X45850000Y-30031229D01*
X45868907Y-29973038D01*
X45918407Y-29937074D01*
X45979593Y-29937074D01*
X46029093Y-29973038D01*
X46040464Y-29993344D01*
X46075462Y-30077838D01*
X46075462Y-30077839D01*
X46171439Y-30202919D01*
X46171718Y-30203282D01*
X46211267Y-30233629D01*
X46245923Y-30284051D01*
X46250000Y-30312170D01*
X46250000Y-30367011D01*
X46306628Y-30359556D01*
X46306629Y-30359555D01*
X46336458Y-30347200D01*
X46397455Y-30342399D01*
X46412225Y-30347198D01*
X46443238Y-30360044D01*
X46560639Y-30375500D01*
X46839360Y-30375499D01*
X46956762Y-30360044D01*
X46987112Y-30347471D01*
X47048108Y-30342670D01*
X47062881Y-30347469D01*
X47093238Y-30360044D01*
X47210639Y-30375500D01*
X47489360Y-30375499D01*
X47606762Y-30360044D01*
X47637112Y-30347471D01*
X47698108Y-30342670D01*
X47712881Y-30347469D01*
X47743238Y-30360044D01*
X47860639Y-30375500D01*
X48139360Y-30375499D01*
X48256762Y-30360044D01*
X48287112Y-30347471D01*
X48348108Y-30342670D01*
X48362881Y-30347469D01*
X48393238Y-30360044D01*
X48510639Y-30375500D01*
X48786256Y-30375499D01*
X48844446Y-30394406D01*
X48880410Y-30443906D01*
X48880411Y-30505091D01*
X48856260Y-30544503D01*
X45751801Y-33648962D01*
X45719684Y-33670422D01*
X45647157Y-33700464D01*
X45521723Y-33796713D01*
X45521713Y-33796723D01*
X45425462Y-33922160D01*
X45425462Y-33922161D01*
X45364957Y-34068233D01*
X45364955Y-34068241D01*
X45349500Y-34185637D01*
X45349500Y-35539357D01*
X45349501Y-35539362D01*
X45364955Y-35656757D01*
X45364956Y-35656762D01*
X45372845Y-35675807D01*
X45377644Y-35736804D01*
X45351384Y-35783694D01*
X45272860Y-35862218D01*
X45163366Y-36026088D01*
X45087949Y-36208163D01*
X45087949Y-36208165D01*
X45049500Y-36401456D01*
X45049500Y-52648543D01*
X45087949Y-52841834D01*
X45087949Y-52841836D01*
X45163367Y-53023913D01*
X45163368Y-53023914D01*
X45272861Y-53187782D01*
X45272864Y-53187785D01*
X45272868Y-53187790D01*
X45412219Y-53327140D01*
X45412220Y-53327140D01*
X46604576Y-54519496D01*
X46632353Y-54574013D01*
X46622782Y-54634445D01*
X46579517Y-54677710D01*
X46534572Y-54688500D01*
X38349500Y-54688500D01*
X38291309Y-54669593D01*
X38255345Y-54620093D01*
X38250500Y-54589500D01*
X38250499Y-53802133D01*
X38250499Y-53802128D01*
X38244091Y-53742517D01*
X38244089Y-53742511D01*
X38193797Y-53607670D01*
X38107549Y-53492458D01*
X38107548Y-53492457D01*
X38107546Y-53492454D01*
X38090671Y-53479821D01*
X37992329Y-53406202D01*
X37857488Y-53355910D01*
X37857483Y-53355909D01*
X37857481Y-53355908D01*
X37857477Y-53355908D01*
X37826249Y-53352550D01*
X37797873Y-53349500D01*
X37797870Y-53349500D01*
X35192133Y-53349500D01*
X35192129Y-53349500D01*
X35192128Y-53349501D01*
X35184949Y-53350272D01*
X35132519Y-53355908D01*
X35132514Y-53355909D01*
X34997670Y-53406202D01*
X34899329Y-53479821D01*
X34841414Y-53499558D01*
X34782959Y-53481484D01*
X34780671Y-53479821D01*
X34682329Y-53406202D01*
X34547488Y-53355910D01*
X34547483Y-53355909D01*
X34547481Y-53355908D01*
X34547477Y-53355908D01*
X34516249Y-53352550D01*
X34487873Y-53349500D01*
X34487870Y-53349500D01*
X31882133Y-53349500D01*
X31882129Y-53349500D01*
X31882128Y-53349501D01*
X31874949Y-53350272D01*
X31822519Y-53355908D01*
X31822514Y-53355909D01*
X31687670Y-53406202D01*
X31572458Y-53492450D01*
X31572450Y-53492458D01*
X31486202Y-53607670D01*
X31435910Y-53742511D01*
X31435908Y-53742522D01*
X31429500Y-53802129D01*
X31429501Y-54589500D01*
X31410594Y-54647691D01*
X31361094Y-54683655D01*
X31330501Y-54688500D01*
X29132456Y-54688500D01*
X29035812Y-54707723D01*
X29035812Y-54707724D01*
X29011650Y-54712530D01*
X28939161Y-54726949D01*
X28939158Y-54726950D01*
X28885834Y-54749037D01*
X28885834Y-54749038D01*
X28848124Y-54764657D01*
X28757086Y-54802367D01*
X28634464Y-54884301D01*
X28593218Y-54911861D01*
X28593214Y-54911864D01*
X28453858Y-55051221D01*
X25964574Y-57540504D01*
X25910057Y-57568281D01*
X25894570Y-57569500D01*
X25102133Y-57569500D01*
X25102129Y-57569500D01*
X25102128Y-57569501D01*
X25094949Y-57570272D01*
X25042519Y-57575908D01*
X25042514Y-57575909D01*
X24907670Y-57626202D01*
X24792458Y-57712450D01*
X24792450Y-57712458D01*
X24706202Y-57827670D01*
X24655910Y-57962511D01*
X24655908Y-57962522D01*
X24649500Y-58022129D01*
X24649500Y-59817866D01*
X24649501Y-59817870D01*
X24655908Y-59877480D01*
X24655909Y-59877485D01*
X24706202Y-60012329D01*
X24722242Y-60033755D01*
X24792454Y-60127546D01*
X24792457Y-60127548D01*
X24792458Y-60127549D01*
X24907670Y-60213797D01*
X25042511Y-60264089D01*
X25042512Y-60264089D01*
X25042517Y-60264091D01*
X25056637Y-60265609D01*
X25112473Y-60290629D01*
X25142939Y-60343689D01*
X25136399Y-60404524D01*
X25116058Y-60434045D01*
X24969897Y-60580206D01*
X24969892Y-60580212D01*
X24844950Y-60752180D01*
X24844948Y-60752184D01*
X24748443Y-60941587D01*
X24682752Y-61143761D01*
X24649500Y-61353709D01*
X24649500Y-61566290D01*
X24682752Y-61776238D01*
X24748443Y-61978412D01*
X24844948Y-62167815D01*
X24844950Y-62167819D01*
X24969891Y-62339786D01*
X24969893Y-62339788D01*
X24969896Y-62339792D01*
X25120208Y-62490104D01*
X25120211Y-62490106D01*
X25120213Y-62490108D01*
X25292180Y-62615049D01*
X25292189Y-62615054D01*
X25345212Y-62642070D01*
X25388477Y-62685334D01*
X25398049Y-62745766D01*
X25370272Y-62800283D01*
X25345214Y-62818489D01*
X25292451Y-62845373D01*
X25292442Y-62845378D01*
X25238282Y-62884728D01*
X25870591Y-63517037D01*
X25807007Y-63534075D01*
X25692993Y-63599901D01*
X25599901Y-63692993D01*
X25534075Y-63807007D01*
X25517037Y-63870591D01*
X24884728Y-63238282D01*
X24845378Y-63292442D01*
X24845376Y-63292446D01*
X24748904Y-63481784D01*
X24683240Y-63683878D01*
X24650000Y-63893749D01*
X24650000Y-64106250D01*
X24683240Y-64316121D01*
X24748904Y-64518215D01*
X24845376Y-64707553D01*
X24845380Y-64707559D01*
X24884728Y-64761716D01*
X24884729Y-64761716D01*
X25517037Y-64129407D01*
X25534075Y-64192993D01*
X25599901Y-64307007D01*
X25692993Y-64400099D01*
X25807007Y-64465925D01*
X25870589Y-64482962D01*
X25238282Y-65115269D01*
X25238282Y-65115270D01*
X25292440Y-65154619D01*
X25292446Y-65154623D01*
X25481784Y-65251095D01*
X25683878Y-65316759D01*
X25893750Y-65350000D01*
X26106250Y-65350000D01*
X26316121Y-65316759D01*
X26518215Y-65251095D01*
X26707556Y-65154620D01*
X26761716Y-65115270D01*
X26129408Y-64482962D01*
X26192993Y-64465925D01*
X26307007Y-64400099D01*
X26400099Y-64307007D01*
X26465925Y-64192993D01*
X26482962Y-64129408D01*
X27115270Y-64761716D01*
X27154620Y-64707556D01*
X27251095Y-64518215D01*
X27316759Y-64316121D01*
X27350000Y-64106250D01*
X27350000Y-63893749D01*
X27316759Y-63683878D01*
X27251095Y-63481784D01*
X27154623Y-63292446D01*
X27154619Y-63292440D01*
X27115270Y-63238282D01*
X27115269Y-63238282D01*
X26482962Y-63870589D01*
X26465925Y-63807007D01*
X26400099Y-63692993D01*
X26307007Y-63599901D01*
X26192993Y-63534075D01*
X26129407Y-63517037D01*
X26761716Y-62884729D01*
X26761716Y-62884728D01*
X26707559Y-62845380D01*
X26707543Y-62845370D01*
X26654786Y-62818489D01*
X26611521Y-62775225D01*
X26601950Y-62714793D01*
X26629728Y-62660276D01*
X26654784Y-62642071D01*
X26707816Y-62615051D01*
X26879792Y-62490104D01*
X26880401Y-62489494D01*
X26880658Y-62489363D01*
X26882748Y-62487579D01*
X26883176Y-62488080D01*
X26934916Y-62461719D01*
X26950403Y-62460500D01*
X30691834Y-62460500D01*
X30750025Y-62479407D01*
X30785581Y-62527679D01*
X30805001Y-62584892D01*
X30844981Y-62681411D01*
X30874213Y-62740692D01*
X30887128Y-62763063D01*
X30923882Y-62818071D01*
X30923885Y-62818075D01*
X30987463Y-62900931D01*
X30987487Y-62900960D01*
X31031064Y-62950648D01*
X31031073Y-62950658D01*
X31049341Y-62968926D01*
X31049349Y-62968933D01*
X31049350Y-62968934D01*
X31051134Y-62970499D01*
X31099050Y-63012521D01*
X31140488Y-63044318D01*
X31181925Y-63076115D01*
X31236910Y-63112855D01*
X31245100Y-63117583D01*
X31259296Y-63125779D01*
X31318596Y-63155022D01*
X31415102Y-63194996D01*
X31477716Y-63216251D01*
X31502676Y-63222939D01*
X31502679Y-63222940D01*
X31518780Y-63226142D01*
X31567530Y-63235839D01*
X31677584Y-63250328D01*
X31710503Y-63253571D01*
X31723425Y-63254418D01*
X31756487Y-63255500D01*
X31756488Y-63255500D01*
X33000000Y-63255500D01*
X33000000Y-74000000D01*
X52000000Y-74000000D01*
X52000000Y-73714884D01*
X52491527Y-74206411D01*
X52491542Y-74206425D01*
X52491543Y-74206426D01*
X52515688Y-74229041D01*
X52525438Y-74237590D01*
X52550976Y-74258547D01*
X52639022Y-74326107D01*
X52639029Y-74326112D01*
X52639037Y-74326118D01*
X52694011Y-74362851D01*
X52716392Y-74375773D01*
X52716401Y-74375777D01*
X52716411Y-74375783D01*
X52775695Y-74405019D01*
X52775700Y-74405021D01*
X52872208Y-74444996D01*
X52934823Y-74466251D01*
X52959783Y-74472939D01*
X52959786Y-74472940D01*
X52975887Y-74476142D01*
X53024637Y-74485839D01*
X53134691Y-74500328D01*
X53167610Y-74503571D01*
X53180532Y-74504418D01*
X53213594Y-74505500D01*
X57395500Y-74505500D01*
X57453691Y-74524407D01*
X57489655Y-74573907D01*
X57494500Y-74604500D01*
X57494500Y-75493509D01*
X57495582Y-75526575D01*
X57496429Y-75539490D01*
X57499672Y-75572425D01*
X57514158Y-75682458D01*
X57514159Y-75682464D01*
X57527059Y-75747318D01*
X57533739Y-75772253D01*
X57533744Y-75772269D01*
X57533745Y-75772271D01*
X57555002Y-75834894D01*
X57594977Y-75931403D01*
X57594981Y-75931411D01*
X57624213Y-75990692D01*
X57637128Y-76013063D01*
X57637132Y-76013070D01*
X57637135Y-76013074D01*
X57673416Y-76067373D01*
X57673882Y-76068071D01*
X57673885Y-76068075D01*
X57737463Y-76150931D01*
X57737487Y-76150960D01*
X57781064Y-76200648D01*
X57781073Y-76200658D01*
X57799341Y-76218926D01*
X57799349Y-76218933D01*
X57799350Y-76218934D01*
X57799353Y-76218937D01*
X57849050Y-76262521D01*
X57849053Y-76262523D01*
X57926509Y-76321959D01*
X57961164Y-76372384D01*
X57959561Y-76433549D01*
X57922313Y-76482090D01*
X57866240Y-76499500D01*
X24002985Y-76499500D01*
X23997008Y-76499319D01*
X23973564Y-76497900D01*
X23704695Y-76481637D01*
X23692828Y-76480196D01*
X23407721Y-76427948D01*
X23396113Y-76425087D01*
X23119384Y-76338855D01*
X23108206Y-76334616D01*
X22843880Y-76215652D01*
X22833295Y-76210096D01*
X22598356Y-76068071D01*
X22585245Y-76060145D01*
X22575413Y-76053358D01*
X22347244Y-75874600D01*
X22338295Y-75866673D01*
X22133326Y-75661704D01*
X22125399Y-75652755D01*
X21946638Y-75424583D01*
X21939856Y-75414758D01*
X21789903Y-75166704D01*
X21784347Y-75156119D01*
X21665383Y-74891793D01*
X21661147Y-74880623D01*
X21574911Y-74603883D01*
X21572051Y-74592278D01*
X21519802Y-74307164D01*
X21518362Y-74295303D01*
X21514354Y-74229046D01*
X21500681Y-74002992D01*
X21500500Y-73997015D01*
X21500500Y-51262129D01*
X31429500Y-51262129D01*
X31429500Y-52357866D01*
X31429501Y-52357870D01*
X31435908Y-52417480D01*
X31435909Y-52417485D01*
X31486202Y-52552329D01*
X31529999Y-52610834D01*
X31572454Y-52667546D01*
X31572457Y-52667548D01*
X31572458Y-52667549D01*
X31687670Y-52753797D01*
X31822511Y-52804089D01*
X31822512Y-52804089D01*
X31822517Y-52804091D01*
X31882127Y-52810500D01*
X34487872Y-52810499D01*
X34547483Y-52804091D01*
X34614907Y-52778943D01*
X34682329Y-52753797D01*
X34682329Y-52753796D01*
X34682331Y-52753796D01*
X34780672Y-52680177D01*
X34838585Y-52660441D01*
X34897040Y-52678515D01*
X34899300Y-52680157D01*
X34969698Y-52732857D01*
X34997670Y-52753797D01*
X35132511Y-52804089D01*
X35132512Y-52804089D01*
X35132517Y-52804091D01*
X35192127Y-52810500D01*
X37797872Y-52810499D01*
X37857483Y-52804091D01*
X37924907Y-52778943D01*
X37992329Y-52753797D01*
X37992329Y-52753796D01*
X37992331Y-52753796D01*
X38107546Y-52667546D01*
X38193796Y-52552331D01*
X38244091Y-52417483D01*
X38250500Y-52357873D01*
X38250499Y-51262128D01*
X38244091Y-51202517D01*
X38244089Y-51202511D01*
X38193797Y-51067670D01*
X38107549Y-50952458D01*
X38107548Y-50952457D01*
X38107546Y-50952454D01*
X38090671Y-50939821D01*
X37992329Y-50866202D01*
X37857488Y-50815910D01*
X37857483Y-50815909D01*
X37857481Y-50815908D01*
X37857477Y-50815908D01*
X37826249Y-50812550D01*
X37797873Y-50809500D01*
X37797870Y-50809500D01*
X35192133Y-50809500D01*
X35192129Y-50809500D01*
X35192128Y-50809501D01*
X35184949Y-50810272D01*
X35132519Y-50815908D01*
X35132514Y-50815909D01*
X34997670Y-50866202D01*
X34899329Y-50939821D01*
X34841414Y-50959558D01*
X34782959Y-50941484D01*
X34780671Y-50939821D01*
X34682329Y-50866202D01*
X34547488Y-50815910D01*
X34547483Y-50815909D01*
X34547481Y-50815908D01*
X34547477Y-50815908D01*
X34516249Y-50812550D01*
X34487873Y-50809500D01*
X34487870Y-50809500D01*
X31882133Y-50809500D01*
X31882129Y-50809500D01*
X31882128Y-50809501D01*
X31874949Y-50810272D01*
X31822519Y-50815908D01*
X31822514Y-50815909D01*
X31687670Y-50866202D01*
X31572458Y-50952450D01*
X31572450Y-50952458D01*
X31486202Y-51067670D01*
X31435910Y-51202511D01*
X31435908Y-51202522D01*
X31429500Y-51262129D01*
X21500500Y-51262129D01*
X21500500Y-48722129D01*
X31429500Y-48722129D01*
X31429500Y-49817866D01*
X31429501Y-49817870D01*
X31435908Y-49877480D01*
X31435909Y-49877485D01*
X31486202Y-50012329D01*
X31529999Y-50070834D01*
X31572454Y-50127546D01*
X31572457Y-50127548D01*
X31572458Y-50127549D01*
X31687670Y-50213797D01*
X31822511Y-50264089D01*
X31822512Y-50264089D01*
X31822517Y-50264091D01*
X31882127Y-50270500D01*
X34487872Y-50270499D01*
X34547483Y-50264091D01*
X34614907Y-50238943D01*
X34682329Y-50213797D01*
X34682329Y-50213796D01*
X34682331Y-50213796D01*
X34780672Y-50140177D01*
X34838585Y-50120441D01*
X34897040Y-50138515D01*
X34899300Y-50140157D01*
X34969698Y-50192857D01*
X34997670Y-50213797D01*
X35132511Y-50264089D01*
X35132512Y-50264089D01*
X35132517Y-50264091D01*
X35192127Y-50270500D01*
X37797872Y-50270499D01*
X37857483Y-50264091D01*
X37924907Y-50238943D01*
X37992329Y-50213797D01*
X37992329Y-50213796D01*
X37992331Y-50213796D01*
X38107546Y-50127546D01*
X38193796Y-50012331D01*
X38244091Y-49877483D01*
X38250500Y-49817873D01*
X38250499Y-48722128D01*
X38244091Y-48662517D01*
X38244089Y-48662511D01*
X38193797Y-48527670D01*
X38107549Y-48412458D01*
X38107548Y-48412457D01*
X38107546Y-48412454D01*
X38090671Y-48399821D01*
X37992329Y-48326202D01*
X37857488Y-48275910D01*
X37857483Y-48275909D01*
X37857481Y-48275908D01*
X37857477Y-48275908D01*
X37826249Y-48272550D01*
X37797873Y-48269500D01*
X37797870Y-48269500D01*
X35192133Y-48269500D01*
X35192129Y-48269500D01*
X35192128Y-48269501D01*
X35184949Y-48270272D01*
X35132519Y-48275908D01*
X35132514Y-48275909D01*
X34997670Y-48326202D01*
X34899329Y-48399821D01*
X34841414Y-48419558D01*
X34782959Y-48401484D01*
X34780671Y-48399821D01*
X34682329Y-48326202D01*
X34547488Y-48275910D01*
X34547483Y-48275909D01*
X34547481Y-48275908D01*
X34547477Y-48275908D01*
X34516249Y-48272550D01*
X34487873Y-48269500D01*
X34487870Y-48269500D01*
X31882133Y-48269500D01*
X31882129Y-48269500D01*
X31882128Y-48269501D01*
X31874949Y-48270272D01*
X31822519Y-48275908D01*
X31822514Y-48275909D01*
X31687670Y-48326202D01*
X31572458Y-48412450D01*
X31572450Y-48412458D01*
X31486202Y-48527670D01*
X31435910Y-48662511D01*
X31435908Y-48662522D01*
X31429500Y-48722129D01*
X21500500Y-48722129D01*
X21500500Y-46182129D01*
X31429500Y-46182129D01*
X31429500Y-47277866D01*
X31429501Y-47277870D01*
X31435908Y-47337480D01*
X31435909Y-47337485D01*
X31486202Y-47472329D01*
X31529999Y-47530834D01*
X31572454Y-47587546D01*
X31572457Y-47587548D01*
X31572458Y-47587549D01*
X31687670Y-47673797D01*
X31822511Y-47724089D01*
X31822512Y-47724089D01*
X31822517Y-47724091D01*
X31882127Y-47730500D01*
X34487872Y-47730499D01*
X34547483Y-47724091D01*
X34614907Y-47698943D01*
X34682329Y-47673797D01*
X34682329Y-47673796D01*
X34682331Y-47673796D01*
X34780672Y-47600177D01*
X34838585Y-47580441D01*
X34897040Y-47598515D01*
X34899300Y-47600157D01*
X34969698Y-47652857D01*
X34997670Y-47673797D01*
X35132511Y-47724089D01*
X35132512Y-47724089D01*
X35132517Y-47724091D01*
X35192127Y-47730500D01*
X37797872Y-47730499D01*
X37857483Y-47724091D01*
X37924907Y-47698943D01*
X37992329Y-47673797D01*
X37992329Y-47673796D01*
X37992331Y-47673796D01*
X38107546Y-47587546D01*
X38193796Y-47472331D01*
X38244091Y-47337483D01*
X38250500Y-47277873D01*
X38250499Y-46182128D01*
X38244091Y-46122517D01*
X38207434Y-46024234D01*
X38193797Y-45987670D01*
X38107549Y-45872458D01*
X38107548Y-45872457D01*
X38107546Y-45872454D01*
X38090671Y-45859821D01*
X37992329Y-45786202D01*
X37857488Y-45735910D01*
X37857483Y-45735909D01*
X37857481Y-45735908D01*
X37857477Y-45735908D01*
X37826249Y-45732550D01*
X37797873Y-45729500D01*
X37797870Y-45729500D01*
X35192133Y-45729500D01*
X35192129Y-45729500D01*
X35192128Y-45729501D01*
X35184949Y-45730272D01*
X35132519Y-45735908D01*
X35132514Y-45735909D01*
X34997670Y-45786202D01*
X34899329Y-45859821D01*
X34841414Y-45879558D01*
X34782959Y-45861484D01*
X34780671Y-45859821D01*
X34682329Y-45786202D01*
X34547488Y-45735910D01*
X34547483Y-45735909D01*
X34547481Y-45735908D01*
X34547477Y-45735908D01*
X34516249Y-45732550D01*
X34487873Y-45729500D01*
X34487870Y-45729500D01*
X31882133Y-45729500D01*
X31882129Y-45729500D01*
X31882128Y-45729501D01*
X31874949Y-45730272D01*
X31822519Y-45735908D01*
X31822514Y-45735909D01*
X31687670Y-45786202D01*
X31572458Y-45872450D01*
X31572450Y-45872458D01*
X31486202Y-45987670D01*
X31435910Y-46122511D01*
X31435908Y-46122522D01*
X31429500Y-46182129D01*
X21500500Y-46182129D01*
X21500500Y-43642129D01*
X31429500Y-43642129D01*
X31429500Y-44737866D01*
X31429501Y-44737870D01*
X31435908Y-44797480D01*
X31435909Y-44797485D01*
X31486202Y-44932329D01*
X31529999Y-44990834D01*
X31572454Y-45047546D01*
X31572457Y-45047548D01*
X31572458Y-45047549D01*
X31687670Y-45133797D01*
X31822511Y-45184089D01*
X31822512Y-45184089D01*
X31822517Y-45184091D01*
X31882127Y-45190500D01*
X34487872Y-45190499D01*
X34547483Y-45184091D01*
X34614907Y-45158943D01*
X34682329Y-45133797D01*
X34682329Y-45133796D01*
X34682331Y-45133796D01*
X34780672Y-45060177D01*
X34838585Y-45040441D01*
X34897040Y-45058515D01*
X34899300Y-45060157D01*
X34969698Y-45112857D01*
X34997670Y-45133797D01*
X35132511Y-45184089D01*
X35132512Y-45184089D01*
X35132517Y-45184091D01*
X35192127Y-45190500D01*
X37797872Y-45190499D01*
X37857483Y-45184091D01*
X37924907Y-45158943D01*
X37992329Y-45133797D01*
X37992329Y-45133796D01*
X37992331Y-45133796D01*
X38107546Y-45047546D01*
X38193796Y-44932331D01*
X38244091Y-44797483D01*
X38250500Y-44737873D01*
X38250499Y-43642128D01*
X38244091Y-43582517D01*
X38244089Y-43582511D01*
X38193797Y-43447670D01*
X38107549Y-43332458D01*
X38107548Y-43332457D01*
X38107546Y-43332454D01*
X38090671Y-43319821D01*
X37992329Y-43246202D01*
X37857488Y-43195910D01*
X37857483Y-43195909D01*
X37857481Y-43195908D01*
X37857477Y-43195908D01*
X37826249Y-43192550D01*
X37797873Y-43189500D01*
X37797870Y-43189500D01*
X35192133Y-43189500D01*
X35192129Y-43189500D01*
X35192128Y-43189501D01*
X35184949Y-43190272D01*
X35132519Y-43195908D01*
X35132514Y-43195909D01*
X34997670Y-43246202D01*
X34899329Y-43319821D01*
X34841414Y-43339558D01*
X34782959Y-43321484D01*
X34780671Y-43319821D01*
X34682329Y-43246202D01*
X34547488Y-43195910D01*
X34547483Y-43195909D01*
X34547481Y-43195908D01*
X34547477Y-43195908D01*
X34516249Y-43192550D01*
X34487873Y-43189500D01*
X34487870Y-43189500D01*
X31882133Y-43189500D01*
X31882129Y-43189500D01*
X31882128Y-43189501D01*
X31874949Y-43190272D01*
X31822519Y-43195908D01*
X31822514Y-43195909D01*
X31687670Y-43246202D01*
X31572458Y-43332450D01*
X31572450Y-43332458D01*
X31486202Y-43447670D01*
X31435910Y-43582511D01*
X31435908Y-43582522D01*
X31429500Y-43642129D01*
X21500500Y-43642129D01*
X21500500Y-41102129D01*
X31429500Y-41102129D01*
X31429500Y-42197866D01*
X31429501Y-42197870D01*
X31435908Y-42257480D01*
X31435909Y-42257485D01*
X31486202Y-42392329D01*
X31572450Y-42507541D01*
X31572454Y-42507546D01*
X31572457Y-42507548D01*
X31572458Y-42507549D01*
X31687670Y-42593797D01*
X31822511Y-42644089D01*
X31822512Y-42644089D01*
X31822517Y-42644091D01*
X31882127Y-42650500D01*
X34487872Y-42650499D01*
X34547483Y-42644091D01*
X34614907Y-42618943D01*
X34682329Y-42593797D01*
X34682329Y-42593796D01*
X34682331Y-42593796D01*
X34780672Y-42520177D01*
X34838585Y-42500441D01*
X34897040Y-42518515D01*
X34899300Y-42520157D01*
X34917704Y-42533934D01*
X34997670Y-42593797D01*
X35132511Y-42644089D01*
X35132512Y-42644089D01*
X35132517Y-42644091D01*
X35192127Y-42650500D01*
X37797872Y-42650499D01*
X37857483Y-42644091D01*
X37924907Y-42618943D01*
X37992329Y-42593797D01*
X37992329Y-42593796D01*
X37992331Y-42593796D01*
X38107546Y-42507546D01*
X38193796Y-42392331D01*
X38199970Y-42375779D01*
X38244089Y-42257488D01*
X38244090Y-42257485D01*
X38244091Y-42257483D01*
X38250500Y-42197873D01*
X38250499Y-41102128D01*
X38244091Y-41042517D01*
X38244089Y-41042511D01*
X38193797Y-40907670D01*
X38107549Y-40792458D01*
X38107548Y-40792457D01*
X38107546Y-40792454D01*
X38090671Y-40779821D01*
X37992329Y-40706202D01*
X37857488Y-40655910D01*
X37857483Y-40655909D01*
X37857481Y-40655908D01*
X37857477Y-40655908D01*
X37826249Y-40652550D01*
X37797873Y-40649500D01*
X37797870Y-40649500D01*
X35192133Y-40649500D01*
X35192129Y-40649500D01*
X35192128Y-40649501D01*
X35184949Y-40650272D01*
X35132519Y-40655908D01*
X35132514Y-40655909D01*
X34997670Y-40706202D01*
X34899329Y-40779821D01*
X34841414Y-40799558D01*
X34782959Y-40781484D01*
X34780671Y-40779821D01*
X34682329Y-40706202D01*
X34547488Y-40655910D01*
X34547483Y-40655909D01*
X34547481Y-40655908D01*
X34547477Y-40655908D01*
X34516249Y-40652550D01*
X34487873Y-40649500D01*
X34487870Y-40649500D01*
X31882133Y-40649500D01*
X31882129Y-40649500D01*
X31882128Y-40649501D01*
X31874949Y-40650272D01*
X31822519Y-40655908D01*
X31822514Y-40655909D01*
X31687670Y-40706202D01*
X31572458Y-40792450D01*
X31572450Y-40792458D01*
X31486202Y-40907670D01*
X31435910Y-41042511D01*
X31435908Y-41042522D01*
X31429500Y-41102129D01*
X21500500Y-41102129D01*
X21500500Y-38847824D01*
X22549999Y-38847824D01*
X22556401Y-38907370D01*
X22556403Y-38907381D01*
X22606646Y-39042088D01*
X22606647Y-39042090D01*
X22692807Y-39157184D01*
X22692815Y-39157192D01*
X22807909Y-39243352D01*
X22807911Y-39243353D01*
X22942618Y-39293596D01*
X22942629Y-39293598D01*
X23002176Y-39300000D01*
X23499999Y-39300000D01*
X23500000Y-39299999D01*
X23500000Y-38250001D01*
X24000000Y-38250001D01*
X24000000Y-39299999D01*
X24000001Y-39300000D01*
X24497824Y-39300000D01*
X24557370Y-39293598D01*
X24557381Y-39293596D01*
X24692088Y-39243353D01*
X24692090Y-39243352D01*
X24807184Y-39157192D01*
X24807192Y-39157184D01*
X24893352Y-39042090D01*
X24893353Y-39042088D01*
X24943596Y-38907381D01*
X24943598Y-38907370D01*
X24950000Y-38847824D01*
X24950000Y-38250001D01*
X24949999Y-38250000D01*
X24000001Y-38250000D01*
X24000000Y-38250001D01*
X23500000Y-38250001D01*
X23499999Y-38250000D01*
X22550001Y-38250000D01*
X22550000Y-38250001D01*
X22550000Y-38847824D01*
X22549999Y-38847824D01*
X21500500Y-38847824D01*
X21500500Y-37152175D01*
X22550000Y-37152175D01*
X22550000Y-37749999D01*
X22550001Y-37750000D01*
X23499999Y-37750000D01*
X23500000Y-37749999D01*
X23500000Y-36700001D01*
X24000000Y-36700001D01*
X24000000Y-37749999D01*
X24000001Y-37750000D01*
X24949999Y-37750000D01*
X24950000Y-37749999D01*
X24950000Y-37152175D01*
X24943598Y-37092629D01*
X24943596Y-37092618D01*
X24893353Y-36957911D01*
X24893352Y-36957909D01*
X24807192Y-36842815D01*
X24807184Y-36842807D01*
X24692090Y-36756647D01*
X24692088Y-36756646D01*
X24557381Y-36706403D01*
X24557370Y-36706401D01*
X24497824Y-36700000D01*
X24000001Y-36700000D01*
X24000000Y-36700001D01*
X23500000Y-36700001D01*
X23499999Y-36700000D01*
X23002176Y-36700000D01*
X22942629Y-36706401D01*
X22942618Y-36706403D01*
X22807911Y-36756646D01*
X22807909Y-36756647D01*
X22692815Y-36842807D01*
X22692807Y-36842815D01*
X22606647Y-36957909D01*
X22606646Y-36957911D01*
X22556403Y-37092618D01*
X22556401Y-37092629D01*
X22550000Y-37152175D01*
X21500500Y-37152175D01*
X21500500Y-30847824D01*
X22549999Y-30847824D01*
X22556401Y-30907370D01*
X22556403Y-30907381D01*
X22606646Y-31042088D01*
X22606647Y-31042090D01*
X22692807Y-31157184D01*
X22692815Y-31157192D01*
X22807909Y-31243352D01*
X22807911Y-31243353D01*
X22942618Y-31293596D01*
X22942629Y-31293598D01*
X23002176Y-31300000D01*
X23499999Y-31300000D01*
X23500000Y-31299999D01*
X23500000Y-30250001D01*
X24000000Y-30250001D01*
X24000000Y-31299999D01*
X24000001Y-31300000D01*
X24497824Y-31300000D01*
X24557370Y-31293598D01*
X24557381Y-31293596D01*
X24692088Y-31243353D01*
X24692090Y-31243352D01*
X24807184Y-31157192D01*
X24807192Y-31157184D01*
X24893352Y-31042090D01*
X24893353Y-31042088D01*
X24943596Y-30907381D01*
X24943598Y-30907370D01*
X24950000Y-30847824D01*
X24950000Y-30250001D01*
X24949999Y-30250000D01*
X24000001Y-30250000D01*
X24000000Y-30250001D01*
X23500000Y-30250001D01*
X23499999Y-30250000D01*
X22550001Y-30250000D01*
X22550000Y-30250001D01*
X22550000Y-30847824D01*
X22549999Y-30847824D01*
X21500500Y-30847824D01*
X21500500Y-29152175D01*
X22550000Y-29152175D01*
X22550000Y-29749999D01*
X22550001Y-29750000D01*
X23499999Y-29750000D01*
X23500000Y-29749999D01*
X23500000Y-28700001D01*
X24000000Y-28700001D01*
X24000000Y-29749999D01*
X24000001Y-29750000D01*
X24949999Y-29750000D01*
X24950000Y-29749999D01*
X24950000Y-29152175D01*
X24949995Y-29152129D01*
X27049500Y-29152129D01*
X27049500Y-30847866D01*
X27049501Y-30847870D01*
X27055908Y-30907480D01*
X27055909Y-30907485D01*
X27106202Y-31042329D01*
X27192183Y-31157184D01*
X27192454Y-31157546D01*
X27192457Y-31157548D01*
X27192458Y-31157549D01*
X27307670Y-31243797D01*
X27442511Y-31294089D01*
X27442512Y-31294089D01*
X27442517Y-31294091D01*
X27502127Y-31300500D01*
X27550500Y-31300499D01*
X27608689Y-31319405D01*
X27644654Y-31368904D01*
X27649500Y-31399499D01*
X27649500Y-36600500D01*
X27630593Y-36658691D01*
X27581093Y-36694655D01*
X27550502Y-36699500D01*
X27502132Y-36699500D01*
X27502128Y-36699501D01*
X27442519Y-36705908D01*
X27442514Y-36705909D01*
X27307670Y-36756202D01*
X27192458Y-36842450D01*
X27192450Y-36842458D01*
X27106202Y-36957670D01*
X27055910Y-37092511D01*
X27055908Y-37092522D01*
X27049500Y-37152129D01*
X27049500Y-38847866D01*
X27049501Y-38847870D01*
X27055908Y-38907480D01*
X27055909Y-38907485D01*
X27106202Y-39042329D01*
X27192183Y-39157184D01*
X27192454Y-39157546D01*
X27192457Y-39157548D01*
X27192458Y-39157549D01*
X27307670Y-39243797D01*
X27442511Y-39294089D01*
X27442512Y-39294089D01*
X27442517Y-39294091D01*
X27502127Y-39300500D01*
X28997872Y-39300499D01*
X29057483Y-39294091D01*
X29124907Y-39268943D01*
X29192329Y-39243797D01*
X29192329Y-39243796D01*
X29192331Y-39243796D01*
X29307546Y-39157546D01*
X29393796Y-39042331D01*
X29444091Y-38907483D01*
X29450500Y-38847873D01*
X29450499Y-38614587D01*
X29456793Y-38595216D01*
X29458781Y-38574950D01*
X29466002Y-38566873D01*
X29467544Y-38562129D01*
X31429500Y-38562129D01*
X31429500Y-39657866D01*
X31429501Y-39657870D01*
X31435908Y-39717480D01*
X31435909Y-39717485D01*
X31486202Y-39852329D01*
X31529999Y-39910834D01*
X31572454Y-39967546D01*
X31572457Y-39967548D01*
X31572458Y-39967549D01*
X31687670Y-40053797D01*
X31822511Y-40104089D01*
X31822512Y-40104089D01*
X31822517Y-40104091D01*
X31882127Y-40110500D01*
X34487872Y-40110499D01*
X34547483Y-40104091D01*
X34614907Y-40078943D01*
X34682329Y-40053797D01*
X34682329Y-40053796D01*
X34682331Y-40053796D01*
X34780672Y-39980177D01*
X34838585Y-39960441D01*
X34897040Y-39978515D01*
X34899300Y-39980157D01*
X34969698Y-40032857D01*
X34997670Y-40053797D01*
X35132511Y-40104089D01*
X35132512Y-40104089D01*
X35132517Y-40104091D01*
X35192127Y-40110500D01*
X37797872Y-40110499D01*
X37857483Y-40104091D01*
X37924907Y-40078943D01*
X37992329Y-40053797D01*
X37992329Y-40053796D01*
X37992331Y-40053796D01*
X38107546Y-39967546D01*
X38193796Y-39852331D01*
X38244091Y-39717483D01*
X38250500Y-39657873D01*
X38250499Y-38562128D01*
X38244091Y-38502517D01*
X38194187Y-38368716D01*
X38193797Y-38367670D01*
X38107549Y-38252458D01*
X38107548Y-38252457D01*
X38107546Y-38252454D01*
X38107541Y-38252450D01*
X37992329Y-38166202D01*
X37857488Y-38115910D01*
X37857483Y-38115909D01*
X37857481Y-38115908D01*
X37857477Y-38115908D01*
X37826249Y-38112550D01*
X37797873Y-38109500D01*
X37797870Y-38109500D01*
X35192133Y-38109500D01*
X35192129Y-38109500D01*
X35192128Y-38109501D01*
X35184949Y-38110272D01*
X35132519Y-38115908D01*
X35132514Y-38115909D01*
X34997670Y-38166202D01*
X34899329Y-38239821D01*
X34841414Y-38259558D01*
X34782959Y-38241484D01*
X34780671Y-38239821D01*
X34682329Y-38166202D01*
X34547488Y-38115910D01*
X34547483Y-38115909D01*
X34547481Y-38115908D01*
X34547477Y-38115908D01*
X34516249Y-38112550D01*
X34487873Y-38109500D01*
X34487870Y-38109500D01*
X31882133Y-38109500D01*
X31882129Y-38109500D01*
X31882128Y-38109501D01*
X31874949Y-38110272D01*
X31822519Y-38115908D01*
X31822514Y-38115909D01*
X31687670Y-38166202D01*
X31572458Y-38252450D01*
X31572450Y-38252458D01*
X31486202Y-38367670D01*
X31435910Y-38502511D01*
X31435908Y-38502522D01*
X31429500Y-38562129D01*
X29467544Y-38562129D01*
X29469406Y-38556398D01*
X29499405Y-38529197D01*
X29499608Y-38529077D01*
X29583716Y-38480520D01*
X29695520Y-38368716D01*
X29695521Y-38368713D01*
X31260498Y-36803735D01*
X31315013Y-36775960D01*
X31375445Y-36785531D01*
X31418710Y-36828796D01*
X31429500Y-36873741D01*
X31429500Y-37117866D01*
X31429501Y-37117870D01*
X31435908Y-37177480D01*
X31435909Y-37177485D01*
X31486202Y-37312329D01*
X31529999Y-37370834D01*
X31572454Y-37427546D01*
X31572457Y-37427548D01*
X31572458Y-37427549D01*
X31687670Y-37513797D01*
X31822511Y-37564089D01*
X31822512Y-37564089D01*
X31822517Y-37564091D01*
X31882127Y-37570500D01*
X34487872Y-37570499D01*
X34547483Y-37564091D01*
X34614907Y-37538943D01*
X34682329Y-37513797D01*
X34682329Y-37513796D01*
X34682331Y-37513796D01*
X34780672Y-37440177D01*
X34838585Y-37420441D01*
X34897040Y-37438515D01*
X34899300Y-37440157D01*
X34969698Y-37492857D01*
X34997670Y-37513797D01*
X35132511Y-37564089D01*
X35132512Y-37564089D01*
X35132517Y-37564091D01*
X35192127Y-37570500D01*
X37797872Y-37570499D01*
X37857483Y-37564091D01*
X37924907Y-37538943D01*
X37992329Y-37513797D01*
X37992329Y-37513796D01*
X37992331Y-37513796D01*
X38107546Y-37427546D01*
X38193796Y-37312331D01*
X38244091Y-37177483D01*
X38250500Y-37117873D01*
X38250499Y-36022128D01*
X38244091Y-35962517D01*
X38244089Y-35962511D01*
X38193797Y-35827670D01*
X38107549Y-35712458D01*
X38107548Y-35712457D01*
X38107546Y-35712454D01*
X38033153Y-35656763D01*
X37992329Y-35626202D01*
X37857488Y-35575910D01*
X37857483Y-35575909D01*
X37857481Y-35575908D01*
X37857477Y-35575908D01*
X37826249Y-35572550D01*
X37797873Y-35569500D01*
X37797870Y-35569500D01*
X35192133Y-35569500D01*
X35192129Y-35569500D01*
X35192128Y-35569501D01*
X35184949Y-35570272D01*
X35132519Y-35575908D01*
X35132514Y-35575909D01*
X34997670Y-35626202D01*
X34899329Y-35699821D01*
X34841414Y-35719558D01*
X34782959Y-35701484D01*
X34780671Y-35699821D01*
X34682329Y-35626202D01*
X34547488Y-35575910D01*
X34547483Y-35575909D01*
X34547481Y-35575908D01*
X34547477Y-35575908D01*
X34516249Y-35572550D01*
X34487873Y-35569500D01*
X34487870Y-35569500D01*
X32733742Y-35569500D01*
X32675551Y-35550593D01*
X32639587Y-35501093D01*
X32639587Y-35439907D01*
X32663738Y-35400496D01*
X33004739Y-35059495D01*
X33059256Y-35031718D01*
X33074743Y-35030499D01*
X34487867Y-35030499D01*
X34487872Y-35030499D01*
X34547483Y-35024091D01*
X34614907Y-34998943D01*
X34682329Y-34973797D01*
X34682329Y-34973796D01*
X34682331Y-34973796D01*
X34780672Y-34900177D01*
X34838585Y-34880441D01*
X34897040Y-34898515D01*
X34899300Y-34900157D01*
X34969698Y-34952857D01*
X34997670Y-34973797D01*
X35132511Y-35024089D01*
X35132512Y-35024089D01*
X35132517Y-35024091D01*
X35192127Y-35030500D01*
X37797872Y-35030499D01*
X37857483Y-35024091D01*
X37924907Y-34998943D01*
X37992329Y-34973797D01*
X37992329Y-34973796D01*
X37992331Y-34973796D01*
X38107546Y-34887546D01*
X38193796Y-34772331D01*
X38244091Y-34637483D01*
X38250500Y-34577873D01*
X38250499Y-33482128D01*
X38244091Y-33422517D01*
X38235879Y-33400500D01*
X38193797Y-33287670D01*
X38107549Y-33172458D01*
X38107548Y-33172457D01*
X38107546Y-33172454D01*
X38090671Y-33159821D01*
X37992329Y-33086202D01*
X37857488Y-33035910D01*
X37857483Y-33035909D01*
X37857481Y-33035908D01*
X37857477Y-33035908D01*
X37826249Y-33032550D01*
X37797873Y-33029500D01*
X37797870Y-33029500D01*
X35192133Y-33029500D01*
X35192129Y-33029500D01*
X35192128Y-33029501D01*
X35184949Y-33030272D01*
X35132519Y-33035908D01*
X35132514Y-33035909D01*
X34997670Y-33086202D01*
X34899329Y-33159821D01*
X34841414Y-33179558D01*
X34782959Y-33161484D01*
X34780671Y-33159821D01*
X34682329Y-33086202D01*
X34547488Y-33035910D01*
X34547483Y-33035909D01*
X34547481Y-33035908D01*
X34547477Y-33035908D01*
X34516249Y-33032550D01*
X34487873Y-33029500D01*
X34487870Y-33029500D01*
X31882133Y-33029500D01*
X31882129Y-33029500D01*
X31882128Y-33029501D01*
X31874949Y-33030272D01*
X31822519Y-33035908D01*
X31822514Y-33035909D01*
X31687670Y-33086202D01*
X31572458Y-33172450D01*
X31572450Y-33172458D01*
X31486202Y-33287670D01*
X31435910Y-33422511D01*
X31435908Y-33422522D01*
X31429500Y-33482129D01*
X31429500Y-34577866D01*
X31429501Y-34577870D01*
X31435908Y-34637480D01*
X31435909Y-34637485D01*
X31486203Y-34772332D01*
X31488559Y-34776646D01*
X31499850Y-34836781D01*
X31473638Y-34892067D01*
X31471671Y-34894092D01*
X29480705Y-36885058D01*
X29426188Y-36912835D01*
X29365756Y-36903264D01*
X29331448Y-36874383D01*
X29307549Y-36842458D01*
X29307548Y-36842457D01*
X29307546Y-36842454D01*
X29307541Y-36842450D01*
X29192329Y-36756202D01*
X29057488Y-36705910D01*
X29057483Y-36705909D01*
X29057481Y-36705908D01*
X29057477Y-36705908D01*
X29026249Y-36702550D01*
X28997873Y-36699500D01*
X28997870Y-36699500D01*
X28949500Y-36699500D01*
X28891309Y-36680593D01*
X28855345Y-36631093D01*
X28850500Y-36600500D01*
X28850500Y-31399499D01*
X28869407Y-31341308D01*
X28918907Y-31305344D01*
X28949500Y-31300499D01*
X28997867Y-31300499D01*
X28997872Y-31300499D01*
X29057483Y-31294091D01*
X29124907Y-31268943D01*
X29192329Y-31243797D01*
X29192329Y-31243796D01*
X29192331Y-31243796D01*
X29307546Y-31157546D01*
X29393796Y-31042331D01*
X29431169Y-30942129D01*
X31429500Y-30942129D01*
X31429500Y-32037866D01*
X31429501Y-32037870D01*
X31435908Y-32097480D01*
X31435909Y-32097485D01*
X31486202Y-32232329D01*
X31529999Y-32290834D01*
X31572454Y-32347546D01*
X31572457Y-32347548D01*
X31572458Y-32347549D01*
X31687670Y-32433797D01*
X31822511Y-32484089D01*
X31822512Y-32484089D01*
X31822517Y-32484091D01*
X31882127Y-32490500D01*
X34487872Y-32490499D01*
X34547483Y-32484091D01*
X34614907Y-32458943D01*
X34682329Y-32433797D01*
X34682329Y-32433796D01*
X34682331Y-32433796D01*
X34780672Y-32360177D01*
X34838585Y-32340441D01*
X34897040Y-32358515D01*
X34899300Y-32360157D01*
X34969698Y-32412857D01*
X34997670Y-32433797D01*
X35132511Y-32484089D01*
X35132512Y-32484089D01*
X35132517Y-32484091D01*
X35192127Y-32490500D01*
X37797872Y-32490499D01*
X37857483Y-32484091D01*
X37924907Y-32458943D01*
X37992329Y-32433797D01*
X37992329Y-32433796D01*
X37992331Y-32433796D01*
X38107546Y-32347546D01*
X38193796Y-32232331D01*
X38198897Y-32218656D01*
X38244089Y-32097488D01*
X38244090Y-32097485D01*
X38244091Y-32097483D01*
X38250500Y-32037873D01*
X38250499Y-30942128D01*
X38244091Y-30882517D01*
X38231170Y-30847873D01*
X38193797Y-30747670D01*
X38107549Y-30632458D01*
X38107548Y-30632457D01*
X38107546Y-30632454D01*
X38090671Y-30619821D01*
X37992329Y-30546202D01*
X37857488Y-30495910D01*
X37857483Y-30495909D01*
X37857481Y-30495908D01*
X37857477Y-30495908D01*
X37826249Y-30492550D01*
X37797873Y-30489500D01*
X37797870Y-30489500D01*
X35192133Y-30489500D01*
X35192129Y-30489500D01*
X35192128Y-30489501D01*
X35184949Y-30490272D01*
X35132519Y-30495908D01*
X35132514Y-30495909D01*
X34997670Y-30546202D01*
X34899329Y-30619821D01*
X34841414Y-30639558D01*
X34782959Y-30621484D01*
X34780671Y-30619821D01*
X34682329Y-30546202D01*
X34547488Y-30495910D01*
X34547483Y-30495909D01*
X34547481Y-30495908D01*
X34547477Y-30495908D01*
X34516249Y-30492550D01*
X34487873Y-30489500D01*
X34487870Y-30489500D01*
X31882133Y-30489500D01*
X31882129Y-30489500D01*
X31882128Y-30489501D01*
X31874949Y-30490272D01*
X31822519Y-30495908D01*
X31822514Y-30495909D01*
X31687670Y-30546202D01*
X31572458Y-30632450D01*
X31572450Y-30632458D01*
X31486202Y-30747670D01*
X31435910Y-30882511D01*
X31435908Y-30882522D01*
X31429500Y-30942129D01*
X29431169Y-30942129D01*
X29444091Y-30907483D01*
X29450500Y-30847873D01*
X29450499Y-29152128D01*
X29444091Y-29092517D01*
X29402892Y-28982056D01*
X29393797Y-28957670D01*
X29307549Y-28842458D01*
X29307548Y-28842457D01*
X29307546Y-28842454D01*
X29307541Y-28842450D01*
X29192329Y-28756202D01*
X29057488Y-28705910D01*
X29057483Y-28705909D01*
X29057481Y-28705908D01*
X29057477Y-28705908D01*
X29026249Y-28702550D01*
X28997873Y-28699500D01*
X28997870Y-28699500D01*
X27502133Y-28699500D01*
X27502129Y-28699500D01*
X27502128Y-28699501D01*
X27497486Y-28700000D01*
X27442519Y-28705908D01*
X27442514Y-28705909D01*
X27307670Y-28756202D01*
X27192458Y-28842450D01*
X27192450Y-28842458D01*
X27106202Y-28957670D01*
X27055910Y-29092511D01*
X27055908Y-29092522D01*
X27049500Y-29152129D01*
X24949995Y-29152129D01*
X24943598Y-29092629D01*
X24943596Y-29092618D01*
X24893353Y-28957911D01*
X24893352Y-28957909D01*
X24807192Y-28842815D01*
X24807184Y-28842807D01*
X24692090Y-28756647D01*
X24692088Y-28756646D01*
X24557381Y-28706403D01*
X24557370Y-28706401D01*
X24497824Y-28700000D01*
X24000001Y-28700000D01*
X24000000Y-28700001D01*
X23500000Y-28700001D01*
X23499999Y-28700000D01*
X23002176Y-28700000D01*
X22942629Y-28706401D01*
X22942618Y-28706403D01*
X22807911Y-28756646D01*
X22807909Y-28756647D01*
X22692815Y-28842807D01*
X22692807Y-28842815D01*
X22606647Y-28957909D01*
X22606646Y-28957911D01*
X22556403Y-29092618D01*
X22556401Y-29092629D01*
X22550000Y-29152175D01*
X21500500Y-29152175D01*
X21500500Y-28402129D01*
X31429500Y-28402129D01*
X31429500Y-29497866D01*
X31429501Y-29497870D01*
X31435908Y-29557480D01*
X31435909Y-29557485D01*
X31486202Y-29692329D01*
X31529374Y-29749999D01*
X31572454Y-29807546D01*
X31572457Y-29807548D01*
X31572458Y-29807549D01*
X31687670Y-29893797D01*
X31822511Y-29944089D01*
X31822512Y-29944089D01*
X31822517Y-29944091D01*
X31882127Y-29950500D01*
X34487872Y-29950499D01*
X34547483Y-29944091D01*
X34614907Y-29918943D01*
X34682329Y-29893797D01*
X34682329Y-29893796D01*
X34682331Y-29893796D01*
X34780672Y-29820177D01*
X34838585Y-29800441D01*
X34897040Y-29818515D01*
X34899300Y-29820157D01*
X34969698Y-29872857D01*
X34997670Y-29893797D01*
X35132511Y-29944089D01*
X35132512Y-29944089D01*
X35132517Y-29944091D01*
X35192127Y-29950500D01*
X37797872Y-29950499D01*
X37857483Y-29944091D01*
X37924907Y-29918943D01*
X37992329Y-29893797D01*
X37992329Y-29893796D01*
X37992331Y-29893796D01*
X38107546Y-29807546D01*
X38193796Y-29692331D01*
X38244091Y-29557483D01*
X38250500Y-29497873D01*
X38250499Y-28402128D01*
X38244091Y-28342517D01*
X38238744Y-28328181D01*
X38193797Y-28207670D01*
X38107549Y-28092458D01*
X38107548Y-28092457D01*
X38107546Y-28092454D01*
X38079853Y-28071723D01*
X37992329Y-28006202D01*
X37857488Y-27955910D01*
X37857483Y-27955909D01*
X37857481Y-27955908D01*
X37857477Y-27955908D01*
X37826249Y-27952550D01*
X37797873Y-27949500D01*
X37797870Y-27949500D01*
X35192133Y-27949500D01*
X35192129Y-27949500D01*
X35192128Y-27949501D01*
X35184949Y-27950272D01*
X35132519Y-27955908D01*
X35132514Y-27955909D01*
X34997670Y-28006202D01*
X34899329Y-28079821D01*
X34841414Y-28099558D01*
X34782959Y-28081484D01*
X34780671Y-28079821D01*
X34682329Y-28006202D01*
X34547488Y-27955910D01*
X34547483Y-27955909D01*
X34547481Y-27955908D01*
X34547477Y-27955908D01*
X34516249Y-27952550D01*
X34487873Y-27949500D01*
X34487870Y-27949500D01*
X31882133Y-27949500D01*
X31882129Y-27949500D01*
X31882128Y-27949501D01*
X31874949Y-27950272D01*
X31822519Y-27955908D01*
X31822514Y-27955909D01*
X31687670Y-28006202D01*
X31572458Y-28092450D01*
X31572450Y-28092458D01*
X31486202Y-28207670D01*
X31435910Y-28342511D01*
X31435908Y-28342522D01*
X31429500Y-28402129D01*
X21500500Y-28402129D01*
X21500500Y-27250001D01*
X61500001Y-27250001D01*
X61500001Y-27799986D01*
X61510492Y-27902687D01*
X61510495Y-27902699D01*
X61565643Y-28069124D01*
X61657680Y-28218340D01*
X61781659Y-28342319D01*
X61930875Y-28434356D01*
X62097306Y-28489506D01*
X62200012Y-28499999D01*
X63499998Y-28499999D01*
X63500000Y-28499998D01*
X63500000Y-27250001D01*
X64000000Y-27250001D01*
X64000000Y-28499998D01*
X64000001Y-28499999D01*
X65299986Y-28499999D01*
X65402687Y-28489507D01*
X65402699Y-28489504D01*
X65569124Y-28434356D01*
X65718340Y-28342319D01*
X65842319Y-28218340D01*
X65934356Y-28069124D01*
X65989506Y-27902693D01*
X66000000Y-27799987D01*
X66000000Y-27250001D01*
X69500001Y-27250001D01*
X69500001Y-27799986D01*
X69510492Y-27902687D01*
X69510495Y-27902699D01*
X69565643Y-28069124D01*
X69657680Y-28218340D01*
X69781659Y-28342319D01*
X69930875Y-28434356D01*
X70097306Y-28489506D01*
X70200012Y-28499999D01*
X72749998Y-28499999D01*
X72750000Y-28499998D01*
X72750000Y-27250001D01*
X73250000Y-27250001D01*
X73250000Y-28499998D01*
X73250001Y-28499999D01*
X75799986Y-28499999D01*
X75902687Y-28489507D01*
X75902699Y-28489504D01*
X76069124Y-28434356D01*
X76218340Y-28342319D01*
X76342319Y-28218340D01*
X76434356Y-28069124D01*
X76489506Y-27902693D01*
X76500000Y-27799987D01*
X76500000Y-27250001D01*
X76499999Y-27250000D01*
X73250001Y-27250000D01*
X73250000Y-27250001D01*
X72750000Y-27250001D01*
X72749999Y-27250000D01*
X69500002Y-27250000D01*
X69500001Y-27250001D01*
X66000000Y-27250001D01*
X65999999Y-27250000D01*
X64000001Y-27250000D01*
X64000000Y-27250001D01*
X63500000Y-27250001D01*
X63499999Y-27250000D01*
X61500002Y-27250000D01*
X61500001Y-27250001D01*
X21500500Y-27250001D01*
X21500500Y-26200012D01*
X61500000Y-26200012D01*
X61500000Y-26749999D01*
X61500001Y-26750000D01*
X63499999Y-26750000D01*
X63500000Y-26749999D01*
X63500000Y-25500001D01*
X64000000Y-25500001D01*
X64000000Y-26749999D01*
X64000001Y-26750000D01*
X65999998Y-26750000D01*
X65999999Y-26749999D01*
X65999999Y-26200013D01*
X65999999Y-26200012D01*
X69500000Y-26200012D01*
X69500000Y-26749999D01*
X69500001Y-26750000D01*
X72749999Y-26750000D01*
X72750000Y-26749999D01*
X72750000Y-25500001D01*
X73250000Y-25500001D01*
X73250000Y-26749999D01*
X73250001Y-26750000D01*
X76499998Y-26750000D01*
X76499999Y-26749999D01*
X76499999Y-26200013D01*
X76489507Y-26097312D01*
X76489504Y-26097300D01*
X76434356Y-25930875D01*
X76342319Y-25781659D01*
X76218340Y-25657680D01*
X76069124Y-25565643D01*
X75902693Y-25510493D01*
X75799987Y-25500000D01*
X73250001Y-25500000D01*
X73250000Y-25500001D01*
X72750000Y-25500001D01*
X72749999Y-25500000D01*
X70200013Y-25500000D01*
X70097312Y-25510492D01*
X70097300Y-25510495D01*
X69930875Y-25565643D01*
X69781659Y-25657680D01*
X69657680Y-25781659D01*
X69565643Y-25930875D01*
X69510493Y-26097306D01*
X69500000Y-26200012D01*
X65999999Y-26200012D01*
X65989507Y-26097312D01*
X65989504Y-26097300D01*
X65934356Y-25930875D01*
X65842319Y-25781659D01*
X65718340Y-25657680D01*
X65569124Y-25565643D01*
X65402693Y-25510493D01*
X65299987Y-25500000D01*
X64000001Y-25500000D01*
X64000000Y-25500001D01*
X63500000Y-25500001D01*
X63499999Y-25500000D01*
X62200013Y-25500000D01*
X62097312Y-25510492D01*
X62097300Y-25510495D01*
X61930875Y-25565643D01*
X61781659Y-25657680D01*
X61657680Y-25781659D01*
X61565643Y-25930875D01*
X61510493Y-26097306D01*
X61500000Y-26200012D01*
X21500500Y-26200012D01*
X21500500Y-24002984D01*
X21500681Y-23997007D01*
X21518362Y-23704696D01*
X21518363Y-23704695D01*
X21518362Y-23704688D01*
X21519801Y-23692837D01*
X21572052Y-23407714D01*
X21574912Y-23396113D01*
X21661148Y-23119370D01*
X21665378Y-23108218D01*
X21784350Y-22843873D01*
X21789899Y-22833302D01*
X21939861Y-22585233D01*
X21946632Y-22575423D01*
X22125406Y-22347235D01*
X22133318Y-22338303D01*
X22338303Y-22133318D01*
X22347235Y-22125406D01*
X22575423Y-21946632D01*
X22585233Y-21939861D01*
X22833302Y-21789899D01*
X22843873Y-21784350D01*
X23108218Y-21665378D01*
X23119370Y-21661148D01*
X23396120Y-21574910D01*
X23407714Y-21572052D01*
X23692837Y-21519801D01*
X23704688Y-21518362D01*
X23997008Y-21500681D01*
X24002985Y-21500500D01*
X24065892Y-21500500D01*
X75934108Y-21500500D01*
X75997015Y-21500500D01*
X76002992Y-21500681D01*
G37*
G04 #@! TD.AperFunction*
G04 #@! TA.AperFunction,Conductor*
G36*
X78433547Y-42040437D02*
G01*
X78482089Y-42077684D01*
X78499500Y-42133758D01*
X78499500Y-73997015D01*
X78499319Y-74002993D01*
X78481637Y-74295304D01*
X78480196Y-74307171D01*
X78427948Y-74592278D01*
X78425087Y-74603886D01*
X78338855Y-74880615D01*
X78334616Y-74891793D01*
X78215652Y-75156119D01*
X78210096Y-75166704D01*
X78060147Y-75414751D01*
X78053356Y-75424590D01*
X77874600Y-75652755D01*
X77866673Y-75661704D01*
X77661704Y-75866673D01*
X77652755Y-75874600D01*
X77424590Y-76053356D01*
X77414751Y-76060147D01*
X77166704Y-76210096D01*
X77156119Y-76215652D01*
X76891793Y-76334616D01*
X76880615Y-76338855D01*
X76603886Y-76425087D01*
X76592278Y-76427948D01*
X76307171Y-76480196D01*
X76295304Y-76481637D01*
X76023993Y-76498048D01*
X76002991Y-76499319D01*
X75997015Y-76499500D01*
X66133758Y-76499500D01*
X66075567Y-76480593D01*
X66039603Y-76431093D01*
X66039603Y-76369907D01*
X66073488Y-76321960D01*
X66150944Y-76262526D01*
X66200655Y-76218929D01*
X66218929Y-76200655D01*
X66262526Y-76150944D01*
X66326118Y-76068070D01*
X66362857Y-76013085D01*
X66375779Y-75990703D01*
X66405022Y-75931403D01*
X66444996Y-75834897D01*
X66466251Y-75772283D01*
X66472940Y-75747319D01*
X66485839Y-75682469D01*
X66500328Y-75572415D01*
X66503571Y-75539496D01*
X66504418Y-75526574D01*
X66505500Y-75493511D01*
X66505500Y-75305168D01*
X66524407Y-75246977D01*
X66573907Y-75211013D01*
X66635093Y-75211013D01*
X66674504Y-75235164D01*
X66781659Y-75342319D01*
X66930875Y-75434356D01*
X67097306Y-75489506D01*
X67200012Y-75499999D01*
X67749998Y-75499999D01*
X67750000Y-75499998D01*
X67750000Y-72250001D01*
X68250000Y-72250001D01*
X68250000Y-75499998D01*
X68250001Y-75499999D01*
X68799986Y-75499999D01*
X68902687Y-75489507D01*
X68902699Y-75489504D01*
X69069124Y-75434356D01*
X69218340Y-75342319D01*
X69342319Y-75218340D01*
X69434356Y-75069124D01*
X69489506Y-74902693D01*
X69500000Y-74799987D01*
X69500000Y-72250001D01*
X69499999Y-72250000D01*
X68250001Y-72250000D01*
X68250000Y-72250001D01*
X67750000Y-72250001D01*
X67750000Y-68500001D01*
X68250000Y-68500001D01*
X68250000Y-71749999D01*
X68250001Y-71750000D01*
X69499998Y-71750000D01*
X69499999Y-71749999D01*
X69499999Y-69200013D01*
X69489507Y-69097312D01*
X69489504Y-69097300D01*
X69434356Y-68930875D01*
X69342319Y-68781659D01*
X69218340Y-68657680D01*
X69069124Y-68565643D01*
X68902693Y-68510493D01*
X68799987Y-68500000D01*
X68250001Y-68500000D01*
X68250000Y-68500001D01*
X67750000Y-68500001D01*
X67749999Y-68500000D01*
X67200013Y-68500000D01*
X67097312Y-68510492D01*
X67097300Y-68510495D01*
X66930875Y-68565643D01*
X66781659Y-68657680D01*
X66674504Y-68764836D01*
X66619987Y-68792613D01*
X66559555Y-68783042D01*
X66516290Y-68739777D01*
X66505500Y-68694832D01*
X66505500Y-64805168D01*
X66524407Y-64746977D01*
X66573907Y-64711013D01*
X66635093Y-64711013D01*
X66674504Y-64735164D01*
X66781659Y-64842319D01*
X66930875Y-64934356D01*
X67097306Y-64989506D01*
X67200012Y-64999999D01*
X67749998Y-64999999D01*
X67750000Y-64999998D01*
X67750000Y-63000001D01*
X68250000Y-63000001D01*
X68250000Y-64999998D01*
X68250001Y-64999999D01*
X68799986Y-64999999D01*
X68902687Y-64989507D01*
X68902699Y-64989504D01*
X69069124Y-64934356D01*
X69218340Y-64842319D01*
X69342319Y-64718340D01*
X69434356Y-64569124D01*
X69489506Y-64402693D01*
X69500000Y-64299987D01*
X69500000Y-63000001D01*
X69499999Y-63000000D01*
X68250001Y-63000000D01*
X68250000Y-63000001D01*
X67750000Y-63000001D01*
X67750000Y-60500001D01*
X68250000Y-60500001D01*
X68250000Y-62499999D01*
X68250001Y-62500000D01*
X69499998Y-62500000D01*
X69499999Y-62499999D01*
X69499999Y-61200013D01*
X69489507Y-61097312D01*
X69489504Y-61097300D01*
X69434356Y-60930875D01*
X69342319Y-60781659D01*
X69218340Y-60657680D01*
X69069124Y-60565643D01*
X68902693Y-60510493D01*
X68799987Y-60500000D01*
X68250001Y-60500000D01*
X68250000Y-60500001D01*
X67750000Y-60500001D01*
X67749999Y-60500000D01*
X67200013Y-60500000D01*
X67097312Y-60510492D01*
X67097300Y-60510495D01*
X66930875Y-60565643D01*
X66781659Y-60657680D01*
X66674504Y-60764836D01*
X66619987Y-60792613D01*
X66559555Y-60783042D01*
X66516290Y-60739777D01*
X66505500Y-60694832D01*
X66505500Y-60050030D01*
X66506847Y-60033755D01*
X67978720Y-51202517D01*
X68970806Y-45250001D01*
X70500001Y-45250001D01*
X70500001Y-46049986D01*
X70510492Y-46152687D01*
X70510495Y-46152699D01*
X70565643Y-46319124D01*
X70657680Y-46468340D01*
X70781659Y-46592319D01*
X70930875Y-46684356D01*
X71097306Y-46739506D01*
X71200012Y-46749999D01*
X72749998Y-46749999D01*
X72750000Y-46749998D01*
X72750000Y-45250001D01*
X73250000Y-45250001D01*
X73250000Y-46749998D01*
X73250001Y-46749999D01*
X74799986Y-46749999D01*
X74902687Y-46739507D01*
X74902699Y-46739504D01*
X75069124Y-46684356D01*
X75218340Y-46592319D01*
X75342319Y-46468340D01*
X75434356Y-46319124D01*
X75489506Y-46152693D01*
X75500000Y-46049987D01*
X75500000Y-45250001D01*
X75499999Y-45250000D01*
X73250001Y-45250000D01*
X73250000Y-45250001D01*
X72750000Y-45250001D01*
X72749999Y-45250000D01*
X70500002Y-45250000D01*
X70500001Y-45250001D01*
X68970806Y-45250001D01*
X69187471Y-43950012D01*
X70500000Y-43950012D01*
X70500000Y-44749999D01*
X70500001Y-44750000D01*
X72749999Y-44750000D01*
X72750000Y-44749999D01*
X72750000Y-43250001D01*
X73250000Y-43250001D01*
X73250000Y-44749999D01*
X73250001Y-44750000D01*
X75499998Y-44750000D01*
X75499999Y-44749999D01*
X75499999Y-43950013D01*
X75489507Y-43847312D01*
X75489504Y-43847300D01*
X75434356Y-43680875D01*
X75342319Y-43531659D01*
X75218340Y-43407680D01*
X75069124Y-43315643D01*
X74902693Y-43260493D01*
X74799987Y-43250000D01*
X73250001Y-43250000D01*
X73250000Y-43250001D01*
X72750000Y-43250001D01*
X72749999Y-43250000D01*
X71200013Y-43250000D01*
X71097312Y-43260492D01*
X71097300Y-43260495D01*
X70930875Y-43315643D01*
X70781659Y-43407680D01*
X70657680Y-43531659D01*
X70565643Y-43680875D01*
X70510493Y-43847306D01*
X70500000Y-43950012D01*
X69187471Y-43950012D01*
X69277860Y-43407680D01*
X69414436Y-42588224D01*
X69442653Y-42533934D01*
X69497392Y-42506597D01*
X69512089Y-42505500D01*
X77493513Y-42505500D01*
X77510043Y-42504959D01*
X77526575Y-42504418D01*
X77539497Y-42503571D01*
X77572416Y-42500328D01*
X77682469Y-42485839D01*
X77747319Y-42472940D01*
X77772283Y-42466251D01*
X77834897Y-42444996D01*
X77931403Y-42405022D01*
X77990703Y-42375779D01*
X78013085Y-42362857D01*
X78068070Y-42326118D01*
X78150944Y-42262526D01*
X78200655Y-42218929D01*
X78218929Y-42200655D01*
X78262526Y-42150944D01*
X78321960Y-42073488D01*
X78372383Y-42038835D01*
X78433547Y-42040437D01*
G37*
G04 #@! TD.AperFunction*
G04 #@! TA.AperFunction,Conductor*
G36*
X51708691Y-33419407D02*
G01*
X51744655Y-33468907D01*
X51749500Y-33499500D01*
X51749500Y-34577866D01*
X51749501Y-34577870D01*
X51755908Y-34637480D01*
X51755909Y-34637485D01*
X51806202Y-34772329D01*
X51809434Y-34776646D01*
X51892454Y-34887546D01*
X51892457Y-34887548D01*
X51892458Y-34887549D01*
X52007670Y-34973797D01*
X52142511Y-35024089D01*
X52142512Y-35024089D01*
X52142517Y-35024091D01*
X52202127Y-35030500D01*
X54807872Y-35030499D01*
X54867483Y-35024091D01*
X54934907Y-34998943D01*
X55002329Y-34973797D01*
X55002329Y-34973796D01*
X55002331Y-34973796D01*
X55100672Y-34900177D01*
X55158585Y-34880441D01*
X55217040Y-34898515D01*
X55219300Y-34900157D01*
X55289698Y-34952857D01*
X55317670Y-34973797D01*
X55452511Y-35024089D01*
X55452512Y-35024089D01*
X55452517Y-35024091D01*
X55512127Y-35030500D01*
X58117872Y-35030499D01*
X58177483Y-35024091D01*
X58244907Y-34998943D01*
X58312329Y-34973797D01*
X58312329Y-34973796D01*
X58312331Y-34973796D01*
X58427546Y-34887546D01*
X58513796Y-34772331D01*
X58564091Y-34637483D01*
X58570500Y-34577873D01*
X58570499Y-33499499D01*
X58589406Y-33441309D01*
X58638906Y-33405345D01*
X58669499Y-33400500D01*
X59395676Y-33400500D01*
X59453867Y-33419407D01*
X59489831Y-33468907D01*
X59494623Y-33502744D01*
X59494500Y-33506496D01*
X59494500Y-68395500D01*
X59475593Y-68453691D01*
X59426093Y-68489655D01*
X59395500Y-68494500D01*
X58524772Y-68494500D01*
X58505067Y-68494884D01*
X58501914Y-68495007D01*
X58501915Y-68495037D01*
X58501233Y-68495047D01*
X58501233Y-68495034D01*
X58500710Y-68495054D01*
X58500683Y-68495055D01*
X58497208Y-68495191D01*
X58496137Y-68495167D01*
X58493937Y-68495298D01*
X58491924Y-68495397D01*
X58475167Y-68496050D01*
X58475138Y-68496067D01*
X58463177Y-68497685D01*
X58462972Y-68497700D01*
X58394159Y-68515263D01*
X58394158Y-68515263D01*
X58391865Y-68515848D01*
X58350460Y-68524334D01*
X58350229Y-68524417D01*
X58350905Y-68526301D01*
X58325881Y-68532689D01*
X58325880Y-68532688D01*
X58323570Y-68533279D01*
X58323555Y-68533283D01*
X58309613Y-68539057D01*
X58305543Y-68540638D01*
X58291344Y-68545795D01*
X58264671Y-68556348D01*
X58264661Y-68556353D01*
X58261335Y-68558383D01*
X58250283Y-68564202D01*
X58240685Y-68568505D01*
X58240672Y-68568512D01*
X58203261Y-68593702D01*
X58199537Y-68596091D01*
X58141845Y-68631294D01*
X58137163Y-68635164D01*
X58080261Y-68657655D01*
X58021007Y-68642405D01*
X58019177Y-68641213D01*
X58013074Y-68637135D01*
X58009660Y-68635164D01*
X57990692Y-68624213D01*
X57931411Y-68594981D01*
X57931407Y-68594979D01*
X57850920Y-68561640D01*
X57834892Y-68555001D01*
X57772253Y-68533739D01*
X57747324Y-68527060D01*
X57747306Y-68527056D01*
X57682468Y-68514160D01*
X57682458Y-68514159D01*
X57572416Y-68499672D01*
X57539502Y-68496430D01*
X57526576Y-68495582D01*
X57495676Y-68494570D01*
X57493512Y-68494500D01*
X54506488Y-68494500D01*
X54504392Y-68494568D01*
X54473423Y-68495582D01*
X54460511Y-68496429D01*
X54427572Y-68499672D01*
X54317538Y-68514158D01*
X54317533Y-68514159D01*
X54252693Y-68527056D01*
X54227730Y-68533744D01*
X54165115Y-68554997D01*
X54068598Y-68594975D01*
X54009289Y-68624223D01*
X54009271Y-68624232D01*
X53986927Y-68637132D01*
X53986901Y-68637149D01*
X53931928Y-68673881D01*
X53931923Y-68673884D01*
X53849065Y-68737465D01*
X53849035Y-68737489D01*
X53799346Y-68781067D01*
X53781067Y-68799346D01*
X53737489Y-68849035D01*
X53737465Y-68849065D01*
X53673884Y-68931923D01*
X53673881Y-68931928D01*
X53637149Y-68986901D01*
X53637136Y-68986922D01*
X53634363Y-68991724D01*
X53588888Y-69032658D01*
X53528037Y-69039046D01*
X53519182Y-69036730D01*
X53502104Y-69031408D01*
X53431581Y-69025000D01*
X53425001Y-69025000D01*
X53425000Y-69025001D01*
X53425000Y-69901000D01*
X53406093Y-69959191D01*
X53356593Y-69995155D01*
X53326000Y-70000000D01*
X53024000Y-70000000D01*
X52965809Y-69981093D01*
X52929845Y-69931593D01*
X52925000Y-69901000D01*
X52925000Y-69025001D01*
X52924998Y-69024999D01*
X52918425Y-69025000D01*
X52847896Y-69031408D01*
X52847890Y-69031410D01*
X52685607Y-69081979D01*
X52685599Y-69081982D01*
X52540127Y-69169924D01*
X52419924Y-69290127D01*
X52328974Y-69440577D01*
X52282689Y-69480594D01*
X52221723Y-69485762D01*
X52174248Y-69459364D01*
X52000000Y-69285116D01*
X52000000Y-67988055D01*
X52007670Y-67993797D01*
X52142511Y-68044089D01*
X52142512Y-68044089D01*
X52142517Y-68044091D01*
X52202127Y-68050500D01*
X54807872Y-68050499D01*
X54867483Y-68044091D01*
X54934907Y-68018943D01*
X55002329Y-67993797D01*
X55002329Y-67993796D01*
X55002331Y-67993796D01*
X55100672Y-67920177D01*
X55158585Y-67900441D01*
X55217040Y-67918515D01*
X55219300Y-67920157D01*
X55289698Y-67972857D01*
X55317670Y-67993797D01*
X55452511Y-68044089D01*
X55452512Y-68044089D01*
X55452517Y-68044091D01*
X55512127Y-68050500D01*
X58117872Y-68050499D01*
X58177483Y-68044091D01*
X58244907Y-68018943D01*
X58312329Y-67993797D01*
X58312329Y-67993796D01*
X58312331Y-67993796D01*
X58427546Y-67907546D01*
X58513796Y-67792331D01*
X58564091Y-67657483D01*
X58570500Y-67597873D01*
X58570499Y-66502128D01*
X58564091Y-66442517D01*
X58518261Y-66319639D01*
X58513797Y-66307670D01*
X58427549Y-66192458D01*
X58427548Y-66192457D01*
X58427546Y-66192454D01*
X58410671Y-66179821D01*
X58312329Y-66106202D01*
X58177488Y-66055910D01*
X58177483Y-66055909D01*
X58177481Y-66055908D01*
X58177477Y-66055908D01*
X58146249Y-66052550D01*
X58117873Y-66049500D01*
X58117870Y-66049500D01*
X55512133Y-66049500D01*
X55512129Y-66049500D01*
X55512128Y-66049501D01*
X55504949Y-66050272D01*
X55452519Y-66055908D01*
X55452514Y-66055909D01*
X55317670Y-66106202D01*
X55219329Y-66179821D01*
X55161414Y-66199558D01*
X55102959Y-66181484D01*
X55100671Y-66179821D01*
X55002329Y-66106202D01*
X54867488Y-66055910D01*
X54867483Y-66055909D01*
X54867481Y-66055908D01*
X54867477Y-66055908D01*
X54836249Y-66052550D01*
X54807873Y-66049500D01*
X54807870Y-66049500D01*
X52202133Y-66049500D01*
X52202129Y-66049500D01*
X52202128Y-66049501D01*
X52194949Y-66050272D01*
X52142519Y-66055908D01*
X52142514Y-66055909D01*
X52007670Y-66106202D01*
X52000000Y-66111943D01*
X52000000Y-65448055D01*
X52007670Y-65453797D01*
X52142511Y-65504089D01*
X52142512Y-65504089D01*
X52142517Y-65504091D01*
X52202127Y-65510500D01*
X52777927Y-65510499D01*
X52777937Y-65510500D01*
X52789459Y-65510500D01*
X56925064Y-65510500D01*
X56925072Y-65510499D01*
X58117867Y-65510499D01*
X58117872Y-65510499D01*
X58177483Y-65504091D01*
X58288520Y-65462677D01*
X58312329Y-65453797D01*
X58312329Y-65453796D01*
X58312331Y-65453796D01*
X58427546Y-65367546D01*
X58513796Y-65252331D01*
X58564091Y-65117483D01*
X58570500Y-65057873D01*
X58570499Y-63962128D01*
X58564091Y-63902517D01*
X58534376Y-63822846D01*
X58513797Y-63767670D01*
X58427549Y-63652458D01*
X58427548Y-63652457D01*
X58427546Y-63652454D01*
X58417473Y-63644913D01*
X58312329Y-63566202D01*
X58177488Y-63515910D01*
X58177483Y-63515909D01*
X58177481Y-63515908D01*
X58177477Y-63515908D01*
X58146249Y-63512550D01*
X58117873Y-63509500D01*
X58117870Y-63509500D01*
X53343428Y-63509500D01*
X53285237Y-63490593D01*
X53273424Y-63480504D01*
X52932423Y-63139503D01*
X52904646Y-63084986D01*
X52914217Y-63024554D01*
X52957482Y-62981289D01*
X53002427Y-62970499D01*
X54807867Y-62970499D01*
X54807872Y-62970499D01*
X54867483Y-62964091D01*
X54934907Y-62938943D01*
X55002329Y-62913797D01*
X55002329Y-62913796D01*
X55002331Y-62913796D01*
X55100672Y-62840177D01*
X55158585Y-62820441D01*
X55217040Y-62838515D01*
X55219300Y-62840157D01*
X55278839Y-62884728D01*
X55317670Y-62913797D01*
X55452511Y-62964089D01*
X55452512Y-62964089D01*
X55452517Y-62964091D01*
X55512127Y-62970500D01*
X58117872Y-62970499D01*
X58177483Y-62964091D01*
X58244907Y-62938943D01*
X58312329Y-62913797D01*
X58312329Y-62913796D01*
X58312331Y-62913796D01*
X58427546Y-62827546D01*
X58513796Y-62712331D01*
X58525329Y-62681411D01*
X58564089Y-62577488D01*
X58564088Y-62577488D01*
X58564091Y-62577483D01*
X58570500Y-62517873D01*
X58570499Y-61422128D01*
X58564091Y-61362517D01*
X58560806Y-61353709D01*
X58513797Y-61227670D01*
X58427549Y-61112458D01*
X58427548Y-61112457D01*
X58427546Y-61112454D01*
X58407303Y-61097300D01*
X58312329Y-61026202D01*
X58177488Y-60975910D01*
X58177483Y-60975909D01*
X58177481Y-60975908D01*
X58177477Y-60975908D01*
X58146249Y-60972550D01*
X58117873Y-60969500D01*
X58117870Y-60969500D01*
X55512133Y-60969500D01*
X55512129Y-60969500D01*
X55512128Y-60969501D01*
X55504949Y-60970272D01*
X55452519Y-60975908D01*
X55452514Y-60975909D01*
X55317670Y-61026202D01*
X55219329Y-61099821D01*
X55161414Y-61119558D01*
X55102959Y-61101484D01*
X55100671Y-61099821D01*
X55002329Y-61026202D01*
X54867488Y-60975910D01*
X54867483Y-60975909D01*
X54867481Y-60975908D01*
X54867477Y-60975908D01*
X54836249Y-60972550D01*
X54807873Y-60969500D01*
X54807870Y-60969500D01*
X52648500Y-60969500D01*
X52590309Y-60950593D01*
X52554345Y-60901093D01*
X52549500Y-60870500D01*
X52549500Y-60529000D01*
X52568407Y-60470809D01*
X52617907Y-60434845D01*
X52648500Y-60430000D01*
X53254999Y-60430000D01*
X53255000Y-60429999D01*
X53255000Y-59680001D01*
X53755000Y-59680001D01*
X53755000Y-60429999D01*
X53755001Y-60430000D01*
X54807824Y-60430000D01*
X54867370Y-60423598D01*
X54867381Y-60423596D01*
X55002087Y-60373354D01*
X55100670Y-60299554D01*
X55158585Y-60279817D01*
X55217040Y-60297891D01*
X55219330Y-60299554D01*
X55317912Y-60373354D01*
X55452618Y-60423596D01*
X55452629Y-60423598D01*
X55512176Y-60430000D01*
X56564999Y-60430000D01*
X56565000Y-60429999D01*
X56565000Y-59680001D01*
X57065000Y-59680001D01*
X57065000Y-60429999D01*
X57065001Y-60430000D01*
X58117824Y-60430000D01*
X58177370Y-60423598D01*
X58177381Y-60423596D01*
X58312088Y-60373353D01*
X58312090Y-60373352D01*
X58427184Y-60287192D01*
X58427192Y-60287184D01*
X58513352Y-60172090D01*
X58513353Y-60172088D01*
X58563596Y-60037381D01*
X58563598Y-60037370D01*
X58570000Y-59977824D01*
X58570000Y-59680001D01*
X58569999Y-59680000D01*
X57065001Y-59680000D01*
X57065000Y-59680001D01*
X56565000Y-59680001D01*
X56564999Y-59680000D01*
X53755001Y-59680000D01*
X53755000Y-59680001D01*
X53255000Y-59680001D01*
X53255000Y-58430001D01*
X53755000Y-58430001D01*
X53755000Y-59179999D01*
X53755001Y-59180000D01*
X56564999Y-59180000D01*
X56565000Y-59179999D01*
X56565000Y-58430001D01*
X57065000Y-58430001D01*
X57065000Y-59179999D01*
X57065001Y-59180000D01*
X58569999Y-59180000D01*
X58570000Y-59179999D01*
X58570000Y-58882175D01*
X58563598Y-58822629D01*
X58563596Y-58822618D01*
X58513353Y-58687911D01*
X58513352Y-58687909D01*
X58427192Y-58572815D01*
X58427184Y-58572807D01*
X58312090Y-58486647D01*
X58312088Y-58486646D01*
X58177381Y-58436403D01*
X58177370Y-58436401D01*
X58117824Y-58430000D01*
X57065001Y-58430000D01*
X57065000Y-58430001D01*
X56565000Y-58430001D01*
X56564999Y-58430000D01*
X55512176Y-58430000D01*
X55452629Y-58436401D01*
X55452618Y-58436403D01*
X55317911Y-58486646D01*
X55317909Y-58486647D01*
X55219329Y-58560445D01*
X55161415Y-58580182D01*
X55102960Y-58562108D01*
X55100671Y-58560445D01*
X55002090Y-58486647D01*
X55002088Y-58486646D01*
X54867381Y-58436403D01*
X54867370Y-58436401D01*
X54807824Y-58430000D01*
X53755001Y-58430000D01*
X53755000Y-58430001D01*
X53255000Y-58430001D01*
X53254999Y-58430000D01*
X52648500Y-58430000D01*
X52590309Y-58411093D01*
X52554345Y-58361593D01*
X52549500Y-58331000D01*
X52549500Y-57989499D01*
X52568407Y-57931308D01*
X52617907Y-57895344D01*
X52648500Y-57890499D01*
X54807867Y-57890499D01*
X54807872Y-57890499D01*
X54867483Y-57884091D01*
X54934907Y-57858943D01*
X55002329Y-57833797D01*
X55002329Y-57833796D01*
X55002331Y-57833796D01*
X55100672Y-57760177D01*
X55158585Y-57740441D01*
X55217040Y-57758515D01*
X55219300Y-57760157D01*
X55289698Y-57812857D01*
X55317670Y-57833797D01*
X55452511Y-57884089D01*
X55452512Y-57884089D01*
X55452517Y-57884091D01*
X55512127Y-57890500D01*
X58117872Y-57890499D01*
X58177483Y-57884091D01*
X58244907Y-57858943D01*
X58312329Y-57833797D01*
X58312329Y-57833796D01*
X58312331Y-57833796D01*
X58427546Y-57747546D01*
X58513796Y-57632331D01*
X58564091Y-57497483D01*
X58570500Y-57437873D01*
X58570499Y-56342128D01*
X58564091Y-56282517D01*
X58564089Y-56282511D01*
X58513797Y-56147670D01*
X58427549Y-56032458D01*
X58427548Y-56032457D01*
X58427546Y-56032454D01*
X58410671Y-56019821D01*
X58312329Y-55946202D01*
X58177488Y-55895910D01*
X58177483Y-55895909D01*
X58177481Y-55895908D01*
X58177477Y-55895908D01*
X58146249Y-55892550D01*
X58117873Y-55889500D01*
X58117870Y-55889500D01*
X55512133Y-55889500D01*
X55512129Y-55889500D01*
X55512128Y-55889501D01*
X55504949Y-55890272D01*
X55452519Y-55895908D01*
X55452514Y-55895909D01*
X55317670Y-55946202D01*
X55219329Y-56019821D01*
X55161414Y-56039558D01*
X55102959Y-56021484D01*
X55100671Y-56019821D01*
X55002329Y-55946202D01*
X54867488Y-55895910D01*
X54867483Y-55895909D01*
X54867481Y-55895908D01*
X54867477Y-55895908D01*
X54836249Y-55892550D01*
X54807873Y-55889500D01*
X54807870Y-55889500D01*
X52202133Y-55889500D01*
X52202129Y-55889500D01*
X52202128Y-55889501D01*
X52194949Y-55890272D01*
X52142519Y-55895908D01*
X52142514Y-55895909D01*
X52007670Y-55946202D01*
X52000000Y-55951943D01*
X52000000Y-55288055D01*
X52007670Y-55293797D01*
X52142511Y-55344089D01*
X52142512Y-55344089D01*
X52142517Y-55344091D01*
X52202127Y-55350500D01*
X54807872Y-55350499D01*
X54867483Y-55344091D01*
X54934907Y-55318943D01*
X55002329Y-55293797D01*
X55002329Y-55293796D01*
X55002331Y-55293796D01*
X55100672Y-55220177D01*
X55158585Y-55200441D01*
X55217040Y-55218515D01*
X55219300Y-55220157D01*
X55289698Y-55272857D01*
X55317670Y-55293797D01*
X55452511Y-55344089D01*
X55452512Y-55344089D01*
X55452517Y-55344091D01*
X55512127Y-55350500D01*
X58117872Y-55350499D01*
X58177483Y-55344091D01*
X58244907Y-55318943D01*
X58312329Y-55293797D01*
X58312329Y-55293796D01*
X58312331Y-55293796D01*
X58427546Y-55207546D01*
X58513796Y-55092331D01*
X58529130Y-55051220D01*
X58564089Y-54957488D01*
X58564090Y-54957485D01*
X58564091Y-54957483D01*
X58570500Y-54897873D01*
X58570499Y-53802128D01*
X58564091Y-53742517D01*
X58564089Y-53742511D01*
X58513797Y-53607670D01*
X58427549Y-53492458D01*
X58427548Y-53492457D01*
X58427546Y-53492454D01*
X58410671Y-53479821D01*
X58312329Y-53406202D01*
X58177488Y-53355910D01*
X58177483Y-53355909D01*
X58177481Y-53355908D01*
X58177477Y-53355908D01*
X58146249Y-53352550D01*
X58117873Y-53349500D01*
X58117870Y-53349500D01*
X55512133Y-53349500D01*
X55512129Y-53349500D01*
X55512128Y-53349501D01*
X55504949Y-53350272D01*
X55452519Y-53355908D01*
X55452514Y-53355909D01*
X55317670Y-53406202D01*
X55219329Y-53479821D01*
X55161414Y-53499558D01*
X55102959Y-53481484D01*
X55100671Y-53479821D01*
X55002329Y-53406202D01*
X54867488Y-53355910D01*
X54867483Y-53355909D01*
X54867481Y-53355908D01*
X54867477Y-53355908D01*
X54836249Y-53352550D01*
X54807873Y-53349500D01*
X54807870Y-53349500D01*
X52202133Y-53349500D01*
X52202129Y-53349500D01*
X52202128Y-53349501D01*
X52194949Y-53350272D01*
X52142519Y-53355908D01*
X52142514Y-53355909D01*
X52007670Y-53406202D01*
X51892458Y-53492450D01*
X51892450Y-53492458D01*
X51806202Y-53607670D01*
X51755910Y-53742511D01*
X51755908Y-53742522D01*
X51749500Y-53802129D01*
X51749500Y-54897866D01*
X51749501Y-54897870D01*
X51755908Y-54957480D01*
X51755909Y-54957485D01*
X51771766Y-55000000D01*
X49914921Y-55000000D01*
X49826782Y-54911860D01*
X49826782Y-54911861D01*
X47079496Y-52164575D01*
X47051719Y-52110058D01*
X47050500Y-52094571D01*
X47050500Y-51262129D01*
X51749500Y-51262129D01*
X51749500Y-52357866D01*
X51749501Y-52357870D01*
X51755908Y-52417480D01*
X51755909Y-52417485D01*
X51806202Y-52552329D01*
X51849999Y-52610834D01*
X51892454Y-52667546D01*
X51892457Y-52667548D01*
X51892458Y-52667549D01*
X52007670Y-52753797D01*
X52142511Y-52804089D01*
X52142512Y-52804089D01*
X52142517Y-52804091D01*
X52202127Y-52810500D01*
X54807872Y-52810499D01*
X54867483Y-52804091D01*
X54934907Y-52778943D01*
X55002329Y-52753797D01*
X55002329Y-52753796D01*
X55002331Y-52753796D01*
X55100672Y-52680177D01*
X55158585Y-52660441D01*
X55217040Y-52678515D01*
X55219300Y-52680157D01*
X55289698Y-52732857D01*
X55317670Y-52753797D01*
X55452511Y-52804089D01*
X55452512Y-52804089D01*
X55452517Y-52804091D01*
X55512127Y-52810500D01*
X58117872Y-52810499D01*
X58177483Y-52804091D01*
X58244907Y-52778943D01*
X58312329Y-52753797D01*
X58312329Y-52753796D01*
X58312331Y-52753796D01*
X58427546Y-52667546D01*
X58513796Y-52552331D01*
X58564091Y-52417483D01*
X58570500Y-52357873D01*
X58570499Y-51262128D01*
X58564091Y-51202517D01*
X58564089Y-51202511D01*
X58513797Y-51067670D01*
X58427549Y-50952458D01*
X58427548Y-50952457D01*
X58427546Y-50952454D01*
X58410671Y-50939821D01*
X58312329Y-50866202D01*
X58177488Y-50815910D01*
X58177483Y-50815909D01*
X58177481Y-50815908D01*
X58177477Y-50815908D01*
X58146249Y-50812550D01*
X58117873Y-50809500D01*
X58117870Y-50809500D01*
X55512133Y-50809500D01*
X55512129Y-50809500D01*
X55512128Y-50809501D01*
X55504949Y-50810272D01*
X55452519Y-50815908D01*
X55452514Y-50815909D01*
X55317670Y-50866202D01*
X55219329Y-50939821D01*
X55161414Y-50959558D01*
X55102959Y-50941484D01*
X55100671Y-50939821D01*
X55002329Y-50866202D01*
X54867488Y-50815910D01*
X54867483Y-50815909D01*
X54867481Y-50815908D01*
X54867477Y-50815908D01*
X54836249Y-50812550D01*
X54807873Y-50809500D01*
X54807870Y-50809500D01*
X52202133Y-50809500D01*
X52202129Y-50809500D01*
X52202128Y-50809501D01*
X52194949Y-50810272D01*
X52142519Y-50815908D01*
X52142514Y-50815909D01*
X52007670Y-50866202D01*
X51892458Y-50952450D01*
X51892450Y-50952458D01*
X51806202Y-51067670D01*
X51755910Y-51202511D01*
X51755908Y-51202522D01*
X51749500Y-51262129D01*
X47050500Y-51262129D01*
X47050500Y-48722129D01*
X51749500Y-48722129D01*
X51749500Y-49817866D01*
X51749501Y-49817870D01*
X51755908Y-49877480D01*
X51755909Y-49877485D01*
X51806202Y-50012329D01*
X51849999Y-50070834D01*
X51892454Y-50127546D01*
X51892457Y-50127548D01*
X51892458Y-50127549D01*
X52007670Y-50213797D01*
X52142511Y-50264089D01*
X52142512Y-50264089D01*
X52142517Y-50264091D01*
X52202127Y-50270500D01*
X54807872Y-50270499D01*
X54867483Y-50264091D01*
X54934907Y-50238943D01*
X55002329Y-50213797D01*
X55002329Y-50213796D01*
X55002331Y-50213796D01*
X55100672Y-50140177D01*
X55158585Y-50120441D01*
X55217040Y-50138515D01*
X55219300Y-50140157D01*
X55289698Y-50192857D01*
X55317670Y-50213797D01*
X55452511Y-50264089D01*
X55452512Y-50264089D01*
X55452517Y-50264091D01*
X55512127Y-50270500D01*
X58117872Y-50270499D01*
X58177483Y-50264091D01*
X58244907Y-50238943D01*
X58312329Y-50213797D01*
X58312329Y-50213796D01*
X58312331Y-50213796D01*
X58427546Y-50127546D01*
X58513796Y-50012331D01*
X58564091Y-49877483D01*
X58570500Y-49817873D01*
X58570499Y-48722128D01*
X58564091Y-48662517D01*
X58564089Y-48662511D01*
X58513797Y-48527670D01*
X58427549Y-48412458D01*
X58427548Y-48412457D01*
X58427546Y-48412454D01*
X58410671Y-48399821D01*
X58312329Y-48326202D01*
X58177488Y-48275910D01*
X58177483Y-48275909D01*
X58177481Y-48275908D01*
X58177477Y-48275908D01*
X58146249Y-48272550D01*
X58117873Y-48269500D01*
X58117870Y-48269500D01*
X55512133Y-48269500D01*
X55512129Y-48269500D01*
X55512128Y-48269501D01*
X55504949Y-48270272D01*
X55452519Y-48275908D01*
X55452514Y-48275909D01*
X55317670Y-48326202D01*
X55219329Y-48399821D01*
X55161414Y-48419558D01*
X55102959Y-48401484D01*
X55100671Y-48399821D01*
X55002329Y-48326202D01*
X54867488Y-48275910D01*
X54867483Y-48275909D01*
X54867481Y-48275908D01*
X54867477Y-48275908D01*
X54836249Y-48272550D01*
X54807873Y-48269500D01*
X54807870Y-48269500D01*
X52202133Y-48269500D01*
X52202129Y-48269500D01*
X52202128Y-48269501D01*
X52194949Y-48270272D01*
X52142519Y-48275908D01*
X52142514Y-48275909D01*
X52007670Y-48326202D01*
X51892458Y-48412450D01*
X51892450Y-48412458D01*
X51806202Y-48527670D01*
X51755910Y-48662511D01*
X51755908Y-48662522D01*
X51749500Y-48722129D01*
X47050500Y-48722129D01*
X47050500Y-46182129D01*
X51749500Y-46182129D01*
X51749500Y-47277866D01*
X51749501Y-47277870D01*
X51755908Y-47337480D01*
X51755909Y-47337485D01*
X51806202Y-47472329D01*
X51849999Y-47530834D01*
X51892454Y-47587546D01*
X51892457Y-47587548D01*
X51892458Y-47587549D01*
X52007670Y-47673797D01*
X52142511Y-47724089D01*
X52142512Y-47724089D01*
X52142517Y-47724091D01*
X52202127Y-47730500D01*
X54807872Y-47730499D01*
X54867483Y-47724091D01*
X54934907Y-47698943D01*
X55002329Y-47673797D01*
X55002329Y-47673796D01*
X55002331Y-47673796D01*
X55100672Y-47600177D01*
X55158585Y-47580441D01*
X55217040Y-47598515D01*
X55219300Y-47600157D01*
X55289698Y-47652857D01*
X55317670Y-47673797D01*
X55452511Y-47724089D01*
X55452512Y-47724089D01*
X55452517Y-47724091D01*
X55512127Y-47730500D01*
X58117872Y-47730499D01*
X58177483Y-47724091D01*
X58244907Y-47698943D01*
X58312329Y-47673797D01*
X58312329Y-47673796D01*
X58312331Y-47673796D01*
X58427546Y-47587546D01*
X58513796Y-47472331D01*
X58564091Y-47337483D01*
X58570500Y-47277873D01*
X58570499Y-46182128D01*
X58564091Y-46122517D01*
X58527434Y-46024234D01*
X58513797Y-45987670D01*
X58427549Y-45872458D01*
X58427548Y-45872457D01*
X58427546Y-45872454D01*
X58410671Y-45859821D01*
X58312329Y-45786202D01*
X58177488Y-45735910D01*
X58177483Y-45735909D01*
X58177481Y-45735908D01*
X58177477Y-45735908D01*
X58146249Y-45732550D01*
X58117873Y-45729500D01*
X58117870Y-45729500D01*
X55512133Y-45729500D01*
X55512129Y-45729500D01*
X55512128Y-45729501D01*
X55504949Y-45730272D01*
X55452519Y-45735908D01*
X55452514Y-45735909D01*
X55317670Y-45786202D01*
X55219329Y-45859821D01*
X55161414Y-45879558D01*
X55102959Y-45861484D01*
X55100671Y-45859821D01*
X55002329Y-45786202D01*
X54867488Y-45735910D01*
X54867483Y-45735909D01*
X54867481Y-45735908D01*
X54867477Y-45735908D01*
X54836249Y-45732550D01*
X54807873Y-45729500D01*
X54807870Y-45729500D01*
X52202133Y-45729500D01*
X52202129Y-45729500D01*
X52202128Y-45729501D01*
X52194949Y-45730272D01*
X52142519Y-45735908D01*
X52142514Y-45735909D01*
X52007670Y-45786202D01*
X51892458Y-45872450D01*
X51892450Y-45872458D01*
X51806202Y-45987670D01*
X51755910Y-46122511D01*
X51755908Y-46122522D01*
X51749500Y-46182129D01*
X47050500Y-46182129D01*
X47050500Y-43642129D01*
X51749500Y-43642129D01*
X51749500Y-44737866D01*
X51749501Y-44737870D01*
X51755908Y-44797480D01*
X51755909Y-44797485D01*
X51806202Y-44932329D01*
X51849999Y-44990834D01*
X51892454Y-45047546D01*
X51892457Y-45047548D01*
X51892458Y-45047549D01*
X52007670Y-45133797D01*
X52142511Y-45184089D01*
X52142512Y-45184089D01*
X52142517Y-45184091D01*
X52202127Y-45190500D01*
X54807872Y-45190499D01*
X54867483Y-45184091D01*
X54934907Y-45158943D01*
X55002329Y-45133797D01*
X55002329Y-45133796D01*
X55002331Y-45133796D01*
X55100672Y-45060177D01*
X55158585Y-45040441D01*
X55217040Y-45058515D01*
X55219300Y-45060157D01*
X55289698Y-45112857D01*
X55317670Y-45133797D01*
X55452511Y-45184089D01*
X55452512Y-45184089D01*
X55452517Y-45184091D01*
X55512127Y-45190500D01*
X58117872Y-45190499D01*
X58177483Y-45184091D01*
X58244907Y-45158943D01*
X58312329Y-45133797D01*
X58312329Y-45133796D01*
X58312331Y-45133796D01*
X58427546Y-45047546D01*
X58513796Y-44932331D01*
X58564091Y-44797483D01*
X58570500Y-44737873D01*
X58570499Y-43642128D01*
X58564091Y-43582517D01*
X58564089Y-43582511D01*
X58513797Y-43447670D01*
X58427549Y-43332458D01*
X58427548Y-43332457D01*
X58427546Y-43332454D01*
X58410671Y-43319821D01*
X58312329Y-43246202D01*
X58177488Y-43195910D01*
X58177483Y-43195909D01*
X58177481Y-43195908D01*
X58177477Y-43195908D01*
X58146249Y-43192550D01*
X58117873Y-43189500D01*
X58117870Y-43189500D01*
X55512133Y-43189500D01*
X55512129Y-43189500D01*
X55512128Y-43189501D01*
X55504949Y-43190272D01*
X55452519Y-43195908D01*
X55452514Y-43195909D01*
X55317670Y-43246202D01*
X55219329Y-43319821D01*
X55161414Y-43339558D01*
X55102959Y-43321484D01*
X55100671Y-43319821D01*
X55002329Y-43246202D01*
X54867488Y-43195910D01*
X54867483Y-43195909D01*
X54867481Y-43195908D01*
X54867477Y-43195908D01*
X54836249Y-43192550D01*
X54807873Y-43189500D01*
X54807870Y-43189500D01*
X52202133Y-43189500D01*
X52202129Y-43189500D01*
X52202128Y-43189501D01*
X52194949Y-43190272D01*
X52142519Y-43195908D01*
X52142514Y-43195909D01*
X52007670Y-43246202D01*
X51892458Y-43332450D01*
X51892450Y-43332458D01*
X51806202Y-43447670D01*
X51755910Y-43582511D01*
X51755908Y-43582522D01*
X51749500Y-43642129D01*
X47050500Y-43642129D01*
X47050500Y-41102129D01*
X51749500Y-41102129D01*
X51749500Y-42197866D01*
X51749501Y-42197870D01*
X51755908Y-42257480D01*
X51755909Y-42257485D01*
X51806202Y-42392329D01*
X51892450Y-42507541D01*
X51892454Y-42507546D01*
X51892457Y-42507548D01*
X51892458Y-42507549D01*
X52007670Y-42593797D01*
X52142511Y-42644089D01*
X52142512Y-42644089D01*
X52142517Y-42644091D01*
X52202127Y-42650500D01*
X54807872Y-42650499D01*
X54867483Y-42644091D01*
X54934907Y-42618943D01*
X55002329Y-42593797D01*
X55002329Y-42593796D01*
X55002331Y-42593796D01*
X55100672Y-42520177D01*
X55158585Y-42500441D01*
X55217040Y-42518515D01*
X55219300Y-42520157D01*
X55237704Y-42533934D01*
X55317670Y-42593797D01*
X55452511Y-42644089D01*
X55452512Y-42644089D01*
X55452517Y-42644091D01*
X55512127Y-42650500D01*
X58117872Y-42650499D01*
X58177483Y-42644091D01*
X58244907Y-42618943D01*
X58312329Y-42593797D01*
X58312329Y-42593796D01*
X58312331Y-42593796D01*
X58427546Y-42507546D01*
X58513796Y-42392331D01*
X58519970Y-42375779D01*
X58564089Y-42257488D01*
X58564090Y-42257485D01*
X58564091Y-42257483D01*
X58570500Y-42197873D01*
X58570499Y-41102128D01*
X58564091Y-41042517D01*
X58564089Y-41042511D01*
X58513797Y-40907670D01*
X58427549Y-40792458D01*
X58427548Y-40792457D01*
X58427546Y-40792454D01*
X58410671Y-40779821D01*
X58312329Y-40706202D01*
X58177488Y-40655910D01*
X58177483Y-40655909D01*
X58177481Y-40655908D01*
X58177477Y-40655908D01*
X58146249Y-40652550D01*
X58117873Y-40649500D01*
X58117870Y-40649500D01*
X55512133Y-40649500D01*
X55512129Y-40649500D01*
X55512128Y-40649501D01*
X55504949Y-40650272D01*
X55452519Y-40655908D01*
X55452514Y-40655909D01*
X55317670Y-40706202D01*
X55219329Y-40779821D01*
X55161414Y-40799558D01*
X55102959Y-40781484D01*
X55100671Y-40779821D01*
X55002329Y-40706202D01*
X54867488Y-40655910D01*
X54867483Y-40655909D01*
X54867481Y-40655908D01*
X54867477Y-40655908D01*
X54836249Y-40652550D01*
X54807873Y-40649500D01*
X54807870Y-40649500D01*
X52202133Y-40649500D01*
X52202129Y-40649500D01*
X52202128Y-40649501D01*
X52194949Y-40650272D01*
X52142519Y-40655908D01*
X52142514Y-40655909D01*
X52007670Y-40706202D01*
X51892458Y-40792450D01*
X51892450Y-40792458D01*
X51806202Y-40907670D01*
X51755910Y-41042511D01*
X51755908Y-41042522D01*
X51749500Y-41102129D01*
X47050500Y-41102129D01*
X47050500Y-38562129D01*
X51749500Y-38562129D01*
X51749500Y-39657866D01*
X51749501Y-39657870D01*
X51755908Y-39717480D01*
X51755909Y-39717485D01*
X51806202Y-39852329D01*
X51849999Y-39910834D01*
X51892454Y-39967546D01*
X51892457Y-39967548D01*
X51892458Y-39967549D01*
X52007670Y-40053797D01*
X52142511Y-40104089D01*
X52142512Y-40104089D01*
X52142517Y-40104091D01*
X52202127Y-40110500D01*
X54807872Y-40110499D01*
X54867483Y-40104091D01*
X54934907Y-40078943D01*
X55002329Y-40053797D01*
X55002329Y-40053796D01*
X55002331Y-40053796D01*
X55100672Y-39980177D01*
X55158585Y-39960441D01*
X55217040Y-39978515D01*
X55219300Y-39980157D01*
X55289698Y-40032857D01*
X55317670Y-40053797D01*
X55452511Y-40104089D01*
X55452512Y-40104089D01*
X55452517Y-40104091D01*
X55512127Y-40110500D01*
X58117872Y-40110499D01*
X58177483Y-40104091D01*
X58244907Y-40078943D01*
X58312329Y-40053797D01*
X58312329Y-40053796D01*
X58312331Y-40053796D01*
X58427546Y-39967546D01*
X58513796Y-39852331D01*
X58564091Y-39717483D01*
X58570500Y-39657873D01*
X58570499Y-38562128D01*
X58564091Y-38502517D01*
X58514187Y-38368716D01*
X58513797Y-38367670D01*
X58427549Y-38252458D01*
X58427548Y-38252457D01*
X58427546Y-38252454D01*
X58427541Y-38252450D01*
X58312329Y-38166202D01*
X58177488Y-38115910D01*
X58177483Y-38115909D01*
X58177481Y-38115908D01*
X58177477Y-38115908D01*
X58146249Y-38112550D01*
X58117873Y-38109500D01*
X58117870Y-38109500D01*
X55512133Y-38109500D01*
X55512129Y-38109500D01*
X55512128Y-38109501D01*
X55504949Y-38110272D01*
X55452519Y-38115908D01*
X55452514Y-38115909D01*
X55317670Y-38166202D01*
X55219329Y-38239821D01*
X55161414Y-38259558D01*
X55102959Y-38241484D01*
X55100671Y-38239821D01*
X55002329Y-38166202D01*
X54867488Y-38115910D01*
X54867483Y-38115909D01*
X54867481Y-38115908D01*
X54867477Y-38115908D01*
X54836249Y-38112550D01*
X54807873Y-38109500D01*
X54807870Y-38109500D01*
X52202133Y-38109500D01*
X52202129Y-38109500D01*
X52202128Y-38109501D01*
X52194949Y-38110272D01*
X52142519Y-38115908D01*
X52142514Y-38115909D01*
X52007670Y-38166202D01*
X51892458Y-38252450D01*
X51892450Y-38252458D01*
X51806202Y-38367670D01*
X51755910Y-38502511D01*
X51755908Y-38502522D01*
X51749500Y-38562129D01*
X47050500Y-38562129D01*
X47050500Y-36401460D01*
X47050499Y-36401456D01*
X47017779Y-36236965D01*
X47012051Y-36208165D01*
X47012050Y-36208163D01*
X47011671Y-36206256D01*
X47018863Y-36145495D01*
X47060395Y-36100565D01*
X47120405Y-36088628D01*
X47121538Y-36088769D01*
X47210639Y-36100500D01*
X47489360Y-36100499D01*
X47606762Y-36085044D01*
X47637112Y-36072471D01*
X47698108Y-36067670D01*
X47712881Y-36072469D01*
X47743238Y-36085044D01*
X47860639Y-36100500D01*
X48139360Y-36100499D01*
X48256762Y-36085044D01*
X48287112Y-36072471D01*
X48348108Y-36067670D01*
X48362881Y-36072469D01*
X48393238Y-36085044D01*
X48510639Y-36100500D01*
X48789360Y-36100499D01*
X48906762Y-36085044D01*
X48937113Y-36072471D01*
X48994383Y-36066851D01*
X49003909Y-36068753D01*
X49043238Y-36085044D01*
X49160639Y-36100500D01*
X49162913Y-36100499D01*
X49170416Y-36101998D01*
X49191411Y-36113776D01*
X49213826Y-36122545D01*
X49217628Y-36128483D01*
X49223778Y-36131933D01*
X49233838Y-36153796D01*
X49246821Y-36174071D01*
X49246406Y-36181111D01*
X49249354Y-36187517D01*
X49244641Y-36211118D01*
X49243228Y-36235151D01*
X49242497Y-36236965D01*
X49230263Y-36266501D01*
X49230263Y-36266503D01*
X49199500Y-36421155D01*
X49199500Y-36578844D01*
X49230263Y-36733496D01*
X49230263Y-36733498D01*
X49290603Y-36879174D01*
X49290609Y-36879185D01*
X49313094Y-36912835D01*
X49378211Y-37010289D01*
X49489711Y-37121789D01*
X49535187Y-37152175D01*
X49620814Y-37209390D01*
X49620825Y-37209396D01*
X49674638Y-37231685D01*
X49766503Y-37269737D01*
X49921158Y-37300500D01*
X49921159Y-37300500D01*
X50078841Y-37300500D01*
X50078842Y-37300500D01*
X50233497Y-37269737D01*
X50379179Y-37209394D01*
X50510289Y-37121789D01*
X50621789Y-37010289D01*
X50709394Y-36879179D01*
X50769737Y-36733497D01*
X50800500Y-36578842D01*
X50800500Y-36421158D01*
X50769737Y-36266503D01*
X50709394Y-36120821D01*
X50709390Y-36120813D01*
X50678576Y-36074698D01*
X50678500Y-36074585D01*
X50643450Y-36022129D01*
X51749500Y-36022129D01*
X51749500Y-37117866D01*
X51749501Y-37117870D01*
X51755908Y-37177480D01*
X51755909Y-37177485D01*
X51806202Y-37312329D01*
X51849999Y-37370834D01*
X51892454Y-37427546D01*
X51892457Y-37427548D01*
X51892458Y-37427549D01*
X52007670Y-37513797D01*
X52142511Y-37564089D01*
X52142512Y-37564089D01*
X52142517Y-37564091D01*
X52202127Y-37570500D01*
X54807872Y-37570499D01*
X54867483Y-37564091D01*
X54934907Y-37538943D01*
X55002329Y-37513797D01*
X55002329Y-37513796D01*
X55002331Y-37513796D01*
X55100672Y-37440177D01*
X55158585Y-37420441D01*
X55217040Y-37438515D01*
X55219300Y-37440157D01*
X55289698Y-37492857D01*
X55317670Y-37513797D01*
X55452511Y-37564089D01*
X55452512Y-37564089D01*
X55452517Y-37564091D01*
X55512127Y-37570500D01*
X58117872Y-37570499D01*
X58177483Y-37564091D01*
X58244907Y-37538943D01*
X58312329Y-37513797D01*
X58312329Y-37513796D01*
X58312331Y-37513796D01*
X58427546Y-37427546D01*
X58513796Y-37312331D01*
X58564091Y-37177483D01*
X58570500Y-37117873D01*
X58570499Y-36022128D01*
X58564091Y-35962517D01*
X58564089Y-35962511D01*
X58513797Y-35827670D01*
X58427549Y-35712458D01*
X58427548Y-35712457D01*
X58427546Y-35712454D01*
X58353153Y-35656763D01*
X58312329Y-35626202D01*
X58177488Y-35575910D01*
X58177483Y-35575909D01*
X58177481Y-35575908D01*
X58177477Y-35575908D01*
X58146249Y-35572550D01*
X58117873Y-35569500D01*
X58117870Y-35569500D01*
X55512133Y-35569500D01*
X55512129Y-35569500D01*
X55512128Y-35569501D01*
X55504949Y-35570272D01*
X55452519Y-35575908D01*
X55452514Y-35575909D01*
X55317670Y-35626202D01*
X55219329Y-35699821D01*
X55161414Y-35719558D01*
X55102959Y-35701484D01*
X55100671Y-35699821D01*
X55002329Y-35626202D01*
X54867488Y-35575910D01*
X54867483Y-35575909D01*
X54867481Y-35575908D01*
X54867477Y-35575908D01*
X54836249Y-35572550D01*
X54807873Y-35569500D01*
X54807870Y-35569500D01*
X52202133Y-35569500D01*
X52202129Y-35569500D01*
X52202128Y-35569501D01*
X52194949Y-35570272D01*
X52142519Y-35575908D01*
X52142514Y-35575909D01*
X52007670Y-35626202D01*
X51892458Y-35712450D01*
X51892450Y-35712458D01*
X51806202Y-35827670D01*
X51755910Y-35962511D01*
X51755908Y-35962522D01*
X51749500Y-36022129D01*
X50643450Y-36022129D01*
X50621789Y-35989711D01*
X50620785Y-35988707D01*
X50617332Y-35983569D01*
X50610177Y-35958459D01*
X50600670Y-35934146D01*
X50600500Y-35928347D01*
X50600500Y-35759850D01*
X50608036Y-35721964D01*
X50609033Y-35719558D01*
X50635044Y-35656762D01*
X50650500Y-35539361D01*
X50650499Y-34185640D01*
X50635044Y-34068238D01*
X50574536Y-33922159D01*
X50574534Y-33922156D01*
X50565592Y-33910502D01*
X50545168Y-33852826D01*
X50562546Y-33794160D01*
X50574125Y-33780237D01*
X50924868Y-33429496D01*
X50979384Y-33401719D01*
X50994871Y-33400500D01*
X51650500Y-33400500D01*
X51708691Y-33419407D01*
G37*
G04 #@! TD.AperFunction*
G04 #@! TD*
M02*
