M48
; DRILL file {KiCad 9.0.6} date 2025-12-23T18:25:36-0500
; FORMAT={-:-/ absolute / metric / decimal}
; #@! TF.CreationDate,2025-12-23T18:25:36-05:00
; #@! TF.GenerationSoftware,Kicad,Pcbnew,9.0.6
; #@! TF.FileFunction,MixedPlating,1,2
FMAT,2
METRIC
; #@! TA.AperFunction,Plated,PTH,ViaDrill
T1C0.300
; #@! TA.AperFunction,Plated,PTH,ComponentDrill
T2C1.000
; #@! TA.AperFunction,Plated,PTH,ComponentDrill
T3C2.700
%
G90
G05
T1
X22.5Y-30.0
X22.5Y-38.0
X39.0Y-72.25
X43.275Y-57.0
X43.5Y-72.5
X43.75Y-66.5
X43.75Y-69.75
X45.25Y-29.0
X45.5Y-65.75
X46.25Y-70.75
X47.5Y-58.5
X47.5Y-59.25
X47.5Y-60.0
X47.5Y-61.75
X47.5Y-62.5
X47.5Y-63.25
X47.5Y-64.25
X48.25Y-64.25
X49.0Y-64.25
X50.0Y-36.5
X53.0Y-58.25
X53.2Y-69.0
X57.25Y-58.25
X61.5Y-26.25
X61.5Y-27.0
X61.5Y-27.75
X67.25Y-60.5
X67.25Y-75.5
X68.0Y-60.5
X68.0Y-75.5
X68.701Y-60.512
X68.75Y-75.5
X75.5Y-44.0
X75.5Y-45.0
X75.5Y-46.0
X76.5Y-26.25
X76.5Y-27.0
X76.5Y-27.75
T2
X26.0Y-58.92
X26.0Y-61.46
X26.0Y-64.0
T3
X24.0Y-24.0
X24.0Y-74.0
X76.0Y-74.0
M30
